<?xml version="1.0" standalone="no"?>
<!DOCTYPE svg PUBLIC "-//W3C//DTD SVG 1.1//EN" "http://www.w3.org/Graphics/SVG/1.1/DTD/svg11.dtd" >
<svg xmlns="http://www.w3.org/2000/svg" xmlns:xlink="http://www.w3.org/1999/xlink" version="1.1">
<metadata>
Created by FontForge 20170731 at Thu Nov 18 12:15:04 2021
 By Aleksey,,,
Copyright (c) 2013 by Type Dynamic. All rights reserved.
</metadata>
<defs>
<font id="Larsseit-Medium" horiz-adv-x="524" >
  <font-face 
    font-family="Larsseit Medium"
    font-weight="500"
    font-stretch="normal"
    units-per-em="2048"
    panose-1="0 0 0 0 0 0 0 0 0 0"
    ascent="1638"
    descent="-410"
    x-height="1036"
    cap-height="1434"
    bbox="-387 -590 6294 2019"
    underline-thickness="102"
    underline-position="-307"
    unicode-range="U+0020-FB01"
  />
<missing-glyph horiz-adv-x="1216" 
d="M127 0v1434h963v-1434h-963zM606 821l307 492h-616zM971 244v930l-297 -465zM905 121l-299 475l-301 -475h600zM535 709l-287 454v-909z" />
    <glyph glyph-name="fi" unicode="fi" horiz-adv-x="1212" 
d="M537 1516q69 0 127 -23v-195q-64 23 -117 23q-121 0 -121 -156v-129h238v-198h-238v-838h-219v838h-182v198h182v135q0 166 85.5 255.5t244.5 89.5zM840 1036h217v-1036h-217v1036zM809 1346q0 60 39.5 99.5t99.5 39.5t101 -41t41 -98t-41 -96.5t-101 -39.5t-99.5 39.5
t-39.5 96.5z" />
    <glyph glyph-name="f_j" unicode="fj" horiz-adv-x="1212" 
d="M537 1516q69 0 127 -23v-195q-64 23 -117 23q-121 0 -121 -156v-129h238v-198h-238v-838h-219v838h-182v198h182v135q0 166 85.5 255.5t244.5 89.5zM840 1036h217v-1118q0 -381 -328 -381q-92 0 -151 19v196q56 -16 114 -16q78 0 113 46t35 142v1112zM809 1346
q0 60 39.5 99.5t99.5 39.5t101 -41t41 -98t-41 -96.5t-101 -39.5t-99.5 39.5t-39.5 96.5z" />
    <glyph glyph-name=".notdef" horiz-adv-x="1216" 
d="M127 0v1434h963v-1434h-963zM606 821l307 492h-616zM971 244v930l-297 -465zM905 121l-299 475l-301 -475h600zM535 709l-287 454v-909z" />
    <glyph glyph-name=".null" horiz-adv-x="0" 
 />
    <glyph glyph-name="nonmarkingreturn" horiz-adv-x="682" 
 />
    <glyph glyph-name="space" unicode=" " horiz-adv-x="413" 
 />
    <glyph glyph-name="exclam" unicode="!" 
d="M154 1434h217v-1012h-217v1012zM158 221q43 41 104.5 41t104.5 -41q43 -38 43 -100t-43 -103t-104.5 -41t-104.5 41q-41 41 -41 103t41 100z" />
    <glyph glyph-name="quotedbl" unicode="&#x22;" horiz-adv-x="679" 
d="M72 1491h204l-47 -438h-141zM416 1491h205l-48 -438h-141z" />
    <glyph glyph-name="numbersign" unicode="#" horiz-adv-x="1366" 
d="M1014 547h227v-203h-264l-59 -344h-218l60 344h-293l-59 -344h-218l60 344h-219v203h256l65 377h-227v202h264l53 308h217l-53 -308h293l53 308h217l-53 -308h219v-202h-256zM862 924h-293l-65 -377h293z" />
    <glyph glyph-name="dollar" unicode="$" horiz-adv-x="1132" 
d="M492 1647h165v-193q157 -25 245 -129.5t95 -280.5h-233q-1 99 -57.5 155t-149.5 56q-91 0 -143 -50t-52 -138q0 -87 58 -133q57 -45 213 -105q222 -76 315 -176q94 -94 94 -256q0 -175 -104.5 -285.5t-280.5 -131.5v-193h-165v193q-188 23 -290.5 142t-107.5 308h232
q5 -123 71 -188.5t187 -65.5q107 0 167 55.5t60 149.5q0 81 -63 133t-218 104q-202 69 -303 166q-96 96 -96 265q0 163 97.5 275t263.5 132v191z" />
    <glyph glyph-name="percent" unicode="%" horiz-adv-x="1765" 
d="M1176 1434h233l-819 -1434h-234zM410 1460q147 0 249 -102q101 -101 101 -258q0 -155 -101 -256q-103 -103 -249 -103q-153 0 -254 101t-101 258t101 258q102 102 254 102zM236 1100q0 -80 49.5 -133.5t122.5 -53.5t121.5 53.5t48.5 133.5q0 82 -47.5 135t-122.5 53
t-123.5 -53t-48.5 -135zM1360 692q149 0 250 -104q102 -102 102 -258q0 -154 -102 -256q-101 -101 -250 -101q-153 0 -254 101q-100 100 -100 256q0 158 100 258q101 104 254 104zM1360 520q-75 0 -124.5 -54t-49.5 -134t49.5 -133.5t124.5 -53.5q73 0 121.5 53.5
t48.5 133.5t-48.5 134t-121.5 54z" />
    <glyph glyph-name="ampersand" unicode="&#x26;" horiz-adv-x="1343" 
d="M578 1460q169 0 278 -92t109 -248q0 -149 -88 -237q-45 -45 -83.5 -73.5t-105.5 -66.5l-4 -2l260 -282l12 55q21 118 0 231l211 11q21 -135 2 -271q-18 -107 -65 -200l262 -285h-295l-102 111q-156 -138 -391 -138q-233 0 -367.5 109.5t-134.5 300.5q0 130 66 218.5
t204 168.5l12 8l-32 37q-133 145 -133 297q0 156 104 252t281 96zM586 168q148 0 248 92l-340 371h-2q-96 -57 -139.5 -111.5t-43.5 -130.5q0 -107 73.5 -164t203.5 -57zM420 1112q0 -36 16 -76q18 -35 33.5 -55.5t54.5 -62.5l25 -29l4 2q4 3 29.5 17.5t29.5 17.5
q5 4 28 18.5t28 18.5q37 37 53 66.5t16 78.5q0 69 -43 113.5t-112 44.5t-115.5 -43.5t-46.5 -110.5z" />
    <glyph glyph-name="quotesingle" unicode="'" horiz-adv-x="335" 
d="M72 1491h204l-47 -438h-141z" />
    <glyph glyph-name="parenleft" unicode="(" horiz-adv-x="581" 
d="M408 1513l155 -106q-140 -185 -203 -352q-61 -168 -61 -398q0 -228 61 -399q63 -166 203 -350l-155 -107q-161 199 -238.5 402t-77.5 454t77.5 454t238.5 402z" />
    <glyph glyph-name="parenright" unicode=")" horiz-adv-x="581" 
d="M18 1407l156 106q161 -203 239.5 -405.5t78.5 -450.5t-78.5 -450.5t-239.5 -405.5l-156 107q141 182 201 348q64 171 64 401q0 232 -64 400q-60 167 -201 350z" />
    <glyph glyph-name="asterisk" unicode="*" horiz-adv-x="729" 
d="M285 1511h157l-6 -241l221 82l52 -150l-228 -69l148 -193l-127 -92l-137 194l-136 -194l-127 92l144 188l-228 72l50 150l223 -80z" />
    <glyph glyph-name="plus" unicode="+" horiz-adv-x="966" 
d="M385 1139h197v-326h323v-195h-323v-323h-197v323h-324v195h324v326z" />
    <glyph glyph-name="comma" unicode="," horiz-adv-x="425" 
d="M352 104q0 -191 -157 -374l-68 24q56 103 68 234q-55 6 -88 42t-33 91q0 57 39.5 96t99.5 39q61 0 100 -42t39 -110z" />
    <glyph glyph-name="hyphen" unicode="-" horiz-adv-x="747" 
d="M51 629h645v-195h-645v195z" />
    <glyph glyph-name="period" unicode="." horiz-adv-x="432" 
d="M113 221q41 41 102 41t102 -41q43 -38 43 -100t-43 -103q-41 -41 -102 -41t-102 41t-41 103t41 100z" />
    <glyph glyph-name="slash" unicode="/" horiz-adv-x="815" 
d="M590 1434h215l-580 -1434h-215z" />
    <glyph glyph-name="zero" unicode="0" horiz-adv-x="1155" 
d="M1071 719q0 -347 -129 -547q-129 -199 -364 -199q-236 0 -365 199q-129 200 -129 547q0 343 129 543q128 198 365 198q236 0 364 -198q129 -200 129 -543zM317 719q0 -255 66.5 -393t194.5 -138t194 138t66 393q0 253 -66 389.5t-194 136.5t-194.5 -136.5t-66.5 -389.5z
" />
    <glyph glyph-name="one" unicode="1" horiz-adv-x="739" 
d="M420 1434h172v-1434h-230v1051h-303v194q170 0 252.5 42.5t108.5 146.5z" />
    <glyph glyph-name="two" unicode="2" horiz-adv-x="1007" 
d="M516 1460q196 0 304 -108.5t108 -296.5q0 -113 -43 -210t-133 -208l-336 -422h526v-215h-844v168l451 555q82 100 114.5 168.5t32.5 152.5q0 201 -184 201q-93 0 -144.5 -59.5t-50.5 -175.5h-229q-3 206 115 327q117 123 313 123z" />
    <glyph glyph-name="three" unicode="3" horiz-adv-x="1101" 
d="M539 1460q195 0 309 -117q113 -113 113 -292q0 -116 -54 -195.5t-137 -110.5q106 -31 173 -121t67 -225q0 -191 -127 -309q-126 -117 -334 -117q-217 0 -341 119t-124 332h229q1 -116 65.5 -176t176.5 -60q100 0 160.5 60t60.5 160q0 114 -76.5 173.5t-218.5 59.5h-63
v201h61q129 0 189.5 48t60.5 152q0 95 -49 149t-139 54q-89 0 -144 -59t-55 -168h-229q0 204 115.5 323t310.5 119z" />
    <glyph glyph-name="four" unicode="4" horiz-adv-x="1138" 
d="M604 1434h281v-951h192v-207h-192v-276h-232v276h-600v187zM657 481v647l-41 -84l-317 -563h358z" />
    <glyph glyph-name="five" unicode="5" horiz-adv-x="1099" 
d="M152 1434h800v-215h-567v-357q83 47 215 47q194 0 310 -118t116 -330q0 -221 -125 -355q-124 -133 -336 -133q-213 0 -333.5 112.5t-120.5 317.5h231q1 -107 60.5 -161t164.5 -54q107 0 167.5 71.5t60.5 191.5q0 118 -62 184.5t-172 66.5q-116 0 -205 -59h-204v791z" />
    <glyph glyph-name="six" unicode="6" horiz-adv-x="1130" 
d="M596 1460q182 0 299 -114q118 -112 127 -299h-234q-15 198 -200 198q-129 0 -193.5 -114.5t-68.5 -362.5q43 56 118.5 90.5t163.5 34.5q201 0 322 -127t121 -322q0 -210 -129 -342q-126 -129 -332 -129q-222 0 -350 146q-146 172 -146 565q0 390 123 583t379 193z
M582 688q-100 0 -170 -67q-69 -66 -72 -168v-11q0 -103 68 -180q69 -78 174 -78q103 0 168 72.5t65 183.5q0 107 -65.5 177.5t-167.5 70.5z" />
    <glyph glyph-name="seven" unicode="7" horiz-adv-x="1017" 
d="M76 1434h870v-187l-553 -1247h-250l541 1217h-608v217z" />
    <glyph glyph-name="eight" unicode="8" horiz-adv-x="1128" 
d="M565 1460q186 0 307 -121q119 -119 119 -292q0 -107 -47.5 -190t-118.5 -122q93 -45 151 -129t58 -205q0 -184 -135 -307q-136 -121 -334 -121q-200 0 -336 121q-135 123 -135 307q0 121 57.5 208.5t151.5 125.5q-71 41 -117.5 123t-46.5 189q0 172 117 292
q121 121 309 121zM565 635q-102 0 -170.5 -63t-68.5 -164t68.5 -162.5t170.5 -61.5t169 61.5t67 162.5t-68 164t-168 63zM565 1247q-91 0 -145.5 -56.5t-54.5 -150.5q0 -92 54.5 -147t145.5 -55q89 0 144 55t55 147t-56 149.5t-143 57.5z" />
    <glyph glyph-name="nine" unicode="9" horiz-adv-x="1130" 
d="M532 -27q-182 0 -301 113q-116 113 -125 301h234q15 -199 201 -199q129 0 193.5 114t68.5 362q-42 -55 -118 -89t-165 -34q-204 0 -323 125t-119 323q0 210 127 340q128 131 334 131q223 0 350 -145q145 -171 145 -565q0 -390 -123 -583.5t-379 -193.5zM547 745
q100 0 170 70q71 71 71 176q0 104 -67 180q-69 78 -174 78q-103 0 -168.5 -72.5t-65.5 -183.5q0 -106 66 -177t168 -71z" />
    <glyph glyph-name="colon" unicode=":" horiz-adv-x="432" 
d="M360 913q0 -60 -41.5 -100.5t-103.5 -40.5q-61 0 -102 40.5t-41 100.5q0 62 41 104t102 42t103 -42t42 -104zM113 221q41 41 102 41t102 -41q43 -38 43 -100t-43 -103q-41 -41 -102 -41t-102 41t-41 103t41 100z" />
    <glyph glyph-name="semicolon" unicode=";" horiz-adv-x="432" 
d="M360 913q0 -60 -41.5 -100.5t-103.5 -40.5q-61 0 -102 40.5t-41 100.5q0 62 41 104t102 42t103 -42t42 -104zM356 104q0 -192 -159 -374l-66 24q53 95 68 234q-55 6 -89 42t-34 91q0 57 39.5 96t99.5 39q61 0 101 -42t40 -110z" />
    <glyph glyph-name="less" unicode="&#x3c;" horiz-adv-x="552" 
d="M315 913h211l-301 -401l301 -399h-211l-290 383v34z" />
    <glyph glyph-name="equal" unicode="=" horiz-adv-x="966" 
d="M61 1022h844v-191h-844v191zM61 600h844v-192h-844v192z" />
    <glyph glyph-name="greater" unicode="&#x3e;" horiz-adv-x="552" 
d="M25 913h213l288 -383v-34l-288 -383h-213l303 399z" />
    <glyph glyph-name="question" unicode="?" horiz-adv-x="876" 
d="M428 1464q180 0 299 -104q121 -106 121 -289q0 -95 -31.5 -176.5t-81.5 -134.5q-21 -22 -56 -54.5t-58 -55t-47 -51t-36 -57.5t-12 -59v-61h-219v70q0 72 32 135t85 108q10 9 48 42.5t52 47.5t42 46.5t40 57t22.5 61t10.5 75.5q0 104 -56 162.5t-151 58.5
q-103 0 -161 -60.5t-58 -172.5h-207q3 195 121 301q119 110 301 110zM313 221q43 41 104.5 41t102.5 -41q43 -38 43 -100t-43 -103q-41 -41 -102.5 -41t-104.5 41q-41 41 -41 103t41 100z" />
    <glyph glyph-name="at" unicode="@" horiz-adv-x="1673" 
d="M815 743q-100 0 -161.5 -70.5t-61.5 -183.5q0 -110 61 -178.5t158 -68.5q96 0 160.5 62.5t64.5 168.5v29q0 109 -65 175t-156 66zM1599 492q0 -217 -94 -318q-91 -102 -221 -102q-159 0 -217 125q-100 -127 -281 -127q-170 0 -276 118q-107 119 -107 301q0 183 107 302
q108 120 270 120q184 0 264 -139l11 121h159v-569q0 -61 21.5 -89t71.5 -28q143 0 143 285q0 270 -168 444q-167 176 -442 176q-283 0 -451 -174t-168 -446q0 -275 168 -449t451 -174q150 0 278 61l49 -135q-142 -65 -327 -65q-345 0 -557 215q-209 212 -209 547
q0 337 211 548q213 213 555 213q345 0 551 -215q208 -214 208 -546z" />
    <glyph glyph-name="A" unicode="A" horiz-adv-x="1445" 
d="M600 1434h246l567 -1434h-252l-137 350h-604l-135 -350h-252zM748 1069l-27 78l-27 -78l-198 -512h454z" />
    <glyph glyph-name="B" unicode="B" horiz-adv-x="1193" 
d="M154 1434h424q213 0 336.5 -107.5t123.5 -290.5q0 -186 -141 -288q107 -42 166 -128t59 -204q0 -190 -131 -303q-128 -113 -348 -113h-489v1434zM643 625h-260v-410h260q113 0 177.5 54.5t64.5 152.5q0 96 -64.5 149.5t-177.5 53.5zM578 1219h-195v-390h201
q100 0 159.5 52.5t59.5 138.5q0 96 -59 147.5t-166 51.5z" />
    <glyph glyph-name="C" unicode="C" horiz-adv-x="1499" 
d="M791 1460q253 0 419.5 -123t227.5 -346h-254q-91 254 -393 254q-209 0 -340 -149q-132 -147 -132 -379q0 -229 132 -379t344 -150q154 0 255.5 70t145.5 195h246q-62 -231 -227 -355.5t-420 -124.5q-314 0 -516 211q-201 213 -201 533q0 319 201 532q199 211 512 211z
" />
    <glyph glyph-name="D" unicode="D" horiz-adv-x="1497" 
d="M154 1434h524q333 0 532 -199q201 -198 201 -518q0 -322 -201 -520q-200 -197 -532 -197h-524v1434zM678 1219h-295v-1004h295q234 0 366 132.5t132 369.5t-131.5 369.5t-366.5 132.5z" />
    <glyph glyph-name="E" unicode="E" horiz-adv-x="1052" 
d="M154 1434h804v-215h-575v-375h502v-213h-502v-416h575v-215h-804v1434z" />
    <glyph glyph-name="F" unicode="F" horiz-adv-x="995" 
d="M154 1434h790v-215h-561v-394h477v-215h-477v-610h-229v1434z" />
    <glyph glyph-name="G" unicode="G" horiz-adv-x="1552" 
d="M791 1460q253 0 419.5 -123t227.5 -346h-254q-91 254 -396 254q-206 0 -337 -149q-132 -147 -132 -379q0 -229 132 -379t346 -150q186 0 295 91t116 260h-389v215h633v-111q0 -313 -178 -491q-176 -179 -477 -179q-316 0 -518 211q-201 213 -201 533q0 319 201 532
q199 211 512 211z" />
    <glyph glyph-name="H" unicode="H" horiz-adv-x="1458" 
d="M1075 1434h230v-1434h-230v633h-692v-633h-229v1434h229v-584h692v584z" />
    <glyph glyph-name="I" unicode="I" horiz-adv-x="536" 
d="M154 1434h229v-1434h-229v1434z" />
    <glyph glyph-name="J" unicode="J" horiz-adv-x="1052" 
d="M688 1434h230v-1010q0 -216 -108.5 -329t-311.5 -113q-216 0 -327.5 122.5t-117.5 348.5h230q12 -256 215 -256q92 0 141 61.5t49 177.5v998z" />
    <glyph glyph-name="K" unicode="K" horiz-adv-x="1384" 
d="M956 1434h283l-467 -637l578 -797h-277l-457 612l-225 -286v-326h-229v1434h229v-772z" />
    <glyph glyph-name="L" unicode="L" horiz-adv-x="1048" 
d="M152 1434h229v-1219h620v-215h-849v1434z" />
    <glyph glyph-name="M" unicode="M" horiz-adv-x="1806" 
d="M1395 1434h260v-1434h-230v995l-41 -116l-387 -879h-190l-385 879l-39 116v-995h-229v1434h258l454 -994l35 -88l39 88z" />
    <glyph glyph-name="N" unicode="N" horiz-adv-x="1474" 
d="M1094 1434h229v-1434h-227l-658 954l-55 90v-1044h-229v1434h225l653 -953l62 -96v1049z" />
    <glyph glyph-name="O" unicode="O" horiz-adv-x="1632" 
d="M817 1460q324 0 529 -211q206 -209 206 -530q0 -323 -206 -535q-205 -211 -529 -211t-532 211q-207 213 -207 535q0 320 207 530q208 211 532 211zM319 719q0 -231 138 -381t360 -150q221 0 359 150q137 149 137 381q0 231 -137 377q-137 149 -359 149q-223 0 -360 -149
q-138 -147 -138 -377z" />
    <glyph glyph-name="P" unicode="P" horiz-adv-x="1128" 
d="M154 1434h440q221 0 352 -125q133 -127 133 -326q0 -197 -133 -324q-131 -122 -352 -122h-211v-537h-229v1434zM594 1219h-211v-467h211q116 0 184 61.5t68 169.5q0 110 -67.5 173t-184.5 63z" />
    <glyph glyph-name="Q" unicode="Q" horiz-adv-x="1622" 
d="M817 1460q324 0 529 -211q206 -209 206 -530q0 -357 -241 -567l362 -365h-319l-242 242q-145 -56 -295 -56q-324 0 -532 211q-207 213 -207 535q0 320 207 530q208 211 532 211zM319 719q0 -231 138 -381t360 -150q59 0 119 13l-244 239h322l133 -129q166 150 166 408
q0 231 -137 377q-137 149 -359 149q-223 0 -360 -149q-138 -147 -138 -377z" />
    <glyph glyph-name="R" unicode="R" horiz-adv-x="1153" 
d="M154 1434h413q221 0 353 -123q133 -121 133 -320q0 -136 -68.5 -238.5t-191.5 -152.5l321 -600h-262l-299 561h-170v-561h-229v1434zM567 1219h-184v-453h184q117 0 184.5 59t67.5 166q0 108 -67 168t-185 60z" />
    <glyph glyph-name="S" unicode="S" horiz-adv-x="1101" 
d="M549 1460q198 0 312.5 -107.5t121.5 -308.5h-233q-1 99 -57.5 155t-149.5 56q-91 0 -143 -50t-52 -138q0 -87 58 -133t212 -105q224 -76 316 -176q94 -94 94 -256q0 -197 -129 -311q-128 -113 -332 -113q-229 0 -355.5 122.5t-131.5 334.5h231q5 -123 71 -188.5
t187 -65.5q107 0 167.5 55.5t60.5 149.5q0 81 -63 133t-218 104q-202 69 -303 166q-96 96 -96 265q0 181 116 294q117 117 316 117z" />
    <glyph glyph-name="T" unicode="T" horiz-adv-x="1251" 
d="M23 1434h1206v-215h-490v-1219h-229v1219h-487v215z" />
    <glyph glyph-name="U" unicode="U" horiz-adv-x="1413" 
d="M1047 1434h231v-863q0 -287 -149.5 -442.5t-421.5 -155.5t-422 156t-150 442v863h230v-863q0 -383 342 -383q340 0 340 383v863z" />
    <glyph glyph-name="V" unicode="V" horiz-adv-x="1411" 
d="M1137 1434h245l-569 -1434h-213l-571 1434h245l402 -1020l29 -97l30 97z" />
    <glyph glyph-name="W" unicode="W" horiz-adv-x="2035" 
d="M1759 1434h242l-447 -1434h-235l-279 918l-22 96l-21 -96l-278 -918h-238l-446 1434h244l303 -983l22 -105l21 105l290 983h205l293 -983l19 -105l22 105z" />
    <glyph glyph-name="X" unicode="X" horiz-adv-x="1415" 
d="M1075 1434h273l-484 -705l502 -729h-272l-387 557l-383 -557h-273l500 729l-481 705h272l365 -531z" />
    <glyph glyph-name="Y" unicode="Y" horiz-adv-x="1392" 
d="M1100 1434h268l-555 -895v-539h-233v539l-555 895h268l350 -555l51 -97l54 97z" />
    <glyph glyph-name="Z" unicode="Z" horiz-adv-x="1218" 
d="M86 1434h1030v-187l-739 -1032h766v-215h-1063v186l745 1033h-739v215z" />
    <glyph glyph-name="bracketleft" unicode="[" horiz-adv-x="626" 
d="M143 1466h432v-198h-225v-1227h225v-199h-432v1624z" />
    <glyph glyph-name="backslash" unicode="\" horiz-adv-x="815" 
d="M10 1434h215l580 -1434h-215z" />
    <glyph glyph-name="bracketright" unicode="]" horiz-adv-x="626" 
d="M51 1466h432v-1624h-432v199h225v1227h-225v198z" />
    <glyph glyph-name="asciicircum" unicode="^" horiz-adv-x="1103" 
d="M35 946l516 615l518 -615h-227l-291 346l-287 -346h-229z" />
    <glyph glyph-name="underscore" unicode="_" horiz-adv-x="1300" 
d="M51 0h1198v-195h-1198v195z" />
    <glyph glyph-name="grave" unicode="`" horiz-adv-x="538" 
d="M20 1499h275l223 -323h-194z" />
    <glyph glyph-name="a" unicode="a" horiz-adv-x="1032" 
d="M516 1059q184 0 286.5 -97.5t102.5 -279.5v-682h-192l-11 135q-93 -158 -305 -158q-140 0 -224.5 79.5t-84.5 215.5q0 248 303 306l295 53v47q0 186 -170 186q-81 0 -133.5 -45t-52.5 -119h-211q6 154 114 256q109 103 283 103zM686 430v37l-248 -53q-131 -27 -131 -131
q0 -54 37.5 -85.5t104.5 -31.5q125 0 188 100q49 70 49 164z" />
    <glyph glyph-name="b" unicode="b" horiz-adv-x="1247" 
d="M150 1495h217v-588q46 68 132 110t195 42q213 0 348 -156q136 -154 136 -385q0 -230 -136 -387q-136 -154 -346 -154q-229 0 -342 168l-16 -145h-188v1495zM655 852q-115 0 -204 -92q-89 -89 -89 -240v-10q0 -150 87 -240q88 -88 208 -88q131 0 214 93.5t83 242.5
q0 147 -84 240.5t-215 93.5z" />
    <glyph glyph-name="c" unicode="c" horiz-adv-x="1126" 
d="M580 1059q186 0 311.5 -96t157.5 -271h-213q-26 79 -92.5 122.5t-159.5 43.5q-123 0 -207 -96q-82 -94 -82 -246q0 -148 82 -242q84 -96 211 -96q90 0 157.5 45t90.5 119h215q-38 -174 -164 -269.5t-307 -95.5q-223 0 -367 150q-143 149 -143 389q0 237 143 389
q145 154 367 154z" />
    <glyph glyph-name="d" unicode="d" horiz-adv-x="1247" 
d="M883 1495h217v-1495h-191l-14 145q-116 -168 -344 -168q-210 0 -346 154q-135 156 -135 387q0 232 135 385q138 156 348 156q221 0 330 -152v588zM592 852q-130 0 -213.5 -93.5t-83.5 -240.5q0 -149 82 -242.5t213 -93.5q122 0 207 88q88 88 88 240v10q0 152 -88 240
q-89 92 -205 92z" />
    <glyph glyph-name="e" unicode="e" horiz-adv-x="1138" 
d="M575 1059q218 0 347 -139.5t129 -393.5v-84h-756q7 -124 86 -198t201 -74q188 0 247 147h213q-50 -163 -169.5 -251.5t-297.5 -88.5q-224 0 -366 148q-139 148 -139 391q0 238 139 389q139 154 366 154zM573 868q-116 0 -190.5 -71t-85.5 -185h534q-1 117 -71.5 186.5
t-186.5 69.5z" />
    <glyph glyph-name="f" unicode="f" horiz-adv-x="704" 
d="M547 1516q79 0 137 -23v-195q-64 23 -117 23q-141 0 -141 -156v-129h248v-198h-248v-838h-219v838h-176v198h176v135q0 166 88 255.5t252 89.5z" />
    <glyph glyph-name="g" unicode="g" horiz-adv-x="1048" 
d="M668 1036h383v-188h-166q35 -78 35 -160q0 -157 -111 -262q-111 -102 -289 -102q-111 0 -201 41q-32 -32 -32 -89q0 -44 32 -70t87 -26h260q160 0 245.5 -75.5t85.5 -213.5q0 -166 -118.5 -260t-323.5 -94q-222 0 -341.5 83t-119.5 237q0 121 111 186q-131 76 -131 217
q0 134 106 215q-67 94 -67 213q0 163 112 266q114 105 295 105q71 0 148 -23zM518 881q-87 0 -139.5 -53t-52.5 -140q0 -83 53.5 -136.5t138.5 -53.5t138 53.5t53 136.5q0 86 -52.5 139.5t-138.5 53.5zM616 4h-178q-59 -5 -94 -39t-35 -94q0 -77 64 -117.5t182 -40.5
q229 0 229 166q0 125 -168 125z" />
    <glyph glyph-name="h" unicode="h" horiz-adv-x="1107" 
d="M150 1495h217v-580q79 144 272 144q159 0 247.5 -104t88.5 -283v-672h-219v629q0 105 -45.5 161t-130.5 56q-96 0 -154.5 -78.5t-58.5 -216.5v-551h-217v1495z" />
    <glyph glyph-name="i" unicode="i" 
d="M154 1036h217v-1036h-217v1036zM262 1485q44 3 79.5 -23t51 -63.5t8.5 -80t-39 -69.5q-30 -30 -73.5 -36.5t-81 8t-63 48.5t-21.5 77q0 59 40.5 99t98.5 40z" />
    <glyph glyph-name="j" unicode="j" 
d="M154 1036h217v-1118q0 -381 -328 -381q-93 0 -152 19v196q56 -16 115 -16q78 0 113 46t35 142v1112zM262 1485q44 3 79.5 -23t51 -63.5t8.5 -80t-39 -69.5q-30 -30 -73.5 -36.5t-81 8t-63 48.5t-21.5 77q0 59 40.5 99t98.5 40z" />
    <glyph glyph-name="k" unicode="k" horiz-adv-x="1060" 
d="M158 1495h217v-915l348 456h262l-319 -432l372 -604h-247l-279 436l-137 -170v-266h-217v1495z" />
    <glyph glyph-name="l" unicode="l" 
d="M154 1495h217v-1495h-217v1495z" />
    <glyph glyph-name="m" unicode="m" horiz-adv-x="1705" 
d="M1241 1059q159 0 245.5 -103t86.5 -284v-672h-217v629q0 217 -174 217q-95 0 -154 -78.5t-59 -216.5v-551h-217v629q0 217 -174 217q-95 0 -153 -78t-58 -217v-551h-217v1036h188l16 -139q40 74 113 118t168 44q223 0 299 -193q102 193 307 193z" />
    <glyph glyph-name="n" unicode="n" horiz-adv-x="1107" 
d="M639 1059q159 0 247.5 -104t88.5 -283v-672h-219v629q0 105 -45.5 161t-130.5 56q-96 0 -154.5 -78.5t-58.5 -216.5v-551h-217v1036h188l16 -139q39 74 113.5 118t171.5 44z" />
    <glyph glyph-name="o" unicode="o" horiz-adv-x="1206" 
d="M219 907q152 152 383 152t383 -152t152 -389t-152 -389t-383 -152t-383 152q-149 149 -149 389t149 389zM825 762q-84 96 -221 96q-136 0 -223 -96q-86 -95 -86 -244t86 -244q87 -96 223 -96q137 0 221 96q86 95 86 244t-86 244z" />
    <glyph glyph-name="p" unicode="p" horiz-adv-x="1259" 
d="M707 1059q213 0 348 -156q135 -153 135 -385t-137 -387q-136 -154 -346 -154q-112 0 -198 41.5t-130 110.5v-569h-219v1476h190l15 -147q114 170 342 170zM668 854q-117 0 -207 -90q-88 -88 -88 -238v-12q3 -151 88 -242q90 -90 205 -90q131 0 213 94q86 95 86 242
q0 149 -83 242.5t-214 93.5z" />
    <glyph glyph-name="q" unicode="q" horiz-adv-x="1259" 
d="M551 1059q224 0 344 -170l14 147h191v-1476h-217v569q-109 -152 -330 -152q-209 0 -348 154q-135 156 -135 387q0 232 135 385q135 156 346 156zM590 854q-131 0 -213 -93.5t-82 -242.5q0 -147 84 -241.5t213 -94.5q115 0 205 90q88 91 88 242v12q0 150 -88 238
q-90 90 -207 90z" />
    <glyph glyph-name="r" unicode="r" horiz-adv-x="722" 
d="M672 1047v-220q-129 0 -207 -69q-87 -72 -90 -219v-539h-217v1036h190l19 -176q31 84 109 135.5t196 51.5z" />
    <glyph glyph-name="s" unicode="s" horiz-adv-x="921" 
d="M459 1059q153 0 254 -90q101 -88 104 -238h-217q-3 141 -145 141q-65 0 -101.5 -32.5t-36.5 -87.5q0 -56 39.5 -84.5t149.5 -53.5q183 -36 260.5 -108.5t77.5 -202.5q0 -152 -105 -239t-274 -87q-181 0 -283.5 89.5t-107.5 246.5h219q1 -72 47.5 -111.5t128.5 -39.5
q74 0 115 32.5t41 88.5q0 61 -43 92.5t-160 56.5q-169 36 -246.5 107t-77.5 194q0 135 95 230q96 96 266 96z" />
    <glyph glyph-name="t" unicode="t" horiz-adv-x="743" 
d="M209 1290h219l-2 -254h252v-200h-254l-4 -492q0 -87 31 -123.5t110 -36.5q61 0 117 17v-193q-61 -22 -160 -22q-161 0 -238.5 75.5t-76.5 235.5l4 539h-182v200h182z" />
    <glyph glyph-name="u" unicode="u" horiz-adv-x="1101" 
d="M735 1036h217v-1036h-190l-14 139q-79 -162 -281 -162q-161 0 -246.5 103t-85.5 285v671h217v-628q0 -220 174 -220q94 0 151.5 75t57.5 206v567z" />
    <glyph glyph-name="v" unicode="v" horiz-adv-x="1040" 
d="M782 1036h234l-385 -1036h-219l-385 1036h233l240 -694l20 -84l21 84z" />
    <glyph glyph-name="w" unicode="w" horiz-adv-x="1585" 
d="M1325 1036h234l-322 -1036h-223l-223 680l-228 -680h-215l-321 1036h233l189 -678l20 -102l23 102l206 678h189l207 -678l22 -102l21 102z" />
    <glyph glyph-name="x" unicode="x" horiz-adv-x="1067" 
d="M754 1036h254l-326 -506l344 -530h-256l-238 362l-235 -362h-256l344 530l-326 506h254l219 -336z" />
    <glyph glyph-name="y" unicode="y" horiz-adv-x="1048" 
d="M782 1036h234l-549 -1476h-227l166 454l-379 1022h233l240 -694l20 -84l21 84z" />
    <glyph glyph-name="z" unicode="z" horiz-adv-x="958" 
d="M76 1036h798v-166l-512 -677h541v-193h-831v164l512 680h-508v192z" />
    <glyph glyph-name="braceleft" unicode="{" horiz-adv-x="626" 
d="M522 1466h53v-198h-47q-133 0 -133 -148v-256q0 -165 -125 -211q125 -46 125 -209v-256q0 -147 133 -147h47v-199h-53q-159 0 -243 89t-84 251v230q0 147 -134 147h-30v191h30q134 0 134 147v229q0 162 84 251t243 89z" />
    <glyph glyph-name="bar" unicode="|" horiz-adv-x="466" 
d="M133 1487h205v-1624h-205v1624z" />
    <glyph glyph-name="braceright" unicode="}" horiz-adv-x="626" 
d="M51 1466h53q160 0 245 -89.5t85 -250.5v-229q0 -147 133 -147h29v-191h-29q-133 0 -133 -147v-230q0 -161 -85 -250.5t-245 -89.5h-53v199h47q133 0 133 147v256q0 163 125 209q-125 46 -125 211v256q0 148 -133 148h-47v198z" />
    <glyph glyph-name="asciitilde" unicode="~" horiz-adv-x="1165" 
d="M379 915q68 0 129 -28t96 -68q94 -94 187 -94q132 0 178 168l149 -70q-82 -291 -332 -291q-67 0 -127 27.5t-100 67.5q-92 96 -184 96q-129 0 -178 -168l-150 70q82 290 332 290z" />
    <glyph glyph-name="exclamdown" unicode="&#xa1;" 
d="M369 -401h-217v1011h217v-1011zM362 809q-41 -38 -102 -38t-104 38q-43 41 -43 102.5t43 102.5t104 41t102 -41q43 -41 43 -102.5t-43 -102.5z" />
    <glyph glyph-name="cent" unicode="&#xa2;" horiz-adv-x="1126" 
d="M500 1247h168v-194q152 -24 252 -117t129 -244h-213q-26 79 -92.5 122.5t-159.5 43.5q-123 0 -207 -96q-82 -94 -82 -246q0 -148 82 -242q84 -96 211 -96q90 0 157.5 45t90.5 119h215q-35 -152 -135 -245t-248 -113v-197h-168v197q-191 27 -312 172q-118 142 -118 360
q0 216 118 361q122 149 312 176v194z" />
    <glyph glyph-name="sterling" unicode="&#xa3;" horiz-adv-x="1064" 
d="M422 768h297v-166h-250q6 -43 6 -92q0 -128 -72 -244l-28 -49h307q86 0 125 41t39 129h203q-1 -189 -99 -288t-278 -99h-621v70l86 118q115 151 115 328q0 39 -8 86h-209v166h158q-70 177 -70 276q0 188 117 302t299 114q191 0 300 -106.5t113 -302.5h-209
q0 94 -53 151.5t-143 57.5q-92 0 -144.5 -59t-52.5 -163q0 -25 8 -70.5t9 -52.5q24 -71 24 -73q2 -4 9 -22t13 -33t9 -19z" />
    <glyph glyph-name="currency" unicode="&#xa4;" horiz-adv-x="1312" 
d="M868 891l250 248l139 -142l-245 -245q61 -101 61 -217q0 -121 -63 -218l247 -245l-139 -140l-252 246q-99 -57 -211 -57q-113 0 -209 57l-249 -246l-144 140l248 245q-59 95 -59 218q0 122 59 217l-248 245l144 142l245 -246q101 61 213 61q102 0 213 -63zM428 535
q0 -105 64.5 -174.5t162.5 -69.5t165 70t67 174q0 106 -67 177.5t-165 71.5t-162.5 -71.5t-64.5 -177.5z" />
    <glyph glyph-name="yen" unicode="&#xa5;" horiz-adv-x="1359" 
d="M1085 1434h269l-469 -756h178v-166h-264v-145h264v-166h-264v-201h-234v201h-270v166h270v145h-270v166h184l-469 756h269l350 -555l51 -97l53 97z" />
    <glyph glyph-name="brokenbar" unicode="&#xa6;" horiz-adv-x="466" 
d="M133 1487h205v-574h-205v574zM133 436h205v-573h-205v573z" />
    <glyph glyph-name="section" unicode="&#xa7;" horiz-adv-x="1052" 
d="M528 1475q181 0 287 -88.5t111 -237.5h-221q-1 75 -49 116.5t-130 41.5q-78 0 -121 -39.5t-43 -102.5q0 -64 50.5 -101t173.5 -60q212 -35 304.5 -108t92.5 -206q0 -148 -158 -244q121 -77 121 -227q0 -156 -115 -239q-116 -84 -290 -84q-189 0 -301 88t-117 237h221
q0 -74 53.5 -116t145.5 -42q88 0 135 38.5t47 103.5q0 63 -61 101.5t-213 64.5q-377 67 -377 305q0 161 164 260q-99 70 -99 215q0 157 111 240q113 84 278 84zM575 530l74 -14q115 53 115 150q0 73 -56.5 110t-215.5 66l-91 18q-106 -49 -106 -151q0 -74 60.5 -113.5
t219.5 -65.5z" />
    <glyph glyph-name="dieresis" unicode="&#xa8;" horiz-adv-x="698" 
d="M150 1432q54 0 90 -35.5t36 -89.5t-36 -89.5t-90 -35.5q-56 0 -93 35.5t-37 89.5t37 89.5t93 35.5zM459 1395q37 37 90 37t90 -37q38 -35 38 -88t-38 -90q-37 -35 -90 -35t-90 35q-37 37 -37 90t37 88z" />
    <glyph glyph-name="copyright" unicode="&#xa9;" horiz-adv-x="1222" 
d="M618 1272q214 0 267 -209h-160q-27 70 -107 70q-62 0 -100.5 -44t-38.5 -114q0 -72 38 -116t101 -44q89 0 117 78h154q-47 -215 -271 -215q-130 0 -212 83t-82 214q0 129 82.5 213t211.5 84zM213 1376q155 158 399 158q246 0 398 -158q151 -157 151 -401
q0 -245 -151 -402t-398 -157q-245 0 -399 157q-152 158 -152 402q0 243 152 401zM1026 975q0 188 -115 309q-114 123 -299 123q-187 0 -301 -123t-114 -309t114 -309t301 -123q185 0 299 123q115 124 115 309z" />
    <glyph glyph-name="ordfeminine" unicode="&#xaa;" horiz-adv-x="786" 
d="M391 1456q135 0 210 -66.5t75 -189.5v-465h-146l-8 82q-78 -96 -215 -96q-100 0 -159.5 53.5t-59.5 145.5q0 172 221 210l199 37v29q0 111 -117 111q-55 0 -87 -26t-32 -73h-166q6 112 82.5 180t202.5 68zM508 1014v28l-166 -30q-86 -18 -86 -80q0 -31 23.5 -49.5
t64.5 -18.5q91 0 133 60q31 42 31 90z" />
    <glyph glyph-name="guillemotleft" unicode="&#xab;" horiz-adv-x="964" 
d="M283 913h213l-271 -401l271 -399h-213l-258 383v34zM727 913h213l-270 -401l270 -399h-213l-258 383v34z" />
    <glyph glyph-name="logicalnot" unicode="&#xac;" horiz-adv-x="1220" 
d="M82 901h1065v-588h-156v428h-909v160z" />
    <glyph glyph-name="registered" unicode="&#xae;" horiz-adv-x="1222" 
d="M213 1376q155 158 399 158q246 0 398 -158q151 -157 151 -401q0 -245 -151 -402t-398 -157q-245 0 -399 157q-152 158 -152 402q0 243 152 401zM1026 975q0 188 -115 309q-114 123 -299 123q-187 0 -301 -123t-114 -309t114 -309t301 -123q185 0 299 123q115 124 115 309
zM401 1260h222q98 0 156.5 -53t58.5 -140q0 -103 -95 -156l119 -225h-172l-90 199h-49v-199h-150v574zM610 1137h-59v-142h59q78 0 78 70q0 72 -78 72z" />
    <glyph glyph-name="overscore" unicode="&#xaf;" horiz-adv-x="593" 
d="M20 1382h553v-170h-553v170z" />
    <glyph glyph-name="degree" unicode="&#xb0;" horiz-adv-x="714" 
d="M354 1479q137 0 226 -86q90 -84 90 -222q0 -136 -90 -223q-90 -84 -226 -84q-131 0 -221 84q-88 85 -88 223q0 137 88 222q89 86 221 86zM354 1333q-68 0 -112.5 -45.5t-44.5 -116.5t44.5 -116t112.5 -45q72 0 118 44.5t46 116.5t-46 117t-118 45z" />
    <glyph glyph-name="plusminus" unicode="&#xb1;" horiz-adv-x="966" 
d="M385 1321h197v-326h323v-194h-323v-324h-197v324h-324v194h324v326zM61 354h844v-194h-844v194z" />
    <glyph glyph-name="two.sups" unicode="&#xb2;" horiz-adv-x="661" 
d="M336 1653q126 0 194 -63t68 -173q0 -113 -109 -231l-176 -191h287v-159h-522v122l262 285q86 95 86 162q0 90 -92 90q-45 0 -71.5 -28t-26.5 -81h-170q-2 119 73.5 193t196.5 74z" />
    <glyph glyph-name="three.sups" unicode="&#xb3;" horiz-adv-x="720" 
d="M618 1417q0 -118 -106 -164q135 -43 135 -184q0 -115 -77.5 -181.5t-207.5 -66.5q-135 0 -211.5 68.5t-76.5 191.5h168q1 -50 34.5 -77t90.5 -27q49 0 79.5 28t30.5 72q0 105 -147 105h-51v137h49q121 0 121 92q8 51 -44 75q-49 23 -97 1q-55 -25 -50 -88h-170
q0 118 71.5 186t194.5 68q121 0 192.5 -66t71.5 -170z" />
    <glyph glyph-name="acute" unicode="&#xb4;" horiz-adv-x="538" 
d="M244 1499h274l-303 -323h-195z" />
    <glyph glyph-name="mu" unicode="&#xb5;" horiz-adv-x="1114" 
d="M750 1036h217v-1036h-191l-14 139q-82 -162 -281 -162q-55 0 -114 17v-434h-217v1476h217v-628q0 -220 172 -220q94 0 152.5 75t58.5 206v567z" />
    <glyph glyph-name="paragraph" unicode="&#xb6;" horiz-adv-x="1243" 
d="M469 1434h733v-148h-176v-1450h-147v1450h-224v-1450h-149v801h-37q-184 0 -301 111t-117 284q0 178 117 289q116 113 301 113z" />
    <glyph glyph-name="middot" unicode="&#xb7;" horiz-adv-x="432" 
d="M360 532q0 -62 -42 -103.5t-103 -41.5t-102 41.5t-41 103.5q0 60 41 101t102 41t103 -41t42 -101z" />
    <glyph glyph-name="cedilla" unicode="&#xb8;" horiz-adv-x="448" 
d="M162 12h112l-28 -125q82 0 132 -46t50 -124q0 -89 -60 -138.5t-159 -49.5q-119 0 -189 70l72 102q42 -51 117 -51q82 0 82 65q0 66 -80 66q-33 0 -64 -8l-41 14z" />
    <glyph glyph-name="one.sups" unicode="&#xb9;" 
d="M289 1638h125v-802h-170v559h-181v129q199 0 226 114z" />
    <glyph glyph-name="ordmasculine" unicode="&#xba;" horiz-adv-x="901" 
d="M451 1456q162 0 270 -102q106 -100 106 -267q0 -164 -106 -264q-108 -102 -270 -102q-165 0 -273 102q-106 100 -106 264q0 167 106 267q108 102 273 102zM453 1303q-90 0 -147.5 -60t-57.5 -153q0 -95 57 -155.5t148 -60.5q87 0 143.5 61.5t56.5 154.5t-56.5 153
t-143.5 60z" />
    <glyph glyph-name="guillemotright" unicode="&#xbb;" horiz-adv-x="964" 
d="M25 913h213l258 -383v-34l-258 -383h-213l270 399zM469 913h213l258 -383v-34l-258 -383h-213l270 399z" />
    <glyph glyph-name="onequarter" unicode="&#xbc;" horiz-adv-x="1501" 
d="M1116 803h211v-514h109v-150h-109v-139h-170v139h-362v135zM1159 289v309l-22 -45l-164 -264h186zM289 1434h125v-803h-170v559h-181v129q199 0 226 115zM995 1434h234l-819 -1434h-234z" />
    <glyph glyph-name="onehalf" unicode="&#xbd;" horiz-adv-x="1503" 
d="M1176 817q126 0 194 -62.5t68 -172.5q0 -114 -109 -232l-176 -190h287v-160h-522v123l262 285q86 95 86 161q0 90 -92 90q-46 0 -72.5 -27.5t-26.5 -80.5h-170q-1 118 74 192t197 74zM289 1434h125v-803h-170v559h-181v129q199 0 226 115zM995 1434h234l-819 -1434h-234z
" />
    <glyph glyph-name="threequarters" unicode="&#xbe;" horiz-adv-x="1658" 
d="M618 1212q0 -117 -106 -163q135 -43 135 -185q0 -115 -77.5 -181.5t-207.5 -66.5q-135 0 -211.5 69t-76.5 192h168q1 -50 35 -77.5t90 -27.5q49 0 79.5 28t30.5 72q0 105 -147 105h-51v137h49q121 0 121 92q8 51 -44 75q-49 23 -97 1q-55 -25 -50 -88h-170
q0 118 71.5 186t194.5 68q121 0 192.5 -66t71.5 -170zM1274 803h211v-514h108v-150h-108v-139h-170v139h-363v135zM1317 289v309l-23 -45l-164 -264h187zM1153 1434h233l-819 -1434h-233z" />
    <glyph glyph-name="questiondown" unicode="&#xbf;" horiz-adv-x="876" 
d="M446 -432q-180 0 -299 104q-120 105 -120 289q0 96 31 177.5t81 133.5q18 18 70 66.5t73.5 71.5t43.5 62.5t22 76.5v61h219v-69q0 -142 -116 -246q-8 -7 -36 -31t-38.5 -33.5t-35 -33.5t-35 -38.5t-27 -39t-24 -46t-13.5 -49.5t-6 -57q0 -105 55.5 -163t150.5 -58
q103 0 161.5 61t58.5 173h206q-3 -194 -123 -302q-119 -110 -299 -110zM559 809q-41 -38 -102.5 -38t-104.5 38q-41 41 -41 102.5t41 102.5q43 41 104.5 41t102.5 -41q43 -41 43 -102.5t-43 -102.5z" />
    <glyph glyph-name="Agrave" unicode="&#xc0;" horiz-adv-x="1445" 
d="M600 1434h246l567 -1434h-252l-137 350h-604l-135 -350h-252zM748 1069l-27 78l-27 -78l-198 -512h454zM336 1735h315l193 -234h-228z" />
    <glyph glyph-name="Aacute" unicode="&#xc1;" horiz-adv-x="1445" 
d="M600 1434h246l567 -1434h-252l-137 350h-604l-135 -350h-252zM748 1069l-27 78l-27 -78l-198 -512h454zM776 1735h314l-279 -234h-229z" />
    <glyph glyph-name="Acircumflex" unicode="&#xc2;" horiz-adv-x="1445" 
d="M600 1434h246l567 -1434h-252l-137 350h-604l-135 -350h-252zM748 1069l-27 78l-27 -78l-198 -512h454zM657 1743h131l304 -244h-252l-119 109l-117 -109h-250z" />
    <glyph glyph-name="Atilde" unicode="&#xc3;" horiz-adv-x="1445" 
d="M600 1434h246l567 -1434h-252l-137 350h-604l-135 -350h-252zM748 1069l-27 78l-27 -78l-198 -512h454zM594 1772q42 0 78 -14t60 -34t44.5 -40t41 -34t40.5 -14q76 0 76 117h135q0 -126 -56 -197t-163 -71q-43 0 -79 14t-60 33.5t-44 39.5t-40.5 34t-40.5 14
q-76 0 -76 -117h-135q0 126 56 197.5t163 71.5z" />
    <glyph glyph-name="Adieresis" unicode="&#xc4;" horiz-adv-x="1445" 
d="M600 1434h246l567 -1434h-252l-137 350h-604l-135 -350h-252zM748 1069l-27 78l-27 -78l-198 -512h454zM520 1749q54 0 90.5 -36.5t36.5 -90.5q0 -52 -36.5 -88.5t-90.5 -36.5q-56 0 -92.5 35.5t-36.5 89.5t37 90.5t92 36.5zM1049 1622q0 -51 -37.5 -88t-91.5 -37
t-90.5 35.5t-36.5 89.5t36.5 90.5t90.5 36.5t91.5 -36.5t37.5 -90.5z" />
    <glyph glyph-name="Aring" unicode="&#xc5;" horiz-adv-x="1445" 
d="M600 1434h246l567 -1434h-252l-137 350h-604l-135 -350h-252zM748 1069l-27 78l-27 -78l-198 -512h454zM719 1884q90 0 147.5 -57t57.5 -144t-57.5 -142.5t-147.5 -55.5q-88 0 -146.5 56.5t-58.5 141.5q0 86 58.5 143.5t146.5 57.5zM719 1763q-33 0 -54.5 -22.5
t-21.5 -57.5q0 -31 22.5 -54t53.5 -23q35 0 57.5 23t22.5 54q0 35 -22.5 57.5t-57.5 22.5z" />
    <glyph glyph-name="AE" unicode="&#xc6;" horiz-adv-x="1931" 
d="M948 1434h889v-215h-575v-375h501v-213h-501v-416h575v-215h-807v354h-504l-235 -354h-273zM1030 555v596l-43 -80l-336 -516h379z" />
    <glyph glyph-name="Ccedilla" unicode="&#xc7;" horiz-adv-x="1499" 
d="M791 1460q253 0 419.5 -123t227.5 -346h-254q-91 254 -393 254q-209 0 -340 -149q-132 -147 -132 -379q0 -229 132 -379t344 -150q154 0 255.5 70t145.5 195h246q-60 -223 -213 -345.5t-391 -132.5l-19 -88q82 0 132 -46t50 -124q0 -89 -60 -138.5t-159 -49.5
q-118 0 -188 70l72 102q42 -51 116 -51q82 0 82 65q0 66 -80 66q-32 0 -63 -8l-41 14l45 190q-284 21 -467 228q-180 204 -180 512q0 319 201 532q199 211 512 211z" />
    <glyph glyph-name="Egrave" unicode="&#xc8;" horiz-adv-x="1052" 
d="M154 1434h804v-215h-575v-375h502v-213h-502v-416h575v-215h-804v1434zM190 1735h316l192 -234h-227z" />
    <glyph glyph-name="Eacute" unicode="&#xc9;" horiz-adv-x="1052" 
d="M154 1434h804v-215h-575v-375h502v-213h-502v-416h575v-215h-804v1434zM629 1735h313l-278 -234h-230z" />
    <glyph glyph-name="Ecircumflex" unicode="&#xca;" horiz-adv-x="1052" 
d="M154 1434h804v-215h-575v-375h502v-213h-502v-416h575v-215h-804v1434zM504 1743h131l303 -244h-252l-119 109l-116 -109h-250z" />
    <glyph glyph-name="Edieresis" unicode="&#xcb;" horiz-adv-x="1052" 
d="M369 1749q54 0 90.5 -36.5t36.5 -90.5q0 -52 -37 -88.5t-90 -36.5q-56 0 -92.5 35.5t-36.5 89.5t37 90.5t92 36.5zM897 1622q0 -51 -37.5 -88t-91.5 -37t-90.5 35.5t-36.5 89.5t36.5 90.5t90.5 36.5t91.5 -36.5t37.5 -90.5zM154 1434h804v-215h-575v-375h502v-213h-502
v-416h575v-215h-804v1434z" />
    <glyph glyph-name="Igrave" unicode="&#xcc;" horiz-adv-x="536" 
d="M154 1434h229v-1434h-229v1434zM-117 1735h316l192 -234h-227z" />
    <glyph glyph-name="Iacute" unicode="&#xcd;" horiz-adv-x="536" 
d="M154 1434h229v-1434h-229v1434zM319 1735h314l-279 -234h-229z" />
    <glyph glyph-name="Icircumflex" unicode="&#xce;" horiz-adv-x="536" 
d="M205 1743h131l303 -244h-252l-119 109l-116 -109h-250zM154 1434h229v-1434h-229v1434z" />
    <glyph glyph-name="Idieresis" unicode="&#xcf;" horiz-adv-x="536" 
d="M70 1749q54 0 90.5 -36.5t36.5 -90.5q0 -52 -36.5 -88.5t-90.5 -36.5q-56 0 -92.5 35.5t-36.5 89.5t37 90.5t92 36.5zM598 1622q0 -51 -37.5 -88t-91.5 -37t-90.5 35.5t-36.5 89.5t36.5 90.5t90.5 36.5t91.5 -36.5t37.5 -90.5zM154 1434h229v-1434h-229v1434z" />
    <glyph glyph-name="Eth" unicode="&#xd0;" horiz-adv-x="1515" 
d="M172 1434h524q334 0 533 -199q201 -198 201 -518q0 -322 -201 -520q-200 -197 -533 -197h-524v647h-166v168h166v619zM696 1219h-295v-404h238v-168h-238v-432h295q234 0 366 132.5t132 369.5t-131.5 369.5t-366.5 132.5z" />
    <glyph glyph-name="Ntilde" unicode="&#xd1;" horiz-adv-x="1474" 
d="M1094 1434h229v-1434h-227l-658 954l-55 90v-1044h-229v1434h225l653 -953l62 -96v1049zM608 1772q42 0 78 -14t60 -34t44.5 -40t41 -34t40.5 -14q76 0 76 117h135q0 -126 -56 -197t-163 -71q-43 0 -79 14t-60 33.5t-44 39.5t-40.5 34t-40.5 14q-76 0 -76 -117h-135
q0 126 56 197.5t163 71.5z" />
    <glyph glyph-name="Ograve" unicode="&#xd2;" horiz-adv-x="1632" 
d="M817 1460q324 0 529 -211q206 -209 206 -530q0 -323 -206 -535q-205 -211 -529 -211t-532 211q-207 213 -207 535q0 320 207 530q208 211 532 211zM319 719q0 -231 138 -381t360 -150q221 0 359 150q137 149 137 381q0 231 -137 377q-137 149 -359 149q-223 0 -360 -149
q-138 -147 -138 -377zM430 1755h315l193 -233h-227z" />
    <glyph glyph-name="Oacute" unicode="&#xd3;" horiz-adv-x="1632" 
d="M817 1460q324 0 529 -211q206 -209 206 -530q0 -323 -206 -535q-205 -211 -529 -211t-532 211q-207 213 -207 535q0 320 207 530q208 211 532 211zM319 719q0 -231 138 -381t360 -150q221 0 359 150q137 149 137 381q0 231 -137 377q-137 149 -359 149q-223 0 -360 -149
q-138 -147 -138 -377zM870 1755h314l-279 -233h-229z" />
    <glyph glyph-name="Ocircumflex" unicode="&#xd4;" horiz-adv-x="1632" 
d="M817 1460q324 0 529 -211q206 -209 206 -530q0 -323 -206 -535q-205 -211 -529 -211t-532 211q-207 213 -207 535q0 320 207 530q208 211 532 211zM319 719q0 -231 138 -381t360 -150q221 0 359 150q137 149 137 381q0 231 -137 377q-137 149 -359 149q-223 0 -360 -149
q-138 -147 -138 -377zM752 1763h131l303 -243h-252l-119 108l-117 -108h-249z" />
    <glyph glyph-name="Otilde" unicode="&#xd5;" horiz-adv-x="1632" 
d="M688 1792q42 0 78 -14t60 -34t44.5 -39.5t41 -33.5t40.5 -14q76 0 76 117h135q0 -126 -56 -197.5t-163 -71.5q-43 0 -79 14t-60 33.5t-44 39.5t-40.5 34t-40.5 14q-76 0 -76 -116h-135q0 126 56 197t163 71zM817 1460q324 0 529 -211q206 -209 206 -530q0 -323 -206 -535
q-205 -211 -529 -211t-532 211q-207 213 -207 535q0 320 207 530q208 211 532 211zM319 719q0 -231 138 -381t360 -150q221 0 359 150q137 149 137 381q0 231 -137 377q-137 149 -359 149q-223 0 -360 -149q-138 -147 -138 -377z" />
    <glyph glyph-name="Odieresis" unicode="&#xd6;" horiz-adv-x="1632" 
d="M817 1460q324 0 529 -211q206 -209 206 -530q0 -323 -206 -535q-205 -211 -529 -211t-532 211q-207 213 -207 535q0 320 207 530q208 211 532 211zM319 719q0 -231 138 -381t360 -150q221 0 359 150q137 149 137 381q0 231 -137 377q-137 149 -359 149q-223 0 -360 -149
q-138 -147 -138 -377zM614 1769q54 0 90.5 -36.5t36.5 -90.5q0 -51 -36.5 -87.5t-90.5 -36.5q-56 0 -92.5 35t-36.5 89t37 90.5t92 36.5zM1143 1642q0 -51 -37.5 -87.5t-91.5 -36.5t-90.5 35t-36.5 89t36.5 90.5t90.5 36.5t91.5 -36.5t37.5 -90.5z" />
    <glyph glyph-name="multiply" unicode="&#xd7;" horiz-adv-x="874" 
d="M436 856l248 246l137 -139l-246 -248l246 -246l-139 -137l-244 246l-248 -246l-139 137l248 248l-248 248l137 137z" />
    <glyph glyph-name="Oslash" unicode="&#xd8;" horiz-adv-x="1632" 
d="M817 1460q152 0 285 -53l98 172l170 -86l-102 -176q135 -100 209.5 -256t74.5 -342q0 -323 -206 -535q-205 -211 -529 -211q-147 0 -289 54l-100 -177l-170 84l104 183q-135 101 -209.5 257.5t-74.5 344.5q0 320 207 530q208 211 532 211zM1313 719q0 246 -160 397
l-514 -899q89 -29 178 -29q221 0 359 150q137 149 137 381zM817 1245q-223 0 -360 -149q-138 -147 -138 -377q0 -253 158 -402l514 897q-91 31 -174 31z" />
    <glyph glyph-name="Ugrave" unicode="&#xd9;" horiz-adv-x="1413" 
d="M1047 1434h231v-863q0 -287 -149.5 -442.5t-421.5 -155.5t-422 156t-150 442v863h230v-863q0 -383 342 -383q340 0 340 383v863zM319 1735h316l192 -234h-227z" />
    <glyph glyph-name="Uacute" unicode="&#xda;" horiz-adv-x="1413" 
d="M1047 1434h231v-863q0 -287 -149.5 -442.5t-421.5 -155.5t-422 156t-150 442v863h230v-863q0 -383 342 -383q340 0 340 383v863zM760 1735h313l-278 -234h-230z" />
    <glyph glyph-name="Ucircumflex" unicode="&#xdb;" horiz-adv-x="1413" 
d="M1047 1434h231v-863q0 -287 -149.5 -442.5t-421.5 -155.5t-422 156t-150 442v863h230v-863q0 -383 342 -383q340 0 340 383v863zM641 1743h131l303 -244h-252l-118 109l-117 -109h-250z" />
    <glyph glyph-name="Udieresis" unicode="&#xdc;" horiz-adv-x="1413" 
d="M504 1749q54 0 90.5 -36.5t36.5 -90.5q0 -52 -36.5 -88.5t-90.5 -36.5q-56 0 -92.5 35.5t-36.5 89.5t37 90.5t92 36.5zM1032 1622q0 -51 -37.5 -88t-91.5 -37t-90.5 35.5t-36.5 89.5t36.5 90.5t90.5 36.5t91.5 -36.5t37.5 -90.5zM1047 1434h231v-863
q0 -287 -149.5 -442.5t-421.5 -155.5t-422 156t-150 442v863h230v-863q0 -383 342 -383q340 0 340 383v863z" />
    <glyph glyph-name="Yacute" unicode="&#xdd;" horiz-adv-x="1392" 
d="M1100 1434h268l-555 -895v-539h-233v539l-555 895h268l350 -555l51 -97l54 97zM750 1735h313l-279 -234h-229z" />
    <glyph glyph-name="Thorn" unicode="&#xde;" horiz-adv-x="1177" 
d="M154 1434h229v-220h250q216 0 344.5 -116.5t128.5 -309.5q0 -188 -129 -305q-125 -116 -344 -116h-250v-367h-229v1434zM633 997h-250v-415h250q111 0 175 54.5t64 151.5q0 99 -64 154t-175 55z" />
    <glyph glyph-name="germandbls" unicode="&#xdf;" horiz-adv-x="1159" 
d="M580 1509v-206q-205 0 -205 -224v-43h672v-174l-267 -416q169 -24 271 -147q100 -121 100 -285q0 -219 -124.5 -342t-356.5 -123q-74 0 -174 17l6 219q97 -23 147 -23q129 0 200 64t71 186q0 116 -79 182t-214 66h-97v152l267 424h-422v-836h-230v1075q0 434 435 434z
" />
    <glyph glyph-name="agrave" unicode="&#xe0;" horiz-adv-x="1032" 
d="M516 1059q184 0 286.5 -97.5t102.5 -279.5v-682h-192l-11 135q-93 -158 -305 -158q-140 0 -224.5 79.5t-84.5 215.5q0 248 303 306l295 53v47q0 186 -170 186q-81 0 -133.5 -45t-52.5 -119h-211q6 154 114 256q109 103 283 103zM686 430v37l-248 -53q-131 -27 -131 -131
q0 -54 37.5 -85.5t104.5 -31.5q125 0 188 100q49 70 49 164zM127 1499h274l224 -323h-195z" />
    <glyph glyph-name="aacute" unicode="&#xe1;" horiz-adv-x="1032" 
d="M516 1059q184 0 286.5 -97.5t102.5 -279.5v-682h-192l-11 135q-93 -158 -305 -158q-140 0 -224.5 79.5t-84.5 215.5q0 248 303 306l295 53v47q0 186 -170 186q-81 0 -133.5 -45t-52.5 -119h-211q6 154 114 256q109 103 283 103zM686 430v37l-248 -53q-131 -27 -131 -131
q0 -54 37.5 -85.5t104.5 -31.5q125 0 188 100q49 70 49 164zM629 1499h274l-303 -323h-194z" />
    <glyph glyph-name="acircumflex" unicode="&#xe2;" horiz-adv-x="1032" 
d="M516 1059q184 0 286.5 -97.5t102.5 -279.5v-682h-192l-11 135q-93 -158 -305 -158q-140 0 -224.5 79.5t-84.5 215.5q0 248 303 306l295 53v47q0 186 -170 186q-81 0 -133.5 -45t-52.5 -119h-211q6 154 114 256q109 103 283 103zM686 430v37l-248 -53q-131 -27 -131 -131
q0 -54 37.5 -85.5t104.5 -31.5q125 0 188 100q49 70 49 164zM446 1499h152l281 -323h-230l-127 176l-129 -176h-229z" />
    <glyph glyph-name="atilde" unicode="&#xe3;" horiz-adv-x="1032" 
d="M516 1059q184 0 286.5 -97.5t102.5 -279.5v-682h-192l-11 135q-93 -158 -305 -158q-140 0 -224.5 79.5t-84.5 215.5q0 248 303 306l295 53v47q0 186 -170 186q-81 0 -133.5 -45t-52.5 -119h-211q6 154 114 256q109 103 283 103zM686 430v37l-248 -53q-131 -27 -131 -131
q0 -54 37.5 -85.5t104.5 -31.5q125 0 188 100q49 70 49 164zM399 1460q47 0 83 -14.5t57.5 -36t39 -42.5t39 -35.5t46.5 -14.5q75 0 75 125h135q0 -128 -56.5 -202.5t-162.5 -74.5q-47 0 -83 15t-57 36.5t-38.5 43t-39 36.5t-46.5 15q-76 0 -76 -127h-135q0 130 56 203
t163 73z" />
    <glyph glyph-name="adieresis" unicode="&#xe4;" horiz-adv-x="1032" 
d="M516 1059q184 0 286.5 -97.5t102.5 -279.5v-682h-192l-11 135q-93 -158 -305 -158q-140 0 -224.5 79.5t-84.5 215.5q0 248 303 306l295 53v47q0 186 -170 186q-81 0 -133.5 -45t-52.5 -119h-211q6 154 114 256q109 103 283 103zM686 430v37l-248 -53q-131 -27 -131 -131
q0 -54 37.5 -85.5t104.5 -31.5q125 0 188 100q49 70 49 164zM322 1432q54 0 90.5 -35.5t36.5 -89.5t-36.5 -89.5t-90.5 -35.5q-56 0 -92.5 35.5t-36.5 89.5t36.5 89.5t92.5 35.5zM631 1395q37 37 90 37t90 -37q38 -35 38 -88t-38 -90q-37 -35 -90 -35t-90 35q-37 37 -37 90
t37 88z" />
    <glyph glyph-name="aring" unicode="&#xe5;" horiz-adv-x="1032" 
d="M516 1059q184 0 286.5 -97.5t102.5 -279.5v-682h-192l-11 135q-93 -158 -305 -158q-140 0 -224.5 79.5t-84.5 215.5q0 248 303 306l295 53v47q0 186 -170 186q-81 0 -133.5 -45t-52.5 -119h-211q6 154 114 256q109 103 283 103zM686 430v37l-248 -53q-131 -27 -131 -131
q0 -54 37.5 -85.5t104.5 -31.5q125 0 188 100q49 70 49 164zM524 1569q98 0 161 -61.5t63 -155.5q0 -93 -63 -154t-161 -61q-96 0 -158.5 61t-62.5 154q0 94 62.5 155.5t158.5 61.5zM524 1450q-41 0 -68.5 -27.5t-27.5 -68.5q0 -42 27.5 -70.5t68.5 -28.5q42 0 70.5 28.5
t28.5 70.5q0 41 -28 68.5t-71 27.5z" />
    <glyph glyph-name="ae" unicode="&#xe6;" horiz-adv-x="1755" 
d="M1192 1059q218 0 346.5 -139.5t128.5 -393.5v-84h-756q7 -124 86 -198t201 -74q190 0 248 147h213q-50 -163 -169.5 -251.5t-297.5 -88.5q-270 0 -414 205q-132 -205 -370 -205q-147 0 -233.5 80t-86.5 211q0 249 303 307l295 56v41q0 192 -174 192q-81 0 -131.5 -43.5
t-50.5 -120.5h-211q6 158 112 258q107 101 281 101q222 0 324 -141q141 141 356 141zM1190 868q-116 0 -191 -71t-86 -185h535q-1 117 -71.5 186.5t-186.5 69.5zM686 412v55l-233 -51q-76 -14 -111 -44.5t-35 -88.5q0 -54 38 -85.5t104 -31.5q124 0 186 92q51 68 51 154z
" />
    <glyph glyph-name="ccedilla" unicode="&#xe7;" horiz-adv-x="1126" 
d="M580 1059q186 0 311.5 -96t157.5 -271h-213q-26 79 -92.5 122.5t-159.5 43.5q-123 0 -207 -96q-82 -94 -82 -246q0 -148 82 -242q84 -96 211 -96q90 0 157.5 45t90.5 119h215q-36 -162 -147 -255t-275 -107l-21 -93q82 0 132.5 -46t50.5 -124q0 -89 -60.5 -138.5
t-159.5 -49.5q-118 0 -188 70l72 102q42 -51 116 -51q82 0 82 65q0 66 -80 66q-32 0 -63 -8l-41 14l47 195q-194 20 -323 168q-123 147 -123 366q0 237 143 389q145 154 367 154z" />
    <glyph glyph-name="egrave" unicode="&#xe8;" horiz-adv-x="1138" 
d="M575 1059q218 0 347 -139.5t129 -393.5v-84h-756q7 -124 86 -198t201 -74q188 0 247 147h213q-50 -163 -169.5 -251.5t-297.5 -88.5q-224 0 -366 148q-139 148 -139 391q0 238 139 389q139 154 366 154zM573 868q-116 0 -190.5 -71t-85.5 -185h534q-1 117 -71.5 186.5
t-186.5 69.5zM172 1499h274l224 -323h-195z" />
    <glyph glyph-name="eacute" unicode="&#xe9;" horiz-adv-x="1138" 
d="M575 1059q218 0 347 -139.5t129 -393.5v-84h-756q7 -124 86 -198t201 -74q188 0 247 147h213q-50 -163 -169.5 -251.5t-297.5 -88.5q-224 0 -366 148q-139 148 -139 391q0 238 139 389q139 154 366 154zM573 868q-116 0 -190.5 -71t-85.5 -185h534q-1 117 -71.5 186.5
t-186.5 69.5zM674 1499h274l-303 -323h-194z" />
    <glyph glyph-name="ecircumflex" unicode="&#xea;" horiz-adv-x="1138" 
d="M575 1059q218 0 347 -139.5t129 -393.5v-84h-756q7 -124 86 -198t201 -74q188 0 247 147h213q-50 -163 -169.5 -251.5t-297.5 -88.5q-224 0 -366 148q-139 148 -139 391q0 238 139 389q139 154 366 154zM489 1499h152l281 -323h-230l-127 176l-129 -176h-229zM573 868
q-116 0 -190.5 -71t-85.5 -185h534q-1 117 -71.5 186.5t-186.5 69.5z" />
    <glyph glyph-name="edieresis" unicode="&#xeb;" horiz-adv-x="1138" 
d="M575 1059q218 0 347 -139.5t129 -393.5v-84h-756q7 -124 86 -198t201 -74q188 0 247 147h213q-50 -163 -169.5 -251.5t-297.5 -88.5q-224 0 -366 148q-139 148 -139 391q0 238 139 389q139 154 366 154zM573 868q-116 0 -190.5 -71t-85.5 -185h534q-1 117 -71.5 186.5
t-186.5 69.5zM682 1395q37 37 90 37t90 -37q38 -35 38 -88t-38 -90q-37 -35 -90 -35t-90 35q-37 37 -37 90t37 88zM373 1432q54 0 90.5 -35.5t36.5 -89.5t-36.5 -89.5t-90.5 -35.5q-56 0 -92.5 35.5t-36.5 89.5t36.5 89.5t92.5 35.5z" />
    <glyph glyph-name="igrave" unicode="&#xec;" 
d="M154 1036h217v-1036h-217v1036zM-131 1499h274l224 -323h-195z" />
    <glyph glyph-name="iacute" unicode="&#xed;" 
d="M369 1499h274l-303 -323h-195zM154 1036h217v-1036h-217v1036z" />
    <glyph glyph-name="icircumflex" unicode="&#xee;" 
d="M188 1499h152l281 -323h-230l-127 176l-129 -176h-229zM154 1036h217v-1036h-217v1036z" />
    <glyph glyph-name="idieresis" unicode="&#xef;" 
d="M63 1432q54 0 90.5 -35.5t36.5 -89.5t-36.5 -89.5t-90.5 -35.5q-56 0 -92.5 35.5t-36.5 89.5t36.5 89.5t92.5 35.5zM373 1395q37 37 90 37t90 -37q38 -35 38 -88t-38 -90q-37 -35 -90 -35t-90 35q-37 37 -37 90t37 88zM154 1036h217v-1036h-217v1036z" />
    <glyph glyph-name="eth" unicode="&#xf0;" horiz-adv-x="1155" 
d="M586 1292h307v-176h-172l231 -301q127 -165 127 -340q0 -221 -143 -358q-143 -140 -358 -140q-218 0 -361 140q-139 139 -139 358q0 215 137 352q141 141 352 144l-110 145h-316v176h181l-156 203h266zM782 690l-6 8q-76 76 -198 76q-125 0 -203 -84t-78 -215
q0 -130 78 -217q78 -84 203 -84q124 0 203 85t79 216q0 119 -78 215z" />
    <glyph glyph-name="ntilde" unicode="&#xf1;" horiz-adv-x="1122" 
d="M639 1059q159 0 247.5 -104t88.5 -283v-672h-219v629q0 105 -45.5 161t-130.5 56q-96 0 -154.5 -78.5t-58.5 -216.5v-551h-217v1036h188l16 -139q39 74 113.5 118t171.5 44zM449 1460q40 0 72 -10.5t51 -26.5t37.5 -34.5t31.5 -34.5t31.5 -26.5t40.5 -10.5q75 0 75 125
h136q0 -128 -56.5 -202.5t-162.5 -74.5q-47 0 -83 15t-57.5 36.5t-39 43t-39 36.5t-46.5 15q-75 0 -75 -127h-136q0 130 56.5 203t163.5 73z" />
    <glyph glyph-name="ograve" unicode="&#xf2;" horiz-adv-x="1206" 
d="M219 907q152 152 383 152t383 -152t152 -389t-152 -389t-383 -152t-383 152q-149 149 -149 389t149 389zM825 762q-84 96 -221 96q-136 0 -223 -96q-86 -95 -86 -244t86 -244q87 -96 223 -96q137 0 221 96q86 95 86 244t-86 244zM209 1499h274l224 -323h-195z" />
    <glyph glyph-name="oacute" unicode="&#xf3;" horiz-adv-x="1206" 
d="M219 907q152 152 383 152t383 -152t152 -389t-152 -389t-383 -152t-383 152q-149 149 -149 389t149 389zM825 762q-84 96 -221 96q-136 0 -223 -96q-86 -95 -86 -244t86 -244q87 -96 223 -96q137 0 221 96q86 95 86 244t-86 244zM711 1499h274l-303 -323h-195z" />
    <glyph glyph-name="ocircumflex" unicode="&#xf4;" horiz-adv-x="1206" 
d="M219 907q152 152 383 152t383 -152t152 -389t-152 -389t-383 -152t-383 152q-149 149 -149 389t149 389zM825 762q-84 96 -221 96q-136 0 -223 -96q-86 -95 -86 -244t86 -244q87 -96 223 -96q137 0 221 96q86 95 86 244t-86 244zM526 1499h152l280 -323h-229l-127 176
l-129 -176h-229z" />
    <glyph glyph-name="otilde" unicode="&#xf5;" horiz-adv-x="1206" 
d="M475 1460q40 0 72 -10.5t51 -26.5t37.5 -34.5t31.5 -34.5t31.5 -26.5t40.5 -10.5q76 0 76 125h135q0 -128 -56.5 -202.5t-162.5 -74.5q-47 0 -83 15t-57 36.5t-38.5 43t-39 36.5t-46.5 15q-76 0 -76 -127h-135q0 130 56 203t163 73zM219 907q152 152 383 152t383 -152
t152 -389t-152 -389t-383 -152t-383 152q-149 149 -149 389t149 389zM825 762q-84 96 -221 96q-136 0 -223 -96q-86 -95 -86 -244t86 -244q87 -96 223 -96q137 0 221 96q86 95 86 244t-86 244z" />
    <glyph glyph-name="odieresis" unicode="&#xf6;" horiz-adv-x="1206" 
d="M219 907q152 152 383 152t383 -152t152 -389t-152 -389t-383 -152t-383 152q-149 149 -149 389t149 389zM825 762q-84 96 -221 96q-136 0 -223 -96q-86 -95 -86 -244t86 -244q87 -96 223 -96q137 0 221 96q86 95 86 244t-86 244zM401 1432q54 0 90.5 -35.5t36.5 -89.5
t-36.5 -89.5t-90.5 -35.5q-56 0 -92.5 35.5t-36.5 89.5t36.5 89.5t92.5 35.5zM711 1395q37 37 90 37t90 -37q38 -35 38 -88t-38 -90q-37 -35 -90 -35t-90 35q-37 37 -37 90t37 88z" />
    <glyph glyph-name="divide" unicode="&#xf7;" horiz-adv-x="966" 
d="M610 1098q0 -57 -40.5 -96t-100.5 -39t-99.5 39t-39.5 96q0 58 40 97.5t99 39.5q60 0 100.5 -38.5t40.5 -98.5zM610 334q0 -57 -40.5 -97t-100.5 -40q-59 0 -99 39.5t-40 97.5t40 97.5t99 39.5q60 0 100.5 -38.5t40.5 -98.5zM61 813h844v-195h-844v195z" />
    <glyph glyph-name="oslash" unicode="&#xf8;" horiz-adv-x="1206" 
d="M602 1059q105 0 201 -35l86 162l119 -56l-90 -167q219 -154 219 -445q0 -237 -152 -389t-383 -152q-104 0 -194 33l-86 -162l-119 54l88 166q-105 73 -163 189t-58 261q0 240 149 389q152 152 383 152zM604 858q-136 0 -223 -96q-86 -95 -86 -244q0 -160 98 -258l312 582
q-53 16 -101 16zM911 518q0 158 -96 254l-309 -579q44 -15 98 -15q137 0 221 96q86 95 86 244z" />
    <glyph glyph-name="ugrave" unicode="&#xf9;" horiz-adv-x="1101" 
d="M735 1036h217v-1036h-190l-14 139q-79 -162 -281 -162q-161 0 -246.5 103t-85.5 285v671h217v-628q0 -220 174 -220q94 0 151.5 75t57.5 206v567zM156 1499h274l223 -323h-194z" />
    <glyph glyph-name="uacute" unicode="&#xfa;" horiz-adv-x="1101" 
d="M735 1036h217v-1036h-190l-14 139q-79 -162 -281 -162q-161 0 -246.5 103t-85.5 285v671h217v-628q0 -220 174 -220q94 0 151.5 75t57.5 206v567zM655 1499h275l-303 -323h-195z" />
    <glyph glyph-name="ucircumflex" unicode="&#xfb;" horiz-adv-x="1101" 
d="M735 1036h217v-1036h-190l-14 139q-79 -162 -281 -162q-161 0 -246.5 103t-85.5 285v671h217v-628q0 -220 174 -220q94 0 151.5 75t57.5 206v567zM469 1499h152l280 -323h-229l-127 176l-129 -176h-230z" />
    <glyph glyph-name="udieresis" unicode="&#xfc;" horiz-adv-x="1101" 
d="M735 1036h217v-1036h-190l-14 139q-79 -162 -281 -162q-161 0 -246.5 103t-85.5 285v671h217v-628q0 -220 174 -220q94 0 151.5 75t57.5 206v567zM344 1432q54 0 90.5 -35.5t36.5 -89.5t-36.5 -89.5t-90.5 -35.5q-56 0 -92.5 35.5t-36.5 89.5t36.5 89.5t92.5 35.5z
M653 1395q37 37 90.5 37t90.5 -37q38 -35 38 -88t-38 -90q-37 -35 -90.5 -35t-90.5 35q-37 37 -37 90t37 88z" />
    <glyph glyph-name="yacute" unicode="&#xfd;" horiz-adv-x="1048" 
d="M782 1036h234l-549 -1476h-227l166 454l-379 1022h233l240 -694l20 -84l21 84zM627 1499h274l-303 -323h-195z" />
    <glyph glyph-name="thorn" unicode="&#xfe;" horiz-adv-x="1261" 
d="M160 1495h219v-588q112 152 330 152q211 0 346 -156q135 -153 135 -385t-137 -387q-136 -154 -346 -154q-222 0 -328 152v-569h-219v1935zM670 852q-121 0 -209 -82q-85 -79 -88 -225v-47q0 -149 86 -232q90 -84 209 -84q130 0 213.5 94t83.5 242q0 147 -83 240.5
t-212 93.5z" />
    <glyph glyph-name="ydieresis" unicode="&#xff;" horiz-adv-x="1048" 
d="M782 1036h234l-549 -1476h-227l166 454l-379 1022h233l240 -694l20 -84l21 84zM319 1432q54 0 90.5 -35.5t36.5 -89.5t-36.5 -89.5t-90.5 -35.5q-56 0 -92.5 35.5t-36.5 89.5t36.5 89.5t92.5 35.5zM629 1395q37 37 90 37t90 -37q38 -35 38 -88t-38 -90q-37 -35 -90 -35
t-90 35q-37 37 -37 90t37 88z" />
    <glyph glyph-name="Amacron" unicode="&#x100;" horiz-adv-x="1445" 
d="M600 1434h246l567 -1434h-252l-137 350h-604l-135 -350h-252zM748 1069l-27 78l-27 -78l-198 -512h454zM444 1683h553v-170h-553v170z" />
    <glyph glyph-name="amacron" unicode="&#x101;" horiz-adv-x="1032" 
d="M516 1059q184 0 286.5 -97.5t102.5 -279.5v-682h-192l-11 135q-93 -158 -305 -158q-140 0 -224.5 79.5t-84.5 215.5q0 248 303 306l295 53v47q0 186 -170 186q-81 0 -133.5 -45t-52.5 -119h-211q6 154 114 256q109 103 283 103zM686 430v37l-248 -53q-131 -27 -131 -131
q0 -54 37.5 -85.5t104.5 -31.5q125 0 188 100q49 70 49 164zM254 1382h553v-170h-553v170z" />
    <glyph glyph-name="Abreve" unicode="&#x102;" horiz-adv-x="1445" 
d="M600 1434h246l567 -1434h-252l-137 350h-604l-135 -350h-252zM748 1069l-27 78l-27 -78l-198 -512h454zM852 1759h180q0 -118 -87 -192t-224 -74t-223 74t-86 192h178q0 -54 35 -86.5t96 -32.5t96 32.5t35 86.5z" />
    <glyph glyph-name="abreve" unicode="&#x103;" horiz-adv-x="1032" 
d="M516 1059q184 0 286.5 -97.5t102.5 -279.5v-682h-192l-11 135q-93 -158 -305 -158q-140 0 -224.5 79.5t-84.5 215.5q0 248 303 306l295 53v47q0 186 -170 186q-81 0 -133.5 -45t-52.5 -119h-211q6 154 114 256q109 103 283 103zM686 430v37l-248 -53q-131 -27 -131 -131
q0 -54 37.5 -85.5t104.5 -31.5q125 0 188 100q49 70 49 164zM655 1456h181q0 -130 -87.5 -213.5t-224.5 -83.5q-136 0 -222.5 83t-86.5 214h178q0 -67 36 -109t95 -42t95 42t36 109z" />
    <glyph glyph-name="Aogonek" unicode="&#x104;" horiz-adv-x="1445" 
d="M600 1434h246l567 -1434h-67q-138 -58 -138 -176q0 -53 27 -80q28 -28 80.5 -29.5t83.5 17.5l31 -119q-45 -25 -123 -25q-107 0 -175.5 63t-68.5 167q0 119 94 192l-133 340h-604l-135 -350h-252zM748 1069l-27 78l-27 -78l-198 -512h454z" />
    <glyph glyph-name="aogonek" unicode="&#x105;" horiz-adv-x="1032" 
d="M516 1059q184 0 286.5 -97.5t102.5 -279.5v-682h-18q-137 -58 -137 -176q0 -54 26 -80q28 -28 80.5 -29.5t83.5 17.5l31 -119q-45 -25 -123 -25q-107 0 -175.5 63t-68.5 167q0 126 107 202l-9 115q-93 -158 -305 -158q-140 0 -224.5 79.5t-84.5 215.5q0 248 303 306
l295 53v47q0 186 -170 186q-81 0 -133.5 -45t-52.5 -119h-211q6 154 114 256q109 103 283 103zM686 430v37l-248 -53q-131 -27 -131 -131q0 -54 37.5 -85.5t104.5 -31.5q125 0 188 100q49 70 49 164z" />
    <glyph glyph-name="Cacute" unicode="&#x106;" horiz-adv-x="1499" 
d="M791 1460q253 0 419.5 -123t227.5 -346h-254q-91 254 -393 254q-209 0 -340 -149q-132 -147 -132 -379q0 -229 132 -379t344 -150q154 0 255.5 70t145.5 195h246q-62 -231 -227 -355.5t-420 -124.5q-314 0 -516 211q-201 213 -201 533q0 319 201 532q199 211 512 211z
M844 1755h313l-278 -233h-230z" />
    <glyph glyph-name="cacute" unicode="&#x107;" horiz-adv-x="1126" 
d="M580 1059q186 0 311.5 -96t157.5 -271h-213q-26 79 -92.5 122.5t-159.5 43.5q-123 0 -207 -96q-82 -94 -82 -246q0 -148 82 -242q84 -96 211 -96q90 0 157.5 45t90.5 119h215q-38 -174 -164 -269.5t-307 -95.5q-223 0 -367 150q-143 149 -143 389q0 237 143 389
q145 154 367 154zM686 1499h275l-304 -323h-194z" />
    <glyph glyph-name="Ccircumflex" unicode="&#x108;" horiz-adv-x="1499" 
d="M791 1460q253 0 419.5 -123t227.5 -346h-254q-91 254 -393 254q-209 0 -340 -149q-132 -147 -132 -379q0 -229 132 -379t344 -150q154 0 255.5 70t145.5 195h246q-62 -231 -227 -355.5t-420 -124.5q-314 0 -516 211q-201 213 -201 533q0 319 201 532q199 211 512 211z
M725 1763h131l303 -243h-252l-119 108l-116 -108h-250z" />
    <glyph glyph-name="ccircumflex" unicode="&#x109;" horiz-adv-x="1126" 
d="M580 1059q186 0 311.5 -96t157.5 -271h-213q-26 79 -92.5 122.5t-159.5 43.5q-123 0 -207 -96q-82 -94 -82 -246q0 -148 82 -242q84 -96 211 -96q90 0 157.5 45t90.5 119h215q-38 -174 -164 -269.5t-307 -95.5q-223 0 -367 150q-143 149 -143 389q0 237 143 389
q145 154 367 154zM502 1499h151l281 -323h-229l-127 176l-129 -176h-230z" />
    <glyph glyph-name="Cdotaccent" unicode="&#x10a;" horiz-adv-x="1499" 
d="M791 1460q253 0 419.5 -123t227.5 -346h-254q-91 254 -393 254q-209 0 -340 -149q-132 -147 -132 -379q0 -229 132 -379t344 -150q154 0 255.5 70t145.5 195h246q-62 -231 -227 -355.5t-420 -124.5q-314 0 -516 211q-201 213 -201 533q0 319 201 532q199 211 512 211z
M791 1776q54 0 92.5 -36.5t38.5 -90.5q0 -55 -38.5 -93t-92.5 -38q-57 0 -95.5 37.5t-38.5 93.5q0 54 38.5 90.5t95.5 36.5z" />
    <glyph glyph-name="cdotaccent" unicode="&#x10b;" horiz-adv-x="1126" 
d="M580 1059q186 0 311.5 -96t157.5 -271h-213q-26 79 -92.5 122.5t-159.5 43.5q-123 0 -207 -96q-82 -94 -82 -246q0 -148 82 -242q84 -96 211 -96q90 0 157.5 45t90.5 119h215q-38 -174 -164 -269.5t-307 -95.5q-223 0 -367 150q-143 149 -143 389q0 237 143 389
q145 154 367 154zM477 1419q41 41 100.5 41t100.5 -41q41 -38 41 -95.5t-41 -98.5q-41 -38 -100.5 -38t-100.5 38q-38 41 -38 98.5t38 95.5z" />
    <glyph glyph-name="Ccaron" unicode="&#x10c;" horiz-adv-x="1499" 
d="M791 1460q253 0 419.5 -123t227.5 -346h-254q-91 254 -393 254q-209 0 -340 -149q-132 -147 -132 -379q0 -229 132 -379t344 -150q154 0 255.5 70t145.5 195h246q-62 -231 -227 -355.5t-420 -124.5q-314 0 -516 211q-201 213 -201 533q0 319 201 532q199 211 512 211z
M907 1757h252l-303 -244h-131l-303 244h250l116 -108z" />
    <glyph glyph-name="ccaron" unicode="&#x10d;" horiz-adv-x="1126" 
d="M580 1059q186 0 311.5 -96t157.5 -271h-213q-26 79 -92.5 122.5t-159.5 43.5q-123 0 -207 -96q-82 -94 -82 -246q0 -148 82 -242q84 -96 211 -96q90 0 157.5 45t90.5 119h215q-38 -174 -164 -269.5t-307 -95.5q-223 0 -367 150q-143 149 -143 389q0 237 143 389
q145 154 367 154zM705 1477h229l-281 -324h-151l-283 324h230l129 -177z" />
    <glyph glyph-name="Dcaron" unicode="&#x10e;" horiz-adv-x="1497" 
d="M154 1434h524q333 0 532 -199q201 -198 201 -518q0 -322 -201 -520q-200 -197 -532 -197h-524v1434zM678 1219h-295v-1004h295q234 0 366 132.5t132 369.5t-131.5 369.5t-366.5 132.5zM797 1737h252l-304 -244h-131l-303 244h250l117 -109z" />
    <glyph glyph-name="dcaron" unicode="&#x10f;" horiz-adv-x="1540" 
d="M883 1495h217v-1495h-191l-14 145q-116 -168 -344 -168q-210 0 -346 154q-135 156 -135 387q0 232 135 385q138 156 348 156q221 0 330 -152v588zM592 852q-130 0 -213.5 -93.5t-83.5 -240.5q0 -149 82 -242.5t213 -93.5q122 0 207 88q88 88 88 240v10q0 152 -88 240
q-89 92 -205 92zM1376 1495q61 0 101.5 -42.5t40.5 -109.5q0 -193 -160 -376l-66 24q53 106 68 232q-54 6 -88.5 42.5t-34.5 90.5q0 57 41 98t98 41z" />
    <glyph glyph-name="Dcroat" unicode="&#x110;" horiz-adv-x="1515" 
d="M172 1434h524q334 0 533 -199q201 -198 201 -518q0 -322 -201 -520q-200 -197 -533 -197h-524v647h-166v168h166v619zM696 1219h-295v-404h238v-168h-238v-432h295q234 0 366 132.5t132 369.5t-131.5 369.5t-366.5 132.5z" />
    <glyph glyph-name="dslash" unicode="&#x111;" horiz-adv-x="1257" 
d="M883 1495h217v-111h147v-163h-147v-1221h-191l-14 145q-116 -168 -344 -168q-210 0 -346 154q-135 156 -135 387q0 232 135 385q138 156 348 156q221 0 330 -152v314h-199v163h199v111zM592 852q-130 0 -213.5 -93.5t-83.5 -240.5q0 -149 82 -242.5t213 -93.5
q122 0 207 88q88 88 88 240v10q0 152 -88 240q-89 92 -205 92z" />
    <glyph glyph-name="Emacron" unicode="&#x112;" horiz-adv-x="1052" 
d="M154 1434h804v-215h-575v-375h502v-213h-502v-416h575v-215h-804v1434zM291 1683h553v-170h-553v170z" />
    <glyph glyph-name="emacron" unicode="&#x113;" horiz-adv-x="1138" 
d="M575 1059q218 0 347 -139.5t129 -393.5v-84h-756q7 -124 86 -198t201 -74q188 0 247 147h213q-50 -163 -169.5 -251.5t-297.5 -88.5q-224 0 -366 148q-139 148 -139 391q0 238 139 389q139 154 366 154zM573 868q-116 0 -190.5 -71t-85.5 -185h534q-1 117 -71.5 186.5
t-186.5 69.5zM289 1382h553v-170h-553v170z" />
    <glyph glyph-name="Ebreve" unicode="&#x114;" horiz-adv-x="1052" 
d="M702 1759h181q0 -118 -87.5 -192t-224.5 -74t-223 74t-86 192h178q0 -54 35 -86.5t96 -32.5t96 32.5t35 86.5zM154 1434h804v-215h-575v-375h502v-213h-502v-416h575v-215h-804v1434z" />
    <glyph glyph-name="ebreve" unicode="&#x115;" horiz-adv-x="1138" 
d="M575 1059q218 0 347 -139.5t129 -393.5v-84h-756q7 -124 86 -198t201 -74q188 0 247 147h213q-50 -163 -169.5 -251.5t-297.5 -88.5q-224 0 -366 148q-139 148 -139 391q0 238 139 389q139 154 366 154zM696 1456h181q0 -130 -87.5 -213.5t-224.5 -83.5q-136 0 -222.5 83
t-86.5 214h178q0 -67 36 -109t95 -42t95 42t36 109zM573 868q-116 0 -190.5 -71t-85.5 -185h534q-1 117 -71.5 186.5t-186.5 69.5z" />
    <glyph glyph-name="Edotaccent" unicode="&#x116;" horiz-adv-x="1052" 
d="M154 1434h804v-215h-575v-375h502v-213h-502v-416h575v-215h-804v1434zM575 1755q54 0 93 -36.5t39 -90.5q0 -55 -39 -93t-93 -38q-57 0 -95 37.5t-38 93.5q0 54 38 90.5t95 36.5z" />
    <glyph glyph-name="edotaccent" unicode="&#x117;" horiz-adv-x="1138" 
d="M575 1059q218 0 347 -139.5t129 -393.5v-84h-756q7 -124 86 -198t201 -74q188 0 247 147h213q-50 -163 -169.5 -251.5t-297.5 -88.5q-224 0 -366 148q-139 148 -139 391q0 238 139 389q139 154 366 154zM573 868q-116 0 -190.5 -71t-85.5 -185h534q-1 117 -71.5 186.5
t-186.5 69.5zM465 1419q41 41 100.5 41t100.5 -41q41 -38 41 -95.5t-41 -98.5q-41 -38 -100.5 -38t-100.5 38q-38 41 -38 98.5t38 95.5z" />
    <glyph glyph-name="Eogonek" unicode="&#x118;" horiz-adv-x="1052" 
d="M154 1434h804v-215h-575v-375h502v-213h-502v-416h575v-215h-47q-137 -58 -137 -176q0 -53 27 -80q28 -28 80.5 -29.5t83.5 17.5l30 -119q-45 -25 -123 -25q-107 0 -175 63t-68 167q0 112 82 182h-557v1434z" />
    <glyph glyph-name="eogonek" unicode="&#x119;" horiz-adv-x="1138" 
d="M575 1059q218 0 347 -139.5t129 -393.5v-84h-756q7 -124 86 -198t201 -74q188 0 247 147h213q-52 -170 -180 -260h2l-8 -4q-25 -19 -57 -30q-72 -51 -72 -142q0 -53 27 -80q28 -28 80.5 -29.5t83.5 17.5l30 -119q-44 -24 -123 -24q-107 0 -175 62.5t-68 166.5
q0 64 20 105q-3 0 -13.5 -1.5t-13.5 -1.5q-224 0 -366 148q-139 148 -139 391q0 238 139 389q139 154 366 154zM573 868q-116 0 -190.5 -71t-85.5 -185h534q-1 117 -71.5 186.5t-186.5 69.5z" />
    <glyph glyph-name="Ecaron" unicode="&#x11a;" horiz-adv-x="1052" 
d="M154 1434h804v-215h-575v-375h502v-213h-502v-416h575v-215h-804v1434zM686 1737h252l-303 -244h-131l-303 244h250l116 -109z" />
    <glyph glyph-name="ecaron" unicode="&#x11b;" horiz-adv-x="1138" 
d="M575 1059q218 0 347 -139.5t129 -393.5v-84h-756q7 -124 86 -198t201 -74q188 0 247 147h213q-50 -163 -169.5 -251.5t-297.5 -88.5q-224 0 -366 148q-139 148 -139 391q0 238 139 389q139 154 366 154zM692 1477h230l-281 -324h-152l-282 324h229l129 -177zM573 868
q-116 0 -190.5 -71t-85.5 -185h534q-1 117 -71.5 186.5t-186.5 69.5z" />
    <glyph glyph-name="Gcircumflex" unicode="&#x11c;" horiz-adv-x="1552" 
d="M791 1460q253 0 419.5 -123t227.5 -346h-254q-91 254 -396 254q-206 0 -337 -149q-132 -147 -132 -379q0 -229 132 -379t346 -150q186 0 295 91t116 260h-389v215h633v-111q0 -313 -178 -491q-176 -179 -477 -179q-316 0 -518 211q-201 213 -201 533q0 319 201 532
q199 211 512 211zM725 1763h131l303 -243h-252l-119 108l-116 -108h-250z" />
    <glyph glyph-name="gcircumflex" unicode="&#x11d;" horiz-adv-x="1048" 
d="M668 1036h383v-188h-166q35 -78 35 -160q0 -157 -111 -262q-111 -102 -289 -102q-111 0 -201 41q-32 -32 -32 -89q0 -44 32 -70t87 -26h260q160 0 245.5 -75.5t85.5 -213.5q0 -166 -118.5 -260t-323.5 -94q-222 0 -341.5 83t-119.5 237q0 121 111 186q-131 76 -131 217
q0 134 106 215q-67 94 -67 213q0 163 112 266q114 105 295 105q71 0 148 -23zM518 881q-87 0 -139.5 -53t-52.5 -140q0 -83 53.5 -136.5t138.5 -53.5t138 53.5t53 136.5q0 86 -52.5 139.5t-138.5 53.5zM455 1499h151l281 -323h-230l-127 176l-129 -176h-229zM616 4h-178
q-59 -5 -94 -39t-35 -94q0 -77 64 -117.5t182 -40.5q229 0 229 166q0 125 -168 125z" />
    <glyph glyph-name="Gbreve" unicode="&#x11e;" horiz-adv-x="1552" 
d="M791 1460q253 0 419.5 -123t227.5 -346h-254q-91 254 -396 254q-206 0 -337 -149q-132 -147 -132 -379q0 -229 132 -379t346 -150q186 0 295 91t116 260h-389v215h633v-111q0 -313 -178 -491q-176 -179 -477 -179q-316 0 -518 211q-201 213 -201 533q0 319 201 532
q199 211 512 211zM922 1780h180q0 -118 -87 -192.5t-224 -74.5t-223.5 74.5t-86.5 192.5h178q0 -54 35.5 -86.5t96.5 -32.5t96 32.5t35 86.5z" />
    <glyph glyph-name="gbreve" unicode="&#x11f;" horiz-adv-x="1048" 
d="M668 1036h383v-188h-166q35 -78 35 -160q0 -157 -111 -262q-111 -102 -289 -102q-111 0 -201 41q-32 -32 -32 -89q0 -44 32 -70t87 -26h260q160 0 245.5 -75.5t85.5 -213.5q0 -166 -118.5 -260t-323.5 -94q-222 0 -341.5 83t-119.5 237q0 121 111 186q-131 76 -131 217
q0 134 106 215q-67 94 -67 213q0 163 112 266q114 105 295 105q71 0 148 -23zM518 881q-87 0 -139.5 -53t-52.5 -140q0 -83 53.5 -136.5t138.5 -53.5t138 53.5t53 136.5q0 86 -52.5 139.5t-138.5 53.5zM616 4h-178q-59 -5 -94 -39t-35 -94q0 -77 64 -117.5t182 -40.5
q229 0 229 166q0 125 -168 125zM662 1456h180q0 -130 -87.5 -213.5t-224.5 -83.5q-136 0 -222.5 83t-86.5 214h178q0 -67 36 -109t95 -42t95.5 42t36.5 109z" />
    <glyph glyph-name="Gdotaccent" unicode="&#x120;" horiz-adv-x="1552" 
d="M791 1460q253 0 419.5 -123t227.5 -346h-254q-91 254 -396 254q-206 0 -337 -149q-132 -147 -132 -379q0 -229 132 -379t346 -150q186 0 295 91t116 260h-389v215h633v-111q0 -313 -178 -491q-176 -179 -477 -179q-316 0 -518 211q-201 213 -201 533q0 319 201 532
q199 211 512 211zM791 1776q54 0 92.5 -36.5t38.5 -90.5q0 -55 -38.5 -93t-92.5 -38q-57 0 -95.5 37.5t-38.5 93.5q0 54 38.5 90.5t95.5 36.5z" />
    <glyph glyph-name="gdotaccent" unicode="&#x121;" horiz-adv-x="1048" 
d="M668 1036h383v-188h-166q35 -78 35 -160q0 -157 -111 -262q-111 -102 -289 -102q-111 0 -201 41q-32 -32 -32 -89q0 -44 32 -70t87 -26h260q160 0 245.5 -75.5t85.5 -213.5q0 -166 -118.5 -260t-323.5 -94q-222 0 -341.5 83t-119.5 237q0 121 111 186q-131 76 -131 217
q0 134 106 215q-67 94 -67 213q0 163 112 266q114 105 295 105q71 0 148 -23zM518 881q-87 0 -139.5 -53t-52.5 -140q0 -83 53.5 -136.5t138.5 -53.5t138 53.5t53 136.5q0 86 -52.5 139.5t-138.5 53.5zM616 4h-178q-59 -5 -94 -39t-35 -94q0 -77 64 -117.5t182 -40.5
q229 0 229 166q0 125 -168 125zM430 1419q41 41 100.5 41t100.5 -41q41 -38 41 -95.5t-41 -98.5q-41 -38 -100.5 -38t-100.5 38q-38 41 -38 98.5t38 95.5z" />
    <glyph glyph-name="Gcommaaccent" unicode="&#x122;" horiz-adv-x="1552" 
d="M791 1460q253 0 419.5 -123t227.5 -346h-254q-91 254 -396 254q-206 0 -337 -149q-132 -147 -132 -379q0 -229 132 -379t346 -150q186 0 295 91t116 260h-389v215h633v-111q0 -313 -178 -491q-176 -179 -477 -179q-316 0 -518 211q-201 213 -201 533q0 319 201 532
q199 211 512 211zM799 -92q60 0 99.5 -42.5t39.5 -109.5q0 -86 -44 -181t-114 -165l-61 31q52 94 61 194q-54 6 -87.5 43t-33.5 91q0 59 41 99t99 40z" />
    <glyph glyph-name="gcommaaccent" unicode="&#x123;" horiz-adv-x="1048" 
d="M668 1036h383v-188h-166q35 -78 35 -160q0 -157 -111 -262q-111 -102 -289 -102q-111 0 -201 41q-32 -32 -32 -89q0 -44 32 -70t87 -26h260q160 0 245.5 -75.5t85.5 -213.5q0 -166 -118.5 -260t-323.5 -94q-222 0 -341.5 83t-119.5 237q0 121 111 186q-131 76 -131 217
q0 134 106 215q-67 94 -67 213q0 163 112 266q114 105 295 105q71 0 148 -23zM518 881q-87 0 -139.5 -53t-52.5 -140q0 -83 53.5 -136.5t138.5 -53.5t138 53.5t53 136.5q0 86 -52.5 139.5t-138.5 53.5zM616 4h-178q-59 -5 -94 -39t-35 -94q0 -77 64 -117.5t182 -40.5
q229 0 229 166q0 125 -168 125zM547 1686l67 -25q-55 -107 -67 -231q54 -6 88.5 -43t34.5 -91q0 -57 -41.5 -97t-98.5 -40q-62 0 -101.5 42t-39.5 110q0 188 158 375z" />
    <glyph glyph-name="Hcircumflex" unicode="&#x124;" horiz-adv-x="1458" 
d="M1075 1434h230v-1434h-230v633h-692v-633h-229v1434h229v-584h692v584zM662 1743h131l303 -244h-252l-119 109l-117 -109h-250z" />
    <glyph glyph-name="hcircumflex" unicode="&#x125;" horiz-adv-x="1107" 
d="M150 1495h217v-580q79 144 272 144q159 0 247.5 -104t88.5 -283v-672h-219v629q0 105 -45.5 161t-130.5 56q-96 0 -154.5 -78.5t-58.5 -216.5v-551h-217v1495zM201 1792h131l303 -244h-252l-119 109l-117 -109h-249z" />
    <glyph glyph-name="Hbar" unicode="&#x126;" horiz-adv-x="1490" 
d="M1090 1434h229v-193h156v-166h-156v-1075h-229v633h-693v-633h-229v1075h-152v166h152v193h229v-193h693v193zM397 1075v-225h693v225h-693z" />
    <glyph glyph-name="hbar" unicode="&#x127;" horiz-adv-x="1118" 
d="M160 1495h217v-111h196v-163h-196v-306q79 144 272 144q159 0 247.5 -104t88.5 -283v-672h-219v629q0 105 -45.5 161t-130.5 56q-96 0 -154.5 -78.5t-58.5 -216.5v-551h-217v1221h-150v163h150v111z" />
    <glyph glyph-name="Itilde" unicode="&#x128;" horiz-adv-x="536" 
d="M143 1772q42 0 78 -14t60 -34t44.5 -40t41.5 -34t41 -14q75 0 75 117h135q0 -126 -56 -197t-163 -71q-43 0 -79 14t-60 33.5t-44 39.5t-40.5 34t-40.5 14q-76 0 -76 -117h-135q0 126 56 197.5t163 71.5zM154 1434h229v-1434h-229v1434z" />
    <glyph glyph-name="itilde" unicode="&#x129;" 
d="M135 1460q40 0 72 -10.5t51 -26.5t37.5 -34.5t31.5 -34.5t31.5 -26.5t40.5 -10.5q76 0 76 125h135q0 -128 -56.5 -202.5t-162.5 -74.5q-47 0 -83 15t-57 36.5t-38.5 43t-39 36.5t-46.5 15q-76 0 -76 -127h-135q0 130 56 203t163 73zM154 1036h217v-1036h-217v1036z" />
    <glyph glyph-name="Imacron" unicode="&#x12a;" horiz-adv-x="536" 
d="M154 1434h229v-1434h-229v1434zM-6 1683h553v-170h-553v170z" />
    <glyph glyph-name="imacron" unicode="&#x12b;" 
d="M154 1036h217v-1036h-217v1036zM-14 1382h553v-170h-553v170z" />
    <glyph glyph-name="Ibreve" unicode="&#x12c;" horiz-adv-x="536" 
d="M397 1759h181q0 -118 -87.5 -192t-224.5 -74t-223 74t-86 192h178q0 -54 35 -86.5t96 -32.5t96 32.5t35 86.5zM154 1434h229v-1434h-229v1434z" />
    <glyph glyph-name="ibreve" unicode="&#x12d;" 
d="M393 1456h180q0 -130 -87 -213.5t-224 -83.5q-136 0 -222.5 83t-86.5 214h178q0 -67 36 -109t95 -42t95 42t36 109zM154 1036h217v-1036h-217v1036z" />
    <glyph glyph-name="Iogonek" unicode="&#x12e;" horiz-adv-x="536" 
d="M154 1434h229v-1434h-68q-137 -58 -137 -176q0 -53 27 -80q28 -28 80.5 -29.5t83.5 17.5l30 -119q-45 -25 -123 -25q-107 0 -175 63t-68 167q0 136 121 213v1403z" />
    <glyph glyph-name="iogonek" unicode="&#x12f;" 
d="M154 1036h217v-1036h-37q-137 -58 -137 -176q0 -54 26 -80q28 -28 80.5 -29.5t83.5 17.5l31 -119q-45 -25 -123 -25q-107 0 -175.5 63t-68.5 167q0 127 103 198v1020zM262 1485q44 3 79.5 -23t51 -63.5t8.5 -80t-39 -69.5q-30 -30 -73.5 -36.5t-81 8t-63 48.5t-21.5 77
q0 59 40.5 99t98.5 40z" />
    <glyph glyph-name="Idot" unicode="&#x130;" horiz-adv-x="536" 
d="M266 1755q54 0 92.5 -36.5t38.5 -90.5q0 -55 -38.5 -93t-92.5 -38q-57 0 -95 37.5t-38 93.5q0 54 38 90.5t95 36.5zM154 1434h229v-1434h-229v1434z" />
    <glyph glyph-name="dotlessi" unicode="&#x131;" 
d="M154 1036h217v-1036h-217v1036z" />
    <glyph glyph-name="Jcircumflex" unicode="&#x134;" horiz-adv-x="1052" 
d="M688 1434h230v-1010q0 -216 -108.5 -329t-311.5 -113q-216 0 -327.5 122.5t-117.5 348.5h230q12 -256 215 -256q92 0 141 61.5t49 177.5v998zM737 1743h131l303 -244h-251l-119 109l-117 -109h-250z" />
    <glyph glyph-name="jcircumflex" unicode="&#x135;" 
d="M154 1036h217v-1118q0 -381 -328 -381q-93 0 -152 19v196q56 -16 115 -16q78 0 113 46t35 142v1112zM190 1499h152l281 -323h-230l-127 176l-129 -176h-229z" />
    <glyph glyph-name="Kcommaaccent" unicode="&#x136;" horiz-adv-x="1384" 
d="M956 1434h283l-467 -637l578 -797h-277l-457 612l-225 -286v-326h-229v1434h229v-772zM842 -223q0 -86 -44 -181t-114 -165l-61 30q52 94 61 195q-54 6 -87.5 42.5t-33.5 90.5q0 60 39.5 99.5t99.5 39.5q61 0 100.5 -42t39.5 -109z" />
    <glyph glyph-name="kcommaaccent" unicode="&#x137;" horiz-adv-x="1060" 
d="M158 1495h217v-915l348 456h262l-319 -432l372 -604h-247l-279 436l-137 -170v-266h-217v1495zM707 -223q0 -86 -44 -181t-114 -165l-62 30q53 96 62 195q-54 6 -87.5 42.5t-33.5 90.5q0 60 39.5 99.5t99.5 39.5q61 0 100.5 -42t39.5 -109z" />
    <glyph glyph-name="Lacute" unicode="&#x139;" horiz-adv-x="1048" 
d="M152 1434h229v-1219h620v-215h-849v1434zM319 1735h314l-279 -234h-229z" />
    <glyph glyph-name="lacute" unicode="&#x13a;" 
d="M154 1495h217v-1495h-217v1495zM346 1812h313l-278 -233h-229z" />
    <glyph glyph-name="Lcommaaccent" unicode="&#x13b;" horiz-adv-x="1048" 
d="M586 -72q61 0 100 -42t39 -109q0 -86 -44 -181t-114 -165l-61 30q52 94 61 195q-54 6 -87.5 42.5t-33.5 90.5q0 59 41 99t99 40zM152 1434h229v-1219h620v-215h-849v1434z" />
    <glyph glyph-name="lcommaaccent" unicode="&#x13c;" 
d="M154 1495h217v-1495h-217v1495zM399 -223q0 -87 -43.5 -181.5t-113.5 -164.5l-62 30q53 96 62 195q-54 6 -87.5 42.5t-33.5 90.5q0 60 39.5 99.5t99.5 39.5q61 0 100 -42t39 -109z" />
    <glyph glyph-name="Lcaron" unicode="&#x13d;" horiz-adv-x="1048" 
d="M152 1434h229v-1219h620v-215h-849v1434zM905 1446q61 0 101.5 -42.5t40.5 -109.5q0 -193 -160 -376l-66 24q53 106 68 232q-54 6 -88.5 42.5t-34.5 90.5q0 57 41 98t98 41z" />
    <glyph glyph-name="lcaron" unicode="&#x13e;" horiz-adv-x="811" 
d="M154 1495h217v-1495h-217v1495zM647 1495q61 0 101 -42.5t40 -109.5q0 -195 -159 -376l-66 24q53 106 68 232q-54 6 -88.5 42.5t-34.5 90.5q0 57 41 98t98 41z" />
    <glyph glyph-name="Ldot" unicode="&#x13f;" horiz-adv-x="1048" 
d="M152 1434h229v-1219h620v-215h-849v1434zM958 678q0 -62 -42 -104t-103 -42t-102 42t-41 104q0 60 41 100.5t102 40.5q62 0 103.5 -40.5t41.5 -100.5z" />
    <glyph glyph-name="ldot" unicode="&#x140;" horiz-adv-x="874" 
d="M803 532q0 -61 -42 -103t-104 -42q-61 0 -102 41.5t-41 103.5q0 60 41 101t102 41q62 0 104 -41t42 -101zM154 1495h217v-1495h-217v1495z" />
    <glyph glyph-name="Lslash" unicode="&#x141;" horiz-adv-x="1079" 
d="M180 1434h230v-631l174 69l55 -155l-229 -90v-412h620v-215h-850v537l-149 -60l-56 156l205 80v721z" />
    <glyph glyph-name="lslash" unicode="&#x142;" horiz-adv-x="591" 
d="M184 1495h217v-696l158 63l55 -153l-213 -86v-623h-217v535l-151 -60l-56 154l207 82v784z" />
    <glyph glyph-name="Nacute" unicode="&#x143;" horiz-adv-x="1474" 
d="M1094 1434h229v-1434h-227l-658 954l-55 90v-1044h-229v1434h225l653 -953l62 -96v1049zM791 1735h313l-279 -234h-229z" />
    <glyph glyph-name="nacute" unicode="&#x144;" horiz-adv-x="1122" 
d="M639 1059q159 0 247.5 -104t88.5 -283v-672h-219v629q0 105 -45.5 161t-130.5 56q-96 0 -154.5 -78.5t-58.5 -216.5v-551h-217v1036h188l16 -139q39 74 113.5 118t171.5 44zM692 1499h275l-303 -323h-195z" />
    <glyph glyph-name="Ncommaaccent" unicode="&#x145;" horiz-adv-x="1474" 
d="M1094 1434h229v-1434h-227l-658 954l-55 90v-1044h-229v1434h225l653 -953l62 -96v1049zM874 -223q0 -87 -43.5 -181.5t-113.5 -164.5l-62 30q53 96 62 195q-54 6 -87.5 42.5t-33.5 90.5q0 60 39.5 99.5t99.5 39.5q61 0 100 -42t39 -109z" />
    <glyph glyph-name="ncommaaccent" unicode="&#x146;" horiz-adv-x="1122" 
d="M639 1059q159 0 247.5 -104t88.5 -283v-672h-219v629q0 105 -45.5 161t-130.5 56q-96 0 -154.5 -78.5t-58.5 -216.5v-551h-217v1036h188l16 -139q39 74 113.5 118t171.5 44zM561 -72q61 0 100 -42t39 -109q0 -87 -43.5 -181.5t-113.5 -164.5l-62 30q53 96 62 195
q-54 6 -87.5 42.5t-33.5 90.5q0 59 40.5 99t98.5 40z" />
    <glyph glyph-name="Ncaron" unicode="&#x147;" horiz-adv-x="1474" 
d="M1094 1434h229v-1434h-227l-658 954l-55 90v-1044h-229v1434h225l653 -953l62 -96v1049zM854 1737h252l-303 -244h-131l-303 244h249l117 -109z" />
    <glyph glyph-name="ncaron" unicode="&#x148;" horiz-adv-x="1122" 
d="M639 1059q159 0 247.5 -104t88.5 -283v-672h-219v629q0 105 -45.5 161t-130.5 56q-96 0 -154.5 -78.5t-58.5 -216.5v-551h-217v1036h188l16 -139q39 74 113.5 118t171.5 44zM700 1477h230l-281 -324h-151l-283 324h229l129 -177z" />
    <glyph glyph-name="Eng" unicode="&#x14a;" horiz-adv-x="1474" 
d="M1094 1434h229v-1434q-1 -215 -112.5 -327.5t-317.5 -112.5v204q97 0 149 58.5t52 167.5v12l-656 952l-55 90v-1044h-229v1434h225l653 -953l62 -96v1049z" />
    <glyph glyph-name="eng" unicode="&#x14b;" horiz-adv-x="1107" 
d="M639 1059q159 0 247.5 -104t88.5 -283v-754q0 -381 -385 -381v199q89 0 127.5 46t38.5 142v705q0 105 -45.5 161t-130.5 56q-96 0 -154.5 -78.5t-58.5 -216.5v-551h-217v1036h188l16 -139q39 74 113.5 118t171.5 44z" />
    <glyph glyph-name="Omacron" unicode="&#x14c;" horiz-adv-x="1632" 
d="M817 1460q324 0 529 -211q206 -209 206 -530q0 -323 -206 -535q-205 -211 -529 -211t-532 211q-207 213 -207 535q0 320 207 530q208 211 532 211zM319 719q0 -231 138 -381t360 -150q221 0 359 150q137 149 137 381q0 231 -137 377q-137 149 -359 149q-223 0 -360 -149
q-138 -147 -138 -377zM539 1704h553v-170h-553v170z" />
    <glyph glyph-name="omacron" unicode="&#x14d;" horiz-adv-x="1206" 
d="M219 907q152 152 383 152t383 -152t152 -389t-152 -389t-383 -152t-383 152q-149 149 -149 389t149 389zM825 762q-84 96 -221 96q-136 0 -223 -96q-86 -95 -86 -244t86 -244q87 -96 223 -96q137 0 221 96q86 95 86 244t-86 244zM326 1382h553v-170h-553v170z" />
    <glyph glyph-name="Obreve" unicode="&#x14e;" horiz-adv-x="1632" 
d="M817 1460q324 0 529 -211q206 -209 206 -530q0 -323 -206 -535q-205 -211 -529 -211t-532 211q-207 213 -207 535q0 320 207 530q208 211 532 211zM319 719q0 -231 138 -381t360 -150q221 0 359 150q137 149 137 381q0 231 -137 377q-137 149 -359 149q-223 0 -360 -149
q-138 -147 -138 -377zM946 1780h180q0 -118 -87 -192.5t-224 -74.5t-223 74.5t-86 192.5h178q0 -54 35 -86.5t96 -32.5t96 32.5t35 86.5z" />
    <glyph glyph-name="obreve" unicode="&#x14f;" horiz-adv-x="1206" 
d="M219 907q152 152 383 152t383 -152t152 -389t-152 -389t-383 -152t-383 152q-149 149 -149 389t149 389zM825 762q-84 96 -221 96q-136 0 -223 -96q-86 -95 -86 -244t86 -244q87 -96 223 -96q137 0 221 96q86 95 86 244t-86 244zM733 1456h180q0 -130 -87 -213.5
t-224 -83.5q-136 0 -222.5 83t-86.5 214h178q0 -67 36 -109t95 -42t95 42t36 109z" />
    <glyph glyph-name="Ohungarumlaut" unicode="&#x150;" horiz-adv-x="1632" 
d="M817 1460q324 0 529 -211q206 -209 206 -530q0 -323 -206 -535q-205 -211 -529 -211t-532 211q-207 213 -207 535q0 320 207 530q208 211 532 211zM319 719q0 -231 138 -381t360 -150q221 0 359 150q137 149 137 381q0 231 -137 377q-137 149 -359 149q-223 0 -360 -149
q-138 -147 -138 -377zM684 1761h231l-198 -248h-189zM1038 1761h232l-199 -248h-188z" />
    <glyph glyph-name="ohungarumlaut" unicode="&#x151;" horiz-adv-x="1206" 
d="M219 907q152 152 383 152t383 -152t152 -389t-152 -389t-383 -152t-383 152q-149 149 -149 389t149 389zM825 762q-84 96 -221 96q-136 0 -223 -96q-86 -95 -86 -244t86 -244q87 -96 223 -96q137 0 221 96q86 95 86 244t-86 244zM477 1499h234l-215 -323h-187zM848 1499
h231l-215 -323h-184z" />
    <glyph glyph-name="OE" unicode="&#x152;" horiz-adv-x="2232" 
d="M1323 1434h805v-215h-576v-375h502v-213h-502v-416h576v-215h-805v168q-201 -195 -498 -195q-322 0 -530 211q-207 213 -207 535q0 320 207 530q205 211 530 211q298 0 498 -194v168zM328 719q0 -232 137 -381q138 -150 360 -150q221 0 359 150q139 151 139 381
q0 229 -139 377q-137 149 -359 149q-223 0 -360 -149q-137 -146 -137 -377z" />
    <glyph glyph-name="oe" unicode="&#x153;" horiz-adv-x="1978" 
d="M602 1059q266 0 416 -191q141 191 397 191q218 0 346.5 -139.5t128.5 -393.5v-84h-755q7 -124 85.5 -198t200.5 -74q189 0 248 147h213q-50 -163 -169.5 -251.5t-297.5 -88.5q-258 0 -399 187q-150 -187 -414 -187q-231 0 -383 152q-149 149 -149 389t149 389
q152 152 383 152zM604 858q-136 0 -223 -96q-86 -95 -86 -244t86 -244q87 -96 223 -96q127 0 210.5 84.5t94.5 220.5v70q-11 135 -95 220t-210 85zM1413 868q-116 0 -190.5 -71t-85.5 -185h534q-1 117 -71.5 186.5t-186.5 69.5z" />
    <glyph glyph-name="Racute" unicode="&#x154;" horiz-adv-x="1153" 
d="M154 1434h413q221 0 353 -123q133 -121 133 -320q0 -136 -68.5 -238.5t-191.5 -152.5l321 -600h-262l-299 561h-170v-561h-229v1434zM567 1219h-184v-453h184q117 0 184.5 59t67.5 166q0 108 -67 168t-185 60zM623 1735h313l-279 -234h-229z" />
    <glyph glyph-name="racute" unicode="&#x155;" horiz-adv-x="722" 
d="M672 1047v-220q-129 0 -207 -69q-87 -72 -90 -219v-539h-217v1036h190l19 -176q31 84 109 135.5t196 51.5zM514 1499h274l-303 -323h-194z" />
    <glyph glyph-name="Rcommaaccent" unicode="&#x156;" horiz-adv-x="1153" 
d="M154 1434h413q221 0 353 -123q133 -121 133 -320q0 -136 -68.5 -238.5t-191.5 -152.5l321 -600h-262l-299 561h-170v-561h-229v1434zM567 1219h-184v-453h184q117 0 184.5 59t67.5 166q0 108 -67 168t-185 60zM598 -72q61 0 100 -42t39 -109q0 -87 -43.5 -181.5
t-113.5 -164.5l-62 30q53 96 62 195q-54 6 -87.5 42.5t-33.5 90.5q0 59 40.5 99t98.5 40z" />
    <glyph glyph-name="rcommaaccent" unicode="&#x157;" horiz-adv-x="722" 
d="M672 1047v-220q-129 0 -207 -69q-87 -72 -90 -219v-539h-217v1036h190l19 -176q31 84 109 135.5t196 51.5zM262 -72q61 0 100 -42t39 -109q0 -87 -43.5 -181.5t-113.5 -164.5l-62 30q53 96 62 195q-54 6 -87.5 42.5t-33.5 90.5q0 59 40.5 99t98.5 40z" />
    <glyph glyph-name="Rcaron" unicode="&#x158;" horiz-adv-x="1153" 
d="M154 1434h413q221 0 353 -123q133 -121 133 -320q0 -136 -68.5 -238.5t-191.5 -152.5l321 -600h-262l-299 561h-170v-561h-229v1434zM567 1219h-184v-453h184q117 0 184.5 59t67.5 166q0 108 -67 168t-185 60zM674 1737h252l-303 -244h-131l-304 244h250l117 -109z" />
    <glyph glyph-name="rcaron" unicode="&#x159;" horiz-adv-x="722" 
d="M672 1047v-220q-129 0 -207 -69q-87 -72 -90 -219v-539h-217v1036h190l19 -176q31 84 109 135.5t196 51.5zM532 1477h230l-281 -324h-151l-283 324h229l130 -177z" />
    <glyph glyph-name="Sacute" unicode="&#x15a;" horiz-adv-x="1101" 
d="M549 1460q198 0 312.5 -107.5t121.5 -308.5h-233q-1 99 -57.5 155t-149.5 56q-91 0 -143 -50t-52 -138q0 -87 58 -133t212 -105q224 -76 316 -176q94 -94 94 -256q0 -197 -129 -311q-128 -113 -332 -113q-229 0 -355.5 122.5t-131.5 334.5h231q5 -123 71 -188.5
t187 -65.5q107 0 167.5 55.5t60.5 149.5q0 81 -63 133t-218 104q-202 69 -303 166q-96 96 -96 265q0 181 116 294q117 117 316 117zM604 1755h314l-279 -233h-229z" />
    <glyph glyph-name="sacute" unicode="&#x15b;" horiz-adv-x="921" 
d="M459 1059q153 0 254 -90q101 -88 104 -238h-217q-3 141 -145 141q-65 0 -101.5 -32.5t-36.5 -87.5q0 -56 39.5 -84.5t149.5 -53.5q183 -36 260.5 -108.5t77.5 -202.5q0 -152 -105 -239t-274 -87q-181 0 -283.5 89.5t-107.5 246.5h219q1 -72 47.5 -111.5t128.5 -39.5
q74 0 115 32.5t41 88.5q0 61 -43 92.5t-160 56.5q-169 36 -246.5 107t-77.5 194q0 135 95 230q96 96 266 96zM567 1499h275l-303 -323h-195z" />
    <glyph glyph-name="Scircumflex" unicode="&#x15c;" horiz-adv-x="1101" 
d="M549 1460q198 0 312.5 -107.5t121.5 -308.5h-233q-1 99 -57.5 155t-149.5 56q-91 0 -143 -50t-52 -138q0 -87 58 -133t212 -105q224 -76 316 -176q94 -94 94 -256q0 -197 -129 -311q-128 -113 -332 -113q-229 0 -355.5 122.5t-131.5 334.5h231q5 -123 71 -188.5
t187 -65.5q107 0 167.5 55.5t60.5 149.5q0 81 -63 133t-218 104q-202 69 -303 166q-96 96 -96 265q0 181 116 294q117 117 316 117zM485 1763h131l304 -243h-252l-119 108l-117 -108h-250z" />
    <glyph glyph-name="scircumflex" unicode="&#x15d;" horiz-adv-x="921" 
d="M459 1059q153 0 254 -90q101 -88 104 -238h-217q-3 141 -145 141q-65 0 -101.5 -32.5t-36.5 -87.5q0 -56 39.5 -84.5t149.5 -53.5q183 -36 260.5 -108.5t77.5 -202.5q0 -152 -105 -239t-274 -87q-181 0 -283.5 89.5t-107.5 246.5h219q1 -72 47.5 -111.5t128.5 -39.5
q74 0 115 32.5t41 88.5q0 61 -43 92.5t-160 56.5q-169 36 -246.5 107t-77.5 194q0 135 95 230q96 96 266 96zM383 1499h152l280 -323h-229l-127 176l-129 -176h-230z" />
    <glyph glyph-name="Scedilla" unicode="&#x15e;" horiz-adv-x="1101" 
d="M549 1460q198 0 312.5 -107.5t121.5 -308.5h-233q-1 99 -57.5 155t-149.5 56q-91 0 -143 -50t-52 -138q0 -87 58 -133t212 -105q224 -76 316 -176q94 -94 94 -256q0 -182 -112.5 -295t-299.5 -127l-20 -88q82 0 132 -46t50 -124q0 -89 -60 -138.5t-159 -49.5
q-118 0 -188 70l71 102q42 -51 117 -51q82 0 82 65q0 66 -80 66q-32 0 -63 -8l-41 14l45 190q-198 17 -307.5 137.5t-114.5 315.5h231q5 -123 71 -188.5t187 -65.5q107 0 167.5 55.5t60.5 149.5q0 81 -63 133t-218 104q-202 69 -303 166q-96 96 -96 265q0 181 116 294
q117 117 316 117z" />
    <glyph glyph-name="scedilla" unicode="&#x15f;" horiz-adv-x="921" 
d="M459 1059q153 0 254 -90q101 -88 104 -238h-217q-3 141 -145 141q-65 0 -101.5 -32.5t-36.5 -87.5q0 -56 39.5 -84.5t149.5 -53.5q183 -36 260.5 -108.5t77.5 -202.5q0 -140 -89.5 -225.5t-238.5 -97.5l-20 -93q82 0 132 -46t50 -124q0 -89 -60 -138.5t-159 -49.5
q-119 0 -189 70l72 102q42 -51 117 -51q82 0 82 65q0 66 -80 66q-33 0 -64 -8l-41 14l47 195q-154 13 -239 100.5t-90 230.5h219q1 -72 47.5 -111.5t128.5 -39.5q74 0 115 32.5t41 88.5q0 61 -43 92.5t-160 56.5q-169 36 -246.5 107t-77.5 194q0 135 95 230q96 96 266 96z
" />
    <glyph glyph-name="Scaron" unicode="&#x160;" horiz-adv-x="1101" 
d="M549 1460q198 0 312.5 -107.5t121.5 -308.5h-233q-1 99 -57.5 155t-149.5 56q-91 0 -143 -50t-52 -138q0 -87 58 -133t212 -105q224 -76 316 -176q94 -94 94 -256q0 -197 -129 -311q-128 -113 -332 -113q-229 0 -355.5 122.5t-131.5 334.5h231q5 -123 71 -188.5
t187 -65.5q107 0 167.5 55.5t60.5 149.5q0 81 -63 133t-218 104q-202 69 -303 166q-96 96 -96 265q0 181 116 294q117 117 316 117zM668 1757h252l-304 -244h-131l-303 244h250l117 -108z" />
    <glyph glyph-name="scaron" unicode="&#x161;" horiz-adv-x="921" 
d="M459 1059q153 0 254 -90q101 -88 104 -238h-217q-3 141 -145 141q-65 0 -101.5 -32.5t-36.5 -87.5q0 -56 39.5 -84.5t149.5 -53.5q183 -36 260.5 -108.5t77.5 -202.5q0 -152 -105 -239t-274 -87q-181 0 -283.5 89.5t-107.5 246.5h219q1 -72 47.5 -111.5t128.5 -39.5
q74 0 115 32.5t41 88.5q0 61 -43 92.5t-160 56.5q-169 36 -246.5 107t-77.5 194q0 135 95 230q96 96 266 96zM586 1477h229l-280 -324h-152l-283 324h230l129 -177z" />
    <glyph glyph-name="Tcommaaccent" unicode="&#x162;" horiz-adv-x="1251" 
d="M23 1434h1206v-215h-490v-1219h-229v1219h-487v215zM623 -72q61 0 100 -42t39 -109q0 -86 -44 -181t-114 -165l-61 30q52 94 61 195q-54 6 -87.5 42.5t-33.5 90.5q0 59 41 99t99 40z" />
    <glyph glyph-name="tcommaaccent" unicode="&#x163;" horiz-adv-x="743" 
d="M209 1290h219l-2 -254h252v-200h-254l-4 -492q0 -87 31 -123.5t110 -36.5q61 0 117 17v-193q-61 -22 -160 -22q-161 0 -238.5 75.5t-76.5 235.5l4 539h-182v200h182zM559 -238q0 -86 -44 -181t-114 -165l-61 31q52 94 61 195q-54 6 -87 42.5t-33 90.5q0 58 40 98.5
t99 40.5q60 0 99.5 -42.5t39.5 -109.5z" />
    <glyph glyph-name="Tcaron" unicode="&#x164;" horiz-adv-x="1251" 
d="M23 1434h1206v-215h-490v-1219h-229v1219h-487v215zM739 1737h252l-303 -244h-131l-303 244h250l117 -109z" />
    <glyph glyph-name="tcaron" unicode="&#x165;" horiz-adv-x="1034" 
d="M209 1290h219l-2 -254h252v-200h-254l-4 -492q0 -87 31 -123.5t110 -36.5q61 0 117 17v-193q-61 -22 -160 -22q-161 0 -238.5 75.5t-76.5 235.5l4 539h-182v200h182zM872 1495q61 0 101.5 -42.5t40.5 -109.5q0 -193 -160 -376l-66 24q53 106 68 232q-54 6 -88.5 42.5
t-34.5 90.5q0 57 41 98t98 41z" />
    <glyph glyph-name="Tbar" unicode="&#x166;" horiz-adv-x="1251" 
d="M23 1434h1206v-215h-490v-435h308v-163h-308v-621h-229v621h-305v163h305v435h-487v215z" />
    <glyph glyph-name="tbar" unicode="&#x167;" horiz-adv-x="743" 
d="M209 1290h219l-2 -254h252v-176h-254l-2 -209h256v-174h-258v-133q0 -87 31 -123.5t110 -36.5q61 0 117 17v-193q-61 -22 -160 -22q-161 0 -238.5 75.5t-76.5 235.5v180h-178v174h180l2 209h-182v176h182z" />
    <glyph glyph-name="Utilde" unicode="&#x168;" horiz-adv-x="1413" 
d="M578 1772q42 0 78 -14t60 -34t44.5 -40t41 -34t40.5 -14q76 0 76 117h135q0 -126 -56 -197t-163 -71q-43 0 -79 14t-60 33.5t-44.5 39.5t-41 34t-40.5 14q-75 0 -75 -117h-136q0 125 56.5 197t163.5 72zM1047 1434h231v-863q0 -287 -149.5 -442.5t-421.5 -155.5t-422 156
t-150 442v863h230v-863q0 -383 342 -383q340 0 340 383v863z" />
    <glyph glyph-name="utilde" unicode="&#x169;" horiz-adv-x="1101" 
d="M420 1460q40 0 72 -10.5t51 -26.5t37.5 -34.5t31.5 -34.5t31.5 -26.5t40.5 -10.5q76 0 76 125h135q0 -128 -56.5 -202.5t-162.5 -74.5q-47 0 -83 15t-57 36.5t-38.5 43t-39 36.5t-46.5 15q-76 0 -76 -127h-135q0 130 56 203t163 73zM735 1036h217v-1036h-190l-14 139
q-79 -162 -281 -162q-161 0 -246.5 103t-85.5 285v671h217v-628q0 -220 174 -220q94 0 151.5 75t57.5 206v567z" />
    <glyph glyph-name="Umacron" unicode="&#x16a;" horiz-adv-x="1413" 
d="M1047 1434h231v-863q0 -287 -149.5 -442.5t-421.5 -155.5t-422 156t-150 442v863h230v-863q0 -383 342 -383q340 0 340 383v863zM428 1683h553v-170h-553v170z" />
    <glyph glyph-name="umacron" unicode="&#x16b;" horiz-adv-x="1101" 
d="M735 1036h217v-1036h-190l-14 139q-79 -162 -281 -162q-161 0 -246.5 103t-85.5 285v671h217v-628q0 -220 174 -220q94 0 151.5 75t57.5 206v567zM270 1382h553v-170h-553v170z" />
    <glyph glyph-name="Ubreve" unicode="&#x16c;" horiz-adv-x="1413" 
d="M836 1759h180q0 -118 -87 -192t-224 -74t-223.5 74t-86.5 192h178q0 -54 35.5 -86.5t96.5 -32.5t96 32.5t35 86.5zM1047 1434h231v-863q0 -287 -149.5 -442.5t-421.5 -155.5t-422 156t-150 442v863h230v-863q0 -383 342 -383q340 0 340 383v863z" />
    <glyph glyph-name="ubreve" unicode="&#x16d;" horiz-adv-x="1101" 
d="M735 1036h217v-1036h-190l-14 139q-79 -162 -281 -162q-161 0 -246.5 103t-85.5 285v671h217v-628q0 -220 174 -220q94 0 151.5 75t57.5 206v567zM676 1456h180q0 -130 -87 -213.5t-224 -83.5q-136 0 -222.5 83t-86.5 214h178q0 -67 36 -109t95 -42t95 42t36 109z" />
    <glyph glyph-name="Uring" unicode="&#x16e;" horiz-adv-x="1413" 
d="M702 1884q90 0 147.5 -57t57.5 -144t-57.5 -142.5t-147.5 -55.5q-88 0 -146 56.5t-58 141.5q0 86 58 143.5t146 57.5zM702 1763q-32 0 -53.5 -22.5t-21.5 -57.5q0 -31 22 -54t53 -23q34 0 57 23t23 54q0 35 -22.5 57.5t-57.5 22.5zM1047 1434h231v-863
q0 -287 -149.5 -442.5t-421.5 -155.5t-422 156t-150 442v863h230v-863q0 -383 342 -383q340 0 340 383v863z" />
    <glyph glyph-name="uring" unicode="&#x16f;" horiz-adv-x="1101" 
d="M545 1569q98 0 160.5 -61.5t62.5 -155.5q0 -93 -62.5 -154t-160.5 -61q-96 0 -158.5 61t-62.5 154q0 94 62.5 155.5t158.5 61.5zM545 1450q-41 0 -68.5 -27.5t-27.5 -68.5q0 -42 27.5 -70.5t68.5 -28.5q42 0 70 28.5t28 70.5q0 41 -27.5 68.5t-70.5 27.5zM735 1036h217
v-1036h-190l-14 139q-79 -162 -281 -162q-161 0 -246.5 103t-85.5 285v671h217v-628q0 -220 174 -220q94 0 151.5 75t57.5 206v567z" />
    <glyph glyph-name="Uhungarumlaut" unicode="&#x170;" horiz-adv-x="1413" 
d="M1047 1434h231v-863q0 -287 -149.5 -442.5t-421.5 -155.5t-422 156t-150 442v863h230v-863q0 -383 342 -383q340 0 340 383v863zM573 1741h232l-199 -248h-188zM928 1741h231l-198 -248h-189z" />
    <glyph glyph-name="uhungarumlaut" unicode="&#x171;" horiz-adv-x="1101" 
d="M735 1036h217v-1036h-190l-14 139q-79 -162 -281 -162q-161 0 -246.5 103t-85.5 285v671h217v-628q0 -220 174 -220q94 0 151.5 75t57.5 206v567zM420 1499h233l-215 -323h-186zM791 1499h231l-215 -323h-184z" />
    <glyph glyph-name="Uogonek" unicode="&#x172;" horiz-adv-x="1413" 
d="M1047 1434h231v-863q0 -228 -97 -374.5t-278 -196.5q-92 -56 -92 -156q0 -53 27 -80q28 -28 80 -29.5t83 17.5l31 -119q-44 -24 -123 -24q-107 0 -175 62.5t-68 166.5q0 79 39 135q-272 0 -421 155.5t-149 442.5v863h230v-863q0 -383 342 -383q340 0 340 383v863z" />
    <glyph glyph-name="uogonek" unicode="&#x173;" horiz-adv-x="1101" 
d="M735 1036h217v-1036h-4q-137 -58 -137 -176q0 -53 27 -80q28 -28 80 -29.5t83 17.5l31 -119q-45 -25 -123 -25q-107 0 -175 63t-68 167q0 119 94 192l-12 129q-79 -162 -281 -162q-161 0 -246.5 103t-85.5 285v671h217v-628q0 -220 174 -220q94 0 151.5 75t57.5 206v567z
" />
    <glyph glyph-name="Wcircumflex" unicode="&#x174;" horiz-adv-x="2035" 
d="M1759 1434h242l-447 -1434h-235l-279 918l-22 96l-21 -96l-278 -918h-238l-446 1434h244l303 -983l22 -105l21 105l290 983h205l293 -983l19 -105l22 105zM952 1743h131l303 -244h-251l-119 109l-117 -109h-250z" />
    <glyph glyph-name="wcircumflex" unicode="&#x175;" horiz-adv-x="1585" 
d="M1325 1036h234l-322 -1036h-223l-223 680l-228 -680h-215l-321 1036h233l189 -678l20 -102l23 102l206 678h189l207 -678l22 -102l21 102zM715 1499h151l281 -323h-229l-127 176l-129 -176h-230z" />
    <glyph glyph-name="Ycircumflex" unicode="&#x176;" horiz-adv-x="1392" 
d="M1100 1434h268l-555 -895v-539h-233v539l-555 895h268l350 -555l51 -97l54 97zM631 1743h131l303 -244h-252l-119 109l-116 -109h-250z" />
    <glyph glyph-name="ycircumflex" unicode="&#x177;" horiz-adv-x="1048" 
d="M782 1036h234l-549 -1476h-227l166 454l-379 1022h233l240 -694l20 -84l21 84zM442 1499h152l280 -323h-229l-127 176l-129 -176h-229z" />
    <glyph glyph-name="Ydieresis" unicode="&#x178;" horiz-adv-x="1392" 
d="M1100 1434h268l-555 -895v-539h-233v539l-555 895h268l350 -555l51 -97l54 97zM494 1749q54 0 90.5 -36.5t36.5 -90.5q0 -52 -36.5 -88.5t-90.5 -36.5q-56 0 -92.5 35.5t-36.5 89.5t37 90.5t92 36.5zM1022 1622q0 -51 -37.5 -88t-91.5 -37t-90.5 35.5t-36.5 89.5
t36.5 90.5t90.5 36.5t91.5 -36.5t37.5 -90.5z" />
    <glyph glyph-name="Zacute" unicode="&#x179;" horiz-adv-x="1218" 
d="M86 1434h1030v-187l-739 -1032h766v-215h-1063v186l745 1033h-739v215zM664 1735h313l-279 -234h-229z" />
    <glyph glyph-name="zacute" unicode="&#x17a;" horiz-adv-x="958" 
d="M76 1036h798v-166l-512 -677h541v-193h-831v164l512 680h-508v192zM594 1499h274l-303 -323h-194z" />
    <glyph glyph-name="Zdotaccent" unicode="&#x17b;" horiz-adv-x="1218" 
d="M86 1434h1030v-187l-739 -1032h766v-215h-1063v186l745 1033h-739v215zM610 1755q54 0 92.5 -36.5t38.5 -90.5q0 -55 -38.5 -93t-92.5 -38q-57 0 -95 37.5t-38 93.5q0 54 38 90.5t95 36.5z" />
    <glyph glyph-name="zdotaccent" unicode="&#x17c;" horiz-adv-x="958" 
d="M76 1036h798v-166l-512 -677h541v-193h-831v164l512 680h-508v192zM385 1419q41 41 100.5 41t100.5 -41q41 -38 41 -95.5t-41 -98.5q-41 -38 -100.5 -38t-100.5 38q-38 41 -38 98.5t38 95.5z" />
    <glyph glyph-name="Zcaron" unicode="&#x17d;" horiz-adv-x="1218" 
d="M86 1434h1030v-187l-739 -1032h766v-215h-1063v186l745 1033h-739v215zM727 1737h252l-303 -244h-131l-303 244h250l116 -109z" />
    <glyph glyph-name="zcaron" unicode="&#x17e;" horiz-adv-x="958" 
d="M76 1036h798v-166l-512 -677h541v-193h-831v164l512 680h-508v192zM612 1477h230l-281 -324h-151l-283 324h229l129 -177z" />
    <glyph glyph-name="florin" unicode="&#x192;" horiz-adv-x="720" 
d="M651 1516q78 0 142 -23l-23 -195q-64 23 -113 23q-141 0 -159 -156l-13 -129h258l-20 -198h-258l-105 -969q-17 -160 -112.5 -246t-255.5 -86q-75 0 -139 23l20 194q61 -24 113 -24q144 0 159 155l101 953h-183l19 198h184l17 148q17 158 113.5 245t254.5 87z" />
    <glyph glyph-name="Aringacute" unicode="&#x1fa;" horiz-adv-x="1445" 
d="M600 1434h246l567 -1434h-252l-137 350h-604l-135 -350h-252zM756 2019h313l-217 -182q72 -57 72 -154q0 -87 -57.5 -142.5t-147.5 -55.5q-88 0 -146.5 56.5t-58.5 141.5q0 132 113 181zM748 1069l-27 78l-27 -78l-198 -512h454zM719 1763q-33 0 -54.5 -22.5t-21.5 -57.5
q0 -31 22.5 -54t53.5 -23q35 0 57.5 23t22.5 54q0 35 -22.5 57.5t-57.5 22.5z" />
    <glyph glyph-name="aringacute" unicode="&#x1fb;" horiz-adv-x="1032" 
d="M516 1059q184 0 286.5 -97.5t102.5 -279.5v-682h-192l-11 135q-93 -158 -305 -158q-140 0 -224.5 79.5t-84.5 215.5q0 248 303 306l295 53v47q0 186 -170 186q-81 0 -133.5 -45t-52.5 -119h-211q6 154 114 256q109 103 283 103zM557 1735h313l-231 -195q109 -56 109 -188
q0 -93 -63 -154t-161 -61q-96 0 -158.5 61t-62.5 154q0 100 70 164zM686 430v37l-248 -53q-131 -27 -131 -131q0 -54 37.5 -85.5t104.5 -31.5q125 0 188 100q49 70 49 164zM524 1450q-41 0 -68.5 -27.5t-27.5 -68.5q0 -42 27.5 -70.5t68.5 -28.5q42 0 70.5 28.5t28.5 70.5
q0 41 -28 68.5t-71 27.5z" />
    <glyph glyph-name="AEacute" unicode="&#x1fc;" horiz-adv-x="1931" 
d="M948 1434h889v-215h-575v-375h501v-213h-501v-416h575v-215h-807v354h-504l-235 -354h-273zM1030 555v596l-43 -80l-336 -516h379zM1247 1735h314l-279 -234h-229z" />
    <glyph glyph-name="aeacute" unicode="&#x1fd;" horiz-adv-x="1742" 
d="M1180 1059q218 0 346.5 -139.5t128.5 -393.5v-84h-756q7 -124 86 -198t201 -74q190 0 248 147h213q-50 -163 -169.5 -251.5t-297.5 -88.5q-274 0 -412 205q-132 -205 -367 -205q-147 0 -230 78.5t-83 212.5q0 252 297 307l291 56v41q0 192 -170 192q-79 0 -127.5 -43.5
t-48.5 -120.5h-211q6 157 110 258t277 101q219 0 319 -139q139 139 355 139zM1178 868q-116 0 -191 -71t-86 -185h535q-1 117 -71.5 186.5t-186.5 69.5zM676 412v55l-230 -51q-75 -14 -107 -44t-32 -89q0 -56 34.5 -86.5t100.5 -30.5q118 0 183 92q51 68 51 154zM969 1499
h274l-303 -323h-195z" />
    <glyph glyph-name="Oslashacute" unicode="&#x1fe;" horiz-adv-x="1632" 
d="M817 1460q152 0 285 -53l98 172l170 -86l-102 -176q135 -100 209.5 -256t74.5 -342q0 -323 -206 -535q-205 -211 -529 -211q-147 0 -289 54l-100 -177l-170 84l104 183q-135 101 -209.5 257.5t-74.5 344.5q0 320 207 530q208 211 532 211zM1313 719q0 246 -160 397
l-514 -899q89 -29 178 -29q221 0 359 150q137 149 137 381zM817 1245q-223 0 -360 -149q-138 -147 -138 -377q0 -253 158 -402l514 897q-91 31 -174 31zM852 1743h313l-278 -234h-230z" />
    <glyph glyph-name="oslashacute" unicode="&#x1ff;" horiz-adv-x="1206" 
d="M602 1059q105 0 201 -35l86 162l119 -56l-90 -167q219 -154 219 -445q0 -237 -152 -389t-383 -152q-104 0 -194 33l-86 -162l-119 54l88 166q-105 73 -163 189t-58 261q0 240 149 389q152 152 383 152zM604 858q-136 0 -223 -96q-86 -95 -86 -244q0 -160 98 -258l312 582
q-53 16 -101 16zM911 518q0 158 -96 254l-309 -579q44 -15 98 -15q137 0 221 96q86 95 86 244zM707 1499h274l-303 -323h-195z" />
    <glyph glyph-name="Scommaaccent" unicode="&#x218;" horiz-adv-x="1101" 
d="M549 1460q198 0 312.5 -107.5t121.5 -308.5h-233q-1 99 -57.5 155t-149.5 56q-91 0 -143 -50t-52 -138q0 -87 58 -133t212 -105q224 -76 316 -176q94 -94 94 -256q0 -197 -129 -311q-128 -113 -332 -113q-229 0 -355.5 122.5t-131.5 334.5h231q5 -123 71 -188.5
t187 -65.5q107 0 167.5 55.5t60.5 149.5q0 81 -63 133t-218 104q-202 69 -303 166q-96 96 -96 265q0 181 116 294q117 117 316 117zM694 -244q0 -87 -43.5 -181.5t-113.5 -164.5l-62 31q53 96 62 194q-54 6 -87.5 43t-33.5 91q0 60 39.5 99.5t99.5 39.5t99.5 -42.5
t39.5 -109.5z" />
    <glyph glyph-name="scommaaccent" unicode="&#x219;" horiz-adv-x="921" 
d="M459 1059q153 0 254 -90q101 -88 104 -238h-217q-3 141 -145 141q-65 0 -101.5 -32.5t-36.5 -87.5q0 -56 39.5 -84.5t149.5 -53.5q183 -36 260.5 -108.5t77.5 -202.5q0 -152 -105 -239t-274 -87q-181 0 -283.5 89.5t-107.5 246.5h219q1 -72 47.5 -111.5t128.5 -39.5
q74 0 115 32.5t41 88.5q0 61 -43 92.5t-160 56.5q-169 36 -246.5 107t-77.5 194q0 135 95 230q96 96 266 96zM463 -80q61 0 100 -42t39 -109q0 -87 -44 -182t-114 -165l-61 31q52 94 61 195q-54 6 -87 42.5t-33 90.5q0 59 40.5 99t98.5 40z" />
    <glyph glyph-name="circumflex" unicode="&#x2c6;" horiz-adv-x="755" 
d="M303 1499h152l280 -323h-229l-127 176l-129 -176h-230z" />
    <glyph glyph-name="caron" unicode="&#x2c7;" horiz-adv-x="755" 
d="M506 1477h229l-280 -324h-152l-283 324h230l129 -177z" />
    <glyph glyph-name="breve" unicode="&#x2d8;" horiz-adv-x="661" 
d="M461 1456h180q0 -130 -87 -213.5t-224 -83.5q-136 0 -223 83t-87 214h179q0 -67 36 -109t95 -42t95 42t36 109z" />
    <glyph glyph-name="dotaccent" unicode="&#x2d9;" horiz-adv-x="321" 
d="M59 1419q41 41 100.5 41t100.5 -41q41 -38 41 -95.5t-41 -98.5q-41 -38 -100.5 -38t-100.5 38q-38 41 -38 98.5t38 95.5z" />
    <glyph glyph-name="ring" unicode="&#x2da;" horiz-adv-x="485" 
d="M242 1569q98 0 160.5 -61.5t62.5 -155.5q0 -93 -62.5 -154t-160.5 -61q-96 0 -159 61t-63 154q0 94 62.5 155.5t159.5 61.5zM242 1450q-41 0 -69 -27.5t-28 -68.5t28 -70t69 -29q42 0 70 28.5t28 70.5q0 41 -27.5 68.5t-70.5 27.5z" />
    <glyph glyph-name="ogonek" unicode="&#x2db;" horiz-adv-x="395" 
d="M203 70l88 -70q-137 -58 -137 -176q0 -54 26 -80q28 -28 80.5 -29.5t83.5 17.5l31 -119q-45 -25 -123 -25q-107 0 -175.5 63t-68.5 167q0 169 195 252z" />
    <glyph glyph-name="tilde" unicode="&#x2dc;" horiz-adv-x="735" 
d="M240 1460q40 0 72 -10.5t51 -26.5t37.5 -34.5t31.5 -34.5t31.5 -26.5t40.5 -10.5q76 0 76 125h135q0 -128 -56.5 -202.5t-162.5 -74.5q-47 0 -83 15t-57.5 36.5t-39 43t-39 36.5t-46.5 15q-75 0 -75 -127h-136q0 130 56.5 203t163.5 73z" />
    <glyph glyph-name="hungarumlaut" unicode="&#x2dd;" horiz-adv-x="811" 
d="M188 1499h234l-215 -323h-187zM559 1499h232l-216 -323h-184z" />
    <glyph glyph-name="uni03A9" unicode="&#x3a9;" horiz-adv-x="1761" 
d="M1563 801q0 -131 -45 -244q-42 -110 -91 -178q-50 -66 -114 -133h370v-246h-686v217q314 243 314 574q0 210 -115 337q-114 129 -309 129q-198 0 -312 -129q-114 -126 -114 -337q0 -331 313 -574v-217h-684v246h373q-252 252 -252 555q0 308 184 504q183 198 492 198
q308 0 491 -198q185 -197 185 -504z" />
    <glyph glyph-name="pi" unicode="&#x3c0;" horiz-adv-x="1495" 
d="M1298 1178l181 -105q-45 -130 -128 -194t-231 -64h-22l-64 -469q-18 -141 78 -141q58 0 117 47l41 -84q40 -76 41 -78q-132 -102 -289 -102q-128 0 -175 74.5t-28 226.5l70 526h-227l-66 -493q-26 -191 -88 -322h-234q90 159 117 360l62 455h-39q-163 0 -262 -117
l-107 156q89 89 178 131q82 39 244 39h532q138 0 197 35q60 34 102 119z" />
    <glyph glyph-name="Wgrave" unicode="&#x1e80;" horiz-adv-x="2035" 
d="M1759 1434h242l-447 -1434h-235l-279 918l-22 96l-21 -96l-278 -918h-238l-446 1434h244l303 -983l22 -105l21 105l290 983h205l293 -983l19 -105l22 105zM631 1735h315l193 -234h-228z" />
    <glyph glyph-name="wgrave" unicode="&#x1e81;" horiz-adv-x="1585" 
d="M1325 1036h234l-322 -1036h-223l-223 680l-228 -680h-215l-321 1036h233l189 -678l20 -102l23 102l206 678h189l207 -678l22 -102l21 102zM395 1499h275l223 -323h-195z" />
    <glyph glyph-name="Wacute" unicode="&#x1e82;" horiz-adv-x="2035" 
d="M1759 1434h242l-447 -1434h-235l-279 918l-22 96l-21 -96l-278 -918h-238l-446 1434h244l303 -983l22 -105l21 105l290 983h205l293 -983l19 -105l22 105zM1085 1735h314l-279 -234h-229z" />
    <glyph glyph-name="wacute" unicode="&#x1e83;" horiz-adv-x="1585" 
d="M1325 1036h234l-322 -1036h-223l-223 680l-228 -680h-215l-321 1036h233l189 -678l20 -102l23 102l206 678h189l207 -678l22 -102l21 102zM897 1499h274l-303 -323h-194z" />
    <glyph glyph-name="Wdieresis" unicode="&#x1e84;" horiz-adv-x="2035" 
d="M1759 1434h242l-447 -1434h-235l-279 918l-22 96l-21 -96l-278 -918h-238l-446 1434h244l303 -983l22 -105l21 105l290 983h205l293 -983l19 -105l22 105zM817 1749q54 0 90.5 -36.5t36.5 -90.5q0 -52 -37 -88.5t-90 -36.5q-56 0 -92.5 35.5t-36.5 89.5t37 90.5t92 36.5z
M1346 1622q0 -51 -37.5 -88t-91.5 -37t-90.5 35.5t-36.5 89.5t36.5 90.5t90.5 36.5t91.5 -36.5t37.5 -90.5z" />
    <glyph glyph-name="wdieresis" unicode="&#x1e85;" horiz-adv-x="1585" 
d="M1325 1036h234l-322 -1036h-223l-223 680l-228 -680h-215l-321 1036h233l189 -678l20 -102l23 102l206 678h189l207 -678l22 -102l21 102zM590 1432q54 0 90.5 -35.5t36.5 -89.5t-36.5 -89.5t-90.5 -35.5q-56 0 -92.5 35.5t-36.5 89.5t36.5 89.5t92.5 35.5zM899 1395
q37 37 90 37t90 -37q38 -35 38 -88t-38 -90q-37 -35 -90 -35t-90 35q-37 37 -37 90t37 88z" />
    <glyph glyph-name="Ygrave" unicode="&#x1ef2;" horiz-adv-x="1392" 
d="M1100 1434h268l-555 -895v-539h-233v539l-555 895h268l350 -555l51 -97l54 97zM309 1735h316l192 -234h-227z" />
    <glyph glyph-name="ygrave" unicode="&#x1ef3;" horiz-adv-x="1048" 
d="M782 1036h234l-549 -1476h-227l166 454l-379 1022h233l240 -694l20 -84l21 84zM125 1499h274l224 -323h-195z" />
    <glyph glyph-name="endash" unicode="&#x2013;" horiz-adv-x="1054" 
d="M51 629h953v-195h-953v195z" />
    <glyph glyph-name="emdash" unicode="&#x2014;" horiz-adv-x="1443" 
d="M51 629h1342v-195h-1342v195z" />
    <glyph glyph-name="quoteleft" unicode="&#x2018;" horiz-adv-x="407" 
d="M221 1509l68 -24q-56 -109 -68 -232q54 -6 88.5 -42.5t34.5 -90.5q0 -57 -41 -97t-98 -40q-62 0 -102 42t-40 110q0 187 158 374z" />
    <glyph glyph-name="quoteright" unicode="&#x2019;" horiz-adv-x="407" 
d="M344 1343q0 -193 -160 -376l-65 24q52 103 67 232q-54 6 -88.5 42.5t-34.5 90.5q0 58 40.5 98.5t99.5 40.5q61 0 101 -42.5t40 -109.5z" />
    <glyph glyph-name="quotesinglbase" unicode="&#x201a;" horiz-adv-x="407" 
d="M344 104q0 -191 -160 -374l-65 24q52 101 67 234q-55 6 -89 42t-34 91q0 57 40 96t100 39q61 0 101 -42t40 -110z" />
    <glyph glyph-name="quotedblleft" unicode="&#x201c;" horiz-adv-x="804" 
d="M221 1509l68 -24q-56 -109 -68 -232q54 -6 88.5 -42.5t34.5 -90.5q0 -57 -41 -97t-98 -40q-62 0 -102 42t-40 110q0 187 158 374zM616 1509l68 -24q-56 -109 -68 -232q54 -6 88.5 -42.5t34.5 -90.5q0 -57 -41 -97t-98 -40q-62 0 -101.5 42t-39.5 110q0 188 157 374z" />
    <glyph glyph-name="quotedblright" unicode="&#x201d;" horiz-adv-x="804" 
d="M344 1343q0 -193 -160 -376l-65 24q52 103 67 232q-54 6 -88.5 42.5t-34.5 90.5q0 58 40.5 98.5t99.5 40.5q61 0 101 -42.5t40 -109.5zM598 1495q61 0 101 -42.5t40 -109.5q0 -195 -159 -376l-66 24q53 106 68 232q-54 6 -88.5 42.5t-34.5 90.5q0 57 41 98t98 41z" />
    <glyph glyph-name="quotedblbase" unicode="&#x201e;" horiz-adv-x="813" 
d="M344 104q0 -191 -160 -374l-65 24q52 101 67 234q-55 6 -89 42t-34 91q0 57 40 96t100 39q61 0 101 -42t40 -110zM750 104q0 -191 -160 -374l-66 24q53 103 68 234q-55 6 -89 42t-34 91q0 57 39.5 96t99.5 39q61 0 101.5 -42t40.5 -110z" />
    <glyph glyph-name="dagger" unicode="&#x2020;" horiz-adv-x="940" 
d="M360 1487h220v-389h325v-213h-325v-1022h-220v1022h-323v213h323v389z" />
    <glyph glyph-name="daggerdbl" unicode="&#x2021;" horiz-adv-x="940" 
d="M360 1487h220v-389h325v-213h-325v-420h325v-213h-325v-389h-220v389h-323v213h323v420h-323v213h323v389z" />
    <glyph glyph-name="bullet" unicode="&#x2022;" horiz-adv-x="727" 
d="M156 737q84 84 206 84q123 0 207 -84t84 -207q0 -122 -84 -206q-82 -82 -207 -82q-124 0 -206 82t-82 206q0 125 82 207z" />
    <glyph glyph-name="ellipsis" unicode="&#x2026;" horiz-adv-x="1347" 
d="M113 221q41 41 102 41t102 -41q43 -38 43 -100t-43 -103q-41 -41 -102 -41t-102 41t-41 103t41 100zM569 221q43 41 104.5 41t102.5 -41q43 -38 43 -100t-43 -103q-41 -41 -102.5 -41t-104.5 41q-41 41 -41 103t41 100zM1028 221q43 41 104.5 41t102.5 -41
q43 -38 43 -100t-43 -103q-41 -41 -102.5 -41t-104.5 41q-41 41 -41 103t41 100z" />
    <glyph glyph-name="perthousand" unicode="&#x2030;" horiz-adv-x="2570" 
d="M1176 1434h233l-819 -1434h-234zM410 1460q147 0 249 -102q101 -101 101 -258q0 -155 -101 -256q-103 -103 -249 -103q-153 0 -254 101t-101 258t101 258q102 102 254 102zM236 1100q0 -80 49.5 -133.5t122.5 -53.5t121.5 53.5t48.5 133.5q0 82 -47.5 135t-122.5 53
t-123.5 -53t-48.5 -135zM1360 692q149 0 250 -104q102 -102 102 -258q0 -154 -102 -256q-101 -101 -250 -101q-153 0 -254 101q-100 100 -100 256q0 158 100 258q101 104 254 104zM1360 520q-75 0 -124.5 -54t-49.5 -134t49.5 -133.5t124.5 -53.5q73 0 121.5 53.5
t48.5 133.5t-48.5 134t-121.5 54zM2163 692q149 0 250 -104q102 -102 102 -258q0 -154 -102 -256q-101 -101 -250 -101q-153 0 -254 101t-101 256q0 157 101 258q101 104 254 104zM2163 520q-75 0 -124.5 -54t-49.5 -134t49.5 -133.5t124.5 -53.5q73 0 121.5 53.5
t48.5 133.5t-48.5 134t-121.5 54z" />
    <glyph glyph-name="guilsinglleft" unicode="&#x2039;" horiz-adv-x="552" 
d="M315 913h211l-301 -401l301 -399h-211l-290 383v34z" />
    <glyph glyph-name="guilsinglright" unicode="&#x203a;" horiz-adv-x="552" 
d="M25 913h213l288 -383v-34l-288 -383h-213l303 399z" />
    <glyph glyph-name="fraction" unicode="&#x2044;" horiz-adv-x="276" 
d="M432 1434h234l-820 -1434h-233z" />
    <glyph glyph-name="zero.sups" unicode="&#x2070;" horiz-adv-x="757" 
d="M377 1653q147 0 227 -109t80 -305q0 -198 -80 -308t-227 -110q-145 0 -224 110t-79 308q0 196 79 305t224 109zM377 1495q-131 0 -131 -256q0 -260 131 -260q135 0 135 260q0 256 -135 256z" />
    <glyph glyph-name="four.sups" unicode="&#x2074;" horiz-adv-x="759" 
d="M375 1638h211v-514h108v-149h-108v-139h-170v139h-363v135zM418 1124v310l-23 -45l-164 -265h187z" />
    <glyph glyph-name="five.sups" unicode="&#x2075;" horiz-adv-x="716" 
d="M106 1638h500v-159h-330v-156q52 25 117 25q115 0 185.5 -65t70.5 -181q0 -126 -77.5 -203.5t-206.5 -77.5q-134 0 -208.5 65.5t-74.5 186.5h168q3 -94 115 -94q55 0 85.5 31.5t30.5 85.5t-30.5 84t-85.5 30q-58 0 -109 -28h-150v456z" />
    <glyph glyph-name="six.sups" unicode="&#x2076;" horiz-adv-x="735" 
d="M385 1653q116 0 189.5 -67t74.5 -177h-170q-12 86 -102 86q-135 0 -135 -215q57 57 161 57q118 0 189.5 -68t71.5 -177q0 -124 -78.5 -197.5t-206.5 -73.5q-137 0 -217 86q-92 103 -92 316q0 430 315 430zM373 1196q-50 0 -86 -28t-37 -70v-8q0 -46 35 -79.5t88 -33.5
q54 0 86.5 29.5t32.5 80.5q0 47 -34 78t-85 31z" />
    <glyph glyph-name="seven.sups" unicode="&#x2077;" horiz-adv-x="638" 
d="M55 1638h535v-135l-316 -667h-184l303 641h-338v161z" />
    <glyph glyph-name="eight.sups" unicode="&#x2078;" horiz-adv-x="727" 
d="M365 1653q117 0 191.5 -69.5t74.5 -170.5q0 -107 -92 -166q114 -61 114 -180q0 -106 -82.5 -176t-205.5 -70q-125 0 -207 70q-84 72 -84 176q0 125 114 180q-92 59 -92 166q0 102 75 171t194 69zM365 1180q-51 0 -85 -30t-34 -77q-4 -63 57 -89t122.5 0t57.5 89
q0 47 -34 77t-84 30zM365 1503q-62 5 -87.5 -44.5t0 -99t87.5 -44.5q43 0 70.5 26.5t27.5 67.5t-27.5 67.5t-70.5 26.5z" />
    <glyph glyph-name="nine.sups" unicode="&#x2079;" horiz-adv-x="735" 
d="M358 1653q142 0 215 -82q93 -104 93 -320q0 -430 -314 -430q-117 0 -190 67t-74 177h170q12 -86 100 -86q133 0 136 217q-59 -53 -162 -53q-117 0 -188.5 66.5t-71.5 172.5q0 124 78 197.5t208 73.5zM485 1384q0 46 -35 79.5t-88 33.5q-38 0 -67.5 -20.5t-42 -49.5
t-7 -63t30.5 -59q27 -25 64 -30.5t68.5 6.5t54 40t22.5 63z" />
    <glyph glyph-name="n.sups" unicode="&#x207f;" horiz-adv-x="849" 
d="M494 1456q115 0 178 -70t63 -192v-459h-170v416q0 141 -123 141q-65 0 -107 -47t-42 -129v-381h-168v707h147l11 -94q67 108 211 108z" />
    <glyph glyph-name="Euro" unicode="&#x20ac;" horiz-adv-x="1230" 
d="M403 621h312v-168h-283q71 -265 277 -265q102 0 164 56.5t79 161.5h248q-48 -218 -166.5 -325.5t-324.5 -107.5q-197 0 -330.5 126t-183.5 354h-164v168h139q-2 20 -2 98q0 79 2 102h-139v168h164q51 224 185 347.5t329 123.5q415 0 491 -430h-248q-27 215 -243 215
q-203 0 -277 -256h283v-168h-309q-5 -58 -5 -102q0 -78 2 -98z" />
    <glyph glyph-name="afii61289" unicode="&#x2113;" horiz-adv-x="1175" 
d="M674 1536q149 0 240.5 -90t91.5 -244q0 -195 -148 -385q-120 -152 -309 -317v-166q0 -84 31.5 -123t105.5 -39q80 0 135.5 47.5t126.5 161.5l133 -102q-184 -304 -444 -304q-225 0 -272 215q-21 27 -21 142q-46 -35 -174 -142l-113 162q165 135 277 242v569
q0 184 88.5 278.5t251.5 94.5zM672 1360q-67 0 -104.5 -47.5t-37.5 -134.5v-457q130 120 205 235q84 128 84 238q0 79 -39 122.5t-108 43.5z" />
    <glyph glyph-name="trademark" unicode="&#x2122;" horiz-adv-x="1269" 
d="M45 1434h440v-138h-145v-436h-147v436h-148v138zM1020 1434h174v-574h-147v316l-19 -58l-100 -258h-105l-100 258l-18 58v-316h-148v574h176l131 -340l13 -33l8 33z" />
    <glyph glyph-name="Omega" unicode="&#x2126;" horiz-adv-x="1761" 
d="M1563 801q0 -131 -45 -244q-42 -110 -91 -178q-50 -66 -114 -133h370v-246h-686v217q314 243 314 574q0 210 -115 337q-114 129 -309 129q-198 0 -312 -129q-114 -126 -114 -337q0 -331 313 -574v-217h-684v246h373q-252 252 -252 555q0 308 184 504q183 198 492 198
q308 0 491 -198q185 -197 185 -504z" />
    <glyph glyph-name="estimated" unicode="&#x212e;" horiz-adv-x="1204" 
d="M627 1026q-148 0 -242 -70q-74 -47 -74 -129v-196h600v198q0 60 -14 91t-55 49q-86 57 -215 57zM627 1092q219 0 362 -140q141 -138 141 -389h-819v-321q0 -88 74 -129q97 -72 242 -72q271 0 438 250l55 -37q-180 -281 -493 -281q-239 0 -398 156q-157 157 -157 403
q0 247 157 404q159 156 398 156z" />
    <glyph glyph-name="partialdiff" unicode="&#x2202;" horiz-adv-x="1107" 
d="M520 1526q150 0 258 -72t164 -203q102 -234 102 -583q0 -280 -69 -418q-61 -129 -170.5 -198.5t-245.5 -69.5q-212 0 -350 135q-137 137 -137 350q0 209 133 342q132 135 338 135q174 0 274 -127q-5 237 -85 366.5t-230 129.5q-157 0 -260 -139l-152 141q159 211 430 211
zM299 467q0 -127 73 -205t189 -78q113 0 185.5 78t72.5 205q0 122 -72.5 199t-185.5 77t-187.5 -77.5t-74.5 -198.5z" />
    <glyph glyph-name="uni2206" unicode="&#x2206;" horiz-adv-x="1476" 
d="M80 0l659 1309l660 -1309h-1319zM1100 182l-361 717l-360 -717h721z" />
    <glyph glyph-name="product" unicode="&#x220f;" horiz-adv-x="1411" 
d="M72 1434h1267v-213h-239v-1450h-209v1450h-371v-1450h-209v1450h-239v213z" />
    <glyph glyph-name="summation" unicode="&#x2211;" horiz-adv-x="1249" 
d="M94 1434h1043v-226h-727l346 -463l-363 -520h768v-225h-1073v152l408 587l-402 543v152z" />
    <glyph glyph-name="minus" unicode="&#x2212;" horiz-adv-x="966" 
d="M61 813h844v-195h-844v195z" />
    <glyph glyph-name="radical" unicode="&#x221a;" horiz-adv-x="1427" 
d="M754 344l428 1077l190 -78l-610 -1482l-348 667l-250 -141l-98 172l456 270z" />
    <glyph glyph-name="infinity" unicode="&#x221e;" horiz-adv-x="1552" 
d="M1124 977q161 0 260 -111q101 -107 101 -272q0 -162 -101 -272q-99 -111 -260 -111q-68 0 -141 31q-62 28 -99 57t-96 88l-38 39l-39 -39q-145 -145 -297 -145q-153 0 -240 100q-90 104 -90 250q0 148 90 252q88 102 240 102q81 0 146.5 -35.5t148.5 -115.5l39 -41l30 34
q162 186 346 189zM1124 780q-114 0 -227 -149l-31 -41l37 -41q27 -31 66 -70q29 -27 73.5 -49t83.5 -22q74 0 122 53t48 133q0 81 -47.5 133.5t-124.5 52.5zM410 758q-67 0 -107.5 -46.5t-40.5 -119.5q0 -70 41 -116t107 -46q97 0 192 121l33 39l-33 43q-107 125 -192 125z
" />
    <glyph glyph-name="integral" unicode="&#x222b;" horiz-adv-x="888" 
d="M606 1536q129 0 236 -43l-47 -182q-68 32 -140 32q-114 0 -114 -153v-1233q0 -187 -66 -269.5t-209 -82.5t-243 47l51 180q67 -33 141 -33q123 0 123 158v1233q0 184 65 265t203 81z" />
    <glyph glyph-name="approxequal" unicode="&#x2248;" horiz-adv-x="1171" 
d="M416 690q68 0 128 -28t95 -68q94 -94 186 -94q133 0 179 168l149 -70q-85 -289 -330 -289q-69 0 -129.5 28t-99.5 69q-92 96 -184 96q-126 0 -179 -170l-147 67q82 291 332 291zM412 1155q68 0 129 -28t96 -68q94 -94 186 -94q132 0 178 168l150 -70q-82 -291 -332 -291
q-67 0 -127.5 27.5t-99.5 66.5q-93 97 -184 97q-130 0 -179 -168l-149 69q82 291 332 291z" />
    <glyph glyph-name="notequal" unicode="&#x2260;" horiz-adv-x="940" 
d="M535 600h370v-192h-434l-57 -175h-205l57 175h-205v192h269l76 231h-345v191h406l65 199h205l-65 -199h233v-191h-295z" />
    <glyph glyph-name="lessequal" unicode="&#x2264;" horiz-adv-x="729" 
d="M422 1200h262l-381 -350l381 -350h-262l-379 346v8zM43 393h641v-166h-641v166z" />
    <glyph glyph-name="greaterequal" unicode="&#x2265;" horiz-adv-x="729" 
d="M43 1200h262l379 -346v-8l-379 -346h-262l381 350zM43 393h641v-166h-641v166z" />
    <glyph glyph-name="lozenge" unicode="&#x25ca;" horiz-adv-x="1144" 
d="M504 1511h137l446 -823l-446 -821h-137l-447 821zM856 688l-283 498l-286 -498l286 -500z" />
    <glyph glyph-name="commaaccent" unicode="&#xf6c3;" horiz-adv-x="425" 
d="M213 -72q61 0 100 -42t39 -109q0 -87 -43.5 -181.5t-113.5 -164.5l-62 30q53 96 62 195q-54 6 -87.5 42.5t-33.5 90.5q0 59 40.5 99t98.5 40z" />
    <glyph glyph-name="g.alt" horiz-adv-x="1249" 
d="M580 852q-127 0 -206 -90.5t-79 -233.5q0 -145 80.5 -234t206.5 -89q119 0 204 88q88 88 91 231v13q0 139 -91 227q-88 88 -206 88zM541 1059q224 0 344 -170l12 147h193v-1013q0 -217 -140 -351q-138 -135 -364 -135q-202 0 -332.5 96t-159.5 283h217q40 -180 275 -180
q134 0 209 74.5t75 205.5v134q-44 -69 -130.5 -110.5t-198.5 -41.5q-209 0 -340 149t-131 381q0 235 131 381q132 150 340 150z" />
    <glyph glyph-name="a.alt" horiz-adv-x="1247" 
d="M551 1059q224 0 344 -170l14 147h191v-1036h-191l-14 145q-116 -168 -344 -168q-210 0 -346 154q-135 156 -135 387q0 232 135 385q135 156 346 156zM590 854q-131 0 -213 -93.5t-82 -242.5t82 -242.5t213 -93.5q122 0 207 88q88 88 88 240v16q0 150 -88 238
q-90 90 -207 90z" />
    <glyph glyph-name="parenleft.cap" horiz-adv-x="581" 
d="M408 1554l155 -106q-140 -185 -203 -352q-61 -168 -61 -398q0 -228 61 -399q63 -166 203 -350l-155 -107q-161 199 -238.5 402t-77.5 454t77.5 454t238.5 402z" />
    <glyph glyph-name="parenright.cap" horiz-adv-x="581" 
d="M18 1448l156 106q161 -203 239.5 -405.5t78.5 -450.5t-78.5 -450.5t-239.5 -405.5l-156 107q141 182 201 348q64 171 64 401q0 232 -64 400q-60 167 -201 350z" />
    <glyph glyph-name="bracketleft.cap" horiz-adv-x="626" 
d="M143 1507h432v-198h-225v-1227h225v-199h-432v1624z" />
    <glyph glyph-name="bracketright.cap" horiz-adv-x="626" 
d="M51 1507h432v-1624h-432v199h225v1227h-225v198z" />
    <glyph glyph-name="braceleft.cap" horiz-adv-x="626" 
d="M522 1507h53v-198h-47q-133 0 -133 -148v-256q0 -165 -125 -211q125 -46 125 -209v-256q0 -147 133 -147h47v-199h-53q-159 0 -243 89t-84 251v230q0 147 -134 147h-30v191h30q134 0 134 147v229q0 162 84 251t243 89z" />
    <glyph glyph-name="braceright.cap" horiz-adv-x="626" 
d="M51 1507h53q160 0 245 -89.5t85 -250.5v-229q0 -147 133 -147h29v-191h-29q-133 0 -133 -147v-230q0 -161 -85 -250.5t-245 -89.5h-53v199h47q133 0 133 147v256q0 163 125 209q-125 46 -125 211v256q0 148 -133 148h-47v198z" />
    <glyph glyph-name="hyphen.cap" horiz-adv-x="747" 
d="M51 780h645v-194h-645v194z" />
    <glyph glyph-name="endash.cap" horiz-adv-x="1054" 
d="M51 772h953v-194h-953v194z" />
    <glyph glyph-name="emdash.cap" horiz-adv-x="1443" 
d="M51 780h1342v-194h-1342v194z" />
    <glyph glyph-name="at.cap" horiz-adv-x="1673" 
d="M815 969q-100 0 -161.5 -70.5t-61.5 -183.5q0 -110 61 -179t158 -69q96 0 160.5 62.5t64.5 168.5v29q0 109 -65 175.5t-156 66.5zM1599 717q0 -217 -94 -318q-91 -102 -221 -102q-159 0 -217 125q-100 -127 -281 -127q-169 0 -276 119t-107 301t107 301q109 121 270 121
q183 0 264 -140l11 121h159v-569q0 -61 21.5 -89t71.5 -28q143 0 143 285q0 270 -168 444q-167 176 -442 176q-283 0 -451 -174t-168 -446q0 -275 168 -449t451 -174q148 0 278 62l49 -136q-142 -65 -327 -65q-344 0 -557 213q-209 215 -209 549q0 338 211 549
q213 213 555 213q345 0 551 -215q208 -214 208 -547z" />
    <glyph glyph-name="periodcentered.cap" horiz-adv-x="432" 
d="M360 715q0 -62 -42 -104t-103 -42t-102 42t-41 104q0 60 41 100.5t102 40.5q62 0 103.5 -40.5t41.5 -100.5z" />
    <glyph glyph-name="exclamdown.cap" 
d="M369 0h-217v1012h217v-1012zM362 1210q-41 -38 -102 -38t-104 38q-43 41 -43 102.5t43 102.5t104 41t102 -41q43 -41 43 -102.5t-43 -102.5z" />
    <glyph glyph-name="questiondown.cap" horiz-adv-x="876" 
d="M446 -29q-179 0 -299 105t-120 289q0 96 31 177.5t81 133.5q20 20 57.5 54t59 55.5t45.5 50.5t35.5 57.5t11.5 58.5v62h219v-70q0 -142 -116 -246q-5 -5 -40.5 -35t-45 -39.5l-38 -38t-38.5 -46.5t-26 -46.5t-21.5 -58.5t-5.5 -63q0 -105 55.5 -163t150.5 -58
q104 0 162 60.5t58 172.5h206q-3 -192 -123 -303q-121 -109 -299 -109zM559 1212q-41 -38 -102.5 -38t-104.5 38q-41 41 -41 102.5t41 102.5q43 41 104.5 41t102.5 -41q43 -41 43 -102.5t-43 -102.5z" />
    <glyph glyph-name="endash_guilsinglright" horiz-adv-x="1347" 
d="M569 983l107 129l598 -541l-598 -542l-107 129l359 317h-856v189h858z" />
    <glyph glyph-name="emdash_guilsinglright" horiz-adv-x="2019" 
d="M1239 983l104 129l605 -541l-605 -542l-104 129l358 317h-1525v189h1530z" />
    <glyph glyph-name="guilsinglleft_endash" horiz-adv-x="1347" 
d="M72 571l604 541l104 -131l-362 -317h856v-189h-852l358 -317l-104 -129z" />
    <glyph glyph-name="guilsinglleft_emdash" horiz-adv-x="2019" 
d="M72 571l604 541l104 -131l-362 -317h1530v-189h-1526l358 -317l-104 -129z" />
    <glyph glyph-name="guilsinglleft.cap" horiz-adv-x="552" 
d="M315 1098h211l-301 -402l301 -399h-211l-290 383v35z" />
    <glyph glyph-name="guilsinglright.cap" horiz-adv-x="552" 
d="M25 1098h213l288 -383v-35l-288 -383h-213l303 399z" />
    <glyph glyph-name="guillemotleft.cap" horiz-adv-x="964" 
d="M283 1098h213l-271 -402l271 -399h-213l-258 383v35zM727 1098h213l-270 -402l270 -399h-213l-258 383v35z" />
    <glyph glyph-name="guillemotright.cap" horiz-adv-x="964" 
d="M25 1098h213l258 -383v-35l-258 -383h-213l270 399zM469 1098h213l258 -383v-35l-258 -383h-213l270 399z" />
    <glyph glyph-name="germandbls.cap" horiz-adv-x="1292" 
d="M668 1460q157 0 271.5 -50.5t217.5 -156.5l-299 -405q163 -17 263 -127t100 -279q0 -210 -133.5 -333t-372.5 -123q-87 0 -189 18l9 219q77 -22 167 -22q135 0 208 60.5t73 176.5q0 120 -97 185t-272 65l-34 103l282 389q-71 65 -203 65q-126 0 -203 -80t-77 -215v-950
h-232v944q0 227 138 371q139 145 383 145z" />
    <glyph glyph-name="grave.cap" horiz-adv-x="548" 
d="M20 1735h316l192 -234h-227z" />
    <glyph glyph-name="acute.cap" horiz-adv-x="548" 
d="M215 1735h313l-278 -234h-230z" />
    <glyph glyph-name="circumflex.cap" horiz-adv-x="778" 
d="M324 1743h131l303 -244h-252l-119 109l-117 -109h-250z" />
    <glyph glyph-name="caron.cap" horiz-adv-x="778" 
d="M506 1737h252l-303 -244h-131l-304 244h250l117 -109z" />
    <glyph glyph-name="tilde.cap" horiz-adv-x="735" 
d="M240 1772q42 0 78 -14t60 -34t44.5 -40t41 -34t40.5 -14q76 0 76 117h135q0 -126 -56 -197t-163 -71q-43 0 -79 14t-60 33.5t-44.5 39.5t-41 34t-40.5 14q-75 0 -75 -117h-136q0 125 56.5 197t163.5 72z" />
    <glyph glyph-name="dieresis.cap" horiz-adv-x="698" 
d="M150 1749q54 0 90 -36.5t36 -90.5q0 -52 -36.5 -88.5t-89.5 -36.5q-56 0 -93 35.5t-37 89.5t37.5 90.5t92.5 36.5zM678 1622q0 -51 -37.5 -88t-91.5 -37t-90.5 35.5t-36.5 89.5t36.5 90.5t90.5 36.5t91.5 -36.5t37.5 -90.5z" />
    <glyph glyph-name="macron.cap" horiz-adv-x="593" 
d="M20 1683h553v-170h-553v170z" />
    <glyph glyph-name="breve.cap" horiz-adv-x="661" 
d="M461 1759h180q0 -118 -87 -192t-224 -74t-223.5 74t-86.5 192h179q0 -54 35 -86.5t96 -32.5t96 32.5t35 86.5z" />
    <glyph glyph-name="ring.cap" horiz-adv-x="428" 
d="M213 1884q90 0 147.5 -57t57.5 -144t-57.5 -142.5t-147.5 -55.5q-88 0 -146.5 56.5t-58.5 141.5q0 86 58.5 143.5t146.5 57.5zM213 1763q-33 0 -54.5 -22.5t-21.5 -57.5q0 -31 22.5 -54t53.5 -23q35 0 57.5 23t22.5 54q0 35 -22.5 57.5t-57.5 22.5z" />
    <glyph glyph-name="hungarumlaut.cap" horiz-adv-x="782" 
d="M176 1741h232l-199 -248h-189zM530 1741h232l-199 -248h-188z" />
    <glyph glyph-name="dotaccent.cap" horiz-adv-x="305" 
d="M154 1755q54 0 92.5 -36.5t38.5 -90.5q0 -55 -38.5 -93t-92.5 -38q-57 0 -95.5 37.5t-38.5 93.5q0 54 38.5 90.5t95.5 36.5z" />
    <glyph glyph-name="aogonek.alt" horiz-adv-x="1247" 
d="M551 1059q224 0 344 -170l14 147h191v-1036h-10q-138 -58 -138 -176q0 -53 27 -80q28 -28 80.5 -29.5t83.5 17.5l31 -119q-45 -25 -123 -25q-107 0 -175.5 63t-68.5 167q0 123 100 198l-12 129q-116 -168 -344 -168q-210 0 -346 154q-135 156 -135 387q0 232 135 385
q135 156 346 156zM590 854q-131 0 -213 -93.5t-82 -242.5t82 -242.5t213 -93.5q122 0 207 88q88 88 88 240v16q0 150 -88 238q-90 90 -207 90z" />
    <glyph glyph-name="aringacute.alt" horiz-adv-x="1247" 
d="M551 1059q224 0 344 -170l14 147h191v-1036h-191l-14 145q-116 -168 -344 -168q-210 0 -346 154q-135 156 -135 387q0 232 135 385q135 156 346 156zM590 854q-131 0 -213 -93.5t-82 -242.5t82 -242.5t213 -93.5q122 0 207 88q88 88 88 240v16q0 150 -88 238
q-90 90 -207 90zM623 1735h313l-231 -195q108 -56 108 -188q0 -93 -62.5 -154t-160.5 -61q-96 0 -158.5 61t-62.5 154q0 101 69 164zM590 1450q-41 0 -68.5 -27.5t-27.5 -68.5q0 -42 27.5 -70.5t68.5 -28.5q42 0 70 28.5t28 70.5q0 41 -27.5 68.5t-70.5 27.5z" />
    <glyph glyph-name="aacute.alt" horiz-adv-x="1247" 
d="M551 1059q224 0 344 -170l14 147h191v-1036h-191l-14 145q-116 -168 -344 -168q-210 0 -346 154q-135 156 -135 387q0 232 135 385q135 156 346 156zM590 854q-131 0 -213 -93.5t-82 -242.5t82 -242.5t213 -93.5q122 0 207 88q88 88 88 240v16q0 150 -88 238
q-90 90 -207 90zM696 1499h275l-303 -323h-195z" />
    <glyph glyph-name="abreve.alt" horiz-adv-x="1247" 
d="M551 1059q224 0 344 -170l14 147h191v-1036h-191l-14 145q-116 -168 -344 -168q-210 0 -346 154q-135 156 -135 387q0 232 135 385q135 156 346 156zM590 854q-131 0 -213 -93.5t-82 -242.5t82 -242.5t213 -93.5q122 0 207 88q88 88 88 240v16q0 150 -88 238
q-90 90 -207 90zM717 1456h180q0 -130 -87 -213.5t-224 -83.5q-136 0 -223 83t-87 214h179q0 -67 36 -109t95 -42t95 42t36 109z" />
    <glyph glyph-name="adieresis.alt" horiz-adv-x="1247" 
d="M551 1059q224 0 344 -170l14 147h191v-1036h-191l-14 145q-116 -168 -344 -168q-210 0 -346 154q-135 156 -135 387q0 232 135 385q135 156 346 156zM590 854q-131 0 -213 -93.5t-82 -242.5t82 -242.5t213 -93.5q122 0 207 88q88 88 88 240v16q0 150 -88 238
q-90 90 -207 90zM395 1432q54 0 90.5 -35.5t36.5 -89.5t-36.5 -89.5t-90.5 -35.5q-56 0 -92.5 35.5t-36.5 89.5t36.5 89.5t92.5 35.5zM705 1395q37 37 90 37t90 -37q38 -35 38 -88t-38 -90q-37 -35 -90 -35t-90 35q-37 37 -37 90t37 88z" />
    <glyph glyph-name="agrave.alt" horiz-adv-x="1247" 
d="M551 1059q224 0 344 -170l14 147h191v-1036h-191l-14 145q-116 -168 -344 -168q-210 0 -346 154q-135 156 -135 387q0 232 135 385q135 156 346 156zM590 854q-131 0 -213 -93.5t-82 -242.5t82 -242.5t213 -93.5q122 0 207 88q88 88 88 240v16q0 150 -88 238
q-90 90 -207 90zM193 1499h274l223 -323h-194z" />
    <glyph glyph-name="amacron.alt" horiz-adv-x="1247" 
d="M551 1059q224 0 344 -170l14 147h191v-1036h-191l-14 145q-116 -168 -344 -168q-210 0 -346 154q-135 156 -135 387q0 232 135 385q135 156 346 156zM590 854q-131 0 -213 -93.5t-82 -242.5t82 -242.5t213 -93.5q122 0 207 88q88 88 88 240v16q0 150 -88 238
q-90 90 -207 90zM313 1382h553v-170h-553v170z" />
    <glyph glyph-name="aring.alt" horiz-adv-x="1247" 
d="M551 1059q224 0 344 -170l14 147h191v-1036h-191l-14 145q-116 -168 -344 -168q-210 0 -346 154q-135 156 -135 387q0 232 135 385q135 156 346 156zM590 854q-131 0 -213 -93.5t-82 -242.5t82 -242.5t213 -93.5q122 0 207 88q88 88 88 240v16q0 150 -88 238
q-90 90 -207 90zM582 1569q98 0 160.5 -61.5t62.5 -155.5q0 -93 -62.5 -154t-160.5 -61q-96 0 -159 61t-63 154q0 94 62.5 155.5t159.5 61.5zM582 1450q-41 0 -69 -27.5t-28 -68.5t28 -70t69 -29q42 0 70 28.5t28 70.5q0 41 -27.5 68.5t-70.5 27.5z" />
    <glyph glyph-name="atilde.alt" horiz-adv-x="1247" 
d="M551 1059q224 0 344 -170l14 147h191v-1036h-191l-14 145q-116 -168 -344 -168q-210 0 -346 154q-135 156 -135 387q0 232 135 385q135 156 346 156zM590 854q-131 0 -213 -93.5t-82 -242.5t82 -242.5t213 -93.5q122 0 207 88q88 88 88 240v16q0 150 -88 238
q-90 90 -207 90zM463 1460q40 0 72 -10.5t51 -26.5t37.5 -34.5t31.5 -34.5t31.5 -26.5t40.5 -10.5q76 0 76 125h135q0 -128 -56.5 -202.5t-162.5 -74.5q-47 0 -83 15t-57 36.5t-38.5 43t-39 36.5t-46.5 15q-76 0 -76 -127h-135q0 130 56 203t163 73z" />
    <glyph glyph-name="gbreve.alt" horiz-adv-x="1249" 
d="M580 852q-127 0 -206 -90.5t-79 -233.5q0 -145 80.5 -234t206.5 -89q119 0 204 88q88 88 91 231v13q0 139 -91 227q-88 88 -206 88zM541 1059q224 0 344 -170l12 147h193v-1013q0 -217 -140 -351q-138 -135 -364 -135q-202 0 -332.5 96t-159.5 283h217q40 -180 275 -180
q134 0 209 74.5t75 205.5v134q-44 -69 -130.5 -110.5t-198.5 -41.5q-209 0 -340 149t-131 381q0 235 131 381q132 150 340 150zM709 1456h180q0 -130 -87 -213.5t-224 -83.5q-136 0 -223 83t-87 214h178q0 -67 36.5 -109t95.5 -42t95 42t36 109z" />
    <glyph glyph-name="gcircumflex.alt" horiz-adv-x="1249" 
d="M580 852q-127 0 -206 -90.5t-79 -233.5q0 -145 80.5 -234t206.5 -89q119 0 204 88q88 88 91 231v13q0 139 -91 227q-88 88 -206 88zM541 1059q224 0 344 -170l12 147h193v-1013q0 -217 -140 -351q-138 -135 -364 -135q-202 0 -332.5 96t-159.5 283h217q40 -180 275 -180
q134 0 209 74.5t75 205.5v134q-44 -69 -130.5 -110.5t-198.5 -41.5q-209 0 -340 149t-131 381q0 235 131 381q132 150 340 150zM502 1499h151l281 -323h-229l-127 176l-129 -176h-230z" />
    <glyph glyph-name="gcommaaccent.alt" horiz-adv-x="1249" 
d="M580 852q-127 0 -206 -90.5t-79 -233.5q0 -145 80.5 -234t206.5 -89q119 0 204 88q88 88 91 231v13q0 139 -91 227q-88 88 -206 88zM541 1059q224 0 344 -170l12 147h193v-1013q0 -217 -140 -351q-138 -135 -364 -135q-202 0 -332.5 96t-159.5 283h217q40 -180 275 -180
q134 0 209 74.5t75 205.5v134q-44 -69 -130.5 -110.5t-198.5 -41.5q-209 0 -340 149t-131 381q0 235 131 381q132 150 340 150zM600 1683l68 -24q-56 -109 -68 -232q54 -6 88.5 -42.5t34.5 -90.5q0 -57 -41 -97t-98 -40q-62 0 -102 42t-40 110q0 187 158 374z" />
    <glyph glyph-name="gdotaccent.alt" horiz-adv-x="1249" 
d="M580 852q-127 0 -206 -90.5t-79 -233.5q0 -145 80.5 -234t206.5 -89q119 0 204 88q88 88 91 231v13q0 139 -91 227q-88 88 -206 88zM541 1059q224 0 344 -170l12 147h193v-1013q0 -217 -140 -351q-138 -135 -364 -135q-202 0 -332.5 96t-159.5 283h217q40 -180 275 -180
q134 0 209 74.5t75 205.5v134q-44 -69 -130.5 -110.5t-198.5 -41.5q-209 0 -340 149t-131 381q0 235 131 381q132 150 340 150zM477 1419q41 41 100.5 41t100.5 -41q41 -38 41 -95.5t-41 -98.5q-41 -38 -100.5 -38t-100.5 38q-38 41 -38 98.5t38 95.5z" />
    <glyph glyph-name="acircumflex.alt" horiz-adv-x="1247" 
d="M551 1059q224 0 344 -170l14 147h191v-1036h-191l-14 145q-116 -168 -344 -168q-210 0 -346 154q-135 156 -135 387q0 232 135 385q135 156 346 156zM590 854q-131 0 -213 -93.5t-82 -242.5t82 -242.5t213 -93.5q122 0 207 88q88 88 88 240v16q0 150 -88 238
q-90 90 -207 90zM530 1499h152l281 -323h-230l-127 176l-129 -176h-229z" />
    <glyph glyph-name="zero.tnum" horiz-adv-x="1155" 
d="M575 1133q229 0 363 -158q133 -157 133 -420q0 -264 -133 -424q-134 -158 -363 -158q-228 0 -362 158q-131 158 -131 424q0 265 131 420q134 158 362 158zM575 922q-121 0 -191.5 -100t-70.5 -267t71 -269t191 -102q122 0 193.5 102t71.5 269t-71.5 267t-193.5 100z" />
    <glyph glyph-name="one.tnum" horiz-adv-x="739" 
d="M420 1106h172v-1106h-230v745h-303v173q169 0 252 42t109 146z" />
    <glyph glyph-name="two.tnum" horiz-adv-x="1007" 
d="M512 1133q194 0 304 -104.5t110 -278.5q0 -205 -193 -361l-211 -174h420v-215h-844v131l461 375q72 60 102.5 110.5t30.5 122.5q0 179 -184 179q-88 0 -136.5 -56t-47.5 -160h-230q-3 193 113 312q113 119 305 119z" />
    <glyph glyph-name="three.tnum" horiz-adv-x="1101" 
d="M539 1133q194 0 309 -115q113 -113 113 -285q0 -111 -53.5 -187.5t-137.5 -107.5q105 -31 172.5 -119t67.5 -217q0 -186 -127 -301q-126 -114 -328 -114q-221 0 -346 118.5t-125 331.5h229q1 -116 67 -175.5t181 -59.5q97 0 156 56.5t59 152.5q0 223 -295 223h-63v201h61
q130 0 190 45.5t60 144.5q0 89 -49.5 141t-138.5 52t-144 -59.5t-55 -168.5h-229q0 204 115.5 323.5t310.5 119.5z" />
    <glyph glyph-name="four.tnum" horiz-adv-x="1138" 
d="M608 1106h277v-930h192v-207h-192v-256h-232v256h-604v187zM657 174v623l-41 -84l-319 -539h360z" />
    <glyph glyph-name="five.tnum" horiz-adv-x="1099" 
d="M152 1106h800v-215h-567v-334q74 45 207 45q197 0 315.5 -116.5t118.5 -321.5q0 -213 -125 -344q-124 -133 -336 -133q-213 0 -333.5 112.5t-120.5 317.5h231q1 -107 60.5 -161t164.5 -54q108 0 168 67t60 185q0 116 -61 179.5t-173 63.5q-110 0 -205 -59h-204v768z" />
    <glyph glyph-name="six.tnum" horiz-adv-x="1130" 
d="M596 1419q183 0 299 -110q118 -106 127 -291h-234q-15 186 -200 186q-129 0 -193.5 -108.5t-68.5 -343.5q39 62 117 101.5t169 39.5q197 0 318 -127t121 -322q0 -210 -129 -342q-126 -129 -332 -129q-219 0 -350 146q-146 166 -146 545t123 567t379 188zM582 688
q-100 0 -170 -67q-69 -66 -72 -168v-11q0 -103 68 -180q69 -78 174 -78q102 0 167.5 72.5t65.5 185.5q0 105 -65.5 175.5t-167.5 70.5z" />
    <glyph glyph-name="seven.tnum" horiz-adv-x="1017" 
d="M76 1106h870v-186l-553 -1207h-250l541 1176h-608v217z" />
    <glyph glyph-name="eight.tnum" horiz-adv-x="1128" 
d="M565 1421q189 0 307 -118q119 -116 119 -285q0 -104 -47.5 -183.5t-118.5 -117.5q207 -103 207 -330q0 -177 -133 -295q-132 -117 -334 -117q-204 0 -336 117q-133 118 -133 295q0 118 56 202.5t151 127.5q-71 41 -117.5 119.5t-46.5 181.5q0 170 117 287
q119 116 309 116zM565 614q-102 0 -168.5 -59.5t-66.5 -157.5q0 -97 65.5 -154t169.5 -57t170 57.5t66 153.5t-68 156.5t-168 60.5zM565 1206q-91 0 -145.5 -53t-54.5 -141t54.5 -140.5t145.5 -52.5q88 0 143.5 53t55.5 140q0 86 -56 140t-143 54z" />
    <glyph glyph-name="nine.tnum" horiz-adv-x="1130" 
d="M532 -313q-182 0 -301 110q-116 107 -125 291h234q15 -186 201 -186q126 0 191 109t71 341q-38 -62 -117.5 -100.5t-169.5 -38.5q-196 0 -317 127t-121 322q0 209 127 339q129 132 334 132q219 0 350 -146q145 -165 145 -545q0 -379 -123 -567t-379 -188zM547 418
q99 0 168 66.5t73 168.5v11q0 104 -67 180q-69 78 -174 78q-104 0 -169 -72.5t-65 -185.5q0 -105 66 -175.5t168 -70.5z" />
    <glyph glyph-name="zero.dnom" horiz-adv-x="757" 
d="M377 817q147 0 227 -109t80 -305q0 -198 -80 -307.5t-227 -109.5q-145 0 -224 109.5t-79 307.5q0 196 79 305t224 109zM377 659q-131 0 -131 -256q0 -260 131 -260q135 0 135 260q0 256 -135 256z" />
    <glyph glyph-name="one.dnom" 
d="M289 803h125v-803h-170v559h-181v129q199 0 226 115z" />
    <glyph glyph-name="two.dnom" horiz-adv-x="661" 
d="M336 817q126 0 194 -62.5t68 -172.5q0 -114 -109 -232l-176 -190h287v-160h-522v123l262 285q86 95 86 161q0 90 -92 90q-45 0 -71.5 -27.5t-26.5 -80.5h-170q-1 118 73.5 192t196.5 74z" />
    <glyph glyph-name="three.dnom" horiz-adv-x="720" 
d="M618 582q0 -118 -106 -164q135 -44 135 -185q0 -115 -77.5 -181t-207.5 -66q-135 0 -211.5 68.5t-76.5 191.5h168q1 -50 35 -77.5t90 -27.5q49 0 79.5 28t30.5 73q0 104 -147 104h-51v137h49q121 0 121 92q8 51 -44 75q-49 23 -97 1q-55 -25 -50 -88h-170q0 118 71.5 186
t194.5 68q121 0 192.5 -65.5t71.5 -169.5z" />
    <glyph glyph-name="four.dnom" horiz-adv-x="759" 
d="M375 803h211v-514h108v-150h-108v-139h-170v139h-363v135zM418 289v309l-23 -45l-164 -264h187z" />
    <glyph glyph-name="five.dnom" horiz-adv-x="716" 
d="M106 803h500v-160h-330v-156q52 25 117 25q115 0 185.5 -65t70.5 -181q0 -126 -77.5 -203t-206.5 -77q-134 0 -208.5 65.5t-74.5 186.5h168q3 -95 115 -95q55 0 85.5 31.5t30.5 85.5t-30.5 84.5t-85.5 30.5q-56 0 -109 -29h-150v457z" />
    <glyph glyph-name="six.dnom" horiz-adv-x="735" 
d="M385 817q116 0 189.5 -67t74.5 -177h-170q-12 86 -102 86q-135 0 -135 -215q58 58 161 58q118 0 189.5 -68.5t71.5 -177.5q0 -124 -78.5 -197t-206.5 -73q-137 0 -217 86q-92 103 -92 315q0 430 315 430zM373 360q-50 0 -86 -28t-37 -70v-8q0 -46 35 -79.5t88 -33.5
q54 0 86.5 30t32.5 81q0 47 -34 77.5t-85 30.5z" />
    <glyph glyph-name="seven.dnom" horiz-adv-x="638" 
d="M55 803h535v-135l-316 -668h-184l303 641h-338v162z" />
    <glyph glyph-name="eight.dnom" horiz-adv-x="727" 
d="M365 817q117 0 191.5 -69t74.5 -170q0 -107 -92 -166q114 -62 114 -181q0 -105 -82.5 -175t-205.5 -70q-126 0 -207 69q-84 72 -84 176q0 125 114 181q-92 59 -92 166q0 102 75 170.5t194 68.5zM365 344q-51 0 -85 -29.5t-34 -76.5q-4 -63 57 -89t122.5 0t57.5 89
q0 47 -34 76.5t-84 29.5zM365 668q-62 5 -87.5 -44.5t0 -99.5t87.5 -45q43 0 70.5 26.5t27.5 67.5t-27.5 68t-70.5 27z" />
    <glyph glyph-name="nine.dnom" horiz-adv-x="735" 
d="M358 817q142 0 215 -82q93 -104 93 -319q0 -430 -314 -430q-117 0 -190 66.5t-74 176.5h170q12 -86 100 -86q133 0 136 217q-59 -53 -162 -53q-116 0 -188 67t-72 173q0 124 78 197t208 73zM485 549q0 46 -35 79.5t-88 33.5q-38 0 -67.5 -20.5t-42 -49.5t-7 -63.5
t30.5 -59.5q27 -25 64 -30.5t68.5 7t54 40.5t22.5 63z" />
    <glyph glyph-name="zero.subs" horiz-adv-x="757" 
d="M377 612q147 0 227 -108.5t80 -304.5q0 -198 -80 -308t-227 -110q-145 0 -224 110t-79 308q0 196 79 304.5t224 108.5zM377 455q-131 0 -131 -256q0 -260 131 -260q135 0 135 260q0 256 -135 256z" />
    <glyph glyph-name="one.subs" 
d="M289 598h125v-803h-170v559h-181v129q199 0 226 115z" />
    <glyph glyph-name="two.subs" horiz-adv-x="661" 
d="M336 612q126 0 194 -62.5t68 -172.5q0 -114 -109 -232l-176 -190h287v-160h-522v123l262 285q86 95 86 162q0 90 -92 90q-45 0 -71.5 -28t-26.5 -81h-170q-1 118 73.5 192t196.5 74z" />
    <glyph glyph-name="three.subs" horiz-adv-x="720" 
d="M618 377q0 -118 -106 -164q135 -43 135 -184q0 -115 -77.5 -181.5t-207.5 -66.5q-135 0 -211.5 68.5t-76.5 191.5h168q1 -50 34.5 -77t90.5 -27q49 0 79.5 28t30.5 72q0 104 -147 104h-51v138h49q121 0 121 92q8 51 -44 75q-49 22 -97 0q-55 -25 -50 -88h-170
q0 118 71.5 186t194.5 68q121 0 192.5 -65.5t71.5 -169.5z" />
    <glyph glyph-name="four.subs" horiz-adv-x="759" 
d="M375 598h211v-514h108v-150h-108v-139h-170v139h-363v136zM418 84v309l-23 -45l-164 -264h187z" />
    <glyph glyph-name="five.subs" horiz-adv-x="716" 
d="M106 598h500v-160h-330v-155q50 24 117 24q115 0 185.5 -65t70.5 -181q0 -125 -77.5 -202.5t-206.5 -77.5q-134 0 -208.5 65.5t-74.5 186.5h168q3 -94 115 -94q55 0 85.5 31t30.5 85t-30.5 84.5t-85.5 30.5q-56 0 -109 -29h-150v457z" />
    <glyph glyph-name="six.subs" horiz-adv-x="735" 
d="M385 612q116 0 189.5 -66.5t74.5 -176.5h-170q-12 86 -102 86q-135 0 -135 -215q57 57 161 57q118 0 189.5 -68.5t71.5 -177.5q0 -124 -78.5 -197t-206.5 -73q-137 0 -217 86q-92 103 -92 315q0 430 315 430zM373 156q-50 0 -86 -28.5t-37 -70.5v-8q0 -45 35 -78.5
t88 -33.5q54 0 86.5 29.5t32.5 80.5q0 47 -34 78t-85 31z" />
    <glyph glyph-name="seven.subs" horiz-adv-x="638" 
d="M55 598h535v-135l-316 -668h-184l303 641h-338v162z" />
    <glyph glyph-name="eight.subs" horiz-adv-x="727" 
d="M365 612q117 0 191.5 -69t74.5 -170q0 -107 -92 -166q114 -61 114 -180q0 -106 -82.5 -176t-205.5 -70q-126 0 -207 69q-84 72 -84 177q0 125 114 180q-92 59 -92 166q0 102 75 170.5t194 68.5zM365 139q-51 0 -85 -29.5t-34 -76.5q-4 -63 57 -89t122.5 0t57.5 89
q0 47 -34 76.5t-84 29.5zM365 463q-62 5 -87.5 -44.5t0 -99.5t87.5 -45q43 0 70.5 27t27.5 68t-27.5 67.5t-70.5 26.5z" />
    <glyph glyph-name="nine.subs" horiz-adv-x="735" 
d="M358 612q142 0 215 -82q93 -104 93 -319q0 -430 -314 -430q-117 0 -190 67t-74 177h170q12 -86 100 -86q133 0 136 217q-60 -54 -162 -54q-116 0 -188 67t-72 173q0 124 78 197t208 73zM485 344q0 46 -35 79.5t-88 33.5q-38 0 -67.5 -20.5t-42 -49.5t-7 -63.5t30.5 -59.5
q27 -25 64 -30.5t68.5 7t54 40.5t22.5 63z" />
    <glyph glyph-name="zero.numr" horiz-adv-x="757" 
d="M377 1448q147 0 227 -109t80 -305q0 -198 -80 -308t-227 -110q-145 0 -224 110t-79 308q0 196 79 305t224 109zM377 1290q-131 0 -131 -256q0 -260 131 -260q135 0 135 260q0 256 -135 256z" />
    <glyph glyph-name="one.numr" 
d="M289 1434h125v-803h-170v559h-181v129q199 0 226 115z" />
    <glyph glyph-name="two.numr" horiz-adv-x="661" 
d="M336 1448q126 0 194 -63t68 -173q0 -113 -109 -231l-176 -190h287v-160h-522v123l262 284q86 95 86 162q0 90 -92 90q-45 0 -71.5 -27.5t-26.5 -80.5h-170q-1 118 73.5 192t196.5 74z" />
    <glyph glyph-name="three.numr" horiz-adv-x="720" 
d="M618 1212q0 -117 -106 -163q135 -43 135 -185q0 -115 -77.5 -181.5t-207.5 -66.5q-135 0 -211.5 69t-76.5 192h168q1 -50 35 -77.5t90 -27.5q49 0 79.5 28t30.5 72q0 105 -147 105h-51v137h49q121 0 121 92q8 51 -44 75q-49 23 -97 1q-55 -25 -50 -88h-170
q0 118 71.5 186t194.5 68q121 0 192.5 -66t71.5 -170z" />
    <glyph glyph-name="four.numr" horiz-adv-x="759" 
d="M375 1434h211v-514h108v-150h-108v-139h-170v139h-363v135zM418 920v309l-23 -45l-164 -264h187z" />
    <glyph glyph-name="five.numr" horiz-adv-x="716" 
d="M106 1434h500v-160h-330v-156q52 25 117 25q115 0 185.5 -65t70.5 -181q0 -126 -77.5 -203.5t-206.5 -77.5q-134 0 -208.5 65.5t-74.5 186.5h168q3 -94 115 -94q55 0 85.5 31.5t30.5 85.5t-30.5 84.5t-85.5 30.5q-56 0 -109 -29h-150v457z" />
    <glyph glyph-name="six.numr" horiz-adv-x="735" 
d="M385 1448q116 0 189.5 -67t74.5 -177h-170q-12 86 -102 86q-135 0 -135 -215q58 58 161 58q118 0 189.5 -68.5t71.5 -177.5q0 -124 -78.5 -197.5t-206.5 -73.5q-137 0 -217 86q-92 103 -92 316q0 430 315 430zM373 991q-50 0 -86 -28t-37 -70v-8q0 -46 35 -79.5t88 -33.5
q54 0 86.5 30t32.5 81q0 47 -34 77.5t-85 30.5z" />
    <glyph glyph-name="seven.numr" horiz-adv-x="638" 
d="M55 1434h535v-136l-316 -667h-184l303 641h-338v162z" />
    <glyph glyph-name="eight.numr" horiz-adv-x="727" 
d="M365 1448q117 0 191.5 -69.5t74.5 -170.5q0 -107 -92 -166q114 -62 114 -180q0 -106 -82.5 -176t-205.5 -70q-125 0 -207 70q-84 72 -84 176q0 124 114 180q-92 59 -92 166q0 102 75 171t194 69zM365 975q-51 0 -85 -30t-34 -77q-4 -63 57 -89t122.5 0t57.5 89
q0 47 -34 77t-84 30zM365 1298q-62 5 -87.5 -44.5t0 -99t87.5 -44.5q43 0 70.5 26.5t27.5 67.5t-27.5 67.5t-70.5 26.5z" />
    <glyph glyph-name="nine.numr" horiz-adv-x="735" 
d="M358 1448q142 0 215 -82q93 -104 93 -319q0 -431 -314 -431q-117 0 -190 67t-74 177h170q12 -86 100 -86q133 0 136 217q-59 -53 -162 -53q-116 0 -188 67t-72 173q0 124 78 197t208 73zM485 1180q0 45 -35 78.5t-88 33.5q-38 0 -67.5 -20.5t-42 -49.5t-7 -63t30.5 -59
q27 -25 64 -30.5t68.5 7t54 40.5t22.5 63z" />
    <glyph glyph-name="zero.lnum" horiz-adv-x="1177" 
d="M1083 719q0 -347 -129 -547q-129 -199 -364 -199q-238 0 -367 199q-129 200 -129 547t129 543q128 198 367 198t364 -198q129 -196 129 -543zM328 719q0 -254 67 -392.5t195 -138.5t194 138t66 393q0 253 -66 389.5t-194 136.5t-195 -136.5t-67 -389.5z" />
    <glyph glyph-name="one.lnum" horiz-adv-x="1177" 
d="M606 1434h172v-1229h271v-205h-773v205h273v846h-303v194q172 0 253.5 42t106.5 147z" />
    <glyph glyph-name="two.lnum" horiz-adv-x="1177" 
d="M606 1460q196 0 304 -108.5t108 -296.5q0 -113 -43 -210t-133 -208l-336 -422h536v-215h-854v168l451 555q82 100 114.5 168.5t32.5 152.5q0 201 -182 201q-93 0 -145 -59.5t-51 -175.5h-230q-3 206 115 327q120 123 313 123z" />
    <glyph glyph-name="three.lnum" horiz-adv-x="1177" 
d="M588 1460q195 0 309 -117q113 -113 113 -292q0 -116 -53 -195.5t-136 -110.5q105 -31 171.5 -121t66.5 -225q0 -191 -127 -309q-126 -117 -332 -117q-217 0 -341 119t-124 332h230q0 -116 64 -176t179 -60q98 0 158.5 60t60.5 160q0 115 -76.5 174t-220.5 59h-63v201h61
q130 0 191 48t61 152q0 95 -49 149t-139 54q-89 0 -144 -59t-55 -168h-229q0 204 114.5 323t309.5 119z" />
    <glyph glyph-name="four.lnum" horiz-adv-x="1177" 
d="M625 1434h278v-951h193v-207h-193v-276h-229v276h-596v187zM676 481v647l-41 -84l-311 -563h352z" />
    <glyph glyph-name="five.lnum" horiz-adv-x="1177" 
d="M195 1434h798v-215h-567v-357q86 47 217 47q194 0 310 -118t116 -330q0 -221 -125 -355q-127 -133 -338 -133q-213 0 -332.5 111.5t-119.5 318.5h229q1 -107 60.5 -161t164.5 -54q109 0 169.5 71.5t60.5 191.5q0 118 -62 184.5t-172 66.5q-116 0 -205 -59h-204v791z" />
    <glyph glyph-name="six.lnum" horiz-adv-x="1177" 
d="M623 1460q182 0 299 -114q118 -112 127 -299h-234q-15 198 -201 198q-129 0 -193.5 -115t-68.5 -360q42 55 118 89t165 34q200 0 321 -127q119 -125 119 -322q0 -209 -127 -342q-126 -129 -332 -129q-222 0 -350 146q-147 173 -147 565q0 390 124 583t380 193zM608 688
q-100 0 -170 -67q-68 -65 -71 -168v-11q0 -104 67 -180q69 -78 174 -78q103 0 168.5 72.5t65.5 183.5q0 106 -66 177t-168 71z" />
    <glyph glyph-name="seven.lnum" horiz-adv-x="1177" 
d="M154 1434h890v-187l-550 -1247h-250l538 1217h-628v217z" />
    <glyph glyph-name="eight.lnum" horiz-adv-x="1177" 
d="M588 1460q186 0 307 -121q119 -119 119 -292q0 -107 -47.5 -190t-118.5 -122q93 -41 151 -126.5t58 -207.5q0 -184 -135 -307q-136 -121 -334 -121q-200 0 -336 121q-133 124 -133 307q0 119 57.5 207.5t149.5 126.5q-70 41 -117 124t-47 188q0 172 117 292
q121 121 309 121zM756 571q-69 63 -168 63t-168 -63q-70 -61 -70 -163t68 -164q72 -60 170 -60q99 0 168 60t69 164q0 103 -69 163zM588 838q91 0 145.5 55t54.5 147t-56 149.5t-144 57.5t-143.5 -57.5t-55.5 -149.5t55.5 -147t143.5 -55z" />
    <glyph glyph-name="nine.lnum" horiz-adv-x="1177" 
d="M555 -27q-182 0 -301 113q-116 113 -125 301h233q15 -199 201 -199q129 0 193.5 114t68.5 362q-42 -55 -117.5 -89t-164.5 -34q-203 0 -322 125t-119 323q0 210 127 340q125 131 332 131q223 0 350 -145q148 -174 148 -565q0 -390 -124 -583.5t-380 -193.5zM569 745
q100 0 170 70q72 72 72 176q0 103 -68 180q-69 78 -174 78q-103 0 -168 -72.5t-65 -183.5q0 -107 65.5 -177.5t167.5 -70.5z" />
    <glyph glyph-name="b.sups" horiz-adv-x="929" 
d="M125 1751h168v-391q81 96 225 96q149 0 242 -106q96 -107 96 -263q0 -152 -96 -262q-94 -104 -242 -104q-147 0 -235 110l-11 -96h-147v1016zM485 1298q-80 0 -134 -53.5t-60 -144.5v-25q0 -89 56.5 -142.5t139.5 -53.5q85 0 139 57.5t54 150.5t-55 152t-140 59z" />
    <glyph glyph-name="c.sups" horiz-adv-x="843" 
d="M434 1456q133 0 221.5 -67.5t108.5 -190.5h-162q-40 105 -164 105q-82 0 -136 -61t-54 -155q0 -93 54 -153t138 -60q57 0 102 29t58 76h166q-24 -123 -113.5 -190.5t-218.5 -67.5q-162 0 -262 100t-100 266q0 160 102 265q101 104 260 104z" />
    <glyph glyph-name="d.sups" horiz-adv-x="929" 
d="M635 1751h170v-1016h-148l-10 96q-88 -110 -237 -110q-148 0 -242 104q-96 110 -96 262q0 159 94 263q93 106 244 106q147 0 225 -96v391zM444 1298q-86 0 -141 -58.5t-55 -152.5q0 -92 54 -150t140 -58q83 0 140 53.5t57 142.5v25q-1 90 -57.5 144t-137.5 54z" />
    <glyph glyph-name="e.sups" horiz-adv-x="847" 
d="M428 1456q157 0 248.5 -94.5t91.5 -271.5v-56h-520q5 -75 56 -120.5t132 -45.5q123 0 158 90h166q-33 -113 -117 -175t-211 -62q-162 0 -261 100.5t-99 265.5q0 164 98 265q101 104 258 104zM424 1311q-74 0 -122.5 -43.5t-53.5 -110.5h346q0 69 -46 111.5t-124 42.5z
" />
    <glyph glyph-name="f.sups" horiz-adv-x="550" 
d="M414 1765q68 0 98 -12v-151q-37 16 -78 16q-98 0 -98 -100v-76h170v-154h-172v-553h-168v553h-119v154h119v82q0 118 63 179.5t185 61.5z" />
    <glyph glyph-name="g.sups" horiz-adv-x="811" 
d="M502 1442h268v-146h-98q18 -44 18 -90q0 -106 -82 -174.5t-207 -68.5q-71 0 -135 22q-22 -19 -22 -57q0 -66 78 -66h184q110 0 173.5 -53t63.5 -147q0 -116 -85.5 -179t-235.5 -63q-160 0 -246 55.5t-86 159.5q0 86 76 129q-86 59 -86 149q0 92 74 148q-52 61 -52 145
q0 109 85 179.5t214 70.5q52 0 101 -14zM463 739h-125q-36 -5 -59 -29.5t-23 -62.5q0 -104 168 -104q156 0 156 108q0 41 -31.5 64.5t-85.5 23.5zM397 1333q-57 0 -93 -35t-36 -92q0 -55 36 -90t93 -35t94 35t37 90q0 57 -35.5 92t-95.5 35z" />
    <glyph glyph-name="h.sups" horiz-adv-x="849" 
d="M125 1751h168v-389q27 42 81.5 68t119.5 26q115 0 178 -70t63 -192v-459h-170v416q0 141 -123 141q-65 0 -107 -47t-42 -129v-381h-168v1016z" />
    <glyph glyph-name="i.sups" horiz-adv-x="425" 
d="M127 1442h170v-707h-170v707zM317 1649q0 -41 -30.5 -72t-73.5 -31t-73.5 31t-30.5 72q0 43 30.5 72.5t73.5 29.5t73.5 -29.5t30.5 -72.5z" />
    <glyph glyph-name="j.sups" horiz-adv-x="425" 
d="M127 1442h170v-748q0 -274 -238 -274q-69 0 -110 14v152q41 -13 80 -13q53 0 75.5 30t22.5 95v744zM213 1751q43 0 73.5 -29.5t30.5 -72.5q0 -41 -31.5 -72t-72.5 -31q-44 0 -74 30t-30 73q0 44 30 73t74 29z" />
    <glyph glyph-name="k.sups" horiz-adv-x="806" 
d="M133 1751h166v-606l229 297h201l-219 -295l258 -412h-193l-182 279l-94 -113v-166h-166v1016z" />
    <glyph glyph-name="l.sups" horiz-adv-x="425" 
d="M129 1751h168v-1016h-168v1016z" />
    <glyph glyph-name="m.sups" horiz-adv-x="1277" 
d="M928 1456q112 0 173.5 -70t61.5 -192v-459h-168v414q0 143 -118 143q-62 0 -102 -41.5t-44 -117.5v-398h-170v414q0 143 -121 143q-64 0 -105.5 -47t-41.5 -129v-381h-168v707h147l11 -94q27 48 83 78t126 30q154 0 213 -127q27 57 87 92t136 35z" />
    <glyph glyph-name="o.sups" horiz-adv-x="901" 
d="M451 1456q162 0 270 -102q106 -100 106 -267q0 -164 -106 -264q-108 -102 -270 -102q-165 0 -273 102q-106 100 -106 264q0 167 106 267q108 102 273 102zM453 1303q-90 0 -147.5 -60t-57.5 -153q0 -95 57 -155.5t148 -60.5q87 0 143.5 61.5t56.5 154.5t-56.5 153
t-143.5 60z" />
    <glyph glyph-name="p.sups" horiz-adv-x="935" 
d="M526 1456q149 0 242 -106q96 -107 96 -260q0 -155 -96 -265q-94 -104 -242 -104q-144 0 -225 96v-381h-170v1006h148l12 -96q82 110 235 110zM494 1298q-83 0 -140 -53.5t-57 -142.5v-25q1 -89 58.5 -143.5t138.5 -54.5q85 0 139.5 59t54.5 152q0 92 -54 150t-140 58z
" />
    <glyph glyph-name="q.sups" horiz-adv-x="935" 
d="M410 1456q149 0 237 -110l10 96h148v-1006h-170v381q-78 -96 -225 -96q-150 0 -244 104q-94 107 -94 265q0 153 96 260q93 106 242 106zM442 1298q-86 0 -140 -58t-54 -150q0 -94 55 -152.5t141 -58.5q81 0 137.5 54t57.5 144v25q0 89 -57 142.5t-140 53.5z" />
    <glyph glyph-name="r.sups" horiz-adv-x="575" 
d="M516 1448v-168q-100 0 -154 -45q-63 -51 -63 -137v-363h-166v707h143l15 -109q56 115 225 115z" />
    <glyph glyph-name="s.sups" horiz-adv-x="718" 
d="M358 1456q116 0 191 -61t76 -160h-170q-3 80 -99 80q-94 0 -94 -70q0 -36 28 -53t111 -35q127 -23 184.5 -73.5t57.5 -137.5q0 -109 -78.5 -167t-204.5 -58q-130 0 -205.5 61t-80.5 166h170q3 -86 123 -86q47 0 75.5 20.5t28.5 51.5q0 37 -30.5 56t-116.5 36
q-234 40 -234 207q0 99 71.5 161t196.5 62z" />
    <glyph glyph-name="t.sups" horiz-adv-x="581" 
d="M170 1612h168l-2 -170h172v-156h-172l-2 -303q0 -58 20.5 -81t73.5 -23q59 0 80 8v-146q-50 -16 -115 -16q-118 0 -174 52.5t-55 164.5l2 344h-123v156h125z" />
    <glyph glyph-name="u.sups" horiz-adv-x="839" 
d="M547 1442h170v-707h-148l-10 92q-26 -46 -82 -76t-127 -30q-112 0 -173.5 69t-61.5 191v461h168v-420q0 -67 31.5 -103t88.5 -36q62 0 103 45.5t41 122.5v391z" />
    <glyph glyph-name="v.sups" horiz-adv-x="784" 
d="M563 1442h180l-266 -707h-172l-264 707h180l158 -449l12 -59l17 59z" />
    <glyph glyph-name="w.sups" horiz-adv-x="1163" 
d="M940 1442h182l-221 -707h-176l-143 432l-152 -432h-166l-223 707h180l121 -441l16 -71l15 71l135 441h147l133 -441l17 -71l14 71z" />
    <glyph glyph-name="x.sups" horiz-adv-x="804" 
d="M547 1442h194l-223 -346l236 -361h-197l-154 232l-155 -232h-197l238 361l-226 346h197l143 -217z" />
    <glyph glyph-name="y.sups" horiz-adv-x="788" 
d="M563 1442h180l-378 -1006h-177l113 309l-260 697h180l158 -449l12 -59l17 59z" />
    <glyph glyph-name="z.sups" horiz-adv-x="727" 
d="M78 1442h567v-129l-344 -430h365v-148h-590v127l344 430h-342v150z" />
    <glyph glyph-name="a.sups" horiz-adv-x="786" 
d="M391 1456q135 0 210 -66.5t75 -189.5v-465h-146l-8 82q-78 -96 -215 -96q-100 0 -159.5 53.5t-59.5 145.5q0 172 221 210l199 37v29q0 111 -117 111q-55 0 -87 -26t-32 -73h-166q6 112 82.5 180t202.5 68zM508 1014v28l-166 -30q-86 -18 -86 -80q0 -31 23.5 -49.5
t64.5 -18.5q91 0 133 60q31 42 31 90z" />
    <glyph glyph-name="g.alt.sups" horiz-adv-x="927" 
d="M436 1298q-85 0 -136.5 -54.5t-51.5 -145.5q0 -90 53 -145.5t135 -55.5q81 0 138 51.5t57 136.5v23q0 87 -56.5 138.5t-138.5 51.5zM401 1456q150 0 238 -113l10 99h148v-690q0 -149 -100 -240.5t-261 -91.5q-146 0 -238.5 67.5t-109.5 198.5h166q24 -113 182 -113
q90 0 140.5 47.5t50.5 127.5v86q-85 -97 -226 -97q-143 0 -237 101q-92 103 -92 260q0 155 92 258q90 100 237 100z" />
    <glyph glyph-name="a.alt.sups" horiz-adv-x="929" 
d="M410 1456q152 0 237 -110l10 96h148v-707h-148l-10 96q-85 -110 -237 -110q-148 0 -242 104q-96 110 -96 262q0 159 94 263q93 106 244 106zM442 1298q-86 0 -140 -58.5t-54 -152.5q0 -92 54 -150t140 -58q83 0 140 53.5t57 142.5v27q0 89 -57 142.5t-140 53.5z" />
    <glyph glyph-name="g_i.alt" horiz-adv-x="1222" 
d="M213 1376q155 158 399 158q246 0 398 -158q151 -157 151 -401q0 -245 -151 -402t-398 -157q-245 0 -399 157q-152 158 -152 402q0 243 152 401zM1026 975q0 188 -115 309q-114 123 -299 123q-187 0 -301 -123t-114 -309t114 -309t301 -123q185 0 299 123q115 124 115 309
z" />
    <glyph glyph-name="zero.slash" horiz-adv-x="1155" 
d="M1071 719q0 -347 -129 -547q-129 -199 -364 -199q-236 0 -365 199q-129 200 -129 547q0 343 129 543q128 198 365 198q236 0 364 -198q129 -200 129 -543zM838 719q0 164 -31 285l-391 -734q64 -82 162 -82q128 0 194 138t66 393zM578 1245q-128 0 -194.5 -136.5
t-66.5 -389.5q0 -158 29 -287l391 731q-64 82 -159 82z" />
    <glyph glyph-name="L_a_r_s_s_e_i_t" horiz-adv-x="6361" 
d="M3375 1509v-206q-205 0 -205 -224v-43h672v-174l-266 -416q168 -24 270 -147q100 -121 100 -285q0 -219 -124.5 -342t-356.5 -123q-74 0 -174 17l6 219q97 -23 148 -23q129 0 199.5 64t70.5 186q0 116 -79 182t-214 66h-96v152l266 424h-422v-836h-229v1075
q0 434 434 434zM4528 1059q218 0 346.5 -139.5t128.5 -393.5v-84h-755q7 -124 85.5 -198t200.5 -74q190 0 248 147h213q-50 -163 -169.5 -251.5t-297.5 -88.5q-224 0 -366 148q-140 149 -140 391q0 237 140 389q139 154 366 154zM1563 1059q184 0 286.5 -97.5t102.5 -279.5
v-682h-193l-10 135q-96 -158 -305 -158q-140 0 -224.5 79.5t-84.5 215.5q0 248 303 306l295 53v47q0 186 -170 186q-81 0 -134 -45t-53 -119h-211q6 153 115 256t283 103zM152 1434h229v-1219h620v-215h-849v1434zM5825 1290h219l-2 -254h252v-200h-254l-5 -492
q0 -87 31.5 -123.5t110.5 -36.5q61 0 117 17v-193q-61 -22 -160 -22q-161 0 -239 75.5t-77 235.5l4 539h-182v200h182zM2744 1047v-220q-129 0 -207 -69q-87 -72 -90 -219v-539h-217v1036h191l18 -176q31 84 109 135.5t196 51.5zM5245 1036h217v-1036h-217v1036zM4526 868
q-116 0 -190.5 -71t-85.5 -185h534q-1 117 -71.5 186.5t-186.5 69.5zM1733 430v37l-248 -53q-131 -27 -131 -131q0 -54 37 -85.5t104 -31.5q125 0 188 100q50 71 50 164zM5353 1485q44 3 79.5 -23t51 -63.5t9 -80t-38.5 -69.5q-30 -30 -73.5 -36.5t-81 8t-63.5 48.5t-22 77
q0 59 40.5 99t98.5 40z" />
    <glyph glyph-name="A.smcp" horiz-adv-x="1202" 
d="M479 1104h244l446 -1104h-241l-99 242h-456l-97 -242h-243zM623 776l-21 64l-22 -64l-142 -354h328z" />
    <glyph glyph-name="B.smcp" horiz-adv-x="1019" 
d="M141 1104h363q174 0 275.5 -85t101.5 -231q0 -141 -101 -217q79 -31 122.5 -93.5t43.5 -149.5q0 -149 -104.5 -238.5t-282.5 -89.5h-418v1104zM553 471h-188v-272h188q74 0 118 36t44 99t-43.5 100t-118.5 37zM502 905h-137v-258h141q67 0 107 35t40 92q0 61 -41 96
t-110 35z" />
    <glyph glyph-name="C.smcp" horiz-adv-x="1224" 
d="M645 1124q205 0 334 -99t180 -280h-246q-62 173 -268 173q-147 0 -239 -103q-91 -105 -91 -262q0 -156 91 -264q92 -103 241 -103q213 0 281 183h235q-99 -389 -516 -389q-253 0 -407 161q-156 163 -156 412q0 247 156 410q154 161 405 161z" />
    <glyph glyph-name="D.smcp" horiz-adv-x="1247" 
d="M141 1104h428q270 0 430 -154q162 -149 162 -397q0 -249 -162 -401q-161 -152 -430 -152h-428v1104zM569 895h-204v-686h204q173 0 268 90t95 254t-94.5 253t-268.5 89z" />
    <glyph glyph-name="E.smcp" horiz-adv-x="899" 
d="M141 1104h660v-205h-436v-237h376v-197h-376v-260h436v-205h-660v1104z" />
    <glyph glyph-name="F.smcp" horiz-adv-x="854" 
d="M141 1104h650v-205h-426v-254h360v-196h-360v-449h-224v1104z" />
    <glyph glyph-name="G.smcp" horiz-adv-x="1290" 
d="M655 1124q205 0 339.5 -99.5t185.5 -276.5h-246q-70 172 -283 172q-146 0 -241 -103q-93 -104 -93 -262q0 -160 95 -266q94 -105 250 -105q129 0 204.5 55.5t85.5 163.5h-276v191h512v-92q0 -245 -146 -385q-143 -137 -380 -137q-255 0 -416 161q-160 165 -160 412
q0 245 160 410q157 161 409 161z" />
    <glyph glyph-name="H.smcp" horiz-adv-x="1224" 
d="M858 1104h225v-1104h-225v467h-493v-467h-224v1104h224v-428h493v428z" />
    <glyph glyph-name="I.smcp" horiz-adv-x="505" 
d="M141 1104h224v-1104h-224v1104z" />
    <glyph glyph-name="J.smcp" horiz-adv-x="905" 
d="M555 1104h223v-754q0 -170 -94 -265t-256 -95q-181 0 -275.5 99t-99.5 280h223q6 -168 146 -168q133 0 133 157v746z" />
    <glyph glyph-name="K.smcp" horiz-adv-x="1167" 
d="M774 1104h270l-358 -496l434 -608h-268l-322 434l-161 -198v-236h-224v1104h224v-555z" />
    <glyph glyph-name="L.smcp" horiz-adv-x="890" 
d="M141 1104h224v-895h479v-209h-703v1104z" />
    <glyph glyph-name="M.smcp" horiz-adv-x="1507" 
d="M1110 1104h258v-1104h-225v700l-33 -106l-266 -594h-180l-265 594l-34 106v-700h-224v1104h258l330 -709l25 -63l24 63z" />
    <glyph glyph-name="N.smcp" horiz-adv-x="1247" 
d="M883 1104h223v-1104h-221l-475 662l-45 73v-735h-224v1104h224l473 -664l45 -75v739z" />
    <glyph glyph-name="O.smcp" horiz-adv-x="1327" 
d="M246 963q161 161 418 161q256 0 417 -161q162 -158 162 -410q0 -250 -162 -412q-161 -161 -417 -161q-257 0 -418 161q-162 162 -162 412q0 252 162 410zM664 918q-158 0 -253.5 -101t-95.5 -264q0 -161 95 -264t254 -103q156 0 251 103t95 264q0 159 -95 262t-251 103z
" />
    <glyph glyph-name="P.smcp" horiz-adv-x="972" 
d="M141 1104h369q183 0 293 -99t110 -260q0 -157 -110 -258q-107 -98 -293 -98h-145v-389h-224v1104zM510 901h-145v-309h145q80 0 127 41t47 112q0 73 -47 114.5t-127 41.5z" />
    <glyph glyph-name="Q.smcp" horiz-adv-x="1331" 
d="M1243 553q0 -242 -158 -408l287 -286h-301l-166 166q-110 -45 -241 -45q-257 0 -418 161q-162 162 -162 412q0 252 162 410q161 161 418 161q256 0 417 -161q162 -158 162 -410zM664 918q-158 0 -253.5 -101t-95.5 -264q0 -161 95 -264t254 -103q29 0 73 7l-155 157h303
l43 -45q82 98 82 248q0 159 -95 262t-251 103z" />
    <glyph glyph-name="R.smcp" horiz-adv-x="978" 
d="M141 1104h351q184 0 293.5 -97t109.5 -257q0 -203 -186 -291l235 -459h-250l-209 416h-120v-416h-224v1104zM492 899h-127v-297h127q82 0 128 38.5t46 109.5q0 72 -46 110.5t-128 38.5z" />
    <glyph glyph-name="S.smcp" horiz-adv-x="935" 
d="M471 1124q161 0 256 -85.5t102 -239.5h-221q0 67 -38 104t-105 37q-61 0 -96 -33t-35 -90q0 -60 40.5 -91t160.5 -71q180 -61 253.5 -138t73.5 -202q0 -155 -105 -245t-274 -90q-189 0 -294 96.5t-107 257.5h219q9 -170 180 -170q72 0 115 36.5t43 94.5q0 54 -46 90
t-157 72q-174 58 -250.5 133.5t-76.5 204.5q0 148 98 238.5t264 90.5z" />
    <glyph glyph-name="T.smcp" horiz-adv-x="1013" 
d="M23 1104h968v-209h-373v-895h-223v895h-372v209z" />
    <glyph glyph-name="U.smcp" horiz-adv-x="1185" 
d="M834 1104h225v-660q0 -221 -122 -342.5t-343 -121.5q-223 0 -345 121.5t-122 342.5v660h225v-660q0 -258 242 -258q240 0 240 258v660z" />
    <glyph glyph-name="V.smcp" horiz-adv-x="1167" 
d="M899 1104h238l-449 -1104h-213l-446 1104h235l293 -723l23 -76l26 76z" />
    <glyph glyph-name="W.smcp" horiz-adv-x="1660" 
d="M1391 1104h235l-348 -1104h-236l-196 643l-15 74l-16 -74l-197 -643h-233l-350 1104h235l222 -707l14 -80l16 80l207 707h205l209 -707l12 -80l19 80z" />
    <glyph glyph-name="X.smcp" horiz-adv-x="1181" 
d="M856 1104h262l-375 -545l385 -559h-262l-278 395l-275 -395h-262l387 559l-375 545h263l262 -381z" />
    <glyph glyph-name="Y.smcp" horiz-adv-x="1142" 
d="M860 1104h256l-434 -694v-410h-223v410l-434 694h258l247 -399l41 -76l41 76z" />
    <glyph glyph-name="Z.smcp" horiz-adv-x="1009" 
d="M84 1104h829v-182l-546 -713h569v-209h-856v182l551 713h-547v209z" />
    <glyph glyph-name="Agrave.smcp" horiz-adv-x="1202" 
d="M479 1104h244l446 -1104h-241l-99 242h-456l-97 -242h-243zM623 776l-21 64l-22 -64l-142 -354h328zM209 1561h274l224 -324h-195z" />
    <glyph glyph-name="Aacute.smcp" horiz-adv-x="1202" 
d="M479 1104h244l446 -1104h-241l-99 242h-456l-97 -242h-243zM623 776l-21 64l-22 -64l-142 -354h328zM711 1561h274l-303 -324h-195z" />
    <glyph glyph-name="Acircumflex.smcp" horiz-adv-x="1202" 
d="M479 1104h244l446 -1104h-241l-99 242h-456l-97 -242h-243zM623 776l-21 64l-22 -64l-142 -354h328zM528 1561h152l281 -324h-230l-127 176l-129 -176h-229z" />
    <glyph glyph-name="Atilde.smcp" horiz-adv-x="1202" 
d="M479 1104h244l446 -1104h-241l-99 242h-456l-97 -242h-243zM623 776l-21 64l-22 -64l-142 -354h328zM475 1522q47 0 83 -15t57 -36t38.5 -42t39 -36t46.5 -15q76 0 76 125h135q0 -128 -56.5 -202t-162.5 -74q-47 0 -83 15t-57 36.5t-38.5 42.5t-39 36t-46.5 15
q-76 0 -76 -127h-135q0 130 56 203.5t163 73.5z" />
    <glyph glyph-name="Adieresis.smcp" horiz-adv-x="1202" 
d="M479 1104h244l446 -1104h-241l-99 242h-456l-97 -242h-243zM623 776l-21 64l-22 -64l-142 -354h328zM403 1493q54 0 90.5 -35.5t36.5 -89.5t-36.5 -89.5t-90.5 -35.5q-56 0 -92.5 35.5t-36.5 89.5t36.5 89.5t92.5 35.5zM713 1456q37 37 90 37t90 -37q38 -35 38 -88
t-38 -90q-37 -35 -90 -35t-90 35q-37 37 -37 90t37 88z" />
    <glyph glyph-name="Amacron.smcp" horiz-adv-x="1202" 
d="M479 1104h244l446 -1104h-241l-99 242h-456l-97 -242h-243zM623 776l-21 64l-22 -64l-142 -354h328zM326 1444h553v-170h-553v170z" />
    <glyph glyph-name="Abreve.smcp" horiz-adv-x="1202" 
d="M479 1104h244l446 -1104h-241l-99 242h-456l-97 -242h-243zM623 776l-21 64l-22 -64l-142 -354h328zM733 1518h180q0 -130 -87 -213.5t-224 -83.5q-136 0 -222.5 83t-86.5 214h178q0 -67 36 -109.5t95 -42.5t95 42.5t36 109.5z" />
    <glyph glyph-name="Aring.smcp" horiz-adv-x="1202" 
d="M479 1104h244l446 -1104h-241l-99 242h-456l-97 -242h-243zM623 776l-21 64l-22 -64l-142 -354h328zM600 1630q98 0 160.5 -61.5t62.5 -155.5q0 -93 -62.5 -154t-160.5 -61q-96 0 -158.5 61t-62.5 154q0 94 62.5 155.5t158.5 61.5zM600 1511q-41 0 -68.5 -27.5
t-27.5 -68.5t27.5 -69.5t68.5 -28.5q42 0 70 28t28 70q0 41 -27.5 68.5t-70.5 27.5z" />
    <glyph glyph-name="Aringacute.smcp" horiz-adv-x="1202" 
d="M479 1104h244l446 -1104h-241l-99 242h-456l-97 -242h-243zM629 1780h313l-231 -195q108 -55 108 -188q0 -93 -62.5 -154t-160.5 -61q-96 0 -158.5 61t-62.5 154q0 101 69 164zM623 776l-21 64l-22 -64l-142 -354h328zM596 1495q-41 0 -68.5 -27.5t-27.5 -68.5
q0 -42 27.5 -70.5t68.5 -28.5q42 0 70 28.5t28 70.5q0 41 -27.5 68.5t-70.5 27.5z" />
    <glyph glyph-name="Aogonek.smcp" horiz-adv-x="1202" 
d="M479 1104h244l446 -1104h-67q-137 -58 -137 -176q0 -54 26 -80q28 -28 80.5 -29.5t83.5 17.5l31 -119q-45 -25 -123 -25q-107 0 -175.5 63t-68.5 167q0 122 101 198l-91 226h-456l-97 -242h-243zM623 776l-21 64l-22 -64l-142 -354h328z" />
    <glyph glyph-name="AE.smcp" horiz-adv-x="1593" 
d="M756 1104h749v-205h-436v-235h379v-199h-379v-260h436v-205h-661v242h-391l-166 -242h-262zM844 422v434l-35 -68l-244 -366h279z" />
    <glyph glyph-name="AEacute.smcp" horiz-adv-x="1603" 
d="M756 1104h749v-205h-436v-235h379v-199h-379v-260h436v-205h-661v242h-391l-166 -242h-262zM844 422v434l-35 -68l-244 -366h279zM1087 1522h287l-297 -308h-205z" />
    <glyph glyph-name="Cacute.smcp" horiz-adv-x="1224" 
d="M645 1124q205 0 334 -99t180 -280h-246q-62 173 -268 173q-147 0 -239 -103q-91 -105 -91 -262q0 -156 91 -264q92 -103 241 -103q213 0 281 183h235q-99 -389 -516 -389q-253 0 -407 161q-156 163 -156 412q0 247 156 410q154 161 405 161zM750 1561h274l-303 -324h-195
z" />
    <glyph glyph-name="Ccircumflex.smcp" horiz-adv-x="1224" 
d="M645 1124q205 0 334 -99t180 -280h-246q-62 173 -268 173q-147 0 -239 -103q-91 -105 -91 -262q0 -156 91 -264q92 -103 241 -103q213 0 281 183h235q-99 -389 -516 -389q-253 0 -407 161q-156 163 -156 412q0 247 156 410q154 161 405 161zM567 1561h152l280 -324h-229
l-127 176l-129 -176h-229z" />
    <glyph glyph-name="Ccaron.smcp" horiz-adv-x="1224" 
d="M645 1124q205 0 334 -99t180 -280h-246q-62 173 -268 173q-147 0 -239 -103q-91 -105 -91 -262q0 -156 91 -264q92 -103 241 -103q213 0 281 183h235q-99 -389 -516 -389q-253 0 -407 161q-156 163 -156 412q0 247 156 410q154 161 405 161zM770 1538h229l-280 -324h-152
l-282 324h229l129 -176z" />
    <glyph glyph-name="Cdotaccent.smcp" horiz-adv-x="1224" 
d="M645 1124q205 0 334 -99t180 -280h-246q-62 173 -268 173q-147 0 -239 -103q-91 -105 -91 -262q0 -156 91 -264q92 -103 241 -103q213 0 281 183h235q-99 -389 -516 -389q-253 0 -407 161q-156 163 -156 412q0 247 156 410q154 161 405 161zM541 1481q41 41 100 41
t100 -41q41 -38 41 -96t-41 -99q-41 -38 -100 -38t-100 38q-38 41 -38 99t38 96z" />
    <glyph glyph-name="Ccedilla.smcp" horiz-adv-x="1224" 
d="M645 1124q205 0 334 -99t180 -280h-246q-62 173 -268 173q-147 0 -239 -103q-91 -105 -91 -262q0 -156 91 -264q92 -103 241 -103q213 0 281 183h235q-94 -366 -473 -387l-18 -82q82 0 132 -46t50 -124q0 -89 -60 -139t-159 -50q-119 0 -189 70l72 102q42 -51 117 -51
q82 0 82 66q0 65 -80 65q-33 0 -64 -8l-41 14l46 185q-221 21 -359 180q-135 156 -135 389q0 247 156 410q154 161 405 161z" />
    <glyph glyph-name="Dcaron.smcp" horiz-adv-x="1247" 
d="M141 1104h428q270 0 430 -154q162 -149 162 -397q0 -249 -162 -401q-161 -152 -430 -152h-428v1104zM569 895h-204v-686h204q173 0 268 90t95 254t-94.5 253t-268.5 89zM698 1538h230l-281 -324h-151l-283 324h229l129 -176z" />
    <glyph glyph-name="Dcroat.smcp" horiz-adv-x="1265" 
d="M160 1104h428q270 0 430 -154q162 -149 162 -397q0 -249 -162 -401q-161 -152 -430 -152h-428v483h-121v154h121v467zM588 895h-205v-258h164v-154h-164v-274h205q173 0 267.5 90t94.5 254t-94.5 253t-267.5 89z" />
    <glyph glyph-name="Egrave.smcp" horiz-adv-x="899" 
d="M141 1104h660v-205h-436v-237h376v-197h-376v-260h436v-205h-660v1104zM98 1561h275l223 -324h-195z" />
    <glyph glyph-name="Eacute.smcp" horiz-adv-x="899" 
d="M141 1104h660v-205h-436v-237h376v-197h-376v-260h436v-205h-660v1104zM600 1561h274l-303 -324h-194z" />
    <glyph glyph-name="Ecircumflex.smcp" horiz-adv-x="899" 
d="M141 1104h660v-205h-436v-237h376v-197h-376v-260h436v-205h-660v1104zM412 1561h151l281 -324h-230l-127 176l-129 -176h-229z" />
    <glyph glyph-name="Ecaron.smcp" horiz-adv-x="899" 
d="M141 1104h660v-205h-436v-237h376v-197h-376v-260h436v-205h-660v1104zM608 1538h230l-281 -324h-151l-283 324h229l129 -176z" />
    <glyph glyph-name="Edieresis.smcp" horiz-adv-x="899" 
d="M287 1493q54 0 90.5 -35.5t36.5 -89.5t-36.5 -89.5t-90.5 -35.5q-56 0 -92.5 35.5t-36.5 89.5t36.5 89.5t92.5 35.5zM596 1456q37 37 90 37t90 -37q38 -35 38 -88t-38 -90q-37 -35 -90 -35t-90 35q-37 37 -37 90t37 88zM141 1104h660v-205h-436v-237h376v-197h-376v-260
h436v-205h-660v1104z" />
    <glyph glyph-name="Emacron.smcp" horiz-adv-x="899" 
d="M141 1104h660v-205h-436v-237h376v-197h-376v-260h436v-205h-660v1104zM201 1444h553v-170h-553v170z" />
    <glyph glyph-name="Ebreve.smcp" horiz-adv-x="899" 
d="M612 1518h181q0 -130 -87.5 -213.5t-224.5 -83.5q-136 0 -222.5 83t-86.5 214h178q0 -67 36 -109.5t95 -42.5t95 42.5t36 109.5zM141 1104h660v-205h-436v-237h376v-197h-376v-260h436v-205h-660v1104z" />
    <glyph glyph-name="Edotaccent.smcp" horiz-adv-x="899" 
d="M141 1104h660v-205h-436v-237h376v-197h-376v-260h436v-205h-660v1104zM385 1481q41 41 100.5 41t100.5 -41q41 -38 41 -96t-41 -99q-41 -38 -100.5 -38t-100.5 38q-38 41 -38 99t38 96z" />
    <glyph glyph-name="Eogonek.smcp" horiz-adv-x="899" 
d="M141 1104h660v-205h-436v-237h376v-197h-376v-260h436v-205h-43q-137 -58 -137 -176q0 -54 26 -80q28 -28 80.5 -29.5t83.5 17.5l31 -119q-45 -25 -123 -25q-107 0 -175.5 63t-68.5 167q0 112 82 182h-416v1104z" />
    <glyph glyph-name="Gcircumflex.smcp" horiz-adv-x="1271" 
d="M655 1124q205 0 339.5 -99.5t185.5 -276.5h-246q-70 172 -283 172q-146 0 -241 -103q-93 -104 -93 -262q0 -160 95 -266q94 -105 250 -105q129 0 204.5 55.5t85.5 163.5h-276v191h512v-92q0 -245 -146 -385q-143 -137 -380 -137q-255 0 -416 161q-160 165 -160 412
q0 245 160 410q157 161 409 161zM569 1561h152l280 -324h-229l-127 176l-129 -176h-229z" />
    <glyph glyph-name="Gbreve.smcp" horiz-adv-x="1271" 
d="M655 1124q205 0 339.5 -99.5t185.5 -276.5h-246q-70 172 -283 172q-146 0 -241 -103q-93 -104 -93 -262q0 -160 95 -266q94 -105 250 -105q129 0 204.5 55.5t85.5 163.5h-276v191h512v-92q0 -245 -146 -385q-143 -137 -380 -137q-255 0 -416 161q-160 165 -160 412
q0 245 160 410q157 161 409 161zM776 1518h180q0 -130 -87 -213.5t-224 -83.5q-136 0 -222.5 83t-86.5 214h178q0 -67 36 -109.5t95 -42.5t95 42.5t36 109.5z" />
    <glyph glyph-name="Gdotaccent.smcp" horiz-adv-x="1271" 
d="M655 1124q205 0 339.5 -99.5t185.5 -276.5h-246q-70 172 -283 172q-146 0 -241 -103q-93 -104 -93 -262q0 -160 95 -266q94 -105 250 -105q129 0 204.5 55.5t85.5 163.5h-276v191h512v-92q0 -245 -146 -385q-143 -137 -380 -137q-255 0 -416 161q-160 165 -160 412
q0 245 160 410q157 161 409 161zM545 1481q41 41 100 41t100 -41q41 -38 41 -96t-41 -99q-41 -38 -100 -38t-100 38q-38 41 -38 99t38 96z" />
    <glyph glyph-name="Gcommaaccent.smcp" horiz-adv-x="1271" 
d="M655 1124q205 0 339.5 -99.5t185.5 -276.5h-246q-70 172 -283 172q-146 0 -241 -103q-93 -104 -93 -262q0 -160 95 -266q94 -105 250 -105q129 0 204.5 55.5t85.5 163.5h-276v191h512v-92q0 -245 -146 -385q-143 -137 -380 -137q-255 0 -416 161q-160 165 -160 412
q0 245 160 410q157 161 409 161zM780 -242q0 -87 -43.5 -181.5t-113.5 -164.5l-62 31q53 96 62 195q-54 6 -87.5 42.5t-33.5 90.5q0 58 40 98.5t99 40.5q60 0 99.5 -42.5t39.5 -109.5z" />
    <glyph glyph-name="Hcircumflex.smcp" horiz-adv-x="1224" 
d="M858 1104h225v-1104h-225v467h-493v-467h-224v1104h224v-428h493v428zM537 1561h151l281 -324h-230l-127 176l-129 -176h-229z" />
    <glyph glyph-name="Hbar.smcp" horiz-adv-x="1245" 
d="M866 1104h226v-139h116v-140h-116v-825h-226v467h-493v-467h-223v825h-113v140h113v139h223v-139h493v139zM373 825v-149h493v149h-493z" />
    <glyph glyph-name="Igrave.smcp" horiz-adv-x="505" 
d="M141 1104h224v-1104h-224v1104zM-133 1559h274l224 -324h-195z" />
    <glyph glyph-name="Iacute.smcp" horiz-adv-x="505" 
d="M365 1559h274l-303 -324h-195zM141 1104h224v-1104h-224v1104z" />
    <glyph glyph-name="Icircumflex.smcp" horiz-adv-x="505" 
d="M184 1559h152l280 -324h-229l-127 176l-129 -176h-229zM141 1104h224v-1104h-224v1104z" />
    <glyph glyph-name="Itilde.smcp" horiz-adv-x="505" 
d="M135 1520q47 0 83 -15t57 -36t38.5 -42t39 -36t46.5 -15q76 0 76 125h135q0 -128 -56.5 -202t-162.5 -74q-47 0 -83 15t-57 36.5t-38.5 42.5t-39 36t-46.5 15q-76 0 -76 -127h-135q0 130 56 203.5t163 73.5zM141 1104h224v-1104h-224v1104z" />
    <glyph glyph-name="Idieresis.smcp" horiz-adv-x="505" 
d="M61 1491q54 0 90.5 -35.5t36.5 -89.5t-36.5 -89.5t-90.5 -35.5q-56 0 -92.5 35.5t-36.5 89.5t36.5 89.5t92.5 35.5zM371 1454q37 37 90 37t90 -37q38 -35 38 -88t-38 -90q-37 -35 -90 -35t-90 35q-37 37 -37 90t37 88zM141 1104h224v-1104h-224v1104z" />
    <glyph glyph-name="Imacron.smcp" horiz-adv-x="505" 
d="M-14 1442h553v-170h-553v170zM141 1104h224v-1104h-224v1104z" />
    <glyph glyph-name="Ibreve.smcp" horiz-adv-x="505" 
d="M391 1516h180q0 -130 -87 -213.5t-224 -83.5q-136 0 -222.5 83t-86.5 214h178q0 -67 36 -109.5t95 -42.5t95 42.5t36 109.5zM141 1104h224v-1104h-224v1104z" />
    <glyph glyph-name="Idotaccent.smcp" horiz-adv-x="505" 
d="M156 1479q41 41 100 41t100 -41q41 -38 41 -96t-41 -99q-41 -38 -100 -38t-100 38q-38 41 -38 99t38 96zM141 1104h224v-1104h-224v1104z" />
    <glyph glyph-name="Iogonek.smcp" horiz-adv-x="505" 
d="M141 1104h224v-1104h-74q-123 -56 -123 -170q0 -53 27 -80q28 -28 80 -29.5t83 17.5l31 -119q-45 -25 -123 -25q-107 0 -175 63t-68 167q0 136 118 211v1069z" />
    <glyph glyph-name="Jcircumflex.smcp" horiz-adv-x="905" 
d="M555 1104h223v-754q0 -170 -94 -265t-256 -95q-181 0 -275.5 99t-99.5 280h223q6 -168 146 -168q133 0 133 157v746zM596 1559h152l280 -324h-229l-127 176l-129 -176h-230z" />
    <glyph glyph-name="Kcommaaccent.smcp" horiz-adv-x="1167" 
d="M774 1104h270l-358 -496l434 -608h-268l-322 434l-161 -198v-236h-224v1104h224v-555zM727 -223q0 -86 -44 -181t-114 -165l-61 30q52 94 61 195q-54 6 -87 42.5t-33 90.5q0 60 39.5 99.5t99.5 39.5q61 0 100 -42t39 -109z" />
    <glyph glyph-name="Lacute.smcp" horiz-adv-x="890" 
d="M141 1104h224v-895h479v-209h-703v1104zM367 1561h274l-303 -324h-195z" />
    <glyph glyph-name="Lcaron.smcp" horiz-adv-x="901" 
d="M897 1028q0 -194 -160 -377l-65 25q52 104 67 231q-54 6 -88.5 42.5t-34.5 90.5q0 58 40.5 99t99.5 41q61 0 101 -42.5t40 -109.5zM141 1104h224v-895h479v-209h-703v1104z" />
    <glyph glyph-name="Lcommaaccent.smcp" horiz-adv-x="901" 
d="M141 1104h224v-895h479v-209h-703v1104zM629 -225q0 -86 -44 -181t-114 -165l-61 30q52 94 61 195q-54 6 -87.5 42.5t-33.5 90.5q0 58 40 98.5t99 40.5q61 0 100.5 -42t39.5 -109z" />
    <glyph glyph-name="Lslash.smcp" horiz-adv-x="927" 
d="M170 1104h223v-455l131 47l51 -145l-182 -64v-278h479v-209h-702v410l-117 -39l-51 143l168 57v533z" />
    <glyph glyph-name="Ldot.smcp" horiz-adv-x="897" 
d="M141 1104h224v-895h479v-209h-703v1104zM834 559q0 -61 -42 -103t-104 -42q-61 0 -102 41.5t-41 103.5q0 60 41 100.5t102 40.5q62 0 104 -40.5t42 -100.5z" />
    <glyph glyph-name="Nacute.smcp" horiz-adv-x="1247" 
d="M883 1104h223v-1104h-221l-475 662l-45 73v-735h-224v1104h224l473 -664l45 -75v739zM750 1559h274l-303 -324h-195z" />
    <glyph glyph-name="Ncaron.smcp" horiz-adv-x="1247" 
d="M883 1104h223v-1104h-221l-475 662l-45 73v-735h-224v1104h224l473 -664l45 -75v739zM770 1536h229l-280 -324h-152l-282 324h229l129 -176z" />
    <glyph glyph-name="Ntilde.smcp" horiz-adv-x="1247" 
d="M514 1520q47 0 83 -15t57 -36t38.5 -42t39 -36t46.5 -15q76 0 76 125h135q0 -128 -56.5 -202t-162.5 -74q-47 0 -83 15t-57 36.5t-38.5 42.5t-39 36t-46.5 15q-76 0 -76 -127h-135q0 130 56 203.5t163 73.5zM883 1104h223v-1104h-221l-475 662l-45 73v-735h-224v1104h224
l473 -664l45 -75v739z" />
    <glyph glyph-name="Ncommaaccent.smcp" horiz-adv-x="1247" 
d="M883 1104h223v-1104h-221l-475 662l-45 73v-735h-224v1104h224l473 -664l45 -75v739zM623 -72q61 0 100 -42t39 -109q0 -86 -44 -181t-114 -165l-61 30q52 94 61 195q-54 6 -87.5 42.5t-33.5 90.5q0 59 41 99t99 40z" />
    <glyph glyph-name="Ograve.smcp" horiz-adv-x="1337" 
d="M250 963q161 161 418 161q256 0 417 -161q162 -158 162 -410q0 -250 -162 -412q-161 -161 -417 -161q-257 0 -418 161q-162 162 -162 412q0 252 162 410zM668 918q-158 0 -253.5 -101t-95.5 -264q0 -161 95 -264t254 -103q157 0 252 103q94 101 94 264q0 161 -94 262
q-95 103 -252 103zM276 1561h275l223 -324h-194z" />
    <glyph glyph-name="Oacute.smcp" horiz-adv-x="1337" 
d="M250 963q161 161 418 161q256 0 417 -161q162 -158 162 -410q0 -250 -162 -412q-161 -161 -417 -161q-257 0 -418 161q-162 162 -162 412q0 252 162 410zM668 918q-158 0 -253.5 -101t-95.5 -264q0 -161 95 -264t254 -103q157 0 252 103q94 101 94 264q0 161 -94 262
q-95 103 -252 103zM776 1561h275l-303 -324h-195z" />
    <glyph glyph-name="Ocircumflex.smcp" horiz-adv-x="1337" 
d="M250 963q161 161 418 161q256 0 417 -161q162 -158 162 -410q0 -250 -162 -412q-161 -161 -417 -161q-257 0 -418 161q-162 162 -162 412q0 252 162 410zM668 918q-158 0 -253.5 -101t-95.5 -264q0 -161 95 -264t254 -103q157 0 252 103q94 101 94 264q0 161 -94 262
q-95 103 -252 103zM594 1561h151l281 -324h-229l-127 176l-129 -176h-230z" />
    <glyph glyph-name="Otilde.smcp" horiz-adv-x="1337" 
d="M543 1522q47 0 83 -15t57 -36t38.5 -42t39 -36t46.5 -15q76 0 76 125h135q0 -128 -56.5 -202t-162.5 -74q-47 0 -83 15t-57 36.5t-38.5 42.5t-39 36t-46.5 15q-76 0 -76 -127h-135q0 130 56 203.5t163 73.5zM250 963q161 161 418 161q256 0 417 -161q162 -158 162 -410
q0 -250 -162 -412q-161 -161 -417 -161q-257 0 -418 161q-162 162 -162 412q0 252 162 410zM668 918q-158 0 -253.5 -101t-95.5 -264q0 -161 95 -264t254 -103q157 0 252 103q94 101 94 264q0 161 -94 262q-95 103 -252 103z" />
    <glyph glyph-name="Odieresis.smcp" horiz-adv-x="1337" 
d="M250 963q161 161 418 161q256 0 417 -161q162 -158 162 -410q0 -250 -162 -412q-161 -161 -417 -161q-257 0 -418 161q-162 162 -162 412q0 252 162 410zM668 918q-158 0 -253.5 -101t-95.5 -264q0 -161 95 -264t254 -103q157 0 252 103q94 101 94 264q0 161 -94 262
q-95 103 -252 103zM469 1493q54 0 90.5 -35.5t36.5 -89.5t-36.5 -89.5t-90.5 -35.5q-56 0 -92.5 35.5t-36.5 89.5t36.5 89.5t92.5 35.5zM778 1456q37 37 90 37t90 -37q38 -35 38 -88t-38 -90q-37 -35 -90 -35t-90 35q-37 37 -37 90t37 88z" />
    <glyph glyph-name="Omacron.smcp" horiz-adv-x="1337" 
d="M250 963q161 161 418 161q256 0 417 -161q162 -158 162 -410q0 -250 -162 -412q-161 -161 -417 -161q-257 0 -418 161q-162 162 -162 412q0 252 162 410zM668 918q-158 0 -253.5 -101t-95.5 -264q0 -161 95 -264t254 -103q157 0 252 103q94 101 94 264q0 161 -94 262
q-95 103 -252 103zM393 1444h553v-170h-553v170z" />
    <glyph glyph-name="Obreve.smcp" horiz-adv-x="1337" 
d="M250 963q161 161 418 161q256 0 417 -161q162 -158 162 -410q0 -250 -162 -412q-161 -161 -417 -161q-257 0 -418 161q-162 162 -162 412q0 252 162 410zM668 918q-158 0 -253.5 -101t-95.5 -264q0 -161 95 -264t254 -103q157 0 252 103q94 101 94 264q0 161 -94 262
q-95 103 -252 103zM801 1518h180q0 -130 -87 -213.5t-224 -83.5q-136 0 -223 83t-87 214h179q0 -67 36 -109.5t95 -42.5t95 42.5t36 109.5z" />
    <glyph glyph-name="Ohungarumlaut.smcp" horiz-adv-x="1337" 
d="M250 963q161 161 418 161q256 0 417 -161q162 -158 162 -410q0 -250 -162 -412q-161 -161 -417 -161q-257 0 -418 161q-162 162 -162 412q0 252 162 410zM668 918q-158 0 -253.5 -101t-95.5 -264q0 -161 95 -264t254 -103q157 0 252 103q94 101 94 264q0 161 -94 262
q-95 103 -252 103zM545 1561h233l-215 -324h-186zM915 1561h232l-215 -324h-184z" />
    <glyph glyph-name="Oslash.smcp" horiz-adv-x="1337" 
d="M668 1124q118 0 231 -43l88 144l139 -80l-86 -141q207 -165 207 -451q0 -250 -162 -412q-161 -161 -417 -161q-126 0 -230 38l-86 -141l-139 80l86 141q-211 163 -211 455q0 252 162 410q161 161 418 161zM668 918q-158 0 -253.5 -101t-95.5 -264t95 -266l374 612
q-59 19 -120 19zM1014 553q0 154 -90 258l-373 -608q53 -17 117 -17q157 0 252 103q94 101 94 264z" />
    <glyph glyph-name="Oslashacute.smcp" horiz-adv-x="1337" 
d="M668 1124q119 0 223 -39l86 140l158 -80l-91 -146q203 -164 203 -446q0 -250 -162 -412q-161 -161 -417 -161q-117 0 -224 36l-86 -141l-155 82l90 145q-205 163 -205 451q0 252 162 410q161 161 418 161zM668 918q-159 0 -254 -103t-95 -262q0 -161 91 -258l370 606
q-63 17 -112 17zM1014 553q0 151 -86 254l-371 -606q49 -15 111 -15q157 0 252 103q94 101 94 264zM780 1548h275l-303 -323h-195z" />
    <glyph glyph-name="OE.smcp" horiz-adv-x="1775" 
d="M1016 1104h659v-205h-436v-237h377v-197h-377v-260h436v-205h-659v119q-145 -139 -361 -139q-250 0 -411 161q-160 165 -160 412q0 245 160 410q161 161 411 161q210 0 361 -139v119zM668 918q-156 0 -256 -103q-97 -105 -97 -262q0 -156 97 -264q100 -103 256 -103
q158 0 253 102t95 265v14q-5 157 -99.5 254t-248.5 97z" />
    <glyph glyph-name="Racute.smcp" horiz-adv-x="978" 
d="M141 1104h351q184 0 293.5 -97t109.5 -257q0 -203 -186 -291l235 -459h-250l-209 416h-120v-416h-224v1104zM492 899h-127v-297h127q82 0 128 38.5t46 109.5q0 72 -46 110.5t-128 38.5zM588 1559h274l-303 -324h-194z" />
    <glyph glyph-name="Rcaron.smcp" horiz-adv-x="978" 
d="M141 1104h351q184 0 293.5 -97t109.5 -257q0 -203 -186 -291l235 -459h-250l-209 416h-120v-416h-224v1104zM602 1536h229l-280 -324h-152l-282 324h229l129 -176zM492 899h-127v-297h127q82 0 128 38.5t46 109.5q0 72 -46 110.5t-128 38.5z" />
    <glyph glyph-name="Rcommaaccent.smcp" horiz-adv-x="978" 
d="M141 1104h351q184 0 293.5 -97t109.5 -257q0 -203 -186 -291l235 -459h-250l-209 416h-120v-416h-224v1104zM528 -72q61 0 100.5 -42t39.5 -109q0 -86 -44 -181t-114 -165l-61 30q52 94 61 195q-54 6 -87.5 42.5t-33.5 90.5q0 59 40.5 99t98.5 40zM492 899h-127v-297h127
q82 0 128 38.5t46 109.5q0 72 -46 110.5t-128 38.5z" />
    <glyph glyph-name="Sacute.smcp" horiz-adv-x="935" 
d="M471 1124q161 0 256 -85.5t102 -239.5h-221q0 67 -38 104t-105 37q-61 0 -96 -33t-35 -90q0 -60 40.5 -91t160.5 -71q180 -61 253.5 -138t73.5 -202q0 -155 -105 -245t-274 -90q-189 0 -294 96.5t-107 257.5h219q9 -170 180 -170q72 0 115 36.5t43 94.5q0 54 -46 90
t-157 72q-174 58 -250.5 133.5t-76.5 204.5q0 148 98 238.5t264 90.5zM582 1559h274l-303 -324h-195z" />
    <glyph glyph-name="Scircumflex.smcp" horiz-adv-x="935" 
d="M471 1124q161 0 256 -85.5t102 -239.5h-221q0 67 -38 104t-105 37q-61 0 -96 -33t-35 -90q0 -60 40.5 -91t160.5 -71q180 -61 253.5 -138t73.5 -202q0 -155 -105 -245t-274 -90q-189 0 -294 96.5t-107 257.5h219q9 -170 180 -170q72 0 115 36.5t43 94.5q0 54 -46 90
t-157 72q-174 58 -250.5 133.5t-76.5 204.5q0 148 98 238.5t264 90.5zM397 1559h152l280 -324h-229l-127 176l-129 -176h-229z" />
    <glyph glyph-name="Scaron.smcp" horiz-adv-x="935" 
d="M471 1124q161 0 256 -85.5t102 -239.5h-221q0 67 -38 104t-105 37q-61 0 -96 -33t-35 -90q0 -60 40.5 -91t160.5 -71q180 -61 253.5 -138t73.5 -202q0 -155 -105 -245t-274 -90q-189 0 -294 96.5t-107 257.5h219q9 -170 180 -170q72 0 115 36.5t43 94.5q0 54 -46 90
t-157 72q-174 58 -250.5 133.5t-76.5 204.5q0 148 98 238.5t264 90.5zM600 1536h229l-280 -324h-152l-282 324h229l129 -176z" />
    <glyph glyph-name="Scedilla.smcp" horiz-adv-x="950" 
d="M475 1124q161 0 256.5 -85.5t102.5 -239.5h-222q0 67 -38 104t-105 37q-61 0 -96 -33t-35 -90q0 -60 40.5 -91t160.5 -71q180 -61 253.5 -138t73.5 -202q0 -145 -94.5 -233.5t-249.5 -99.5l-18 -82q82 0 132 -46t50 -124q0 -89 -60 -139t-159 -50q-118 0 -188 70l71 102
q42 -51 117 -51q82 0 82 66q0 65 -80 65q-32 0 -63 -8l-41 14l45 185q-153 18 -237.5 112.5t-86.5 237.5h219q9 -170 180 -170q72 0 115 36.5t43 94.5q0 54 -46 90t-157 72q-174 58 -250.5 133.5t-76.5 204.5q0 148 98 238.5t264 90.5z" />
    <glyph glyph-name="Scommaaccent.smcp" horiz-adv-x="946" 
d="M475 1124q161 0 256.5 -85.5t102.5 -239.5h-222q0 67 -38 104t-105 37q-61 0 -96 -33t-35 -90q0 -60 40.5 -91t160.5 -71q180 -61 253.5 -138t73.5 -202q0 -155 -105 -245t-274 -90q-189 0 -294 96.5t-107 257.5h219q9 -170 180 -170q72 0 115 36.5t43 94.5q0 54 -46 90
t-157 72q-174 58 -250.5 133.5t-76.5 204.5q0 148 98 238.5t264 90.5zM612 -236q0 -87 -43.5 -181.5t-113.5 -164.5l-62 31q53 96 62 195q-54 6 -87.5 42.5t-33.5 90.5q0 60 39.5 99.5t99.5 39.5t99.5 -42.5t39.5 -109.5z" />
    <glyph glyph-name="germandbls.smcp" horiz-adv-x="1093" 
d="M561 1124q247 0 416 -172l-225 -295q122 -17 196 -99t74 -204q0 -169 -108 -266.5t-304 -97.5q-60 0 -145 12l6 207q78 -16 127 -16q91 0 143 40t52 113q0 83 -72.5 125.5t-204.5 42.5l-22 90l202 268q-54 48 -143 48q-87 0 -141 -54.5t-54 -144.5v-721h-225v717
q0 183 113.5 295t314.5 112z" />
    <glyph glyph-name="Tcaron.smcp" horiz-adv-x="1013" 
d="M23 1104h968v-209h-373v-895h-223v895h-372v209zM637 1536h229l-280 -324h-152l-282 324h229l129 -176z" />
    <glyph glyph-name="Tcommaaccent.smcp" horiz-adv-x="1013" 
d="M23 1104h968v-209h-373v-895h-223v895h-372v209zM504 -74q61 0 100 -42t39 -109q0 -86 -44 -181t-114 -165l-61 30q52 94 61 195q-54 6 -87 42.5t-33 90.5q0 57 41 98t98 41z" />
    <glyph glyph-name="Tbar.smcp" horiz-adv-x="1013" 
d="M23 1104h968v-209h-373v-295h236v-154h-236v-446h-223v446h-235v154h235v295h-372v209z" />
    <glyph glyph-name="Ugrave.smcp" horiz-adv-x="1185" 
d="M834 1104h225v-660q0 -221 -122 -342.5t-343 -121.5q-223 0 -345 121.5t-122 342.5v660h225v-660q0 -258 242 -258q240 0 240 258v660zM199 1559h274l223 -324h-194z" />
    <glyph glyph-name="Uacute.smcp" horiz-adv-x="1185" 
d="M834 1104h225v-660q0 -221 -122 -342.5t-343 -121.5q-223 0 -345 121.5t-122 342.5v660h225v-660q0 -258 242 -258q240 0 240 258v660zM700 1559h275l-303 -324h-195z" />
    <glyph glyph-name="Ucircumflex.smcp" horiz-adv-x="1185" 
d="M834 1104h225v-660q0 -221 -122 -342.5t-343 -121.5q-223 0 -345 121.5t-122 342.5v660h225v-660q0 -258 242 -258q240 0 240 258v660zM518 1559h152l280 -324h-229l-127 176l-129 -176h-229z" />
    <glyph glyph-name="Utilde.smcp" horiz-adv-x="1185" 
d="M467 1520q47 0 83 -15t57 -36t38.5 -42t39 -36t46.5 -15q76 0 76 125h135q0 -128 -56.5 -202t-162.5 -74q-47 0 -83 15t-57 36.5t-38.5 42.5t-39 36t-46.5 15q-76 0 -76 -127h-135q0 130 56 203.5t163 73.5zM834 1104h225v-660q0 -221 -122 -342.5t-343 -121.5
q-223 0 -345 121.5t-122 342.5v660h225v-660q0 -258 242 -258q240 0 240 258v660z" />
    <glyph glyph-name="Udieresis.smcp" horiz-adv-x="1185" 
d="M393 1491q54 0 90.5 -35.5t36.5 -89.5t-36.5 -89.5t-90.5 -35.5q-56 0 -92.5 35.5t-36.5 89.5t36.5 89.5t92.5 35.5zM702 1454q37 37 90.5 37t90.5 -37q38 -35 38 -88t-38 -90q-37 -35 -90.5 -35t-90.5 35q-37 37 -37 90t37 88zM834 1104h225v-660q0 -221 -122 -342.5
t-343 -121.5q-223 0 -345 121.5t-122 342.5v660h225v-660q0 -258 242 -258q240 0 240 258v660z" />
    <glyph glyph-name="Umacron.smcp" horiz-adv-x="1185" 
d="M834 1104h225v-660q0 -221 -122 -342.5t-343 -121.5q-223 0 -345 121.5t-122 342.5v660h225v-660q0 -258 242 -258q240 0 240 258v660zM317 1442h553v-170h-553v170z" />
    <glyph glyph-name="Ubreve.smcp" horiz-adv-x="1185" 
d="M723 1516h180q0 -130 -87 -213.5t-224 -83.5q-136 0 -222.5 83t-86.5 214h178q0 -67 36 -109.5t95 -42.5t95 42.5t36 109.5zM834 1104h225v-660q0 -221 -122 -342.5t-343 -121.5q-223 0 -345 121.5t-122 342.5v660h225v-660q0 -258 242 -258q240 0 240 258v660z" />
    <glyph glyph-name="Uring.smcp" horiz-adv-x="1185" 
d="M592 1628q98 0 160.5 -61.5t62.5 -155.5q0 -93 -62.5 -154t-160.5 -61q-96 0 -158.5 61t-62.5 154q0 94 62.5 155.5t158.5 61.5zM592 1509q-41 0 -68.5 -27.5t-27.5 -68.5t27.5 -69.5t68.5 -28.5q42 0 70 28t28 70q0 41 -27.5 68.5t-70.5 27.5zM834 1104h225v-660
q0 -221 -122 -342.5t-343 -121.5q-223 0 -345 121.5t-122 342.5v660h225v-660q0 -258 242 -258q240 0 240 258v660z" />
    <glyph glyph-name="Uhungarumlaut.smcp" horiz-adv-x="1185" 
d="M834 1104h225v-660q0 -221 -122 -342.5t-343 -121.5q-223 0 -345 121.5t-122 342.5v660h225v-660q0 -258 242 -258q240 0 240 258v660zM469 1559h233l-215 -324h-186zM840 1559h231l-215 -324h-184z" />
    <glyph glyph-name="Uogonek.smcp" horiz-adv-x="1185" 
d="M834 1104h225v-660q0 -172 -76.5 -286.5t-218.5 -155.5q-92 -53 -92 -154q0 -53 26 -79q28 -28 80.5 -30t83.5 17l31 -118q-45 -25 -123 -25q-107 0 -175.5 62.5t-68.5 166.5q0 79 41 138q-211 8 -325.5 128.5t-114.5 335.5v660h225v-660q0 -258 242 -258q240 0 240 258
v660z" />
    <glyph glyph-name="Wgrave.smcp" horiz-adv-x="1660" 
d="M1391 1104h235l-348 -1104h-236l-196 643l-15 74l-16 -74l-197 -643h-233l-350 1104h235l222 -707l14 -80l16 80l207 707h205l209 -707l12 -80l19 80zM436 1561h275l223 -324h-195z" />
    <glyph glyph-name="Wacute.smcp" horiz-adv-x="1660" 
d="M1391 1104h235l-348 -1104h-236l-196 643l-15 74l-16 -74l-197 -643h-233l-350 1104h235l222 -707l14 -80l16 80l207 707h205l209 -707l12 -80l19 80zM938 1561h274l-303 -324h-194z" />
    <glyph glyph-name="Wcircumflex.smcp" horiz-adv-x="1660" 
d="M1391 1104h235l-348 -1104h-236l-196 643l-15 74l-16 -74l-197 -643h-233l-350 1104h235l222 -707l14 -80l16 80l207 707h205l209 -707l12 -80l19 80zM754 1561h151l281 -324h-230l-127 176l-129 -176h-229z" />
    <glyph glyph-name="Wdieresis.smcp" horiz-adv-x="1660" 
d="M1391 1104h235l-348 -1104h-236l-196 643l-15 74l-16 -74l-197 -643h-233l-350 1104h235l222 -707l14 -80l16 80l207 707h205l209 -707l12 -80l19 80zM631 1493q54 0 90.5 -35.5t36.5 -89.5t-36.5 -89.5t-90.5 -35.5q-56 0 -92.5 35.5t-36.5 89.5t36.5 89.5t92.5 35.5z
M940 1456q37 37 90 37t90 -37q38 -35 38 -88t-38 -90q-37 -35 -90 -35t-90 35q-37 37 -37 90t37 88z" />
    <glyph glyph-name="Ygrave.smcp" horiz-adv-x="1142" 
d="M860 1104h256l-434 -694v-410h-223v410l-434 694h258l247 -399l41 -76l41 76zM174 1561h275l223 -324h-195z" />
    <glyph glyph-name="Yacute.smcp" horiz-adv-x="1142" 
d="M860 1104h256l-434 -694v-410h-223v410l-434 694h258l247 -399l41 -76l41 76zM676 1561h274l-303 -324h-194z" />
    <glyph glyph-name="Ycircumflex.smcp" horiz-adv-x="1142" 
d="M860 1104h256l-434 -694v-410h-223v410l-434 694h258l247 -399l41 -76l41 76zM494 1561h151l281 -324h-230l-127 176l-129 -176h-229z" />
    <glyph glyph-name="Ydieresis.smcp" horiz-adv-x="1142" 
d="M860 1104h256l-434 -694v-410h-223v410l-434 694h258l247 -399l41 -76l41 76zM369 1493q54 0 90.5 -35.5t36.5 -89.5t-36.5 -89.5t-90.5 -35.5q-56 0 -92.5 35.5t-36.5 89.5t36.5 89.5t92.5 35.5zM678 1456q37 37 90 37t90 -37q38 -35 38 -88t-38 -90q-37 -35 -90 -35
t-90 35q-37 37 -37 90t37 88z" />
    <glyph glyph-name="Zacute.smcp" horiz-adv-x="1009" 
d="M84 1104h829v-182l-546 -713h569v-209h-856v182l551 713h-547v209zM629 1561h274l-303 -324h-194z" />
    <glyph glyph-name="Zcaron.smcp" horiz-adv-x="1009" 
d="M84 1104h829v-182l-546 -713h569v-209h-856v182l551 713h-547v209zM647 1538h230l-281 -324h-152l-282 324h229l129 -176z" />
    <glyph glyph-name="Zdotaccent.smcp" horiz-adv-x="1009" 
d="M84 1104h829v-182l-546 -713h569v-209h-856v182l551 713h-547v209zM420 1481q41 41 100.5 41t100.5 -41q41 -38 41 -96t-41 -99q-41 -38 -100.5 -38t-100.5 38q-38 41 -38 99t38 96z" />
    <glyph glyph-name="Eng.smcp" horiz-adv-x="1247" 
d="M883 1104h223v-1094q0 -172 -95.5 -261t-275.5 -89v193q148 0 148 147v2l-473 660l-45 73v-735h-224v1104h224l473 -664l45 -75v739z" />
    <glyph glyph-name="Eth.smcp" horiz-adv-x="1265" 
d="M160 1104h428q270 0 430 -154q162 -149 162 -397q0 -249 -162 -401q-161 -152 -430 -152h-428v483h-121v154h121v467zM588 895h-205v-258h164v-154h-164v-274h205q173 0 267.5 90t94.5 254t-94.5 253t-267.5 89z" />
    <glyph glyph-name="Thorn.smcp" horiz-adv-x="1011" 
d="M141 1104h224v-162h182q178 0 285.5 -93t107.5 -247q0 -151 -109 -246q-107 -94 -284 -94h-182v-262h-224v1104zM545 741h-180v-278h180q75 0 120.5 38t45.5 101q0 65 -45 102t-121 37z" />
    <glyph glyph-name="exclam.smcp" horiz-adv-x="493" 
d="M139 1104h213v-756h-213v756zM246 236q54 0 92.5 -36.5t38.5 -90.5t-37.5 -89.5t-93.5 -35.5t-93.5 35.5t-37.5 89.5t37.5 90.5t93.5 36.5z" />
    <glyph glyph-name="exclamdown.smcp" horiz-adv-x="493" 
d="M350 -10h-213v755h213v-755zM244 858q-54 0 -92.5 36.5t-38.5 90.5t37.5 89.5t93.5 35.5t93.5 -35.5t37.5 -89.5t-37.5 -90.5t-93.5 -36.5z" />
    <glyph glyph-name="question.smcp" horiz-adv-x="774" 
d="M727 821q0 -90 -36 -161.5t-89 -110.5q-125 -85 -125 -162v-39h-213v47q0 69 38 127t93 92q56 37 93.5 88.5t37.5 112.5q0 68 -37 104.5t-104 36.5q-72 0 -113 -39.5t-41 -111.5h-198q3 151 100 235q103 86 248 86q151 0 248.5 -83.5t97.5 -221.5zM369 236
q56 0 93.5 -36.5t37.5 -90.5t-37.5 -89.5t-93.5 -35.5t-93.5 35.5t-37.5 89.5t38.5 90.5t92.5 36.5z" />
    <glyph glyph-name="questiondown.smcp" horiz-adv-x="774" 
d="M37 287q0 91 36.5 163t88.5 107q125 93 125 164v39h213v-47q0 -69 -38 -127t-93 -94q-56 -35 -93.5 -86.5t-37.5 -112.5q0 -68 37 -104.5t104 -36.5q72 0 112.5 39.5t40.5 111.5h199q-3 -152 -102 -235q-100 -86 -246 -86q-151 0 -248.5 83.5t-97.5 221.5zM395 872
q-56 0 -93.5 36.5t-37.5 90.5t37.5 89.5t93.5 35.5t93.5 -35.5t37.5 -89.5t-38.5 -90.5t-92.5 -36.5z" />
    <glyph glyph-name="parenleft.smcp" horiz-adv-x="512" 
d="M346 1212l148 -100q-103 -132 -156 -266q-47 -127 -47 -299t47 -299q53 -134 156 -266l-148 -99q-132 151 -195 308t-63 356q0 197 64 354.5t194 310.5z" />
    <glyph glyph-name="parenright.smcp" horiz-adv-x="512" 
d="M18 1112l150 100q130 -154 193 -311t63 -354t-63 -353.5t-193 -310.5l-150 99q111 142 156 264q49 128 49 301q0 174 -49 299q-45 124 -156 266z" />
    <glyph glyph-name="bracketleft.smcp" horiz-adv-x="571" 
d="M139 1169h381v-190h-182v-868h182v-191h-381v1249z" />
    <glyph glyph-name="bracketright.smcp" horiz-adv-x="571" 
d="M51 1169h381v-1249h-381v191h180v868h-180v190z" />
    <glyph glyph-name="braceleft.smcp" horiz-adv-x="542" 
d="M453 1169h39v-190h-31q-107 0 -107 -113v-151q0 -136 -118 -170q118 -34 118 -170v-152q0 -112 107 -112h31v-191h-39q-144 0 -218.5 77.5t-74.5 219.5v123q0 113 -107 113h-22v184h22q107 0 107 113v122q0 142 74.5 219.5t218.5 77.5z" />
    <glyph glyph-name="braceright.smcp" horiz-adv-x="542" 
d="M51 1169h39q144 0 219.5 -78t75.5 -219v-122q0 -113 107 -113h18v-184h-18q-107 0 -107 -113v-123q0 -141 -75.5 -219t-219.5 -78h-39v191h31q106 0 106 112v152q0 136 119 170q-119 34 -119 170v151q0 113 -106 113h-31v190z" />
    <glyph glyph-name="zero.smcp" horiz-adv-x="987" 
d="M496 1124q191 0 297 -151t106 -420q0 -270 -106 -421.5t-297 -151.5q-195 0 -301.5 151.5t-106.5 421.5t106.5 420.5t301.5 150.5zM496 918q-183 0 -183 -365q0 -367 183 -367q87 0 133.5 96t46.5 271q0 174 -46.5 269.5t-133.5 95.5z" />
    <glyph glyph-name="one.smcp" horiz-adv-x="679" 
d="M377 1104h164v-1104h-224v758h-241v190q143 0 212 34.5t89 121.5z" />
    <glyph glyph-name="two.smcp" horiz-adv-x="864" 
d="M444 1124q164 0 253 -85.5t89 -235.5q0 -162 -141 -318l-239 -276h385v-209h-697v162l352 399q63 70 89 120.5t26 111.5q0 125 -119 125q-64 0 -98 -38.5t-33 -111.5h-225q-1 161 97.5 258.5t260.5 97.5z" />
    <glyph glyph-name="three.smcp" horiz-adv-x="944" 
d="M461 1124q162 0 257 -89.5t95 -231.5q0 -84 -40 -144t-103 -84q82 -25 132 -90t50 -166q0 -157 -103.5 -248t-277.5 -91q-179 0 -281 95t-102 265h221q1 -74 46 -114t120 -40q69 0 110.5 39.5t41.5 102.5q0 149 -199 149h-66v182h62q166 0 166 127q0 61 -33 96.5
t-92 35.5q-61 0 -97 -37.5t-36 -108.5h-223q0 164 95 258t257 94z" />
    <glyph glyph-name="four.smcp" horiz-adv-x="989" 
d="M494 1104h272v-717h147v-192h-147v-195h-223v195h-480v180zM547 385v444l-31 -61l-229 -383h260z" />
    <glyph glyph-name="five.smcp" horiz-adv-x="940" 
d="M133 1104h664v-207h-441v-227q74 30 158 30q157 0 249.5 -87t92.5 -253q0 -174 -101.5 -277t-277.5 -103q-178 0 -277.5 90.5t-99.5 255.5h224q0 -66 41.5 -103t111.5 -37q73 0 114.5 46t41.5 122q0 78 -42.5 122t-117.5 44q-83 0 -141 -37h-199v621z" />
    <glyph glyph-name="six.smcp" horiz-adv-x="966" 
d="M506 1124q154 0 252 -92t104 -244h-227q-9 130 -137 130q-178 0 -181 -320q78 84 218 84q157 0 251.5 -91.5t94.5 -240.5q0 -169 -107 -270q-103 -100 -272 -100q-190 0 -289 114q-121 133 -121 436q0 300 102 447t312 147zM494 514q-69 0 -119.5 -49.5t-50.5 -118.5
q0 -70 49 -120t121 -50q71 0 117 48.5t46 121.5q0 70 -46 119t-117 49z" />
    <glyph glyph-name="seven.smcp" horiz-adv-x="882" 
d="M84 1104h711v-180l-420 -924h-242l410 895h-459v209z" />
    <glyph glyph-name="eight.smcp" horiz-adv-x="962" 
d="M483 1124q153 0 254 -96q99 -94 99 -231q0 -75 -36 -137t-89 -95q157 -77 157 -248q0 -148 -112 -241q-113 -96 -273 -96q-162 0 -278 96q-111 94 -111 241q0 177 156 248q-121 80 -121 232q0 137 98 231q101 96 256 96zM483 479q-73 0 -120.5 -43.5t-47.5 -111.5
t47.5 -110t120.5 -42q70 0 117 42t47 110t-47.5 111.5t-116.5 43.5zM483 932q-63 0 -102 -40.5t-39 -103.5q0 -61 39 -99t102 -38q62 0 100 38t38 99q0 63 -39 103.5t-99 40.5z" />
    <glyph glyph-name="nine.smcp" horiz-adv-x="968" 
d="M467 -20q-154 0 -252 91.5t-104 243.5h227q9 -129 137 -129q89 0 134 76.5t46 241.5q-76 -82 -217 -82q-157 0 -251.5 91.5t-94.5 240.5q0 168 105 270q106 100 274 100q190 0 289 -114q121 -133 121 -437q0 -300 -102 -446.5t-312 -146.5zM479 590q69 0 119.5 49.5
t50.5 118.5q0 70 -49 120t-121 50q-71 0 -117.5 -48.5t-46.5 -121.5q0 -70 46.5 -119t117.5 -49z" />
    <glyph glyph-name="ampersand.smcp" horiz-adv-x="1165" 
d="M502 1124q149 0 242.5 -74.5t93.5 -197.5q0 -71 -26.5 -124t-70.5 -89.5t-120 -77.5l-9 -4l179 -184l6 26q21 80 12 152l201 6q14 -94 -9 -190q-23 -89 -59 -152l209 -215h-260l-74 76q-134 -96 -311 -96q-196 0 -307 85t-111 226q0 96 50.5 162t158.5 129l22 12l-26 29
q-36 36 -57 63q-60 78 -60 174q0 115 89.5 189.5t236.5 74.5zM512 147q106 0 178 60l-246 258l-6 -4q-64 -40 -93.5 -77.5t-29.5 -86.5q0 -73 53.5 -111.5t143.5 -38.5zM395 850q0 -16 3.5 -28.5t11 -28.5t10.5 -25q1 -3 12 -17.5t12 -17.5l29 -31l10 -12q95 58 115 86
q20 33 20 70q0 51 -29.5 83t-78.5 32q-48 0 -81 -31t-34 -80z" />
    <glyph glyph-name="Euro.smcp" horiz-adv-x="1067" 
d="M383 485h225v-137h-200q52 -172 190 -172q74 0 119.5 44t56.5 124h242q-76 -364 -416 -364q-162 0 -272.5 95.5t-151.5 272.5h-129v137h111q-2 20 -2 67.5t2 72.5h-111v137h131q41 172 151.5 267t270.5 95q352 0 416 -362h-242q-21 166 -176 166q-138 0 -190 -166h200
v-137h-225q-2 -14 -2 -72q0 -54 2 -68z" />
    <glyph glyph-name="dollar.smcp" horiz-adv-x="972" 
d="M401 1276h156v-158q125 -20 197.5 -102.5t79.5 -216.5h-222q0 67 -38 104t-105 37q-61 0 -96 -33t-35 -90q0 -60 40.5 -91t160.5 -71q180 -61 253.5 -138t73.5 -202q0 -137 -83.5 -224.5t-225.5 -106.5v-164h-156v166q-150 20 -231.5 113t-83.5 235h219q9 -170 180 -170
q72 0 115 36.5t43 94.5q0 54 -46 90t-157 72q-174 58 -250.5 133.5t-76.5 204.5q0 128 77 215.5t211 107.5v158z" />
    <glyph glyph-name="cent.smcp" horiz-adv-x="962" 
d="M422 971h153v-158q124 -19 204 -96.5t98 -202.5h-203q-41 111 -174 111q-87 0 -145 -64t-58 -162q0 -96 59.5 -160.5t147.5 -64.5q62 0 107 30.5t63 80.5h207q-24 -122 -105.5 -198t-200.5 -95v-162h-153v160q-155 23 -248.5 133.5t-93.5 275.5q0 161 94 275t248 139v158
z" />
    <glyph glyph-name="sterling.smcp" horiz-adv-x="923" 
d="M391 610h227v-151h-180q6 -30 6 -68q0 -80 -47 -145l-18 -35h201q61 0 87.5 27.5t26.5 89.5h195q-1 -160 -84 -244t-236 -84h-510v55l74 90q94 119 94 252q0 32 -6 62h-168v151h117q-47 109 -47 189q0 146 95.5 235.5t248.5 89.5q160 0 253 -86t97 -243h-205
q0 62 -36.5 99.5t-96.5 37.5q-63 0 -99 -36t-36 -103q0 -71 47 -183z" />
    <glyph glyph-name="florin.smcp" horiz-adv-x="636" 
d="M563 1169q59 0 109 -16l-19 -186q-40 16 -82 16q-110 0 -125 -109l-8 -73h195l-19 -193h-196l-78 -688q-13 -133 -98.5 -204.5t-225.5 -71.5q-55 0 -110 14l20 188q41 -18 82 -18q116 0 125 109l74 671h-135l20 193h135l11 90q17 134 101.5 206t223.5 72z" />
    <glyph glyph-name="yen.smcp" horiz-adv-x="1140" 
d="M874 1104h256l-352 -563h137v-146h-219v-106h219v-144h-219v-145h-223v145h-213v144h213v106h-213v146h131l-352 563h258l248 -399l41 -76l41 76z" />
    <glyph glyph-name="F.smcp_I.smcp" horiz-adv-x="1361" 
d="M141 1104h650v-205h-426v-254h360v-196h-360v-449h-224v1104zM995 1104h224v-1104h-224v1104z" />
    <glyph glyph-name="F.smcp_J.smcp" horiz-adv-x="1660" 
d="M1309 1104h223v-754q0 -170 -94 -265t-256 -95q-181 0 -275.5 99t-99.5 280h223q6 -168 146 -168q133 0 133 157v746zM141 1104h650v-205h-426v-254h360v-196h-360v-449h-224v1104z" />
    </font>
</defs>
</svg>
