<?xml version="1.0" standalone="no"?>
<!DOCTYPE svg PUBLIC "-//W3C//DTD SVG 1.1//EN" "http://www.w3.org/Graphics/SVG/1.1/DTD/svg11.dtd" >
<svg xmlns="http://www.w3.org/2000/svg" xmlns:xlink="http://www.w3.org/1999/xlink" version="1.1">
<metadata>
Created by FontForge 20170731 at Tue Nov  2 18:20:20 2021
 By Aleksey,,,
Copyright (c) 2013 by Type Dynamic. All rights reserved.
</metadata>
<defs>
<font id="Larsseit-Bold" horiz-adv-x="552" >
  <font-face 
    font-family="Larsseit"
    font-weight="700"
    font-stretch="normal"
    units-per-em="2048"
    panose-1="0 0 0 0 0 0 0 0 0 0"
    ascent="1638"
    descent="-410"
    x-height="1038"
    cap-height="1434"
    bbox="-375 -623 6466 2036"
    underline-thickness="102"
    underline-position="-307"
    unicode-range="U+0020-FB01"
  />
<missing-glyph horiz-adv-x="1210" 
d="M121 0v1434h966v-1434h-966zM602 836l291 462h-582zM954 276v865l-274 -432zM885 135l-283 447l-283 -447h566zM522 709l-266 421v-843z" />
    <glyph glyph-name="fi" unicode="fi" horiz-adv-x="1269" 
d="M567 1518q59 0 121 -19v-237q-55 22 -106 22q-117 0 -117 -143v-103h223v-241h-223v-797h-268v797h-168v241h168v109q0 183 93.5 277t276.5 94zM860 1038h266v-1038h-266v1038zM993 1501q66 0 114 -46t48 -112q0 -67 -47 -112t-115 -45t-115 45t-47 112q0 66 47 112
t115 46z" />
    <glyph glyph-name="f_j" unicode="fj" horiz-adv-x="1269" 
d="M567 1518q59 0 121 -19v-237q-55 22 -106 22q-117 0 -117 -143v-103h223v-241h-223v-797h-268v797h-168v241h168v109q0 183 93.5 277t276.5 94zM860 1038h266v-1085q0 -210 -90.5 -313t-259.5 -103q-102 0 -170 21v237q56 -16 119 -16q71 0 103 43.5t32 138.5v1077z
M993 1501q66 0 114 -46t48 -112q0 -67 -47 -112t-115 -45t-115 45t-47 112q0 66 47 112t115 46z" />
    <glyph glyph-name=".notdef" horiz-adv-x="1210" 
d="M121 0v1434h966v-1434h-966zM602 836l291 462h-582zM954 276v865l-274 -432zM885 135l-283 447l-283 -447h566zM522 709l-266 421v-843z" />
    <glyph glyph-name=".null" horiz-adv-x="0" 
 />
    <glyph glyph-name="nonmarkingreturn" horiz-adv-x="682" 
 />
    <glyph glyph-name="space" unicode=" " horiz-adv-x="403" 
 />
    <glyph glyph-name="exclam" unicode="!" 
d="M143 1434h267v-998h-267v998zM442 139q0 -69 -48.5 -115.5t-117.5 -46.5t-117 46.5t-48 115.5q0 67 48 113.5t117 46.5t117.5 -46.5t48.5 -113.5z" />
    <glyph glyph-name="quotedbl" unicode="&#x22;" horiz-adv-x="729" 
d="M63 1501h244l-53 -450h-172zM438 1501h244l-53 -450h-172z" />
    <glyph glyph-name="numbersign" unicode="#" horiz-adv-x="1390" 
d="M1063 557h203v-248h-248l-53 -309h-267l54 309h-263l-53 -309h-266l53 309h-192v248h237l62 348h-205v248h248l49 281h266l-49 -281h262l49 281h267l-50 -281h193v-248h-236zM858 905h-262l-61 -348h262z" />
    <glyph glyph-name="dollar" unicode="$" horiz-adv-x="1153" 
d="M483 1655h195v-203q159 -26 249 -133.5t97 -286.5h-285q-1 83 -49 130.5t-125 47.5q-76 0 -119 -40t-43 -113t54 -115q44 -34 198 -90q225 -75 319.5 -177t94.5 -267q0 -177 -105.5 -290t-285.5 -138v-201h-195v203q-187 29 -289.5 148.5t-107.5 307.5h285
q9 -217 225 -217q87 0 137.5 44.5t50.5 117.5q0 71 -58 118.5t-196 92.5q-215 69 -313 169.5t-98 268.5t97.5 282t266.5 140v201z" />
    <glyph glyph-name="percent" unicode="%" horiz-adv-x="1814" 
d="M1153 1434h279l-770 -1434h-281zM412 1460q154 0 258 -104t104 -262q0 -156 -104 -260q-106 -103 -258 -103q-154 0 -260 103q-103 106 -103 260q0 156 103 262q104 104 260 104zM412 1255q-63 0 -104.5 -45.5t-41.5 -113.5t41.5 -113t104.5 -45q61 0 102 45t41 113
t-41 113.5t-102 45.5zM1403 702q155 0 258 -106q104 -104 104 -260q0 -159 -104 -260q-103 -103 -258 -103q-154 0 -260 103q-103 103 -103 260q0 156 103 262q104 104 260 104zM1403 496q-63 0 -104.5 -45t-41.5 -113t41.5 -114t104.5 -46q61 0 102 46t41 114t-41 113
t-102 45z" />
    <glyph glyph-name="ampersand" unicode="&#x26;" horiz-adv-x="1392" 
d="M598 1460q179 0 301 -96q119 -94 119 -256q0 -142 -70 -221q-67 -79 -200 -156l-3 -2l213 -227q0 1 1 3t2 6t2 7q31 107 16 225l254 7q15 -146 -12 -273q-23 -99 -68 -184l274 -293h-362l-86 90q-163 -117 -379 -117q-245 0 -383.5 112t-138.5 304q0 133 63 217t199 164
l6 2l-33 37q-125 140 -125 289q0 158 111 260t299 102zM610 211q119 0 201 61l-301 324q-145 -80 -145 -199q0 -90 66 -138t179 -48zM465 1096q0 -45 31 -90l18 -25q45 -45 47 -51l21 -23q2 1 24.5 14.5t26.5 14.5q1 1 21.5 14.5t25.5 18.5q63 53 61 123q0 57 -38 94t-99 37
q-60 0 -99.5 -36t-39.5 -91z" />
    <glyph glyph-name="quotesingle" unicode="'" horiz-adv-x="354" 
d="M63 1501h244l-53 -450h-172z" />
    <glyph glyph-name="parenleft" unicode="(" horiz-adv-x="606" 
d="M403 1520l189 -127q-137 -182 -197 -346q-59 -168 -59 -390q0 -220 59 -391q60 -163 197 -344l-189 -127q-162 198 -240.5 402.5t-78.5 459.5t79 460t240 403z" />
    <glyph glyph-name="parenright" unicode=")" horiz-adv-x="606" 
d="M16 1393l187 127q162 -201 241.5 -404.5t79.5 -458.5q0 -254 -79.5 -457.5t-241.5 -404.5l-187 127q137 186 193 344q61 168 61 391q0 225 -61 390q-55 159 -193 346z" />
    <glyph glyph-name="asterisk" unicode="*" horiz-adv-x="735" 
d="M272 1513h189l-8 -225l206 80l58 -178l-213 -64l139 -174l-151 -110l-125 182l-123 -182l-150 108l135 176l-213 62l58 178l209 -78z" />
    <glyph glyph-name="plus" unicode="+" horiz-adv-x="966" 
d="M365 1139h237v-305h303v-236h-303v-303h-237v303h-304v236h304v305z" />
    <glyph glyph-name="comma" unicode="," horiz-adv-x="450" 
d="M225 295q70 0 115 -48t45 -126q0 -95 -47 -200t-123 -193l-76 28q50 103 62 234q-60 6 -97.5 47t-37.5 102q0 66 46 111t113 45z" />
    <glyph glyph-name="hyphen" unicode="-" horiz-adv-x="747" 
d="M51 649h645v-235h-645v235z" />
    <glyph glyph-name="period" unicode="." horiz-adv-x="454" 
d="M227 299q68 0 116 -46.5t48 -113.5t-48 -114.5t-116 -47.5q-69 0 -116.5 46.5t-47.5 115.5t47.5 114.5t116.5 45.5z" />
    <glyph glyph-name="slash" unicode="/" horiz-adv-x="835" 
d="M561 1434h264l-553 -1434h-262z" />
    <glyph glyph-name="zero" unicode="0" horiz-adv-x="1171" 
d="M1096 719q0 -346 -133 -547q-132 -199 -377 -199t-377 199q-131 198 -131 547q0 348 131 543q131 198 377 198t377 -198q133 -198 133 -543zM362 719q0 -233 57 -358t167 -125q109 0 166 124.5t57 358.5q0 231 -57 355t-166 124t-166.5 -124.5t-57.5 -354.5z" />
    <glyph glyph-name="one" unicode="1" horiz-adv-x="788" 
d="M440 1434h207v-1434h-282v993h-302v238q175 0 263 46t114 157z" />
    <glyph glyph-name="two" unicode="2" horiz-adv-x="1017" 
d="M524 1460q204 0 316 -111.5t112 -304.5q0 -113 -43 -208.5t-135 -206.5l-299 -367h481v-262h-872v205l440 524q81 94 112.5 158t31.5 143q0 168 -148 168q-165 0 -162 -201h-282q-3 209 121 336t327 127z" />
    <glyph glyph-name="three" unicode="3" horiz-adv-x="1118" 
d="M545 1460q205 0 321 -119q119 -116 119 -299q0 -111 -49.5 -187.5t-128.5 -109.5q103 -31 165 -115.5t62 -217.5q0 -202 -129.5 -320.5t-347.5 -118.5q-224 0 -351.5 123t-127.5 342h280q1 -98 57 -150t152 -52q83 0 134 51t51 137q0 97 -64 147t-182 50h-86v241h82
q200 0 200 168q0 79 -40 123.5t-113 44.5q-74 0 -119 -50t-45 -142h-283q0 210 120 332t323 122z" />
    <glyph glyph-name="four" unicode="4" horiz-adv-x="1177" 
d="M580 1434h350v-926h182v-252h-182v-256h-283v256h-600v227zM651 506v577l-37 -79l-276 -498h313z" />
    <glyph glyph-name="five" unicode="5" horiz-adv-x="1112" 
d="M133 1434h834v-263h-549v-288q84 41 194 41q195 0 311.5 -116t116.5 -335q0 -230 -128 -365t-349 -135t-346 116.5t-125 328.5h283q1 -89 51.5 -135.5t138.5 -46.5q91 0 142 59.5t51 163.5t-52.5 161.5t-146.5 57.5q-100 0 -174 -51h-252v807z" />
    <glyph glyph-name="six" unicode="6" horiz-adv-x="1146" 
d="M602 1460q186 0 313 -121q126 -120 132 -313h-287q-12 172 -170 172q-111 0 -166.5 -96t-56.5 -303q40 46 111 75t153 29q200 0 319 -125q121 -127 121 -325q0 -216 -133 -349q-131 -131 -342 -131q-233 0 -363 148q-151 183 -151 567q0 389 128 580.5t392 191.5z
M586 664q-85 0 -145.5 -59t-61.5 -146v-8q0 -92 58.5 -156t148.5 -64q88 0 143 61.5t55 158.5q0 89 -56.5 151t-141.5 62z" />
    <glyph glyph-name="seven" unicode="7" horiz-adv-x="1040" 
d="M74 1434h889v-228l-525 -1206h-305l508 1169h-567v265z" />
    <glyph glyph-name="eight" unicode="8" horiz-adv-x="1140" 
d="M571 1460q197 0 320 -123t123 -301q0 -99 -43.5 -177.5t-110.5 -123.5q195 -103 195 -325q0 -186 -140 -314q-138 -123 -344 -123q-208 0 -346 123q-139 127 -139 314q0 116 53.5 200.5t139.5 124.5q-66 44 -109 123t-43 178q0 178 123 301t321 123zM571 614
q-87 0 -143.5 -53.5t-56.5 -140.5q0 -85 55.5 -136t144.5 -51q88 0 143.5 51t55.5 136q0 86 -57.5 140t-141.5 54zM571 1200q-75 0 -121.5 -48t-46.5 -126q0 -77 46 -123q47 -47 122 -47q76 0 121 45t45 125q0 78 -46 126t-120 48z" />
    <glyph glyph-name="nine" unicode="9" horiz-adv-x="1146" 
d="M543 -27q-189 0 -314 119t-131 316h287q12 -172 170 -172q108 0 163.5 96t59.5 303q-94 -105 -264 -105q-202 0 -321 125t-119 326q0 215 133 348q131 131 342 131q233 0 362 -147q152 -184 152 -568q0 -389 -128 -580.5t-392 -191.5zM559 1202q-88 0 -143.5 -61
t-55.5 -158q0 -87 56 -152q58 -61 143 -61q88 0 146 61q47 43 57.5 109.5t-11.5 125.5t-74 99.5t-118 36.5z" />
    <glyph glyph-name="colon" unicode=":" horiz-adv-x="454" 
d="M227 1061q68 0 116 -47t48 -115q0 -67 -48 -113.5t-116 -46.5q-69 0 -116.5 46.5t-47.5 113.5q0 69 47.5 115.5t116.5 46.5zM227 299q68 0 116 -46.5t48 -113.5t-48 -114.5t-116 -47.5q-69 0 -116.5 46.5t-47.5 115.5t47.5 114.5t116.5 45.5z" />
    <glyph glyph-name="semicolon" unicode=";" horiz-adv-x="454" 
d="M227 1061q68 0 116 -47t48 -115q0 -67 -48 -113.5t-116 -46.5q-69 0 -116.5 46.5t-47.5 113.5q0 69 47.5 115.5t116.5 46.5zM387 121q0 -95 -47 -200t-123 -193l-76 28q50 103 62 234q-60 6 -97.5 47t-37.5 102q0 66 46 111t113 45q69 0 114.5 -48t45.5 -126z" />
    <glyph glyph-name="less" unicode="&#x3c;" horiz-adv-x="581" 
d="M305 913h252l-293 -401l293 -399h-252l-282 383v34z" />
    <glyph glyph-name="equal" unicode="=" horiz-adv-x="966" 
d="M61 1042h844v-229h-844v229zM61 618h844v-231h-844v231z" />
    <glyph glyph-name="greater" unicode="&#x3e;" horiz-adv-x="581" 
d="M23 913h253l281 -383v-34l-281 -383h-253l294 399z" />
    <glyph glyph-name="question" unicode="?" horiz-adv-x="907" 
d="M879 1069q0 -98 -31.5 -179t-81.5 -134q-22 -24 -66 -65.5t-68.5 -67t-45.5 -63.5t-21 -75v-49h-268v62q0 79 34 142.5t82 107t96 85.5t82 99t34 127q0 91 -47.5 140.5t-128.5 49.5q-87 0 -138 -53t-51 -149h-252q3 191 127 303t309 112q186 0 310 -106
q125 -104 125 -287zM432 299q68 0 116 -46.5t48 -113.5t-48 -114.5t-116 -47.5q-72 0 -119 46.5t-47 115.5t47 114.5t119 45.5z" />
    <glyph glyph-name="at" unicode="@" horiz-adv-x="1693" 
d="M825 719q-87 0 -140.5 -59.5t-53.5 -157.5q0 -97 53.5 -157t138.5 -60q82 0 139.5 55.5t57.5 148.5v19q0 94 -58 152.5t-137 58.5zM852 1272q350 0 561 -217t211 -553q0 -216 -98 -320q-94 -102 -234 -102q-154 0 -231 123q-95 -123 -275 -123q-165 0 -274 121
q-106 118 -106 299q0 182 104 301q108 123 268 123q172 0 254 -131l15 112h188v-555q0 -64 19 -92.5t67 -28.5q141 0 141 273q0 269 -166 444q-165 174 -444 174q-287 0 -455 -174q-168 -171 -168 -444q0 -271 170 -447q168 -174 453 -174q148 0 278 62l54 -144
q-134 -67 -332 -67q-355 0 -569 217q-213 216 -213 553q0 345 215 557q216 213 567 213z" />
    <glyph glyph-name="A" unicode="A" horiz-adv-x="1480" 
d="M586 1434h309l555 -1434h-305l-119 317h-571l-119 -317h-305zM766 1012l-27 80l-26 -80l-170 -449h393z" />
    <glyph glyph-name="B" unicode="B" horiz-adv-x="1222" 
d="M145 1434h457q217 0 344 -110t127 -300q0 -181 -125 -279q96 -42 150.5 -126t54.5 -197q0 -189 -133 -307q-133 -115 -352 -115h-523v1434zM668 600h-242v-338h242q91 0 141.5 45t50.5 125t-50 124t-142 44zM602 1171h-176v-325h178q84 0 132 42.5t48 115.5
q0 81 -47.5 124t-134.5 43z" />
    <glyph glyph-name="C" unicode="C" horiz-adv-x="1509" 
d="M793 1460q259 0 427.5 -129t229.5 -360h-309q-82 227 -348 227q-188 0 -308 -135q-116 -134 -116 -344q0 -211 116 -348q120 -135 310 -135q282 0 364 239h297q-61 -242 -228.5 -372t-432.5 -130q-317 0 -519 211q-200 212 -200 535q0 321 200 530q202 211 517 211z" />
    <glyph glyph-name="D" unicode="D" horiz-adv-x="1501" 
d="M145 1434h537q340 0 539 -199q202 -199 202 -518t-202 -518q-199 -199 -539 -199h-537v1434zM682 1171h-256v-909h256q214 0 331 119t117 336q0 216 -116.5 335t-331.5 119z" />
    <glyph glyph-name="E" unicode="E" horiz-adv-x="1062" 
d="M145 1434h826v-263h-545v-303h471v-264h-471v-342h545v-262h-826v1434z" />
    <glyph glyph-name="F" unicode="F" horiz-adv-x="1007" 
d="M145 1434h813v-263h-532v-321h453v-264h-453v-586h-281v1434z" />
    <glyph glyph-name="G" unicode="G" horiz-adv-x="1564" 
d="M793 1460q259 0 427.5 -129t229.5 -360h-309q-82 227 -355 227q-184 0 -301 -135q-116 -134 -116 -344q0 -212 118 -348q120 -135 312 -135q159 0 254.5 73t105.5 203h-342v262h643v-125q0 -315 -182 -497q-182 -179 -479 -179q-318 0 -520 211q-203 212 -203 535
q0 321 200 530q202 211 517 211z" />
    <glyph glyph-name="H" unicode="H" horiz-adv-x="1468" 
d="M1040 1434h283v-1434h-283v610h-614v-610h-281v1434h281v-560h614v560z" />
    <glyph glyph-name="I" unicode="I" horiz-adv-x="571" 
d="M145 1434h281v-1434h-281v1434z" />
    <glyph glyph-name="J" unicode="J" horiz-adv-x="1087" 
d="M678 1434h283v-996q0 -224 -113.5 -338t-329.5 -114q-225 0 -343 127.5t-124 359.5h281q9 -223 186 -223q160 0 160 207v977z" />
    <glyph glyph-name="K" unicode="K" horiz-adv-x="1398" 
d="M936 1434h342l-449 -643l541 -791h-338l-395 565l-205 -266v-299h-282v1434h282v-727z" />
    <glyph glyph-name="L" unicode="L" horiz-adv-x="1069" 
d="M143 1434h283v-1172h596v-262h-879v1434z" />
    <glyph glyph-name="M" unicode="M" horiz-adv-x="1822" 
d="M1354 1434h325v-1434h-282v907l-41 -125l-326 -782h-237l-326 782l-41 125v-907h-281v1434h324l410 -924l30 -84l33 84z" />
    <glyph glyph-name="N" unicode="N" horiz-adv-x="1497" 
d="M1071 1434h283v-1434h-283l-590 866l-55 95v-961h-281v1434h279l588 -869l59 -98v967z" />
    <glyph glyph-name="O" unicode="O" horiz-adv-x="1636" 
d="M819 1460q325 0 533 -211q209 -209 209 -530q0 -323 -209 -535q-208 -211 -533 -211q-326 0 -534 211q-209 212 -209 535q0 321 209 530q208 211 534 211zM819 1198q-201 0 -327 -135q-123 -135 -123 -344q0 -210 123 -348q126 -135 327 -135t324 135q125 137 125 348
q0 210 -125 344q-123 135 -324 135z" />
    <glyph glyph-name="P" unicode="P" horiz-adv-x="1159" 
d="M145 1434h461q232 0 367 -129q137 -125 137 -334q0 -206 -137 -334q-138 -129 -367 -129h-180v-508h-281v1434zM606 1171h-180v-399h180q100 0 158.5 53t58.5 146q0 96 -58 148t-159 52z" />
    <glyph glyph-name="Q" unicode="Q" horiz-adv-x="1624" 
d="M819 1460q325 0 533 -211q209 -209 209 -530q0 -341 -234 -559l289 -373h-367l-174 227q-121 -41 -256 -41q-326 0 -534 211q-209 212 -209 535q0 321 209 530q208 211 534 211zM819 1198q-201 0 -327 -135q-123 -135 -123 -344q0 -210 123 -348q126 -135 327 -135
q56 0 92 8v205h289q68 121 68 270q0 210 -125 344q-123 135 -324 135z" />
    <glyph glyph-name="R" unicode="R" horiz-adv-x="1187" 
d="M145 1434h443q227 0 366 -127q138 -126 138 -330q0 -133 -65.5 -234t-184.5 -155l311 -588h-322l-278 537h-127v-537h-281v1434zM588 1171h-162v-385h162q101 0 158 49t57 142t-57 143.5t-158 50.5z" />
    <glyph glyph-name="S" unicode="S" horiz-adv-x="1124" 
d="M559 1460q206 0 326 -110.5t127 -317.5h-285q-1 83 -49 130.5t-125 47.5q-76 0 -119 -40t-43 -113q0 -74 53 -115q43 -33 199 -90q225 -75 319.5 -177t94.5 -267q0 -203 -135 -320q-133 -115 -342 -115q-235 0 -367.5 125.5t-138.5 339.5h284q9 -217 226 -217
q87 0 137.5 44.5t50.5 117.5q0 71 -58 118.5t-196 92.5q-215 69 -313.5 169.5t-98.5 268.5q0 188 121 309q122 119 332 119z" />
    <glyph glyph-name="T" unicode="T" horiz-adv-x="1259" 
d="M23 1434h1214v-263h-467v-1171h-281v1171h-466v263z" />
    <glyph glyph-name="U" unicode="U" horiz-adv-x="1419" 
d="M1010 1434h282v-856q0 -288 -151.5 -446.5t-429.5 -158.5t-431 158t-153 447v856h283v-856q0 -342 301 -342q299 0 299 342v856z" />
    <glyph glyph-name="V" unicode="V" horiz-adv-x="1433" 
d="M1110 1434h301l-561 -1434h-266l-561 1434h301l362 -947l31 -98l31 98z" />
    <glyph glyph-name="W" unicode="W" horiz-adv-x="2052" 
d="M1724 1434h297l-436 -1434h-297l-241 823l-21 99l-18 -99l-244 -823h-297l-436 1434h297l270 -914l23 -104l18 104l258 914h258l260 -914l17 -104l22 104z" />
    <glyph glyph-name="X" unicode="X" horiz-adv-x="1437" 
d="M1049 1434h331l-469 -707l484 -727h-332l-344 518l-344 -518h-330l481 727l-469 707h332l330 -498z" />
    <glyph glyph-name="Y" unicode="Y" horiz-adv-x="1406" 
d="M1061 1434h328l-543 -902v-532h-285v532l-543 902h328l307 -500l49 -96l52 96z" />
    <glyph glyph-name="Z" unicode="Z" horiz-adv-x="1230" 
d="M88 1434h1036v-230l-678 -942h707v-262h-1069v229l684 942h-680v263z" />
    <glyph glyph-name="bracketleft" unicode="[" horiz-adv-x="673" 
d="M143 1466h480v-241h-228v-1141h228v-242h-480v1624z" />
    <glyph glyph-name="backslash" unicode="\" horiz-adv-x="835" 
d="M10 1434h262l553 -1434h-264z" />
    <glyph glyph-name="bracketright" unicode="]" horiz-adv-x="673" 
d="M51 1466h479v-1624h-479v242h225v1141h-225v241z" />
    <glyph glyph-name="asciicircum" unicode="^" horiz-adv-x="1105" 
d="M31 946l522 615l522 -615h-272l-250 295l-250 -295h-272z" />
    <glyph glyph-name="underscore" unicode="_" horiz-adv-x="1300" 
d="M51 0h1198v-236h-1198v236z" />
    <glyph glyph-name="grave" unicode="`" horiz-adv-x="583" 
d="M20 1499h326l217 -323h-227z" />
    <glyph glyph-name="a" unicode="a" horiz-adv-x="1056" 
d="M526 1061q193 0 302.5 -98t109.5 -281v-682h-227l-17 127q-99 -150 -297 -150q-142 0 -228.5 81.5t-86.5 217.5q0 138 81 212t240 100l269 49v39q0 158 -146 158q-68 0 -111.5 -38.5t-43.5 -99.5h-258q11 163 123 264t290 101zM672 428v31l-207 -43q-117 -27 -117 -117
q0 -47 32 -74.5t89 -27.5q108 0 166 94q37 58 37 137z" />
    <glyph glyph-name="b" unicode="b" horiz-adv-x="1269" 
d="M141 1495h265v-569q102 135 313 135q208 0 346 -156q137 -155 137 -385t-139 -387q-138 -156 -344 -156q-220 0 -330 162l-20 -139h-228v1495zM664 811q-105 0 -183 -78q-77 -77 -80 -207v-12q0 -133 78 -211q76 -76 185 -76q113 0 187.5 82t74.5 211q0 127 -75 209
t-187 82z" />
    <glyph glyph-name="c" unicode="c" horiz-adv-x="1140" 
d="M588 1061q194 0 322 -101t157 -288h-258q-23 69 -80 108t-135 39q-109 0 -180 -86q-72 -84 -72 -215q0 -129 73 -213t185 -84q77 0 134.5 41t76.5 105h260q-36 -186 -165 -288t-318 -102q-231 0 -375 150q-145 151 -145 391q0 235 145 389q148 154 375 154z" />
    <glyph glyph-name="d" unicode="d" horiz-adv-x="1267" 
d="M862 1495h266v-1495h-229l-20 139q-110 -162 -330 -162q-206 0 -344 156q-137 155 -137 387q0 230 137 385q138 156 346 156q209 0 311 -135v569zM604 811q-112 0 -187 -82t-75 -209q0 -129 74.5 -211t187.5 -82q108 0 184 76q78 78 78 211v12q-3 130 -80 207
q-78 78 -182 78z" />
    <glyph glyph-name="e" unicode="e" horiz-adv-x="1144" 
d="M584 1061q220 0 350.5 -140.5t130.5 -400.5v-82h-723q6 -105 74 -169t176 -64q162 0 209 121h258q-50 -169 -170.5 -259t-304.5 -90q-230 0 -375 148q-141 150 -141 393q0 240 143 389q145 154 373 154zM344 623h453q-2 98 -61.5 157.5t-157.5 59.5q-97 0 -160 -59.5
t-74 -157.5z" />
    <glyph glyph-name="f" unicode="f" horiz-adv-x="733" 
d="M571 1518q70 0 138 -19v-237q-55 22 -107 22q-137 0 -137 -143v-103h237v-241h-237v-797h-268v797h-164v241h164v109q0 183 95.5 277t278.5 94z" />
    <glyph glyph-name="g" unicode="g" horiz-adv-x="1073" 
d="M676 1038h393v-225h-154q21 -62 21 -121q0 -157 -115 -260q-112 -100 -295 -100q-101 0 -172 26q-24 -30 -24 -75q0 -41 27 -63.5t77 -22.5h244q162 0 251 -77t89 -222q0 -170 -123 -265.5t-336 -95.5q-230 0 -350.5 82.5t-120.5 237.5q0 115 105 182q-121 83 -121 223
q0 132 106 219q-72 93 -72 211q0 163 119 264q120 105 301 105q73 0 150 -23zM610 -4h-155q-48 -6 -77.5 -37.5t-29.5 -81.5q0 -68 56.5 -104.5t156.5 -36.5q94 0 145.5 37t51.5 108q0 115 -148 115zM369 692q0 -72 43 -118t112 -46t111.5 46t42.5 118q0 75 -42.5 121.5
t-111.5 46.5t-112 -46.5t-43 -121.5z" />
    <glyph glyph-name="h" unicode="h" horiz-adv-x="1130" 
d="M141 1495h265v-565q88 131 264 131q162 0 249 -102.5t87 -284.5v-674h-269v616q0 187 -147 187q-84 0 -134 -66.5t-50 -187.5v-549h-265v1495z" />
    <glyph glyph-name="i" unicode="i" 
d="M143 1038h267v-1038h-267v1038zM276 1501q66 0 114 -46t48 -112q0 -67 -47 -112t-115 -45t-114.5 45t-46.5 112q0 66 47 112t114 46z" />
    <glyph glyph-name="j" unicode="j" 
d="M143 1038h267v-1085q0 -210 -91 -313t-260 -103q-102 0 -170 21v237q56 -16 119 -16q71 0 103 43.5t32 138.5v1077zM276 1501q66 0 114 -46t48 -112q0 -67 -47 -112t-115 -45t-114.5 45t-46.5 112q0 66 47 112t114 46z" />
    <glyph glyph-name="k" unicode="k" horiz-adv-x="1105" 
d="M145 1495h267v-877l303 420h317l-305 -436l358 -602h-303l-241 397l-129 -164v-233h-267v1495z" />
    <glyph glyph-name="l" unicode="l" 
d="M143 1495h267v-1495h-267v1495z" />
    <glyph glyph-name="m" unicode="m" horiz-adv-x="1718" 
d="M1262 1061q159 0 245 -102.5t86 -284.5v-674h-266v616q0 187 -145 187q-81 0 -131.5 -63.5t-51.5 -178.5v-561h-266v616q0 187 -145 187q-82 0 -132 -66.5t-50 -187.5v-549h-265v1038h228l20 -135q84 158 277 158q220 0 297 -182q39 82 118.5 132t180.5 50z" />
    <glyph glyph-name="n" unicode="n" horiz-adv-x="1130" 
d="M670 1061q162 0 249 -102.5t87 -284.5v-674h-269v616q0 187 -147 187q-84 0 -134 -66.5t-50 -187.5v-549h-265v1038h228l20 -135q84 158 281 158z" />
    <glyph glyph-name="o" unicode="o" horiz-adv-x="1224" 
d="M610 1061q236 0 391 -152q156 -150 156 -389q0 -241 -156 -391q-155 -152 -391 -152q-234 0 -389 152q-153 150 -153 391q0 239 153 389q155 152 389 152zM612 819q-117 0 -194 -86q-76 -82 -76 -213q0 -130 76 -215q78 -84 194 -84q118 0 193.5 84.5t75.5 214.5
q0 132 -74 215.5t-195 83.5z" />
    <glyph glyph-name="p" unicode="p" horiz-adv-x="1275" 
d="M725 1061q208 0 346 -156q137 -155 137 -385t-139 -387q-138 -156 -344 -156q-217 0 -311 138v-555h-267v1478h230l18 -139q110 162 330 162zM670 811q-107 0 -185 -78q-77 -77 -77 -209v-12q3 -131 79 -207q78 -78 183 -78q112 0 187 82t75 211t-74 210t-188 81z" />
    <glyph glyph-name="q" unicode="q" horiz-adv-x="1275" 
d="M549 1061q220 0 330 -162l20 139h229v-1478h-266v555q-102 -138 -311 -138q-208 0 -346 156q-137 155 -137 387q0 230 137 385q138 156 344 156zM604 811q-114 0 -188 -81t-74 -210t75 -211t187 -82q104 0 182 78q77 77 80 207v12q0 131 -78 209t-184 78z" />
    <glyph glyph-name="r" unicode="r" horiz-adv-x="755" 
d="M702 1049v-267q-127 0 -206 -61q-78 -63 -84 -193v-528h-267v1038h230l24 -166q31 82 107.5 129.5t195.5 47.5z" />
    <glyph glyph-name="s" unicode="s" horiz-adv-x="942" 
d="M471 1061q165 0 270 -90.5t111 -237.5h-264q-3 119 -119 119q-55 0 -85 -27t-30 -75q0 -50 39 -75t144 -44q181 -30 259 -106t78 -210q0 -162 -110.5 -250t-290.5 -88q-187 0 -293.5 90.5t-111.5 247.5h262q3 -127 149 -127q62 0 95.5 26t33.5 73q0 52 -40 80.5
t-148 48.5q-170 29 -251 104t-81 203q0 147 100 240q101 98 283 98z" />
    <glyph glyph-name="t" unicode="t" horiz-adv-x="776" 
d="M203 1290h268l-2 -252h238v-241h-240l-4 -420q0 -82 30 -116t105 -34q56 0 109 15v-234q-61 -22 -168 -22q-175 0 -259 78.5t-83 248.5l4 484h-170v241h170z" />
    <glyph glyph-name="u" unicode="u" horiz-adv-x="1124" 
d="M719 1038h264v-1038h-227l-21 135q-84 -158 -274 -158q-162 0 -248 102.5t-86 285.5v673h266v-614q0 -188 148 -188q81 0 129.5 63.5t48.5 181.5v557z" />
    <glyph glyph-name="v" unicode="v" horiz-adv-x="1056" 
d="M752 1038h288l-376 -1038h-271l-375 1038h287l203 -637l20 -90l21 90z" />
    <glyph glyph-name="w" unicode="w" horiz-adv-x="1599" 
d="M1294 1038h285l-313 -1038h-279l-188 610l-201 -610h-264l-314 1038h287l158 -624l18 -111l23 111l176 624h236l176 -624l22 -111l19 111z" />
    <glyph glyph-name="x" unicode="x" horiz-adv-x="1091" 
d="M735 1038h309l-315 -510l328 -528h-309l-203 328l-201 -328h-309l325 528l-313 510h309l189 -303z" />
    <glyph glyph-name="y" unicode="y" horiz-adv-x="1067" 
d="M752 1038h288l-534 -1478h-277l158 452l-369 1026h287l203 -637l20 -90l21 90z" />
    <glyph glyph-name="z" unicode="z" horiz-adv-x="978" 
d="M74 1038h821v-198l-469 -609h496v-231h-850v199l469 608h-467v231z" />
    <glyph glyph-name="braceleft" unicode="{" horiz-adv-x="665" 
d="M567 1466h47v-241h-36q-134 0 -134 -148v-205q0 -84 -35.5 -141.5t-99.5 -77.5q64 -20 99.5 -76.5t35.5 -140.5v-205q0 -147 134 -147h36v-242h-47q-181 0 -275.5 99.5t-94.5 279.5v170q0 148 -134 148h-24v231h24q134 0 134 148v169q0 180 94.5 279.5t275.5 99.5z" />
    <glyph glyph-name="bar" unicode="|" horiz-adv-x="495" 
d="M125 1487h248v-1624h-248v1624z" />
    <glyph glyph-name="braceright" unicode="}" horiz-adv-x="665" 
d="M51 1466h47q182 0 276.5 -99t94.5 -280v-169q0 -148 133 -148h25v-231h-25q-133 0 -133 -148v-170q0 -181 -94.5 -280t-276.5 -99h-47v242h39q63 0 98 39t35 108v205q0 176 133 217q-133 41 -133 219v205q0 69 -35 108.5t-98 39.5h-39v241z" />
    <glyph glyph-name="asciitilde" unicode="~" horiz-adv-x="1163" 
d="M385 934q65 0 125.5 -28t95.5 -68q36 -40 84 -67.5t94 -27.5q117 0 158 164l180 -78q-85 -315 -342 -315q-67 0 -127.5 27.5t-99.5 66.5q-93 97 -176 97q-112 0 -156 -164l-180 77q82 316 344 316z" />
    <glyph glyph-name="exclamdown" unicode="&#xa1;" 
d="M408 -397h-267v997h267v-997zM109 897q0 69 48 115.5t117 46.5t117.5 -46.5t48.5 -115.5q0 -67 -48.5 -113.5t-117.5 -46.5t-117 46.5t-48 113.5z" />
    <glyph glyph-name="cent" unicode="&#xa2;" horiz-adv-x="1140" 
d="M494 1260h198v-207q152 -27 251.5 -125t123.5 -256h-258q-23 69 -80 108t-135 39q-109 0 -180 -86q-72 -84 -72 -215q0 -129 73 -213t185 -84q77 0 134.5 41t76.5 105h260q-30 -158 -129.5 -256t-249.5 -123v-209h-198v207q-190 27 -310 174q-116 143 -116 358
q0 211 116 354q120 147 310 181v207z" />
    <glyph glyph-name="sterling" unicode="&#xa3;" horiz-adv-x="1093" 
d="M463 782h276v-196h-219q4 -66 4 -78q0 -108 -53 -197l-27 -45h250q75 0 109.5 37t34.5 117h243q-1 -206 -105 -313t-296 -107h-637v70l92 118q117 150 117 328q0 8 -4 70h-211v196h149q-63 147 -63 256q0 187 121 305q120 117 311 117q200 0 315 -111.5t119 -316.5h-254
q0 82 -46.5 133.5t-121.5 51.5q-77 0 -122.5 -49t-45.5 -138q0 -83 64 -248z" />
    <glyph glyph-name="currency" unicode="&#xa4;" horiz-adv-x="1341" 
d="M874 909l246 244l172 -174l-243 -242q54 -94 53.5 -202t-55.5 -205l245 -242l-172 -174l-250 244q-100 -47 -200 -47q-98 0 -201 47l-248 -244l-174 174l244 242q-51 92 -51 205q0 110 51 202l-244 242l174 174l244 -242q98 52 205 52q87 0 204 -54zM815 692
q-60 66 -145 66q-86 0 -146 -66q-57 -63 -57 -157q0 -95 57 -158q59 -62 146 -62q86 0 145 62q59 65 59 158q0 92 -59 157z" />
    <glyph glyph-name="yen" unicode="&#xa5;" horiz-adv-x="1361" 
d="M1040 1434h328l-434 -721h156v-195h-265v-139h265v-197h-265v-182h-284v182h-271v197h271v139h-271v195h162l-434 721h328l307 -500l49 -96l51 96z" />
    <glyph glyph-name="brokenbar" unicode="&#xa6;" horiz-adv-x="495" 
d="M125 1487h248v-574h-248v574zM125 436h248v-573h-248v573z" />
    <glyph glyph-name="section" unicode="&#xa7;" horiz-adv-x="1069" 
d="M535 1475q185 0 294 -89.5t115 -242.5h-268q-1 65 -39 98t-105 33q-62 0 -98.5 -32t-36.5 -83q0 -56 45.5 -88.5t157.5 -50.5q217 -35 310.5 -109t93.5 -209q0 -144 -150 -239q117 -80 117 -232q0 -166 -121 -249q-121 -86 -303 -86q-196 0 -311.5 89t-120.5 242h268
q0 -62 45 -96.5t121 -34.5q72 0 110.5 30.5t38.5 84.5q0 56 -56.5 88.5t-207.5 56.5q-368 61 -368 303q0 167 155 261q-96 78 -96 219q0 167 117 250q121 86 293 86zM600 547l39 -6q96 47 96 129q0 64 -53 96.5t-205 58.5q-31 4 -53 11q-88 -46 -88 -134q0 -66 55.5 -99
t208.5 -56z" />
    <glyph glyph-name="dieresis" unicode="&#xa8;" horiz-adv-x="755" 
d="M168 1458q62 0 103.5 -41t41.5 -102t-41.5 -102.5t-103.5 -41.5q-63 0 -105.5 41.5t-42.5 102.5t42.5 102t105.5 41zM483 1417q43 41 104.5 41t104.5 -41t43 -102.5t-43 -102.5t-104.5 -41t-104.5 41q-41 41 -41 102.5t41 102.5z" />
    <glyph glyph-name="copyright" unicode="&#xa9;" horiz-adv-x="1243" 
d="M631 1270q218 0 270 -217h-186q-20 57 -84 57q-55 0 -87 -36.5t-32 -98.5q0 -63 32 -101t87 -38q72 0 96 67h178q-46 -227 -274 -227q-133 0 -216 84t-83 215q0 130 83 212.5t216 82.5zM625 1544q251 0 403 -162q154 -160 154 -407q0 -245 -154 -410q-153 -159 -403 -159
q-252 0 -408 159q-156 163 -156 410q0 248 156 407q155 162 408 162zM625 1399q-182 0 -297 -121q-113 -119 -113 -303q0 -186 113 -305t297 -119q183 0 293 119t110 305q0 184 -110 303q-112 121 -293 121z" />
    <glyph glyph-name="ordfeminine" unicode="&#xaa;" horiz-adv-x="794" 
d="M395 1458q139 0 218 -66.5t79 -193.5v-463h-170l-12 80q-73 -94 -207 -94q-100 0 -160.5 55t-60.5 148q0 97 56.5 147t172.5 68l181 32v23q0 92 -97 92q-45 0 -72.5 -22t-27.5 -58h-195q8 114 87 183t208 69zM492 1018v18l-136 -26q-39 -6 -56 -21t-17 -45q0 -59 73 -59
q81 0 115 57q21 34 21 76z" />
    <glyph glyph-name="guillemotleft" unicode="&#xab;" horiz-adv-x="997" 
d="M260 913h254l-250 -401l250 -399h-254l-237 383v34zM721 913h254l-250 -401l250 -399h-254l-236 383v34z" />
    <glyph glyph-name="logicalnot" unicode="&#xac;" horiz-adv-x="1259" 
d="M84 922h1102v-619h-185v426h-917v193z" />
    <glyph glyph-name="registered" unicode="&#xae;" horiz-adv-x="1243" 
d="M625 1544q251 0 403 -162q154 -160 154 -407q0 -245 -154 -410q-153 -159 -403 -159q-252 0 -408 159q-156 163 -156 410q0 248 156 407q155 162 408 162zM625 1399q-182 0 -297 -121q-113 -119 -113 -303q0 -186 113 -305t297 -119q183 0 293 119t110 305
q0 184 -110 303q-112 121 -293 121zM399 1257h236q103 0 163 -52.5t60 -143.5q0 -101 -86 -154l111 -223h-199l-78 188h-35v-188h-172v573zM618 1120h-47v-125h47q68 0 68 62q0 63 -68 63z" />
    <glyph glyph-name="overscore" unicode="&#xaf;" horiz-adv-x="612" 
d="M20 1403h572v-199h-572v199z" />
    <glyph glyph-name="degree" unicode="&#xb0;" horiz-adv-x="731" 
d="M362 1479q141 0 232 -88q92 -89 92 -228q0 -140 -92 -229q-92 -86 -232 -86q-136 0 -227 88q-92 89 -92 227q0 139 92 228q91 88 227 88zM362 1309q-61 0 -101 -41.5t-40 -104.5t40 -104t101 -41q63 0 105.5 41t42.5 104t-42.5 104.5t-105.5 41.5z" />
    <glyph glyph-name="plusminus" unicode="&#xb1;" horiz-adv-x="966" 
d="M365 1325h237v-305h303v-236h-303v-303h-237v303h-304v236h304v305zM61 375h844v-236h-844v236z" />
    <glyph glyph-name="two.sups" unicode="&#xb2;" horiz-adv-x="663" 
d="M338 1653q129 0 200.5 -65t71.5 -177q0 -117 -108 -231l-156 -156h260v-188h-540v147l256 264q50 52 68 81.5t18 66.5q0 71 -72 71q-80 0 -80 -88h-203q-2 122 78 198.5t207 76.5z" />
    <glyph glyph-name="three.sups" unicode="&#xb3;" horiz-adv-x="727" 
d="M356 1653q127 0 202 -68t75 -174q0 -110 -101 -156q130 -41 130 -180q0 -120 -79.5 -187t-217.5 -67q-140 0 -218.5 70.5t-78.5 198.5h200q0 -40 28.5 -62t74.5 -22q41 0 64.5 21t23.5 58q0 86 -117 86h-61v158h59q90 0 90 74q6 41 -37.5 58t-80.5 -6q-32 -22 -31 -64
h-201q0 124 74 193t202 69z" />
    <glyph glyph-name="acute" unicode="&#xb4;" horiz-adv-x="583" 
d="M238 1499h325l-315 -323h-228z" />
    <glyph glyph-name="mu" unicode="&#xb5;" horiz-adv-x="1138" 
d="M731 1038h266v-1038h-229l-18 135q-84 -158 -277 -158q-32 0 -67 7v-424h-265v1478h265v-614q0 -188 147 -188q81 0 129.5 63.5t48.5 181.5v557z" />
    <glyph glyph-name="paragraph" unicode="&#xb6;" horiz-adv-x="1265" 
d="M471 1434h760v-174h-172v-1424h-174v1424h-201v-1424h-176v795h-37q-187 0 -303 110q-117 114 -117 289q0 177 117 291q116 113 303 113z" />
    <glyph glyph-name="middot" unicode="&#xb7;" horiz-adv-x="454" 
d="M227 692q68 0 116 -47.5t48 -114.5t-48 -114t-116 -47q-69 0 -116.5 46t-47.5 115t47.5 115.5t116.5 46.5z" />
    <glyph glyph-name="cedilla" unicode="&#xb8;" horiz-adv-x="456" 
d="M162 12h123l-27 -116q83 -5 130.5 -50t47.5 -122q0 -91 -62.5 -143t-164.5 -52q-118 0 -189 65l80 115q41 -47 105 -47q71 0 71 59q0 62 -73 62q-14 0 -56 -10l-36 12z" />
    <glyph glyph-name="one.sups" unicode="&#xb9;" horiz-adv-x="548" 
d="M301 1638h145v-802h-200v524h-183v156q208 0 238 122z" />
    <glyph glyph-name="ordmasculine" unicode="&#xba;" horiz-adv-x="909" 
d="M453 1458q169 0 276 -104q111 -102 111 -267q0 -162 -111 -264q-108 -102 -276 -102q-167 0 -275 102t-108 264q0 165 108 267q107 104 275 104zM582 1223q-50 53 -127 53t-127 -53q-50 -54 -50 -133.5t50 -133.5q50 -53 127 -53t127 53q50 54 50 133.5t-50 133.5z" />
    <glyph glyph-name="guillemotright" unicode="&#xbb;" horiz-adv-x="997" 
d="M23 913h253l238 -383v-34l-238 -383h-253l249 399zM485 913h252l238 -383v-34l-238 -383h-252l248 399z" />
    <glyph glyph-name="onequarter" unicode="&#xbc;" horiz-adv-x="1583" 
d="M1161 803h254v-498h105v-178h-105v-127h-201v127h-362v160zM1217 303v266l-19 -43l-139 -223h158zM301 1434h145v-803h-200v524h-183v156q208 0 238 123zM981 1434h279l-773 -1434h-278z" />
    <glyph glyph-name="onehalf" unicode="&#xbd;" horiz-adv-x="1552" 
d="M1225 817q129 0 200.5 -65t71.5 -177q0 -117 -108 -231l-156 -156h260v-188h-541v147l256 265q50 53 68 82t18 65q0 72 -71 72q-80 0 -80 -88h-203q-1 121 78 197.5t207 76.5zM301 1434h145v-803h-200v524h-183v156q208 0 238 123zM981 1434h279l-773 -1434h-278z" />
    <glyph glyph-name="threequarters" unicode="&#xbe;" horiz-adv-x="1728" 
d="M356 1448q127 0 202 -68t75 -174q0 -109 -101 -155q130 -41 130 -181q0 -120 -79.5 -187t-217.5 -67q-140 0 -218.5 70.5t-78.5 198.5h200q0 -40 28.5 -62t74.5 -22q41 0 64.5 21.5t23.5 58.5q0 86 -117 86h-61v157h59q90 0 90 74q6 41 -37.5 58t-80.5 -6
q-32 -22 -31 -64h-201q0 124 74 193t202 69zM1307 803h254v-498h104v-178h-104v-127h-201v127h-363v160zM1362 303v266l-19 -43l-139 -223h158zM1128 1434h279l-772 -1434h-279z" />
    <glyph glyph-name="questiondown" unicode="&#xbf;" horiz-adv-x="907" 
d="M27 -33q0 97 31 178.5t79 135.5q23 26 67 66.5t69 66t46 63t21 74.5v49h268v-61q0 -58 -18 -107.5t-47 -85.5t-63.5 -68.5t-69.5 -63.5t-64 -64t-47 -77.5t-18 -95.5q0 -91 47.5 -140.5t128.5 -49.5q87 0 137.5 53.5t50.5 149.5h252q-3 -192 -129 -303
q-122 -113 -307 -113q-184 0 -309 107q-125 104 -125 286zM473 737q-68 0 -116 46.5t-48 113.5t48 114.5t116 47.5q72 0 119 -46.5t47 -115.5t-47 -114.5t-119 -45.5z" />
    <glyph glyph-name="Agrave" unicode="&#xc0;" horiz-adv-x="1480" 
d="M586 1434h309l555 -1434h-305l-119 317h-571l-119 -317h-305zM766 1012l-27 80l-26 -80l-170 -449h393zM324 1749h366l191 -246h-265z" />
    <glyph glyph-name="Aacute" unicode="&#xc1;" horiz-adv-x="1480" 
d="M586 1434h309l555 -1434h-305l-119 317h-571l-119 -317h-305zM766 1012l-27 80l-26 -80l-170 -449h393zM768 1749h367l-293 -246h-264z" />
    <glyph glyph-name="Acircumflex" unicode="&#xc2;" horiz-adv-x="1480" 
d="M586 1434h309l555 -1434h-305l-119 317h-571l-119 -317h-305zM766 1012l-27 80l-26 -80l-170 -449h393zM666 1761h149l315 -260h-286l-105 105l-104 -105h-285z" />
    <glyph glyph-name="Atilde" unicode="&#xc3;" horiz-adv-x="1480" 
d="M586 1434h309l555 -1434h-305l-119 317h-571l-119 -317h-305zM766 1012l-27 80l-26 -80l-170 -449h393zM608 1790q54 0 98 -19.5t64 -46.5q49 -65 104 -65q68 0 68 113h158q0 -137 -57.5 -213t-170.5 -76q-54 0 -97.5 19t-65.5 46q-50 66 -103 66q-69 0 -69 -113h-156
q0 137 57 213t170 76z" />
    <glyph glyph-name="Adieresis" unicode="&#xc4;" horiz-adv-x="1480" 
d="M586 1434h309l555 -1434h-305l-119 317h-571l-119 -317h-305zM766 1012l-27 80l-26 -80l-170 -449h393zM528 1782q62 0 104 -41.5t42 -102.5t-42 -102t-104 -41q-63 0 -105 41t-42 102q0 62 42 103t105 41zM844 1741q43 41 104.5 41t104.5 -41t43 -102.5t-43 -102.5
t-104.5 -41t-104.5 41q-41 41 -41 102.5t41 102.5z" />
    <glyph glyph-name="Aring" unicode="&#xc5;" horiz-adv-x="1480" 
d="M586 1434h309l555 -1434h-305l-119 317h-571l-119 -317h-305zM766 1012l-27 80l-26 -80l-170 -449h393zM952 1692q0 -89 -61 -149t-154 -60t-153 60t-60 149q0 92 59.5 151.5t153.5 59.5t154.5 -59.5t60.5 -151.5zM664 1692q0 -31 21 -52.5t52 -21.5q32 0 54 21.5
t22 52.5q4 47 -35.5 66.5t-79 0t-34.5 -66.5z" />
    <glyph glyph-name="AE" unicode="&#xc6;" horiz-adv-x="1961" 
d="M930 1434h940v-263h-545v-303h469v-264h-469v-342h545v-262h-828v319h-485l-209 -319h-332zM1042 561v541l-45 -86l-290 -455h335z" />
    <glyph glyph-name="Ccedilla" unicode="&#xc7;" horiz-adv-x="1509" 
d="M793 1460q259 0 427.5 -129t229.5 -360h-309q-82 227 -348 227q-188 0 -308 -135q-116 -134 -116 -344q0 -211 116 -348q120 -135 310 -135q282 0 364 239h297q-58 -230 -211.5 -359t-396.5 -141l-19 -79q83 -5 131 -50t48 -122q0 -91 -63 -143t-165 -52q-117 0 -188 65
l80 115q41 -47 104 -47q72 0 72 59q0 62 -74 62q-17 0 -55 -10l-37 12l43 192q-284 21 -469 230q-180 204 -180 512q0 321 200 530q202 211 517 211z" />
    <glyph glyph-name="Egrave" unicode="&#xc8;" horiz-adv-x="1062" 
d="M145 1434h826v-263h-545v-303h471v-264h-471v-342h545v-262h-826v1434zM166 1749h366l191 -246h-264z" />
    <glyph glyph-name="Eacute" unicode="&#xc9;" horiz-adv-x="1062" 
d="M145 1434h826v-263h-545v-303h471v-264h-471v-342h545v-262h-826v1434zM608 1749h367l-293 -246h-264z" />
    <glyph glyph-name="Ecircumflex" unicode="&#xca;" horiz-adv-x="1062" 
d="M145 1434h826v-263h-545v-303h471v-264h-471v-342h545v-262h-826v1434zM494 1761h149l315 -260h-286l-105 105l-104 -105h-285z" />
    <glyph glyph-name="Edieresis" unicode="&#xcb;" horiz-adv-x="1062" 
d="M356 1782q62 0 104 -41.5t42 -102.5t-42 -102t-104 -41q-63 0 -105 41t-42 102q0 62 42 103t105 41zM672 1741q43 41 104.5 41t104.5 -41t43 -102.5t-43 -102.5t-104.5 -41t-104.5 41q-41 41 -41 102.5t41 102.5zM145 1434h826v-263h-545v-303h471v-264h-471v-342h545
v-262h-826v1434z" />
    <glyph glyph-name="Igrave" unicode="&#xcc;" horiz-adv-x="571" 
d="M145 1434h281v-1434h-281v1434zM-129 1749h367l190 -246h-264z" />
    <glyph glyph-name="Iacute" unicode="&#xcd;" horiz-adv-x="571" 
d="M145 1434h281v-1434h-281v1434zM311 1749h367l-293 -246h-264z" />
    <glyph glyph-name="Icircumflex" unicode="&#xce;" horiz-adv-x="571" 
d="M213 1761h149l316 -260h-287l-104 105l-105 -105h-284zM145 1434h281v-1434h-281v1434z" />
    <glyph glyph-name="Idieresis" unicode="&#xcf;" horiz-adv-x="571" 
d="M76 1782q62 0 103.5 -41.5t41.5 -102.5t-41.5 -102t-103.5 -41q-63 0 -105.5 41t-42.5 102t42.5 102.5t105.5 41.5zM391 1741q43 41 104.5 41t104.5 -41t43 -102.5t-43 -102.5t-104.5 -41t-104.5 41q-41 41 -41 102.5t41 102.5zM145 1434h281v-1434h-281v1434z" />
    <glyph glyph-name="Eth" unicode="&#xd0;" horiz-adv-x="1521" 
d="M164 1434h536q340 0 539 -199q203 -200 203 -518t-203 -518q-199 -199 -539 -199h-536v641h-152v199h152v594zM700 1171h-256v-331h203v-199h-203v-379h256q214 0 331.5 119t117.5 336q0 216 -117 335t-332 119z" />
    <glyph glyph-name="Ntilde" unicode="&#xd1;" horiz-adv-x="1497" 
d="M1071 1434h283v-1434h-283l-590 866l-55 95v-961h-281v1434h279l588 -869l59 -98v967zM616 1790q54 0 98 -19.5t64 -46.5q49 -65 105 -65q67 0 67 113h158q0 -137 -57 -213t-170 -76q-54 0 -98 19t-66 46q-50 66 -103 66q-69 0 -69 -113h-156q0 137 57 213t170 76z" />
    <glyph glyph-name="Ograve" unicode="&#xd2;" horiz-adv-x="1636" 
d="M819 1460q325 0 533 -211q209 -209 209 -530q0 -323 -209 -535q-208 -211 -533 -211q-326 0 -534 211q-209 212 -209 535q0 321 209 530q208 211 534 211zM819 1198q-201 0 -327 -135q-123 -135 -123 -344q0 -210 123 -348q126 -135 327 -135t324 135q125 137 125 348
q0 210 -125 344q-123 135 -324 135zM403 1769h367l191 -245h-265z" />
    <glyph glyph-name="Oacute" unicode="&#xd3;" horiz-adv-x="1636" 
d="M819 1460q325 0 533 -211q209 -209 209 -530q0 -323 -209 -535q-208 -211 -533 -211q-326 0 -534 211q-209 212 -209 535q0 321 209 530q208 211 534 211zM819 1198q-201 0 -327 -135q-123 -135 -123 -344q0 -210 123 -348q126 -135 327 -135t324 135q125 137 125 348
q0 210 -125 344q-123 135 -324 135zM846 1769h366l-292 -245h-265z" />
    <glyph glyph-name="Ocircumflex" unicode="&#xd4;" horiz-adv-x="1636" 
d="M819 1460q325 0 533 -211q209 -209 209 -530q0 -323 -209 -535q-208 -211 -533 -211q-326 0 -534 211q-209 212 -209 535q0 321 209 530q208 211 534 211zM819 1198q-201 0 -327 -135q-123 -135 -123 -344q0 -210 123 -348q126 -135 327 -135t324 135q125 137 125 348
q0 210 -125 344q-123 135 -324 135zM743 1782h150l315 -260h-286l-105 104l-104 -104h-285z" />
    <glyph glyph-name="Otilde" unicode="&#xd5;" horiz-adv-x="1636" 
d="M688 1810q54 0 98 -19t64 -46q50 -66 104 -66q68 0 68 113h158q0 -137 -57.5 -213t-170.5 -76q-54 0 -98 19.5t-66 46.5q-49 65 -102 65q-70 0 -70 -112h-155q0 137 57 212.5t170 75.5zM819 1460q325 0 533 -211q209 -209 209 -530q0 -323 -209 -535q-208 -211 -533 -211
q-326 0 -534 211q-209 212 -209 535q0 321 209 530q208 211 534 211zM819 1198q-201 0 -327 -135q-123 -135 -123 -344q0 -210 123 -348q126 -135 327 -135t324 135q125 137 125 348q0 210 -125 344q-123 135 -324 135z" />
    <glyph glyph-name="Odieresis" unicode="&#xd6;" horiz-adv-x="1636" 
d="M819 1460q325 0 533 -211q209 -209 209 -530q0 -323 -209 -535q-208 -211 -533 -211q-326 0 -534 211q-209 212 -209 535q0 321 209 530q208 211 534 211zM819 1198q-201 0 -327 -135q-123 -135 -123 -344q0 -210 123 -348q126 -135 327 -135t324 135q125 137 125 348
q0 210 -125 344q-123 135 -324 135zM608 1802q62 0 104 -41t42 -102t-42 -102t-104 -41q-63 0 -105 41t-42 102t42 102t105 41zM924 1761q43 41 104.5 41t104.5 -41t43 -102.5t-43 -102.5t-104.5 -41t-104.5 41q-41 41 -41 102.5t41 102.5z" />
    <glyph glyph-name="multiply" unicode="&#xd7;" horiz-adv-x="892" 
d="M446 885l232 231l168 -168l-234 -231l232 -232l-168 -166l-230 230l-231 -230l-166 166l230 232l-232 231l166 168z" />
    <glyph glyph-name="Oslash" unicode="&#xd8;" horiz-adv-x="1636" 
d="M819 1460q147 0 277 -47l104 176l201 -102l-109 -184q128 -100 198.5 -252.5t70.5 -331.5q0 -323 -209 -535q-208 -211 -533 -211q-141 0 -280 50l-107 -183l-201 103l111 188q-128 100 -197 252.5t-69 335.5q0 321 209 530q208 211 534 211zM1268 719q0 207 -119 338
l-473 -801q61 -20 143 -20q201 0 324 135q125 137 125 348zM819 1198q-201 0 -327 -135q-123 -135 -123 -344t118 -342l471 801q-67 20 -139 20z" />
    <glyph glyph-name="Ugrave" unicode="&#xd9;" horiz-adv-x="1419" 
d="M1010 1434h282v-856q0 -288 -151.5 -446.5t-429.5 -158.5t-431 158t-153 447v856h283v-856q0 -342 301 -342q299 0 299 342v856zM293 1749h366l191 -246h-264z" />
    <glyph glyph-name="Uacute" unicode="&#xda;" horiz-adv-x="1419" 
d="M1010 1434h282v-856q0 -288 -151.5 -446.5t-429.5 -158.5t-431 158t-153 447v856h283v-856q0 -342 301 -342q299 0 299 342v856zM735 1749h367l-293 -246h-264z" />
    <glyph glyph-name="Ucircumflex" unicode="&#xdb;" horiz-adv-x="1419" 
d="M1010 1434h282v-856q0 -288 -151.5 -446.5t-429.5 -158.5t-431 158t-153 447v856h283v-856q0 -342 301 -342q299 0 299 342v856zM633 1761h149l316 -260h-287l-104 105l-105 -105h-285z" />
    <glyph glyph-name="Udieresis" unicode="&#xdc;" horiz-adv-x="1419" 
d="M498 1782q62 0 103.5 -41.5t41.5 -102.5t-41.5 -102t-103.5 -41q-63 0 -105.5 41t-42.5 102t42.5 102.5t105.5 41.5zM813 1741q43 41 104.5 41t104.5 -41t43 -102.5t-43 -102.5t-104.5 -41t-104.5 41q-41 41 -41 102.5t41 102.5zM1010 1434h282v-856
q0 -288 -151.5 -446.5t-429.5 -158.5t-431 158t-153 447v856h283v-856q0 -342 301 -342q299 0 299 342v856z" />
    <glyph glyph-name="Yacute" unicode="&#xdd;" horiz-adv-x="1406" 
d="M1061 1434h328l-543 -902v-532h-285v532l-543 902h328l307 -500l49 -96l52 96zM729 1749h367l-293 -246h-264z" />
    <glyph glyph-name="Thorn" unicode="&#xde;" horiz-adv-x="1208" 
d="M145 1434h281v-211h227q225 0 357 -123q135 -120 135 -318q0 -192 -135 -315q-132 -123 -357 -123h-227v-344h-281v1434zM653 958h-227v-350h227q95 0 149 45t54 129t-54 130t-149 46z" />
    <glyph glyph-name="germandbls" unicode="&#xdf;" horiz-adv-x="1187" 
d="M596 1516v-252q-86 0 -135 -51t-49 -148v-27h667v-209l-225 -370q152 -35 242 -156q94 -119 94 -276q0 -225 -126 -351.5t-359 -126.5q-94 0 -177 17l4 268q77 -22 148 -22q102 0 162.5 54.5t60.5 156.5q0 99 -66.5 153.5t-183.5 54.5h-96v193l221 373h-366v-797h-283
v1059q0 457 467 457z" />
    <glyph glyph-name="agrave" unicode="&#xe0;" horiz-adv-x="1056" 
d="M526 1061q193 0 302.5 -98t109.5 -281v-682h-227l-17 127q-99 -150 -297 -150q-142 0 -228.5 81.5t-86.5 217.5q0 138 81 212t240 100l269 49v39q0 158 -146 158q-68 0 -111.5 -38.5t-43.5 -99.5h-258q11 163 123 264t290 101zM672 428v31l-207 -43q-117 -27 -117 -117
q0 -47 32 -74.5t89 -27.5q108 0 166 94q37 58 37 137zM113 1499h325l217 -323h-227z" />
    <glyph glyph-name="aacute" unicode="&#xe1;" horiz-adv-x="1056" 
d="M526 1061q193 0 302.5 -98t109.5 -281v-682h-227l-17 127q-99 -150 -297 -150q-142 0 -228.5 81.5t-86.5 217.5q0 138 81 212t240 100l269 49v39q0 158 -146 158q-68 0 -111.5 -38.5t-43.5 -99.5h-258q11 163 123 264t290 101zM672 428v31l-207 -43q-117 -27 -117 -117
q0 -47 32 -74.5t89 -27.5q108 0 166 94q37 58 37 137zM618 1499h326l-315 -323h-228z" />
    <glyph glyph-name="acircumflex" unicode="&#xe2;" horiz-adv-x="1056" 
d="M526 1061q193 0 302.5 -98t109.5 -281v-682h-227l-17 127q-99 -150 -297 -150q-142 0 -228.5 81.5t-86.5 217.5q0 138 81 212t240 100l269 49v39q0 158 -146 158q-68 0 -111.5 -38.5t-43.5 -99.5h-258q11 163 123 264t290 101zM672 428v31l-207 -43q-117 -27 -117 -117
q0 -47 32 -74.5t89 -27.5q108 0 166 94q37 58 37 137zM436 1499h197l287 -323h-271l-114 159l-115 -159h-268z" />
    <glyph glyph-name="atilde" unicode="&#xe3;" horiz-adv-x="1056" 
d="M526 1061q193 0 302.5 -98t109.5 -281v-682h-227l-17 127q-99 -150 -297 -150q-142 0 -228.5 81.5t-86.5 217.5q0 138 81 212t240 100l269 49v39q0 158 -146 158q-68 0 -111.5 -38.5t-43.5 -99.5h-258q11 163 123 264t290 101zM672 428v31l-207 -43q-117 -27 -117 -117
q0 -47 32 -74.5t89 -27.5q108 0 166 94q37 58 37 137zM408 1477q53 0 96.5 -20.5t64.5 -47.5q52 -68 105 -68q67 0 67 117h158q0 -137 -57 -215t-170 -78q-53 0 -97 20.5t-65 47.5q-50 70 -104 70q-70 0 -70 -119h-156q0 138 57.5 215.5t170.5 77.5z" />
    <glyph glyph-name="adieresis" unicode="&#xe4;" horiz-adv-x="1056" 
d="M526 1061q193 0 302.5 -98t109.5 -281v-682h-227l-17 127q-99 -150 -297 -150q-142 0 -228.5 81.5t-86.5 217.5q0 138 81 212t240 100l269 49v39q0 158 -146 158q-68 0 -111.5 -38.5t-43.5 -99.5h-258q11 163 123 264t290 101zM672 428v31l-207 -43q-117 -27 -117 -117
q0 -47 32 -74.5t89 -27.5q108 0 166 94q37 58 37 137zM326 1458q62 0 103.5 -41t41.5 -102t-41.5 -102.5t-103.5 -41.5q-63 0 -105.5 41.5t-42.5 102.5t42.5 102t105.5 41zM641 1417q43 41 104.5 41t104.5 -41t43 -102.5t-43 -102.5t-104.5 -41t-104.5 41q-41 41 -41 102.5
t41 102.5z" />
    <glyph glyph-name="aring" unicode="&#xe5;" horiz-adv-x="1056" 
d="M526 1061q193 0 302.5 -98t109.5 -281v-682h-227l-17 127q-99 -150 -297 -150q-142 0 -228.5 81.5t-86.5 217.5q0 138 81 212t240 100l269 49v39q0 158 -146 158q-68 0 -111.5 -38.5t-43.5 -99.5h-258q11 163 123 264t290 101zM672 428v31l-207 -43q-117 -27 -117 -117
q0 -47 32 -74.5t89 -27.5q108 0 166 94q37 58 37 137zM537 1581q102 0 165.5 -64t63.5 -163q0 -94 -65 -157.5t-164 -63.5t-164.5 63.5t-65.5 157.5q0 98 65 162.5t165 64.5zM537 1452q-39 0 -66 -27.5t-27 -68.5q0 -37 27.5 -64.5t65.5 -27.5q41 0 66.5 26.5t25.5 65.5
q0 42 -25.5 69t-66.5 27z" />
    <glyph glyph-name="ae" unicode="&#xe6;" horiz-adv-x="1748" 
d="M1188 1061q220 0 350.5 -140.5t130.5 -400.5v-82h-723q6 -105 74 -169t176 -64q162 0 209 121h258q-50 -169 -170.5 -259t-304.5 -90q-263 0 -408 189q-139 -189 -368 -189q-152 0 -241 80t-89 217q0 259 321 314l269 49v33q0 164 -148 164q-67 0 -110 -38t-43 -100h-258
q9 163 120 265q109 100 291 100q212 0 324 -121q142 121 340 121zM948 623h453q-2 98 -61.5 157.5t-157.5 59.5q-97 0 -160 -59.5t-74 -157.5zM672 414v45l-199 -41q-64 -14 -94.5 -42t-30.5 -77q0 -47 32 -74.5t89 -27.5q107 0 166 90q37 58 37 127z" />
    <glyph glyph-name="ccedilla" unicode="&#xe7;" horiz-adv-x="1140" 
d="M588 1061q194 0 322 -101t157 -288h-258q-23 69 -80 108t-135 39q-109 0 -180 -86q-72 -84 -72 -215q0 -129 73 -213t185 -84q77 0 134.5 41t76.5 105h260q-32 -169 -145.5 -269t-282.5 -118l-18 -84q83 -5 130.5 -50t47.5 -122q0 -91 -63 -143t-165 -52q-117 0 -188 65
l80 115q41 -47 104 -47q72 0 72 59q0 62 -74 62q-17 0 -55 -10l-37 12l43 197q-198 21 -327 168q-125 146 -125 368q0 235 145 389q148 154 375 154z" />
    <glyph glyph-name="egrave" unicode="&#xe8;" horiz-adv-x="1144" 
d="M584 1061q220 0 350.5 -140.5t130.5 -400.5v-82h-723q6 -105 74 -169t176 -64q162 0 209 121h258q-50 -169 -170.5 -259t-304.5 -90q-230 0 -375 148q-141 150 -141 393q0 240 143 389q145 154 373 154zM152 1499h325l217 -323h-227zM344 623h453q-2 98 -61.5 157.5
t-157.5 59.5q-97 0 -160 -59.5t-74 -157.5z" />
    <glyph glyph-name="eacute" unicode="&#xe9;" horiz-adv-x="1144" 
d="M584 1061q220 0 350.5 -140.5t130.5 -400.5v-82h-723q6 -105 74 -169t176 -64q162 0 209 121h258q-50 -169 -170.5 -259t-304.5 -90q-230 0 -375 148q-141 150 -141 393q0 240 143 389q145 154 373 154zM657 1499h326l-315 -323h-228zM344 623h453q-2 98 -61.5 157.5
t-157.5 59.5q-97 0 -160 -59.5t-74 -157.5z" />
    <glyph glyph-name="ecircumflex" unicode="&#xea;" horiz-adv-x="1144" 
d="M584 1061q220 0 350.5 -140.5t130.5 -400.5v-82h-723q6 -105 74 -169t176 -64q162 0 209 121h258q-50 -169 -170.5 -259t-304.5 -90q-230 0 -375 148q-141 150 -141 393q0 240 143 389q145 154 373 154zM475 1499h197l286 -323h-270l-115 159l-114 -159h-269zM344 623
h453q-2 98 -61.5 157.5t-157.5 59.5q-97 0 -160 -59.5t-74 -157.5z" />
    <glyph glyph-name="edieresis" unicode="&#xeb;" horiz-adv-x="1144" 
d="M584 1061q220 0 350.5 -140.5t130.5 -400.5v-82h-723q6 -105 74 -169t176 -64q162 0 209 121h258q-50 -169 -170.5 -259t-304.5 -90q-230 0 -375 148q-141 150 -141 393q0 240 143 389q145 154 373 154zM344 623h453q-2 98 -61.5 157.5t-157.5 59.5q-97 0 -160 -59.5
t-74 -157.5zM369 1458q62 0 103.5 -41t41.5 -102t-41.5 -102.5t-103.5 -41.5q-63 0 -105.5 41.5t-42.5 102.5t42.5 102t105.5 41zM684 1417q43 41 104.5 41t104.5 -41t43 -102.5t-43 -102.5t-104.5 -41t-104.5 41q-41 41 -41 102.5t41 102.5z" />
    <glyph glyph-name="igrave" unicode="&#xec;" 
d="M143 1038h267v-1038h-267v1038zM-145 1499h325l217 -323h-227z" />
    <glyph glyph-name="iacute" unicode="&#xed;" 
d="M143 1038h267v-1038h-267v1038zM358 1499h326l-315 -323h-228z" />
    <glyph glyph-name="icircumflex" unicode="&#xee;" 
d="M143 1038h267v-1038h-267v1038zM178 1499h197l287 -323h-271l-115 159l-114 -159h-268z" />
    <glyph glyph-name="idieresis" unicode="&#xef;" 
d="M68 1458q62 0 103.5 -41t41.5 -102t-41.5 -102.5t-103.5 -41.5q-63 0 -105.5 41.5t-42.5 102.5t42.5 102t105.5 41zM383 1417q43 41 104.5 41t104.5 -41t43 -102.5t-43 -102.5t-104.5 -41t-104.5 41q-41 41 -41 102.5t41 102.5zM143 1038h267v-1038h-267v1038z" />
    <glyph glyph-name="eth" unicode="&#xf0;" horiz-adv-x="1171" 
d="M623 1292h297v-192h-156l215 -293q119 -165 119 -330q0 -220 -146 -360t-366 -140q-221 0 -367 140q-143 137 -143 360q0 206 127 342q130 139 332 154l-93 127h-309v192h166l-149 203h323zM768 659l-6 9q-68 71 -176 71q-109 0 -176 -73q-66 -72 -66 -189t67 -190.5
t175 -73.5q106 0 174.5 74.5t68.5 189.5q0 100 -61 182z" />
    <glyph glyph-name="ntilde" unicode="&#xf1;" horiz-adv-x="1150" 
d="M455 1477q53 0 96.5 -20.5t64.5 -47.5q52 -68 105 -68q67 0 67 117h158q0 -137 -57 -215t-170 -78q-53 0 -97 20.5t-65 47.5q-50 70 -104 70q-70 0 -70 -119h-156q0 138 57.5 215.5t170.5 77.5zM670 1061q162 0 249 -102.5t87 -284.5v-674h-269v616q0 187 -147 187
q-84 0 -134 -66.5t-50 -187.5v-549h-265v1038h228l20 -135q84 158 281 158z" />
    <glyph glyph-name="ograve" unicode="&#xf2;" horiz-adv-x="1224" 
d="M610 1061q236 0 391 -152q156 -150 156 -389q0 -241 -156 -391q-155 -152 -391 -152q-234 0 -389 152q-153 150 -153 391q0 239 153 389q155 152 389 152zM612 819q-117 0 -194 -86q-76 -82 -76 -213q0 -130 76 -215q78 -84 194 -84q118 0 193.5 84.5t75.5 214.5
q0 132 -74 215.5t-195 83.5zM188 1499h326l217 -323h-227z" />
    <glyph glyph-name="oacute" unicode="&#xf3;" horiz-adv-x="1224" 
d="M610 1061q236 0 391 -152q156 -150 156 -389q0 -241 -156 -391q-155 -152 -391 -152q-234 0 -389 152q-153 150 -153 391q0 239 153 389q155 152 389 152zM612 819q-117 0 -194 -86q-76 -82 -76 -213q0 -130 76 -215q78 -84 194 -84q118 0 193.5 84.5t75.5 214.5
q0 132 -74 215.5t-195 83.5zM694 1499h326l-315 -323h-228z" />
    <glyph glyph-name="ocircumflex" unicode="&#xf4;" horiz-adv-x="1224" 
d="M610 1061q236 0 391 -152q156 -150 156 -389q0 -241 -156 -391q-155 -152 -391 -152q-234 0 -389 152q-153 150 -153 391q0 239 153 389q155 152 389 152zM612 819q-117 0 -194 -86q-76 -82 -76 -213q0 -130 76 -215q78 -84 194 -84q118 0 193.5 84.5t75.5 214.5
q0 132 -74 215.5t-195 83.5zM512 1499h197l286 -323h-270l-115 159l-114 -159h-269z" />
    <glyph glyph-name="otilde" unicode="&#xf5;" horiz-adv-x="1224" 
d="M481 1477q53 0 97 -20.5t65 -47.5q52 -68 105 -68q67 0 67 117h158q0 -137 -57.5 -215t-170.5 -78q-53 0 -96.5 20.5t-64.5 47.5q-50 70 -105 70q-69 0 -69 -119h-156q0 139 57 216t170 77zM610 1061q236 0 391 -152q156 -150 156 -389q0 -241 -156 -391
q-155 -152 -391 -152q-234 0 -389 152q-153 150 -153 391q0 239 153 389q155 152 389 152zM612 819q-117 0 -194 -86q-76 -82 -76 -213q0 -130 76 -215q78 -84 194 -84q118 0 193.5 84.5t75.5 214.5q0 132 -74 215.5t-195 83.5z" />
    <glyph glyph-name="odieresis" unicode="&#xf6;" horiz-adv-x="1224" 
d="M610 1061q236 0 391 -152q156 -150 156 -389q0 -241 -156 -391q-155 -152 -391 -152q-234 0 -389 152q-153 150 -153 391q0 239 153 389q155 152 389 152zM612 819q-117 0 -194 -86q-76 -82 -76 -213q0 -130 76 -215q78 -84 194 -84q118 0 193.5 84.5t75.5 214.5
q0 132 -74 215.5t-195 83.5zM401 1458q62 0 104 -41t42 -102t-42 -102.5t-104 -41.5q-63 0 -105 41t-42 103q0 61 42 102t105 41zM717 1417q43 41 104.5 41t104.5 -41t43 -102.5t-43 -102.5t-104.5 -41t-104.5 41q-41 41 -41 102.5t41 102.5z" />
    <glyph glyph-name="divide" unicode="&#xf7;" horiz-adv-x="966" 
d="M354 1221q47 44 115 44t115 -44t47 -113t-47 -113t-115 -44t-115 44q-44 44 -44 113t44 113zM354 436q47 44 115 44t115 -44t47 -112.5t-47 -112.5t-115 -44t-115 44q-44 44 -44 112.5t44 112.5zM61 834h844v-236h-844v236z" />
    <glyph glyph-name="oslash" unicode="&#xf8;" horiz-adv-x="1224" 
d="M610 1061q102 0 197 -33l92 172l127 -61l-92 -172q223 -152 223 -447q0 -241 -156 -391q-155 -152 -391 -152q-92 0 -190 29l-90 -170l-129 60l92 174q-225 150 -225 450q0 239 153 389q155 152 389 152zM612 819q-118 0 -194 -84.5t-76 -214.5q0 -131 78 -215l268 504
q-42 10 -76 10zM881 520q0 127 -72 211l-268 -502q27 -8 71 -8q118 0 193.5 84.5t75.5 214.5z" />
    <glyph glyph-name="ugrave" unicode="&#xf9;" horiz-adv-x="1124" 
d="M719 1038h264v-1038h-227l-21 135q-84 -158 -274 -158q-162 0 -248 102.5t-86 285.5v673h266v-614q0 -188 148 -188q81 0 129.5 63.5t48.5 181.5v557zM139 1499h326l217 -323h-227z" />
    <glyph glyph-name="uacute" unicode="&#xfa;" horiz-adv-x="1124" 
d="M719 1038h264v-1038h-227l-21 135q-84 -158 -274 -158q-162 0 -248 102.5t-86 285.5v673h266v-614q0 -188 148 -188q81 0 129.5 63.5t48.5 181.5v557zM645 1499h326l-316 -323h-227z" />
    <glyph glyph-name="ucircumflex" unicode="&#xfb;" horiz-adv-x="1124" 
d="M719 1038h264v-1038h-227l-21 135q-84 -158 -274 -158q-162 0 -248 102.5t-86 285.5v673h266v-614q0 -188 148 -188q81 0 129.5 63.5t48.5 181.5v557zM455 1499h196l287 -323h-270l-115 159l-115 -159h-268z" />
    <glyph glyph-name="udieresis" unicode="&#xfc;" horiz-adv-x="1124" 
d="M719 1038h264v-1038h-227l-21 135q-84 -158 -274 -158q-162 0 -248 102.5t-86 285.5v673h266v-614q0 -188 148 -188q81 0 129.5 63.5t48.5 181.5v557zM346 1458q62 0 104 -41t42 -102t-42 -102.5t-104 -41.5q-63 0 -105 41t-42 103q0 61 42 102t105 41zM662 1417
q43 41 104 41t104 -41t43 -102.5t-43 -102.5t-104 -41t-104 41q-41 41 -41 102.5t41 102.5z" />
    <glyph glyph-name="yacute" unicode="&#xfd;" horiz-adv-x="1067" 
d="M752 1038h288l-534 -1478h-277l158 452l-369 1026h287l203 -637l20 -90l21 90zM610 1499h326l-315 -323h-228z" />
    <glyph glyph-name="thorn" unicode="&#xfe;" horiz-adv-x="1277" 
d="M147 1495h267v-569q99 135 311 135q208 0 346 -156q137 -155 137 -385t-139 -387q-138 -156 -344 -156q-212 0 -311 138v-555h-267v1935zM672 811q-110 0 -186.5 -73.5t-77.5 -196.5v-37q0 -126 76.5 -201.5t185.5 -75.5q112 0 187 82t75 211q0 128 -74.5 209.5
t-185.5 81.5z" />
    <glyph glyph-name="ydieresis" unicode="&#xff;" horiz-adv-x="1067" 
d="M752 1038h288l-534 -1478h-277l158 452l-369 1026h287l203 -637l20 -90l21 90zM317 1458q62 0 104 -41t42 -102t-42 -102.5t-104 -41.5q-63 0 -105 41t-42 103q0 61 42 102t105 41zM633 1417q43 41 104.5 41t104.5 -41t43 -102.5t-43 -102.5t-104.5 -41t-104.5 41
q-41 41 -41 102.5t41 102.5z" />
    <glyph glyph-name="Amacron" unicode="&#x100;" horiz-adv-x="1480" 
d="M586 1434h309l555 -1434h-305l-119 317h-571l-119 -317h-305zM766 1012l-27 80l-26 -80l-170 -449h393zM453 1710h571v-199h-571v199z" />
    <glyph glyph-name="amacron" unicode="&#x101;" horiz-adv-x="1056" 
d="M526 1061q193 0 302.5 -98t109.5 -281v-682h-227l-17 127q-99 -150 -297 -150q-142 0 -228.5 81.5t-86.5 217.5q0 138 81 212t240 100l269 49v39q0 158 -146 158q-68 0 -111.5 -38.5t-43.5 -99.5h-258q11 163 123 264t290 101zM672 428v31l-207 -43q-117 -27 -117 -117
q0 -47 32 -74.5t89 -27.5q108 0 166 94q37 58 37 137zM254 1403h571v-199h-571v199z" />
    <glyph glyph-name="Abreve" unicode="&#x102;" horiz-adv-x="1480" 
d="M586 1434h309l555 -1434h-305l-119 317h-571l-119 -317h-305zM766 1012l-27 80l-26 -80l-170 -449h393zM854 1778h213q0 -129 -91.5 -208t-238.5 -79q-143 0 -234 80t-91 207h211q0 -52 30.5 -82.5t85.5 -30.5q53 0 84 30.5t31 82.5z" />
    <glyph glyph-name="abreve" unicode="&#x103;" horiz-adv-x="1056" 
d="M526 1061q193 0 302.5 -98t109.5 -281v-682h-227l-17 127q-99 -150 -297 -150q-142 0 -228.5 81.5t-86.5 217.5q0 138 81 212t240 100l269 49v39q0 158 -146 158q-68 0 -111.5 -38.5t-43.5 -99.5h-258q11 163 123 264t290 101zM672 428v31l-207 -43q-117 -27 -117 -117
q0 -47 32 -74.5t89 -27.5q108 0 166 94q37 58 37 137zM653 1462h211q0 -136 -92 -225q-92 -86 -237 -86q-142 0 -234 86q-92 89 -92 225h211q0 -63 31 -101t86 -38q53 0 84.5 39t31.5 100z" />
    <glyph glyph-name="Aogonek" unicode="&#x104;" horiz-adv-x="1480" 
d="M586 1434h309l555 -1434h-88q-145 -59 -145 -178q0 -50 26.5 -77.5t75.5 -27.5q42 0 82 19l31 -129q-45 -25 -123 -25q-117 0 -187.5 62.5t-70.5 171.5q0 117 90 192l-115 309h-571l-119 -317h-305zM766 1012l-27 80l-26 -80l-170 -449h393z" />
    <glyph glyph-name="aogonek" unicode="&#x105;" horiz-adv-x="1056" 
d="M526 1061q193 0 302.5 -98t109.5 -281v-682h-23q-145 -59 -145 -178q0 -50 26.5 -77.5t75.5 -27.5q42 0 82 19l31 -129q-45 -25 -123 -25q-117 0 -187.5 62.5t-70.5 171.5q0 124 105 200l-15 111q-99 -150 -297 -150q-142 0 -228.5 81.5t-86.5 217.5q0 138 81 212
t240 100l269 49v39q0 158 -146 158q-68 0 -111.5 -38.5t-43.5 -99.5h-258q11 163 123 264t290 101zM672 428v31l-207 -43q-117 -27 -117 -117q0 -47 32 -74.5t89 -27.5q108 0 166 94q37 58 37 137z" />
    <glyph glyph-name="Cacute" unicode="&#x106;" horiz-adv-x="1509" 
d="M793 1460q259 0 427.5 -129t229.5 -360h-309q-82 227 -348 227q-188 0 -308 -135q-116 -134 -116 -344q0 -211 116 -348q120 -135 310 -135q282 0 364 239h297q-61 -242 -228.5 -372t-432.5 -130q-317 0 -519 211q-200 212 -200 535q0 321 200 530q202 211 517 211z
M819 1769h367l-293 -245h-264z" />
    <glyph glyph-name="cacute" unicode="&#x107;" horiz-adv-x="1140" 
d="M588 1061q194 0 322 -101t157 -288h-258q-23 69 -80 108t-135 39q-109 0 -180 -86q-72 -84 -72 -215q0 -129 73 -213t185 -84q77 0 134.5 41t76.5 105h260q-36 -186 -165 -288t-318 -102q-231 0 -375 150q-145 151 -145 391q0 235 145 389q148 154 375 154zM670 1499h325
l-315 -323h-227z" />
    <glyph glyph-name="Ccircumflex" unicode="&#x108;" horiz-adv-x="1509" 
d="M793 1460q259 0 427.5 -129t229.5 -360h-309q-82 227 -348 227q-188 0 -308 -135q-116 -134 -116 -344q0 -211 116 -348q120 -135 310 -135q282 0 364 239h297q-61 -242 -228.5 -372t-432.5 -130q-317 0 -519 211q-200 212 -200 535q0 321 200 530q202 211 517 211z
M717 1782h149l316 -260h-287l-104 104l-105 -104h-285z" />
    <glyph glyph-name="ccircumflex" unicode="&#x109;" horiz-adv-x="1140" 
d="M588 1061q194 0 322 -101t157 -288h-258q-23 69 -80 108t-135 39q-109 0 -180 -86q-72 -84 -72 -215q0 -129 73 -213t185 -84q77 0 134.5 41t76.5 105h260q-36 -186 -165 -288t-318 -102q-231 0 -375 150q-145 151 -145 391q0 235 145 389q148 154 375 154zM487 1499h197
l287 -323h-271l-114 159l-115 -159h-268z" />
    <glyph glyph-name="Cdotaccent" unicode="&#x10a;" horiz-adv-x="1509" 
d="M793 1460q259 0 427.5 -129t229.5 -360h-309q-82 227 -348 227q-188 0 -308 -135q-116 -134 -116 -344q0 -211 116 -348q120 -135 310 -135q282 0 364 239h297q-61 -242 -228.5 -372t-432.5 -130q-317 0 -519 211q-200 212 -200 535q0 321 200 530q202 211 517 211z
M793 1808q62 0 105.5 -42t43.5 -103q0 -62 -43.5 -104.5t-105.5 -42.5q-66 0 -109 42t-43 105q0 61 44.5 103t107.5 42z" />
    <glyph glyph-name="cdotaccent" unicode="&#x10b;" horiz-adv-x="1140" 
d="M588 1061q194 0 322 -101t157 -288h-258q-23 69 -80 108t-135 39q-109 0 -180 -86q-72 -84 -72 -215q0 -129 73 -213t185 -84q77 0 134.5 41t76.5 105h260q-36 -186 -165 -288t-318 -102q-231 0 -375 150q-145 151 -145 391q0 235 145 389q148 154 375 154zM471 1442
q47 44 114.5 44t114.5 -44q50 -44 50 -112.5t-50 -112.5q-47 -44 -114.5 -44t-114.5 44q-44 44 -44 112.5t44 112.5z" />
    <glyph glyph-name="Ccaron" unicode="&#x10c;" horiz-adv-x="1509" 
d="M793 1460q259 0 427.5 -129t229.5 -360h-309q-82 227 -348 227q-188 0 -308 -135q-116 -134 -116 -344q0 -211 116 -348q120 -135 310 -135q282 0 364 239h297q-61 -242 -228.5 -372t-432.5 -130q-317 0 -519 211q-200 212 -200 535q0 321 200 530q202 211 517 211z
M895 1776h287l-316 -260h-149l-316 260h285l105 -105z" />
    <glyph glyph-name="ccaron" unicode="&#x10d;" horiz-adv-x="1140" 
d="M588 1061q194 0 322 -101t157 -288h-258q-23 69 -80 108t-135 39q-109 0 -180 -86q-72 -84 -72 -215q0 -129 73 -213t185 -84q77 0 134.5 41t76.5 105h260q-36 -186 -165 -288t-318 -102q-231 0 -375 150q-145 151 -145 391q0 235 145 389q148 154 375 154zM700 1479h271
l-287 -324h-197l-284 324h268l115 -162z" />
    <glyph glyph-name="Dcaron" unicode="&#x10e;" horiz-adv-x="1501" 
d="M145 1434h537q340 0 539 -199q202 -199 202 -518t-202 -518q-199 -199 -539 -199h-537v1434zM682 1171h-256v-909h256q214 0 331 119t117 336q0 216 -116.5 335t-331.5 119zM784 1755h287l-315 -260h-150l-315 260h284l105 -104z" />
    <glyph glyph-name="dcaron" unicode="&#x10f;" horiz-adv-x="1587" 
d="M862 1495h266v-1495h-229l-20 139q-110 -162 -330 -162q-206 0 -344 156q-137 155 -137 387q0 230 137 385q138 156 346 156q209 0 311 -135v569zM604 811q-112 0 -187 -82t-75 -209q0 -129 74.5 -211t187.5 -82q108 0 184 76q78 78 78 211v12q-3 130 -80 207
q-78 78 -182 78zM1409 1509q70 0 115 -48.5t45 -125.5q0 -96 -47 -202.5t-123 -190.5l-76 27q49 103 63 233q-60 8 -98.5 49t-38.5 101q0 66 47 111.5t113 45.5z" />
    <glyph glyph-name="Dcroat" unicode="&#x110;" horiz-adv-x="1521" 
d="M164 1434h536q340 0 539 -199q203 -200 203 -518t-203 -518q-199 -199 -539 -199h-536v641h-152v199h152v594zM700 1171h-256v-331h203v-199h-203v-379h256q214 0 331.5 119t117.5 336q0 216 -117 335t-332 119z" />
    <glyph glyph-name="dslash" unicode="&#x111;" horiz-adv-x="1277" 
d="M862 1495h266v-94h140v-197h-140v-1204h-229l-20 139q-110 -162 -330 -162q-206 0 -344 156q-137 155 -137 387q0 230 137 385q138 156 346 156q209 0 311 -135v278h-180v197h180v94zM604 811q-112 0 -187 -82t-75 -209q0 -129 74.5 -211t187.5 -82q108 0 184 76
q78 78 78 211v12q-3 130 -80 207q-78 78 -182 78z" />
    <glyph glyph-name="Emacron" unicode="&#x112;" horiz-adv-x="1062" 
d="M145 1434h826v-263h-545v-303h471v-264h-471v-342h545v-262h-826v1434zM287 1710h571v-199h-571v199z" />
    <glyph glyph-name="emacron" unicode="&#x113;" horiz-adv-x="1144" 
d="M584 1061q220 0 350.5 -140.5t130.5 -400.5v-82h-723q6 -105 74 -169t176 -64q162 0 209 121h258q-50 -169 -170.5 -259t-304.5 -90q-230 0 -375 148q-141 150 -141 393q0 240 143 389q145 154 373 154zM289 1403h571v-199h-571v199zM344 623h453q-2 98 -61.5 157.5
t-157.5 59.5q-97 0 -160 -59.5t-74 -157.5z" />
    <glyph glyph-name="Ebreve" unicode="&#x114;" horiz-adv-x="1062" 
d="M145 1434h826v-263h-545v-303h471v-264h-471v-342h545v-262h-826v1434zM688 1778h213q0 -129 -91.5 -208t-238.5 -79q-143 0 -234 80t-91 207h211q0 -52 30.5 -82.5t85.5 -30.5q53 0 84 30.5t31 82.5z" />
    <glyph glyph-name="ebreve" unicode="&#x115;" horiz-adv-x="1144" 
d="M584 1061q220 0 350.5 -140.5t130.5 -400.5v-82h-723q6 -105 74 -169t176 -64q162 0 209 121h258q-50 -169 -170.5 -259t-304.5 -90q-230 0 -375 148q-141 150 -141 393q0 240 143 389q145 154 373 154zM692 1462h211q0 -136 -92 -225q-92 -86 -238 -86q-141 0 -233 86
q-92 89 -92 225h211q0 -63 30.5 -101t85.5 -38q53 0 85 39t32 100zM344 623h453q-2 98 -61.5 157.5t-157.5 59.5q-97 0 -160 -59.5t-74 -157.5z" />
    <glyph glyph-name="Edotaccent" unicode="&#x116;" horiz-adv-x="1062" 
d="M145 1434h826v-263h-545v-303h471v-264h-471v-342h545v-262h-826v1434zM578 1788q62 0 105.5 -42.5t43.5 -103.5q0 -62 -43.5 -104.5t-105.5 -42.5q-66 0 -109 42t-43 105q0 61 44.5 103.5t107.5 42.5z" />
    <glyph glyph-name="edotaccent" unicode="&#x117;" horiz-adv-x="1144" 
d="M584 1061q220 0 350.5 -140.5t130.5 -400.5v-82h-723q6 -105 74 -169t176 -64q162 0 209 121h258q-50 -169 -170.5 -259t-304.5 -90q-230 0 -375 148q-141 150 -141 393q0 240 143 389q145 154 373 154zM459 1442q47 44 114.5 44t114.5 -44q50 -44 50 -112.5t-50 -112.5
q-47 -44 -114.5 -44t-114.5 44q-44 44 -44 112.5t44 112.5zM344 623h453q-2 98 -61.5 157.5t-157.5 59.5q-97 0 -160 -59.5t-74 -157.5z" />
    <glyph glyph-name="Eogonek" unicode="&#x118;" horiz-adv-x="1062" 
d="M145 1434h826v-263h-545v-303h471v-264h-471v-342h545v-262h-27q-145 -59 -145 -178q0 -50 26.5 -77.5t75.5 -27.5q42 0 82 19l31 -129q-45 -25 -123 -25q-117 0 -187.5 62.5t-70.5 171.5q0 114 82 184h-570v1434z" />
    <glyph glyph-name="eogonek" unicode="&#x119;" horiz-adv-x="1144" 
d="M584 1061q220 0 350.5 -140.5t130.5 -400.5v-82h-723q6 -105 74 -169t176 -64q162 0 209 121h258q-65 -225 -256 -308q-68 -53 -68 -135q0 -50 27 -77t76 -27q44 0 82 18l30 -129q-44 -24 -123 -24q-117 0 -187.5 62t-70.5 171q0 59 21 100h-6q-230 0 -375 148
q-141 150 -141 393q0 240 143 389q145 154 373 154zM344 623h453q-2 98 -61.5 157.5t-157.5 59.5q-97 0 -160 -59.5t-74 -157.5z" />
    <glyph glyph-name="Ecaron" unicode="&#x11a;" horiz-adv-x="1062" 
d="M145 1434h826v-263h-545v-303h471v-264h-471v-342h545v-262h-826v1434zM672 1755h286l-315 -260h-149l-316 260h285l104 -104z" />
    <glyph glyph-name="ecaron" unicode="&#x11b;" horiz-adv-x="1144" 
d="M584 1061q220 0 350.5 -140.5t130.5 -400.5v-82h-723q6 -105 74 -169t176 -64q162 0 209 121h258q-50 -169 -170.5 -259t-304.5 -90q-230 0 -375 148q-141 150 -141 393q0 240 143 389q145 154 373 154zM688 1479h270l-286 -324h-197l-285 324h269l114 -162zM344 623h453
q-2 98 -61.5 157.5t-157.5 59.5q-97 0 -160 -59.5t-74 -157.5z" />
    <glyph glyph-name="Gcircumflex" unicode="&#x11c;" horiz-adv-x="1564" 
d="M793 1460q259 0 427.5 -129t229.5 -360h-309q-82 227 -355 227q-184 0 -301 -135q-116 -134 -116 -344q0 -212 118 -348q120 -135 312 -135q159 0 254.5 73t105.5 203h-342v262h643v-125q0 -315 -182 -497q-182 -179 -479 -179q-318 0 -520 211q-203 212 -203 535
q0 321 200 530q202 211 517 211zM717 1782h149l316 -260h-287l-104 104l-105 -104h-285z" />
    <glyph glyph-name="gcircumflex" unicode="&#x11d;" horiz-adv-x="1073" 
d="M676 1038h393v-225h-154q21 -62 21 -121q0 -157 -115 -260q-112 -100 -295 -100q-101 0 -172 26q-24 -30 -24 -75q0 -41 27 -63.5t77 -22.5h244q162 0 251 -77t89 -222q0 -170 -123 -265.5t-336 -95.5q-230 0 -350.5 82.5t-120.5 237.5q0 115 105 182q-121 83 -121 223
q0 132 106 219q-72 93 -72 211q0 163 119 264q120 105 301 105q73 0 150 -23zM436 1499h197l287 -323h-271l-114 159l-115 -159h-268zM610 -4h-155q-48 -6 -77.5 -37.5t-29.5 -81.5q0 -68 56.5 -104.5t156.5 -36.5q94 0 145.5 37t51.5 108q0 115 -148 115zM369 692
q0 -72 43 -118t112 -46t111.5 46t42.5 118q0 75 -42.5 121.5t-111.5 46.5t-112 -46.5t-43 -121.5z" />
    <glyph glyph-name="Gbreve" unicode="&#x11e;" horiz-adv-x="1564" 
d="M793 1460q259 0 427.5 -129t229.5 -360h-309q-82 227 -355 227q-184 0 -301 -135q-116 -134 -116 -344q0 -212 118 -348q120 -135 312 -135q159 0 254.5 73t105.5 203h-342v262h643v-125q0 -315 -182 -497q-182 -179 -479 -179q-318 0 -520 211q-203 212 -203 535
q0 321 200 530q202 211 517 211zM907 1798h213q0 -129 -91 -208t-238 -79q-143 0 -234.5 80t-91.5 207h211q0 -52 31 -82t86 -30q53 0 83.5 30t30.5 82z" />
    <glyph glyph-name="gbreve" unicode="&#x11f;" horiz-adv-x="1073" 
d="M676 1038h393v-225h-154q21 -62 21 -121q0 -157 -115 -260q-112 -100 -295 -100q-101 0 -172 26q-24 -30 -24 -75q0 -41 27 -63.5t77 -22.5h244q162 0 251 -77t89 -222q0 -170 -123 -265.5t-336 -95.5q-230 0 -350.5 82.5t-120.5 237.5q0 115 105 182q-121 83 -121 223
q0 132 106 219q-72 93 -72 211q0 163 119 264q120 105 301 105q73 0 150 -23zM653 1462h211q0 -136 -92 -225q-92 -86 -237 -86q-142 0 -234 86q-92 89 -92 225h211q0 -63 31 -101t86 -38q53 0 84.5 39t31.5 100zM610 -4h-155q-48 -6 -77.5 -37.5t-29.5 -81.5
q0 -68 56.5 -104.5t156.5 -36.5q94 0 145.5 37t51.5 108q0 115 -148 115zM369 692q0 -72 43 -118t112 -46t111.5 46t42.5 118q0 75 -42.5 121.5t-111.5 46.5t-112 -46.5t-43 -121.5z" />
    <glyph glyph-name="Gdotaccent" unicode="&#x120;" horiz-adv-x="1564" 
d="M793 1460q259 0 427.5 -129t229.5 -360h-309q-82 227 -355 227q-184 0 -301 -135q-116 -134 -116 -344q0 -212 118 -348q120 -135 312 -135q159 0 254.5 73t105.5 203h-342v262h643v-125q0 -315 -182 -497q-182 -179 -479 -179q-318 0 -520 211q-203 212 -203 535
q0 321 200 530q202 211 517 211zM793 1808q62 0 105.5 -42t43.5 -103q0 -62 -43.5 -104.5t-105.5 -42.5q-66 0 -109 42t-43 105q0 61 44.5 103t107.5 42z" />
    <glyph glyph-name="gdotaccent" unicode="&#x121;" horiz-adv-x="1073" 
d="M676 1038h393v-225h-154q21 -62 21 -121q0 -157 -115 -260q-112 -100 -295 -100q-101 0 -172 26q-24 -30 -24 -75q0 -41 27 -63.5t77 -22.5h244q162 0 251 -77t89 -222q0 -170 -123 -265.5t-336 -95.5q-230 0 -350.5 82.5t-120.5 237.5q0 115 105 182q-121 83 -121 223
q0 132 106 219q-72 93 -72 211q0 163 119 264q120 105 301 105q73 0 150 -23zM610 -4h-155q-48 -6 -77.5 -37.5t-29.5 -81.5q0 -68 56.5 -104.5t156.5 -36.5q94 0 145.5 37t51.5 108q0 115 -148 115zM369 692q0 -72 43 -118t112 -46t111.5 46t42.5 118q0 75 -42.5 121.5
t-111.5 46.5t-112 -46.5t-43 -121.5zM424 1442q47 44 114.5 44t114.5 -44q49 -44 49 -112.5t-49 -112.5q-47 -44 -114.5 -44t-114.5 44q-44 44 -44 112.5t44 112.5z" />
    <glyph glyph-name="Gcommaaccent" unicode="&#x122;" horiz-adv-x="1564" 
d="M793 1460q259 0 427.5 -129t229.5 -360h-309q-82 227 -355 227q-184 0 -301 -135q-116 -134 -116 -344q0 -212 118 -348q120 -135 312 -135q159 0 254.5 73t105.5 203h-342v262h643v-125q0 -315 -182 -497q-182 -179 -479 -179q-318 0 -520 211q-203 212 -203 535
q0 321 200 530q202 211 517 211zM795 -90q70 0 114.5 -48.5t44.5 -125.5q0 -88 -47 -185t-123 -174l-73 31q49 86 59 195q-60 8 -97.5 48.5t-37.5 100.5q0 66 46.5 112t113.5 46z" />
    <glyph glyph-name="gcommaaccent" unicode="&#x123;" horiz-adv-x="1073" 
d="M676 1038h393v-225h-154q21 -62 21 -121q0 -157 -115 -260q-112 -100 -295 -100q-101 0 -172 26q-24 -30 -24 -75q0 -41 27 -63.5t77 -22.5h244q162 0 251 -77t89 -222q0 -170 -123 -265.5t-336 -95.5q-230 0 -350.5 82.5t-120.5 237.5q0 115 105 182q-121 83 -121 223
q0 132 106 219q-72 93 -72 211q0 163 119 264q120 105 301 105q73 0 150 -23zM547 1726l78 -26q-50 -103 -62 -234q58 -8 95.5 -49t37.5 -100q0 -66 -45.5 -112t-111.5 -46q-70 0 -116 48.5t-46 125.5q1 97 48 203.5t122 189.5zM610 -4h-155q-48 -6 -77.5 -37.5t-29.5 -81.5
q0 -68 56.5 -104.5t156.5 -36.5q94 0 145.5 37t51.5 108q0 115 -148 115zM369 692q0 -72 43 -118t112 -46t111.5 46t42.5 118q0 75 -42.5 121.5t-111.5 46.5t-112 -46.5t-43 -121.5z" />
    <glyph glyph-name="Hcircumflex" unicode="&#x124;" horiz-adv-x="1468" 
d="M1040 1434h283v-1434h-283v610h-614v-610h-281v1434h281v-560h614v560zM657 1761h150l315 -260h-286l-105 105l-104 -105h-285z" />
    <glyph glyph-name="hcircumflex" unicode="&#x125;" horiz-adv-x="1130" 
d="M141 1495h265v-565q88 131 264 131q162 0 249 -102.5t87 -284.5v-674h-269v616q0 187 -147 187q-84 0 -134 -66.5t-50 -187.5v-549h-265v1495zM207 1815h149l316 -261h-287l-104 105l-105 -105h-285z" />
    <glyph glyph-name="Hbar" unicode="&#x126;" horiz-adv-x="1503" 
d="M1057 1434h282v-164h148v-197h-148v-1073h-282v610h-615v-610h-280v1073h-144v197h144v164h280v-164h615v164zM442 1073v-199h615v199h-615z" />
    <glyph glyph-name="hbar" unicode="&#x127;" horiz-adv-x="1140" 
d="M152 1495h264v-94h182v-197h-182v-274q88 131 264 131q162 0 249 -102.5t87 -284.5v-674h-268v616q0 187 -148 187q-84 0 -134 -66.5t-50 -187.5v-549h-264v1204h-142v197h142v94z" />
    <glyph glyph-name="Itilde" unicode="&#x128;" horiz-adv-x="571" 
d="M156 1790q54 0 97 -19.5t64 -46.5q49 -65 105 -65q67 0 67 113h158q0 -137 -57 -213t-170 -76q-54 0 -98 19t-66 46q-50 66 -102 66q-70 0 -70 -113h-156q0 137 57.5 213t170.5 76zM145 1434h281v-1434h-281v1434z" />
    <glyph glyph-name="itilde" unicode="&#x129;" 
d="M145 1477q53 0 97 -20.5t65 -47.5q52 -68 105 -68q67 0 67 117h158q0 -137 -57 -215t-170 -78q-53 0 -97 20.5t-65 47.5q-50 70 -105 70q-69 0 -69 -119h-156q0 139 57 216t170 77zM143 1038h267v-1038h-267v1038z" />
    <glyph glyph-name="Imacron" unicode="&#x12a;" horiz-adv-x="571" 
d="M145 1434h281v-1434h-281v1434zM0 1710h571v-199h-571v199z" />
    <glyph glyph-name="imacron" unicode="&#x12b;" 
d="M143 1038h267v-1038h-267v1038zM-10 1403h571v-199h-571v199z" />
    <glyph glyph-name="Ibreve" unicode="&#x12c;" horiz-adv-x="571" 
d="M399 1778h213q0 -129 -91 -208t-238 -79q-143 0 -234.5 80t-91.5 207h211q0 -52 31 -82.5t86 -30.5q53 0 83.5 30.5t30.5 82.5zM145 1434h281v-1434h-281v1434z" />
    <glyph glyph-name="ibreve" unicode="&#x12d;" 
d="M393 1462h211q0 -136 -92 -225q-92 -86 -238 -86q-141 0 -233 86q-92 89 -92 225h211q0 -63 30.5 -101t85.5 -38q53 0 85 39t32 100zM143 1038h267v-1038h-267v1038z" />
    <glyph glyph-name="Iogonek" unicode="&#x12e;" horiz-adv-x="571" 
d="M145 1434h281v-1434h-76q-145 -59 -145 -178q0 -50 26.5 -77.5t75.5 -27.5q42 0 82 19l31 -129q-45 -25 -123 -25q-117 0 -187.5 62.5t-70.5 171.5q0 127 106 202v1416z" />
    <glyph glyph-name="iogonek" unicode="&#x12f;" 
d="M143 1038h267v-1038h-50q-145 -59 -145 -178q0 -50 26.5 -77.5t75.5 -27.5q42 0 82 19l31 -129q-45 -25 -123 -25q-117 0 -187.5 62.5t-70.5 171.5q0 121 94 194v1028zM276 1501q66 0 114 -46t48 -112q0 -67 -47 -112t-115 -45t-114.5 45t-46.5 112q0 66 47 112t114 46z
" />
    <glyph glyph-name="Idot" unicode="&#x130;" horiz-adv-x="571" 
d="M285 1788q62 0 105.5 -42.5t43.5 -103.5q0 -62 -43.5 -104.5t-105.5 -42.5q-66 0 -109 42t-43 105q0 61 44.5 103.5t107.5 42.5zM145 1434h281v-1434h-281v1434z" />
    <glyph glyph-name="dotlessi" unicode="&#x131;" 
d="M143 1038h267v-1038h-267v1038z" />
    <glyph glyph-name="Jcircumflex" unicode="&#x134;" horiz-adv-x="1087" 
d="M678 1434h283v-996q0 -224 -113.5 -338t-329.5 -114q-225 0 -343 127.5t-124 359.5h281q9 -223 186 -223q160 0 160 207v977zM745 1761h150l315 -260h-286l-105 105l-104 -105h-285z" />
    <glyph glyph-name="jcircumflex" unicode="&#x135;" 
d="M143 1038h267v-1085q0 -210 -91 -313t-260 -103q-102 0 -170 21v237q56 -16 119 -16q71 0 103 43.5t32 138.5v1077zM180 1499h197l287 -323h-271l-114 159l-115 -159h-268z" />
    <glyph glyph-name="Kcommaaccent" unicode="&#x136;" horiz-adv-x="1398" 
d="M936 1434h342l-449 -643l541 -791h-338l-395 565l-205 -266v-299h-282v1434h282v-727zM713 -70q70 0 114.5 -48.5t44.5 -125.5q0 -88 -47 -184t-123 -174l-73 31q49 86 59 194q-60 8 -97.5 49t-37.5 101q0 66 46.5 111.5t113.5 45.5z" />
    <glyph glyph-name="kcommaaccent" unicode="&#x137;" horiz-adv-x="1105" 
d="M145 1495h267v-877l303 420h317l-305 -436l358 -602h-303l-241 397l-129 -164v-233h-267v1495zM586 -70q70 0 114.5 -48.5t44.5 -125.5q0 -88 -47 -184t-123 -174l-73 31q49 86 59 194q-60 8 -97.5 49t-37.5 101q0 66 46.5 111.5t113.5 45.5z" />
    <glyph glyph-name="Lacute" unicode="&#x139;" horiz-adv-x="1069" 
d="M143 1434h283v-1172h596v-262h-879v1434zM313 1749h367l-293 -246h-264z" />
    <glyph glyph-name="lacute" unicode="&#x13a;" 
d="M143 1495h267v-1495h-267v1495zM338 1827h367l-293 -246h-265z" />
    <glyph glyph-name="Lcommaaccent" unicode="&#x13b;" horiz-adv-x="1069" 
d="M596 -70q70 0 115 -48.5t45 -125.5q0 -88 -47 -184t-123 -174l-74 31q49 86 59 194q-60 8 -97.5 49t-37.5 101q0 66 46.5 111.5t113.5 45.5zM143 1434h283v-1172h596v-262h-879v1434z" />
    <glyph glyph-name="lcommaaccent" unicode="&#x13c;" 
d="M274 -70q70 0 115 -48.5t45 -125.5q0 -88 -47 -184t-123 -174l-74 31q51 88 60 194q-60 8 -97.5 49t-37.5 101q0 66 46 111.5t113 45.5zM143 1495h267v-1495h-267v1495z" />
    <glyph glyph-name="Lcaron" unicode="&#x13d;" horiz-adv-x="1069" 
d="M913 1446q70 0 115 -48.5t45 -125.5q0 -96 -47 -202.5t-123 -190.5l-76 26q50 106 64 234q-61 8 -99 49t-38 100q0 66 46.5 112t112.5 46zM143 1434h283v-1172h596v-262h-879v1434z" />
    <glyph glyph-name="lcaron" unicode="&#x13e;" horiz-adv-x="868" 
d="M690 1509q70 0 115 -48.5t45 -125.5q0 -96 -47 -202.5t-123 -190.5l-76 27q50 106 64 233q-61 8 -99.5 49.5t-38.5 100.5q0 66 47 111.5t113 45.5zM143 1495h267v-1495h-267v1495z" />
    <glyph glyph-name="Ldot" unicode="&#x13f;" horiz-adv-x="1069" 
d="M143 1434h283v-1172h596v-262h-879v1434zM829 872q68 0 116 -47t48 -114t-48 -114.5t-116 -47.5q-69 0 -116 46.5t-47 115.5t47 115t116 46z" />
    <glyph glyph-name="ldot" unicode="&#x140;" horiz-adv-x="933" 
d="M707 692q68 0 115.5 -47.5t47.5 -114.5t-47.5 -114t-115.5 -47q-69 0 -116.5 46t-47.5 115t47.5 115.5t116.5 46.5zM143 1495h267v-1495h-267v1495z" />
    <glyph glyph-name="Lslash" unicode="&#x141;" horiz-adv-x="1107" 
d="M180 1434h283v-592l164 59l61 -184l-225 -82v-373h596v-262h-879v532l-145 -51l-62 185l207 73v695z" />
    <glyph glyph-name="lslash" unicode="&#x142;" horiz-adv-x="638" 
d="M184 1495h267v-659l145 53l63 -184l-208 -78v-627h-267v528l-143 -51l-61 185l204 75v758z" />
    <glyph glyph-name="Nacute" unicode="&#x143;" horiz-adv-x="1497" 
d="M1071 1434h283v-1434h-283l-590 866l-55 95v-961h-281v1434h279l588 -869l59 -98v967zM776 1749h367l-293 -246h-264z" />
    <glyph glyph-name="nacute" unicode="&#x144;" horiz-adv-x="1150" 
d="M670 1061q162 0 249 -102.5t87 -284.5v-674h-269v616q0 187 -147 187q-84 0 -134 -66.5t-50 -187.5v-549h-265v1038h228l20 -135q84 158 281 158zM682 1499h326l-316 -323h-227z" />
    <glyph glyph-name="Ncommaaccent" unicode="&#x145;" horiz-adv-x="1497" 
d="M1071 1434h283v-1434h-283l-590 866l-55 95v-961h-281v1434h279l588 -869l59 -98v967zM745 -70q70 0 115 -48.5t45 -125.5q0 -88 -47 -184t-123 -174l-73 31q49 86 59 194q-60 8 -97.5 49t-37.5 101q0 66 46 111.5t113 45.5z" />
    <glyph glyph-name="ncommaaccent" unicode="&#x146;" horiz-adv-x="1150" 
d="M670 1061q162 0 249 -102.5t87 -284.5v-674h-269v616q0 187 -147 187q-84 0 -134 -66.5t-50 -187.5v-549h-265v1038h228l20 -135q84 158 281 158zM571 -70q70 0 115 -48.5t45 -125.5q0 -88 -47 -184t-123 -174l-74 31q51 88 60 194q-60 8 -97.5 49t-37.5 101
q0 66 46 111.5t113 45.5z" />
    <glyph glyph-name="Ncaron" unicode="&#x147;" horiz-adv-x="1497" 
d="M1071 1434h283v-1434h-283l-590 866l-55 95v-961h-281v1434h279l588 -869l59 -98v967zM852 1755h287l-316 -260h-149l-316 260h285l105 -104z" />
    <glyph glyph-name="ncaron" unicode="&#x148;" horiz-adv-x="1150" 
d="M670 1061q162 0 249 -102.5t87 -284.5v-674h-269v616q0 187 -147 187q-84 0 -134 -66.5t-50 -187.5v-549h-265v1038h228l20 -135q84 158 281 158zM698 1479h271l-287 -324h-197l-284 324h268l115 -162z" />
    <glyph glyph-name="Eng" unicode="&#x14a;" horiz-adv-x="1497" 
d="M1071 1434h283v-1434q-1 -218 -119 -329t-340 -111v250q86 0 131 48.5t45 139.5v2l-590 866l-55 95v-961h-281v1434h279l588 -869l59 -98v967z" />
    <glyph glyph-name="eng" unicode="&#x14b;" horiz-adv-x="1130" 
d="M670 1061q162 0 249 -102.5t87 -284.5v-721q0 -210 -113 -313t-320 -103v242q87 0 125.5 43.5t38.5 138.5v655q0 187 -147 187q-84 0 -134 -66.5t-50 -187.5v-549h-265v1038h228l20 -135q84 158 281 158z" />
    <glyph glyph-name="Omacron" unicode="&#x14c;" horiz-adv-x="1636" 
d="M819 1460q325 0 533 -211q209 -209 209 -530q0 -323 -209 -535q-208 -211 -533 -211q-326 0 -534 211q-209 212 -209 535q0 321 209 530q208 211 534 211zM819 1198q-201 0 -327 -135q-123 -135 -123 -344q0 -210 123 -348q126 -135 327 -135t324 135q125 137 125 348
q0 210 -125 344q-123 135 -324 135zM532 1731h572v-199h-572v199z" />
    <glyph glyph-name="omacron" unicode="&#x14d;" horiz-adv-x="1224" 
d="M610 1061q236 0 391 -152q156 -150 156 -389q0 -241 -156 -391q-155 -152 -391 -152q-234 0 -389 152q-153 150 -153 391q0 239 153 389q155 152 389 152zM612 819q-117 0 -194 -86q-76 -82 -76 -213q0 -130 76 -215q78 -84 194 -84q118 0 193.5 84.5t75.5 214.5
q0 132 -74 215.5t-195 83.5zM326 1403h571v-199h-571v199z" />
    <glyph glyph-name="Obreve" unicode="&#x14e;" horiz-adv-x="1636" 
d="M819 1460q325 0 533 -211q209 -209 209 -530q0 -323 -209 -535q-208 -211 -533 -211q-326 0 -534 211q-209 212 -209 535q0 321 209 530q208 211 534 211zM819 1198q-201 0 -327 -135q-123 -135 -123 -344q0 -210 123 -348q126 -135 327 -135t324 135q125 137 125 348
q0 210 -125 344q-123 135 -324 135zM932 1798h213q0 -129 -91.5 -208t-238.5 -79q-143 0 -234.5 80t-91.5 207h211q0 -52 31 -82t86 -30q54 0 84.5 30.5t30.5 81.5z" />
    <glyph glyph-name="obreve" unicode="&#x14f;" horiz-adv-x="1224" 
d="M610 1061q236 0 391 -152q156 -150 156 -389q0 -241 -156 -391q-155 -152 -391 -152q-234 0 -389 152q-153 150 -153 391q0 239 153 389q155 152 389 152zM612 819q-117 0 -194 -86q-76 -82 -76 -213q0 -130 76 -215q78 -84 194 -84q118 0 193.5 84.5t75.5 214.5
q0 132 -74 215.5t-195 83.5zM729 1462h211q0 -136 -92 -225q-92 -86 -238 -86q-141 0 -233 86q-92 89 -92 225h211q0 -63 30.5 -101t85.5 -38q53 0 85 39t32 100z" />
    <glyph glyph-name="Ohungarumlaut" unicode="&#x150;" horiz-adv-x="1636" 
d="M819 1460q325 0 533 -211q209 -209 209 -530q0 -323 -209 -535q-208 -211 -533 -211q-326 0 -534 211q-209 212 -209 535q0 321 209 530q208 211 534 211zM819 1198q-201 0 -327 -135q-123 -135 -123 -344q0 -210 123 -348q126 -135 327 -135t324 135q125 137 125 348
q0 210 -125 344q-123 135 -324 135zM653 1780h273l-207 -264h-221zM1042 1780h273l-207 -264h-221z" />
    <glyph glyph-name="ohungarumlaut" unicode="&#x151;" horiz-adv-x="1224" 
d="M610 1061q236 0 391 -152q156 -150 156 -389q0 -241 -156 -391q-155 -152 -391 -152q-234 0 -389 152q-153 150 -153 391q0 239 153 389q155 152 389 152zM612 819q-117 0 -194 -86q-76 -82 -76 -213q0 -130 76 -215q78 -84 194 -84q118 0 193.5 84.5t75.5 214.5
q0 132 -74 215.5t-195 83.5zM453 1499h272l-217 -323h-219zM852 1499h272l-217 -323h-219z" />
    <glyph glyph-name="OE" unicode="&#x152;" horiz-adv-x="2211" 
d="M1280 1434h825v-263h-544v-303h471v-264h-471v-342h544v-262h-825v127q-189 -154 -449 -154q-325 0 -536 211q-209 212 -209 535q0 321 209 530q211 211 536 211q259 0 449 -153v127zM831 1198q-201 0 -327 -135q-123 -132 -123 -344q0 -210 123 -348q126 -135 327 -135
q195 0 318 129q125 131 131 333v21q0 210 -125 344q-123 135 -324 135z" />
    <glyph glyph-name="oe" unicode="&#x153;" horiz-adv-x="1957" 
d="M610 1061q251 0 404 -164q147 164 383 164q220 0 350.5 -140.5t130.5 -400.5v-82h-723q6 -105 74 -169t176 -64q162 0 209 121h258q-50 -169 -170.5 -259t-304.5 -90q-243 0 -385 160q-157 -160 -402 -160q-234 0 -389 152q-153 150 -153 391q0 239 153 389
q155 152 389 152zM612 819q-118 0 -194 -84.5t-76 -214.5t76 -214.5t194 -84.5q116 0 190 80.5t79 206.5v12q0 132 -74 215.5t-195 83.5zM1157 623h453q-2 98 -61.5 157.5t-157.5 59.5q-97 0 -160 -59.5t-74 -157.5z" />
    <glyph glyph-name="Racute" unicode="&#x154;" horiz-adv-x="1187" 
d="M145 1434h443q227 0 366 -127q138 -126 138 -330q0 -133 -65.5 -234t-184.5 -155l311 -588h-322l-278 537h-127v-537h-281v1434zM588 1171h-162v-385h162q101 0 158 49t57 142t-57 143.5t-158 50.5zM618 1749h367l-293 -246h-264z" />
    <glyph glyph-name="racute" unicode="&#x155;" horiz-adv-x="755" 
d="M702 1049v-267q-127 0 -206 -61q-78 -63 -84 -193v-528h-267v1038h230l24 -166q31 82 107.5 129.5t195.5 47.5zM510 1499h326l-316 -323h-227z" />
    <glyph glyph-name="Rcommaaccent" unicode="&#x156;" horiz-adv-x="1187" 
d="M145 1434h443q227 0 366 -127q138 -126 138 -330q0 -133 -65.5 -234t-184.5 -155l311 -588h-322l-278 537h-127v-537h-281v1434zM588 1171h-162v-385h162q101 0 158 49t57 142t-57 143.5t-158 50.5zM612 -70q70 0 115 -48.5t45 -125.5q0 -88 -47 -184t-123 -174l-74 31
q51 88 60 194q-60 8 -97.5 49t-37.5 101q0 66 46 111.5t113 45.5z" />
    <glyph glyph-name="rcommaaccent" unicode="&#x157;" horiz-adv-x="755" 
d="M702 1049v-267q-127 0 -206 -61q-78 -63 -84 -193v-528h-267v1038h230l24 -166q31 82 107.5 129.5t195.5 47.5zM274 -70q70 0 115 -48.5t45 -125.5q0 -88 -47 -184t-123 -174l-74 31q51 88 60 194q-60 8 -97.5 49t-37.5 101q0 66 46 111.5t113 45.5z" />
    <glyph glyph-name="Rcaron" unicode="&#x158;" horiz-adv-x="1187" 
d="M145 1434h443q227 0 366 -127q138 -126 138 -330q0 -133 -65.5 -234t-184.5 -155l311 -588h-322l-278 537h-127v-537h-281v1434zM588 1171h-162v-385h162q101 0 158 49t57 142t-57 143.5t-158 50.5zM678 1755h287l-316 -260h-149l-316 260h285l104 -104z" />
    <glyph glyph-name="rcaron" unicode="&#x159;" horiz-adv-x="755" 
d="M702 1049v-267q-127 0 -206 -61q-78 -63 -84 -193v-528h-267v1038h230l24 -166q31 82 107.5 129.5t195.5 47.5zM541 1479h270l-287 -324h-196l-285 324h268l115 -162z" />
    <glyph glyph-name="Sacute" unicode="&#x15a;" horiz-adv-x="1124" 
d="M559 1460q206 0 326 -110.5t127 -317.5h-285q-1 83 -49 130.5t-125 47.5q-76 0 -119 -40t-43 -113q0 -74 53 -115q43 -33 199 -90q225 -75 319.5 -177t94.5 -267q0 -203 -135 -320q-133 -115 -342 -115q-235 0 -367.5 125.5t-138.5 339.5h284q9 -217 226 -217
q87 0 137.5 44.5t50.5 117.5q0 71 -58 118.5t-196 92.5q-215 69 -313.5 169.5t-98.5 268.5q0 188 121 309q122 119 332 119zM588 1769h366l-292 -245h-265z" />
    <glyph glyph-name="sacute" unicode="&#x15b;" horiz-adv-x="942" 
d="M471 1061q165 0 270 -90.5t111 -237.5h-264q-3 119 -119 119q-55 0 -85 -27t-30 -75q0 -50 39 -75t144 -44q181 -30 259 -106t78 -210q0 -162 -110.5 -250t-290.5 -88q-187 0 -293.5 90.5t-111.5 247.5h262q3 -127 149 -127q62 0 95.5 26t33.5 73q0 52 -40 80.5
t-148 48.5q-170 29 -251 104t-81 203q0 147 100 240q101 98 283 98zM553 1499h326l-316 -323h-227z" />
    <glyph glyph-name="Scircumflex" unicode="&#x15c;" horiz-adv-x="1124" 
d="M559 1460q206 0 326 -110.5t127 -317.5h-285q-1 83 -49 130.5t-125 47.5q-76 0 -119 -40t-43 -113q0 -74 53 -115q43 -33 199 -90q225 -75 319.5 -177t94.5 -267q0 -203 -135 -320q-133 -115 -342 -115q-235 0 -367.5 125.5t-138.5 339.5h284q9 -217 226 -217
q87 0 137.5 44.5t50.5 117.5q0 71 -58 118.5t-196 92.5q-215 69 -313.5 169.5t-98.5 268.5q0 188 121 309q122 119 332 119zM485 1782h150l315 -260h-286l-105 104l-104 -104h-285z" />
    <glyph glyph-name="scircumflex" unicode="&#x15d;" horiz-adv-x="942" 
d="M471 1061q165 0 270 -90.5t111 -237.5h-264q-3 119 -119 119q-55 0 -85 -27t-30 -75q0 -50 39 -75t144 -44q181 -30 259 -106t78 -210q0 -162 -110.5 -250t-290.5 -88q-187 0 -293.5 90.5t-111.5 247.5h262q3 -127 149 -127q62 0 95.5 26t33.5 73q0 52 -40 80.5
t-148 48.5q-170 29 -251 104t-81 203q0 147 100 240q101 98 283 98zM371 1499h196l287 -323h-270l-115 159l-115 -159h-268z" />
    <glyph glyph-name="Scedilla" unicode="&#x15e;" horiz-adv-x="1124" 
d="M559 1460q206 0 326 -110.5t127 -317.5h-285q-1 83 -49 130.5t-125 47.5q-76 0 -119 -40t-43 -113q0 -74 53 -115q43 -33 199 -90q225 -75 319.5 -177t94.5 -267q0 -183 -115.5 -298t-304.5 -133l-19 -81q83 -5 131 -50t48 -122q0 -91 -63 -143t-165 -52q-117 0 -188 65
l80 115q41 -47 104 -47q72 0 72 59q0 62 -74 62q-13 0 -55 -10l-37 12l43 192q-207 17 -321 139.5t-119 321.5h284q9 -217 226 -217q87 0 137.5 44.5t50.5 117.5q0 71 -58 118.5t-196 92.5q-215 69 -313.5 169.5t-98.5 268.5q0 188 121 309q122 119 332 119z" />
    <glyph glyph-name="scedilla" unicode="&#x15f;" horiz-adv-x="942" 
d="M471 1061q165 0 270 -90.5t111 -237.5h-264q-3 119 -119 119q-55 0 -85 -27t-30 -75q0 -50 39 -75t144 -44q181 -30 259 -106t78 -210q0 -148 -91.5 -233.5t-245.5 -99.5l-19 -86q83 -5 130.5 -50t47.5 -122q0 -91 -62.5 -143t-164.5 -52q-117 0 -188 65l79 115
q41 -47 105 -47q72 0 72 59q0 62 -74 62q-17 0 -55 -10l-37 12l43 195q-160 13 -250.5 102t-95.5 233h262q3 -127 149 -127q62 0 95.5 26t33.5 73q0 52 -40 80.5t-148 48.5q-170 29 -251 104t-81 203q0 147 100 240q101 98 283 98z" />
    <glyph glyph-name="Scaron" unicode="&#x160;" horiz-adv-x="1124" 
d="M559 1460q206 0 326 -110.5t127 -317.5h-285q-1 83 -49 130.5t-125 47.5q-76 0 -119 -40t-43 -113q0 -74 53 -115q43 -33 199 -90q225 -75 319.5 -177t94.5 -267q0 -203 -135 -320q-133 -115 -342 -115q-235 0 -367.5 125.5t-138.5 339.5h284q9 -217 226 -217
q87 0 137.5 44.5t50.5 117.5q0 71 -58 118.5t-196 92.5q-215 69 -313.5 169.5t-98.5 268.5q0 188 121 309q122 119 332 119zM664 1776h286l-315 -260h-150l-315 260h285l104 -105z" />
    <glyph glyph-name="scaron" unicode="&#x161;" horiz-adv-x="942" 
d="M471 1061q165 0 270 -90.5t111 -237.5h-264q-3 119 -119 119q-55 0 -85 -27t-30 -75q0 -50 39 -75t144 -44q181 -30 259 -106t78 -210q0 -162 -110.5 -250t-290.5 -88q-187 0 -293.5 90.5t-111.5 247.5h262q3 -127 149 -127q62 0 95.5 26t33.5 73q0 52 -40 80.5
t-148 48.5q-170 29 -251 104t-81 203q0 147 100 240q101 98 283 98zM584 1479h270l-287 -324h-196l-285 324h268l115 -162z" />
    <glyph glyph-name="Tcommaaccent" unicode="&#x162;" horiz-adv-x="1259" 
d="M23 1434h1214v-263h-467v-1171h-281v1171h-466v263zM629 -70q70 0 114.5 -48.5t44.5 -125.5q0 -88 -47 -184t-123 -174l-73 31q49 86 59 194q-60 8 -97.5 49t-37.5 101q0 66 46.5 111.5t113.5 45.5z" />
    <glyph glyph-name="tcommaaccent" unicode="&#x163;" horiz-adv-x="776" 
d="M203 1290h268l-2 -252h238v-241h-240l-4 -420q0 -82 30 -116t105 -34q56 0 109 15v-234q-61 -22 -168 -22q-175 0 -259 78.5t-83 248.5l4 484h-170v241h170zM436 -84q70 0 115 -48.5t45 -125.5q0 -88 -47 -184t-123 -174l-74 30q51 88 60 195q-60 8 -98 48.5t-38 100.5
q0 66 46.5 112t113.5 46z" />
    <glyph glyph-name="Tcaron" unicode="&#x164;" horiz-adv-x="1259" 
d="M23 1434h1214v-263h-467v-1171h-281v1171h-466v263zM731 1755h287l-316 -260h-149l-315 260h284l105 -104z" />
    <glyph glyph-name="tcaron" unicode="&#x165;" horiz-adv-x="1087" 
d="M203 1290h268l-2 -252h238v-241h-240l-4 -420q0 -82 30 -116t105 -34q56 0 109 15v-234q-61 -22 -168 -22q-175 0 -259 78.5t-83 248.5l4 484h-170v241h170zM909 1509q70 0 115 -48.5t45 -125.5q0 -96 -47 -202.5t-123 -190.5l-76 27q50 106 64 233q-60 8 -98.5 49
t-38.5 101q0 66 46.5 111.5t112.5 45.5z" />
    <glyph glyph-name="Tbar" unicode="&#x166;" horiz-adv-x="1259" 
d="M23 1434h1214v-263h-467v-391h295v-194h-295v-586h-281v586h-294v194h294v391h-466v263z" />
    <glyph glyph-name="tbar" unicode="&#x167;" horiz-adv-x="776" 
d="M203 1290h268l-2 -252h238v-209h-240l-2 -172h242v-208h-244v-72q0 -82 30 -116t105 -34q56 0 109 15v-234q-61 -22 -168 -22q-175 0 -259 78.5t-83 248.5v136h-166v208h168l2 172h-170v209h170z" />
    <glyph glyph-name="Utilde" unicode="&#x168;" horiz-adv-x="1419" 
d="M578 1790q54 0 97 -19.5t64 -46.5q49 -65 105 -65q67 0 67 113h158q0 -137 -57 -213t-170 -76q-54 0 -98 19t-66 46q-50 66 -103 66q-69 0 -69 -113h-156q0 137 57.5 213t170.5 76zM1010 1434h282v-856q0 -288 -151.5 -446.5t-429.5 -158.5t-431 158t-153 447v856h283
v-856q0 -342 301 -342q299 0 299 342v856z" />
    <glyph glyph-name="utilde" unicode="&#x169;" horiz-adv-x="1124" 
d="M428 1477q53 0 97 -20.5t65 -47.5q52 -68 104 -68q68 0 68 117h158q0 -137 -57.5 -215t-170.5 -78q-53 0 -97 20.5t-65 47.5q-50 70 -104 70q-70 0 -70 -119h-155q0 139 57 216t170 77zM719 1038h264v-1038h-227l-21 135q-84 -158 -274 -158q-162 0 -248 102.5t-86 285.5
v673h266v-614q0 -188 148 -188q81 0 129.5 63.5t48.5 181.5v557z" />
    <glyph glyph-name="Umacron" unicode="&#x16a;" horiz-adv-x="1419" 
d="M1010 1434h282v-856q0 -288 -151.5 -446.5t-429.5 -158.5t-431 158t-153 447v856h283v-856q0 -342 301 -342q299 0 299 342v856zM422 1710h571v-199h-571v199z" />
    <glyph glyph-name="umacron" unicode="&#x16b;" horiz-adv-x="1124" 
d="M719 1038h264v-1038h-227l-21 135q-84 -158 -274 -158q-162 0 -248 102.5t-86 285.5v673h266v-614q0 -188 148 -188q81 0 129.5 63.5t48.5 181.5v557zM272 1403h572v-199h-572v199z" />
    <glyph glyph-name="Ubreve" unicode="&#x16c;" horiz-adv-x="1419" 
d="M1010 1434h282v-856q0 -288 -151.5 -446.5t-429.5 -158.5t-431 158t-153 447v856h283v-856q0 -342 301 -342q299 0 299 342v856zM821 1778h213q0 -129 -91 -208t-238 -79q-143 0 -234.5 80t-91.5 207h211q0 -52 31 -82.5t86 -30.5q53 0 83.5 30.5t30.5 82.5z" />
    <glyph glyph-name="ubreve" unicode="&#x16d;" horiz-adv-x="1124" 
d="M719 1038h264v-1038h-227l-21 135q-84 -158 -274 -158q-162 0 -248 102.5t-86 285.5v673h266v-614q0 -188 148 -188q81 0 129.5 63.5t48.5 181.5v557zM674 1462h211q0 -136 -92 -225q-92 -86 -238 -86q-141 0 -233 86q-93 90 -93 225h211q0 -63 31 -101t86 -38
q53 0 85 39t32 100z" />
    <glyph glyph-name="Uring" unicode="&#x16e;" horiz-adv-x="1419" 
d="M922 1692q0 -89 -61 -149t-154 -60t-153 60t-60 149q0 92 59.5 151.5t153.5 59.5t154.5 -59.5t60.5 -151.5zM633 1692q0 -31 21.5 -52.5t52.5 -21.5q32 0 53.5 21.5t21.5 52.5q4 47 -35.5 66.5t-79 0t-34.5 -66.5zM1010 1434h282v-856q0 -288 -151.5 -446.5
t-429.5 -158.5t-431 158t-153 447v856h283v-856q0 -342 301 -342q299 0 299 342v856z" />
    <glyph glyph-name="uring" unicode="&#x16f;" horiz-adv-x="1124" 
d="M557 1581q102 0 165.5 -64t63.5 -163q0 -94 -65 -157.5t-164 -63.5t-164 63.5t-65 157.5q0 98 64.5 162.5t164.5 64.5zM557 1452q-39 0 -65.5 -27.5t-26.5 -68.5q0 -37 27 -64.5t65 -27.5q41 0 66.5 26.5t25.5 65.5q0 42 -25.5 69t-66.5 27zM719 1038h264v-1038h-227
l-21 135q-84 -158 -274 -158q-162 0 -248 102.5t-86 285.5v673h266v-614q0 -188 148 -188q81 0 129.5 63.5t48.5 181.5v557z" />
    <glyph glyph-name="Uhungarumlaut" unicode="&#x170;" horiz-adv-x="1419" 
d="M1010 1434h282v-856q0 -288 -151.5 -446.5t-429.5 -158.5t-431 158t-153 447v856h283v-856q0 -342 301 -342q299 0 299 342v856zM543 1759h272l-207 -264h-221zM932 1759h272l-207 -264h-221z" />
    <glyph glyph-name="uhungarumlaut" unicode="&#x171;" horiz-adv-x="1124" 
d="M719 1038h264v-1038h-227l-21 135q-84 -158 -274 -158q-162 0 -248 102.5t-86 285.5v673h266v-614q0 -188 148 -188q81 0 129.5 63.5t48.5 181.5v557zM395 1499h273l-217 -323h-220zM795 1499h272l-217 -323h-219z" />
    <glyph glyph-name="Uogonek" unicode="&#x172;" horiz-adv-x="1419" 
d="M1010 1434h282v-856q0 -227 -94.5 -374.5t-273.5 -201.5q-99 -52 -99 -156q0 -50 27 -77t76 -27q44 0 82 18l30 -129q-44 -24 -122 -24q-117 0 -188 62t-71 171q0 78 37 133q-272 5 -420.5 163t-148.5 442v856h283v-856q0 -342 301 -342q299 0 299 342v856z" />
    <glyph glyph-name="uogonek" unicode="&#x173;" horiz-adv-x="1124" 
d="M719 1038h264v-1038h-8q-146 -59 -146 -178q0 -50 27 -77.5t76 -27.5q42 0 82 19l30 -129q-45 -25 -122 -25q-117 0 -187.5 62.5t-70.5 171.5q0 115 90 190l-19 129q-84 -158 -274 -158q-162 0 -248 102.5t-86 285.5v673h266v-614q0 -188 148 -188q81 0 129.5 63.5
t48.5 181.5v557z" />
    <glyph glyph-name="Wcircumflex" unicode="&#x174;" horiz-adv-x="2052" 
d="M1724 1434h297l-436 -1434h-297l-241 823l-21 99l-18 -99l-244 -823h-297l-436 1434h297l270 -914l23 -104l18 104l258 914h258l260 -914l17 -104l22 104zM950 1761h150l315 -260h-287l-104 105l-104 -105h-285z" />
    <glyph glyph-name="wcircumflex" unicode="&#x175;" horiz-adv-x="1599" 
d="M1294 1038h285l-313 -1038h-279l-188 610l-201 -610h-264l-314 1038h287l158 -624l18 -111l23 111l176 624h236l176 -624l22 -111l19 111zM698 1499h197l287 -323h-271l-114 159l-115 -159h-268z" />
    <glyph glyph-name="Ycircumflex" unicode="&#x176;" horiz-adv-x="1406" 
d="M1061 1434h328l-543 -902v-532h-285v532l-543 902h328l307 -500l49 -96l52 96zM627 1761h149l316 -260h-287l-105 105l-104 -105h-285z" />
    <glyph glyph-name="ycircumflex" unicode="&#x177;" horiz-adv-x="1067" 
d="M752 1038h288l-534 -1478h-277l158 452l-369 1026h287l203 -637l20 -90l21 90zM428 1499h197l286 -323h-270l-115 159l-114 -159h-269z" />
    <glyph glyph-name="Ydieresis" unicode="&#x178;" horiz-adv-x="1406" 
d="M1061 1434h328l-543 -902v-532h-285v532l-543 902h328l307 -500l49 -96l52 96zM492 1782q62 0 103.5 -41.5t41.5 -102.5t-41.5 -102t-103.5 -41q-63 0 -105.5 41t-42.5 102t42.5 102.5t105.5 41.5zM807 1741q43 41 104.5 41t104.5 -41t43 -102.5t-43 -102.5t-104.5 -41
t-104.5 41q-41 41 -41 102.5t41 102.5z" />
    <glyph glyph-name="Zacute" unicode="&#x179;" horiz-adv-x="1230" 
d="M88 1434h1036v-230l-678 -942h707v-262h-1069v229l684 942h-680v263zM643 1749h367l-293 -246h-264z" />
    <glyph glyph-name="zacute" unicode="&#x17a;" horiz-adv-x="978" 
d="M74 1038h821v-198l-469 -609h496v-231h-850v199l469 608h-467v231zM578 1499h325l-315 -323h-228z" />
    <glyph glyph-name="Zdotaccent" unicode="&#x17b;" horiz-adv-x="1230" 
d="M88 1434h1036v-230l-678 -942h707v-262h-1069v229l684 942h-680v263zM616 1788q62 0 106 -42.5t44 -103.5q0 -62 -44 -104.5t-106 -42.5q-66 0 -108.5 42t-42.5 105q0 61 44 103.5t107 42.5z" />
    <glyph glyph-name="zdotaccent" unicode="&#x17c;" horiz-adv-x="978" 
d="M74 1038h821v-198l-469 -609h496v-231h-850v199l469 608h-467v231zM379 1442q47 44 114.5 44t114.5 -44q50 -44 50 -112.5t-50 -112.5q-47 -44 -114.5 -44t-114.5 44q-44 44 -44 112.5t44 112.5z" />
    <glyph glyph-name="Zcaron" unicode="&#x17d;" horiz-adv-x="1230" 
d="M88 1434h1036v-230l-678 -942h707v-262h-1069v229l684 942h-680v263zM719 1755h287l-316 -260h-149l-316 260h285l104 -104z" />
    <glyph glyph-name="zcaron" unicode="&#x17e;" horiz-adv-x="978" 
d="M74 1038h821v-198l-469 -609h496v-231h-850v199l469 608h-467v231zM608 1479h271l-287 -324h-197l-284 324h268l115 -162z" />
    <glyph glyph-name="florin" unicode="&#x192;" horiz-adv-x="731" 
d="M674 1518q63 0 137 -19l-27 -237q-55 22 -102 22q-139 0 -154 -143l-10 -103h244l-25 -241h-243l-99 -903q-19 -172 -125 -264.5t-284 -92.5q-84 0 -136 21l25 235q55 -22 105 -22q138 0 153 143l92 883h-168l25 241h168l14 125q19 171 125 263t285 92z" />
    <glyph glyph-name="Aringacute" unicode="&#x1fa;" horiz-adv-x="1480" 
d="M586 1434h309l555 -1434h-305l-119 317h-571l-119 -317h-305zM758 2036h366l-231 -195q59 -59 59 -149q0 -89 -61 -149t-154 -60t-153 60t-60 149q0 137 115 190zM766 1012l-27 80l-26 -80l-170 -449h393zM664 1692q0 -31 21 -52.5t52 -21.5q32 0 54 21.5t22 52.5
q4 47 -35.5 66.5t-79 0t-34.5 -66.5z" />
    <glyph glyph-name="aringacute" unicode="&#x1fb;" horiz-adv-x="1056" 
d="M526 1061q193 0 302.5 -98t109.5 -281v-682h-227l-17 127q-99 -150 -297 -150q-142 0 -228.5 81.5t-86.5 217.5q0 138 81 212t240 100l269 49v39q0 158 -146 158q-68 0 -111.5 -38.5t-43.5 -99.5h-258q11 163 123 264t290 101zM549 1749h366l-245 -207q94 -61 94 -188
q0 -94 -65 -157.5t-164 -63.5q-103 0 -166 63q-64 64 -64 158q0 91 60 157zM672 428v31l-207 -43q-117 -27 -117 -117q0 -47 32 -74.5t89 -27.5q108 0 166 94q37 58 37 137zM535 1452q-39 0 -66 -27.5t-27 -68.5q0 -37 27.5 -64.5t65.5 -27.5q41 0 66.5 26.5t25.5 65.5
q0 42 -25.5 69t-66.5 27z" />
    <glyph glyph-name="AEacute" unicode="&#x1fc;" horiz-adv-x="1961" 
d="M930 1434h940v-263h-545v-303h469v-264h-469v-342h545v-262h-828v319h-485l-209 -319h-332zM1042 561v541l-45 -86l-290 -455h335zM1239 1749h367l-293 -246h-264z" />
    <glyph glyph-name="aeacute" unicode="&#x1fd;" horiz-adv-x="1742" 
d="M1182 1061q220 0 350.5 -140.5t130.5 -400.5v-82h-723q6 -105 74 -169t176 -64q162 0 209 121h258q-50 -169 -170.5 -259t-304.5 -90q-263 0 -408 189q-139 -189 -366 -189q-149 0 -237.5 80.5t-88.5 216.5q0 137 79 212t238 102l267 49v33q0 164 -146 164
q-66 0 -107.5 -37.5t-41.5 -100.5h-258q11 166 120 265.5t287 99.5q214 0 324 -119q134 119 338 119zM967 1499h325l-315 -323h-227zM942 623h453q-2 98 -61.5 157.5t-157.5 59.5q-97 0 -160 -59.5t-74 -157.5zM666 414v45l-197 -41q-64 -14 -92.5 -41.5t-28.5 -77.5
q0 -48 31 -75t88 -27q103 0 162 90q37 58 37 127z" />
    <glyph glyph-name="Oslashacute" unicode="&#x1fe;" horiz-adv-x="1636" 
d="M819 1460q147 0 277 -47l104 176l201 -102l-109 -184q128 -100 198.5 -252.5t70.5 -331.5q0 -323 -209 -535q-208 -211 -533 -211q-141 0 -280 50l-107 -183l-201 103l111 188q-128 100 -197 252.5t-69 335.5q0 321 209 530q208 211 534 211zM1268 719q0 207 -119 338
l-473 -801q61 -20 143 -20q201 0 324 135q125 137 125 348zM819 1198q-201 0 -327 -135q-123 -135 -123 -344t118 -342l471 801q-67 20 -139 20zM819 1753h367l-293 -246h-264z" />
    <glyph glyph-name="oslashacute" unicode="&#x1ff;" horiz-adv-x="1224" 
d="M610 1061q102 0 197 -33l92 172l127 -61l-92 -172q223 -152 223 -447q0 -241 -156 -391q-155 -152 -391 -152q-92 0 -190 29l-90 -170l-129 60l92 174q-225 150 -225 450q0 239 153 389q155 152 389 152zM690 1499h326l-316 -323h-227zM612 819q-118 0 -194 -84.5
t-76 -214.5q0 -131 78 -215l268 504q-42 10 -76 10zM881 520q0 127 -72 211l-268 -502q27 -8 71 -8q118 0 193.5 84.5t75.5 214.5z" />
    <glyph glyph-name="Scommaaccent" unicode="&#x218;" horiz-adv-x="1124" 
d="M559 1460q206 0 326 -110.5t127 -317.5h-285q-1 83 -49 130.5t-125 47.5q-76 0 -119 -40t-43 -113q0 -74 53 -115q43 -33 199 -90q225 -75 319.5 -177t94.5 -267q0 -203 -135 -320q-133 -115 -342 -115q-235 0 -367.5 125.5t-138.5 339.5h284q9 -217 226 -217
q87 0 137.5 44.5t50.5 117.5q0 71 -58 118.5t-196 92.5q-215 69 -313.5 169.5t-98.5 268.5q0 188 121 309q122 119 332 119zM569 -90q70 0 115 -48.5t45 -125.5q0 -88 -47 -185t-123 -174l-74 31q51 88 60 195q-60 8 -97.5 48.5t-37.5 100.5q0 66 46 112t113 46z" />
    <glyph glyph-name="scommaaccent" unicode="&#x219;" horiz-adv-x="942" 
d="M471 1061q165 0 270 -90.5t111 -237.5h-264q-3 119 -119 119q-55 0 -85 -27t-30 -75q0 -50 39 -75t144 -44q181 -30 259 -106t78 -210q0 -162 -110.5 -250t-290.5 -88q-187 0 -293.5 90.5t-111.5 247.5h262q3 -127 149 -127q62 0 95.5 26t33.5 73q0 52 -40 80.5
t-148 48.5q-170 29 -251 104t-81 203q0 147 100 240q101 98 283 98zM473 -82q70 0 115 -48.5t45 -125.5q0 -88 -47 -184t-123 -174l-74 30q51 88 60 195q-60 8 -98 48.5t-38 100.5q0 66 46.5 112t113.5 46z" />
    <glyph glyph-name="circumflex" unicode="&#x2c6;" horiz-adv-x="808" 
d="M305 1499h197l286 -323h-270l-115 159l-114 -159h-269z" />
    <glyph glyph-name="caron" unicode="&#x2c7;" horiz-adv-x="808" 
d="M518 1479h270l-286 -324h-197l-285 324h269l114 -162z" />
    <glyph glyph-name="breve" unicode="&#x2d8;" horiz-adv-x="696" 
d="M465 1462h211q0 -136 -92 -225q-92 -86 -238 -86q-141 0 -233 86q-93 90 -93 225h211q0 -63 31 -101t86 -38q53 0 85 39t32 100z" />
    <glyph glyph-name="dotaccent" unicode="&#x2d9;" horiz-adv-x="364" 
d="M66 1442q47 44 114.5 44t114.5 -44q49 -44 49 -112.5t-49 -112.5q-47 -44 -114.5 -44t-114.5 44q-44 44 -44 112.5t44 112.5z" />
    <glyph glyph-name="ring" unicode="&#x2da;" horiz-adv-x="499" 
d="M250 1581q102 0 165.5 -64t63.5 -163q0 -94 -65 -157.5t-164 -63.5t-164.5 63.5t-65.5 157.5q0 98 65 162.5t165 64.5zM250 1452q-39 0 -65.5 -27.5t-26.5 -68.5q0 -37 27 -64.5t65 -27.5q41 0 66.5 26.5t25.5 65.5q0 42 -25.5 69t-66.5 27z" />
    <glyph glyph-name="ogonek" unicode="&#x2db;" horiz-adv-x="407" 
d="M215 74l102 -74q-145 -59 -145 -178q0 -50 26.5 -77.5t75.5 -27.5q42 0 82 19l31 -129q-45 -25 -123 -25q-117 0 -187.5 62.5t-70.5 171.5q0 178 209 258z" />
    <glyph glyph-name="tilde" unicode="&#x2dc;" horiz-adv-x="759" 
d="M248 1477q53 0 97 -20.5t65 -47.5q52 -68 104 -68q68 0 68 117h157q0 -137 -57 -215t-170 -78q-53 0 -97 20.5t-65 47.5q-50 70 -104 70q-70 0 -70 -119h-156q0 138 57.5 215.5t170.5 77.5z" />
    <glyph glyph-name="hungarumlaut" unicode="&#x2dd;" horiz-adv-x="876" 
d="M184 1499h273l-217 -323h-220zM584 1499h272l-217 -323h-219z" />
    <glyph glyph-name="uni03A9" unicode="&#x3a9;" horiz-adv-x="1761" 
d="M1571 799q0 -251 -201 -490h316v-309h-691v268q260 230 260 516q0 187 -99.5 298.5t-270.5 111.5t-272 -111.5t-101 -298.5q0 -286 260 -516v-268h-688v309h315q-200 232 -200 490q0 311 186 506q187 196 500 196q312 0 499 -196t187 -506z" />
    <glyph glyph-name="pi" unicode="&#x3c0;" horiz-adv-x="1540" 
d="M1315 1176l219 -127q-86 -281 -369 -281h-14l-55 -397q-15 -117 69 -117q54 0 97 37l98 -199q-144 -108 -318 -108q-251 0 -211 307l64 477h-199l-61 -465q-23 -175 -84 -303h-283q94 157 121 348l53 420h-36q-145 0 -234 -109l-129 189q97 96 182 137q90 41 244 41h547
q134 0 196 35t103 115z" />
    <glyph glyph-name="Wgrave" unicode="&#x1e80;" horiz-adv-x="2052" 
d="M1724 1434h297l-436 -1434h-297l-241 823l-21 99l-18 -99l-244 -823h-297l-436 1434h297l270 -914l23 -104l18 104l258 914h258l260 -914l17 -104l22 104zM610 1749h367l190 -246h-264z" />
    <glyph glyph-name="wgrave" unicode="&#x1e81;" horiz-adv-x="1599" 
d="M1294 1038h285l-313 -1038h-279l-188 610l-201 -610h-264l-314 1038h287l158 -624l18 -111l23 111l176 624h236l176 -624l22 -111l19 111zM375 1499h325l218 -323h-228z" />
    <glyph glyph-name="Wacute" unicode="&#x1e82;" horiz-adv-x="2052" 
d="M1724 1434h297l-436 -1434h-297l-241 823l-21 99l-18 -99l-244 -823h-297l-436 1434h297l270 -914l23 -104l18 104l258 914h258l260 -914l17 -104l22 104zM1073 1749h367l-293 -246h-264z" />
    <glyph glyph-name="wacute" unicode="&#x1e83;" horiz-adv-x="1599" 
d="M1294 1038h285l-313 -1038h-279l-188 610l-201 -610h-264l-314 1038h287l158 -624l18 -111l23 111l176 624h236l176 -624l22 -111l19 111zM881 1499h325l-315 -323h-227z" />
    <glyph glyph-name="Wdieresis" unicode="&#x1e84;" horiz-adv-x="2052" 
d="M1724 1434h297l-436 -1434h-297l-241 823l-21 99l-18 -99l-244 -823h-297l-436 1434h297l270 -914l23 -104l18 104l258 914h258l260 -914l17 -104l22 104zM815 1782q62 0 104 -41.5t42 -102.5t-42 -102t-104 -41q-63 0 -105 41t-42 102q0 62 42 103t105 41zM1130 1741
q43 41 104.5 41t104.5 -41t43 -102.5t-43 -102.5t-104.5 -41t-104.5 41q-41 41 -41 102.5t41 102.5z" />
    <glyph glyph-name="wdieresis" unicode="&#x1e85;" horiz-adv-x="1599" 
d="M1294 1038h285l-313 -1038h-279l-188 610l-201 -610h-264l-314 1038h287l158 -624l18 -111l23 111l176 624h236l176 -624l22 -111l19 111zM588 1458q62 0 103.5 -41t41.5 -102t-41.5 -102.5t-103.5 -41.5q-63 0 -105.5 41.5t-42.5 102.5t42.5 102t105.5 41zM903 1417
q43 41 104.5 41t104.5 -41t43 -102.5t-43 -102.5t-104.5 -41t-104.5 41q-41 41 -41 102.5t41 102.5z" />
    <glyph glyph-name="Ygrave" unicode="&#x1ef2;" horiz-adv-x="1406" 
d="M1061 1434h328l-543 -902v-532h-285v532l-543 902h328l307 -500l49 -96l52 96zM287 1749h366l191 -246h-264z" />
    <glyph glyph-name="ygrave" unicode="&#x1ef3;" horiz-adv-x="1067" 
d="M752 1038h288l-534 -1478h-277l158 452l-369 1026h287l203 -637l20 -90l21 90zM104 1499h326l217 -323h-227z" />
    <glyph glyph-name="endash" unicode="&#x2013;" horiz-adv-x="1054" 
d="M51 649h953v-235h-953v235z" />
    <glyph glyph-name="emdash" unicode="&#x2014;" horiz-adv-x="1443" 
d="M51 649h1342v-235h-1342v235z" />
    <glyph glyph-name="quoteleft" unicode="&#x2018;" horiz-adv-x="440" 
d="M229 1526l78 -27q-49 -101 -61 -233q58 -8 95.5 -49.5t37.5 -100.5q0 -66 -46 -112t-112 -46q-70 0 -116 49t-46 126q1 97 48 203.5t122 189.5z" />
    <glyph glyph-name="quoteright" unicode="&#x2019;" horiz-adv-x="440" 
d="M219 1509q70 0 115 -48.5t45 -125.5q0 -96 -47 -202.5t-123 -190.5l-76 27q50 106 64 233q-61 8 -99.5 49.5t-38.5 100.5q0 66 47 111.5t113 45.5z" />
    <glyph glyph-name="quotesinglbase" unicode="&#x201a;" horiz-adv-x="440" 
d="M219 295q70 0 115 -48t45 -126q0 -96 -47 -202.5t-123 -190.5l-76 28q49 98 64 234q-61 6 -99.5 47t-38.5 102q0 63 47 109.5t113 46.5z" />
    <glyph glyph-name="quotedblleft" unicode="&#x201c;" horiz-adv-x="874" 
d="M229 1526l78 -27q-49 -101 -61 -233q58 -8 95.5 -49.5t37.5 -100.5q0 -66 -46 -112t-112 -46q-70 0 -116 49t-46 126q1 97 48 203.5t122 189.5zM662 1526l77 -27q-49 -101 -61 -233q58 -8 95.5 -49.5t37.5 -100.5q0 -66 -46 -112t-112 -46q-70 0 -115.5 49t-45.5 126
q1 97 48 203.5t122 189.5z" />
    <glyph glyph-name="quotedblright" unicode="&#x201d;" horiz-adv-x="874" 
d="M219 1509q70 0 115 -48.5t45 -125.5q0 -96 -47 -202.5t-123 -190.5l-76 27q50 106 64 233q-61 8 -99.5 49.5t-38.5 100.5q0 66 47 111.5t113 45.5zM651 1509q70 0 115 -48.5t45 -125.5q0 -96 -47 -202.5t-123 -190.5l-76 27q50 106 64 233q-60 8 -98.5 49t-38.5 101
q0 66 46.5 111.5t112.5 45.5z" />
    <glyph glyph-name="quotedblbase" unicode="&#x201e;" horiz-adv-x="878" 
d="M219 295q70 0 115 -48t45 -126q0 -96 -47 -202.5t-123 -190.5l-76 28q49 98 64 234q-61 6 -99.5 47t-38.5 102q0 63 47 109.5t113 46.5zM657 295q70 0 115 -48t45 -126q0 -96 -47 -202.5t-123 -190.5l-76 28q49 98 64 234q-61 6 -99 47t-38 102q0 63 46.5 109.5
t112.5 46.5z" />
    <glyph glyph-name="dagger" unicode="&#x2020;" horiz-adv-x="960" 
d="M346 1487h268v-373h310v-262h-310v-989h-268v989h-307v262h307v373z" />
    <glyph glyph-name="daggerdbl" unicode="&#x2021;" horiz-adv-x="960" 
d="M346 1487h268v-373h310v-262h-310v-354h310v-262h-310v-373h-268v373h-307v262h307v354h-307v262h307v373z" />
    <glyph glyph-name="bullet" unicode="&#x2022;" horiz-adv-x="727" 
d="M156 737q84 84 206 84q123 0 207 -84t84 -207q0 -122 -84 -206q-82 -82 -207 -82q-124 0 -206 82t-82 206q0 125 82 207z" />
    <glyph glyph-name="ellipsis" unicode="&#x2026;" horiz-adv-x="1427" 
d="M227 299q68 0 116 -46.5t48 -113.5t-48 -114.5t-116 -47.5q-69 0 -116.5 46.5t-47.5 115.5t47.5 114.5t116.5 45.5zM713 299q69 0 117.5 -46.5t48.5 -113.5q0 -69 -48.5 -115.5t-117.5 -46.5q-68 0 -116 47.5t-48 114.5t48 113.5t116 46.5zM1366 139q0 -69 -48.5 -115.5
t-117.5 -46.5t-116.5 46.5t-47.5 115.5t47.5 114.5t116.5 45.5t117.5 -46.5t48.5 -113.5z" />
    <glyph glyph-name="perthousand" unicode="&#x2030;" horiz-adv-x="2625" 
d="M1153 1434h279l-770 -1434h-281zM412 1460q154 0 258 -104t104 -262q0 -156 -104 -260q-106 -103 -258 -103q-154 0 -260 103q-103 106 -103 260q0 156 103 262q104 104 260 104zM412 1255q-63 0 -104.5 -45.5t-41.5 -113.5t41.5 -113t104.5 -45q61 0 102 45t41 113
t-41 113.5t-102 45.5zM1403 702q155 0 258 -106q104 -104 104 -260q0 -159 -104 -260q-103 -103 -258 -103q-154 0 -260 103q-103 103 -103 260q0 156 103 262q104 104 260 104zM1403 496q-63 0 -104.5 -45t-41.5 -113t41.5 -114t104.5 -46q61 0 102 46t41 114t-41 113
t-102 45zM2216 702q153 0 256 -106q104 -104 104 -260q0 -159 -104 -260q-103 -103 -256 -103q-156 0 -262 103q-103 103 -103 260t105 262q104 104 260 104zM2214 496q-63 0 -104.5 -45t-41.5 -113t41.5 -114t104.5 -46q61 0 102 46t41 114t-41 113t-102 45z" />
    <glyph glyph-name="guilsinglleft" unicode="&#x2039;" horiz-adv-x="581" 
d="M305 913h252l-293 -401l293 -399h-252l-282 383v34z" />
    <glyph glyph-name="guilsinglright" unicode="&#x203a;" horiz-adv-x="581" 
d="M23 913h253l281 -383v-34l-281 -383h-253l294 399z" />
    <glyph glyph-name="fraction" unicode="&#x2044;" horiz-adv-x="299" 
d="M397 1434h279l-772 -1434h-279z" />
    <glyph glyph-name="zero.sups" unicode="&#x2070;" horiz-adv-x="763" 
d="M696 1239q0 -198 -82 -308t-233 -110t-232 110t-81 308q0 197 81 305.5t232 108.5t233 -109t82 -305zM270 1239q0 -231 111 -231t111 231q0 227 -111 227t-111 -227z" />
    <glyph glyph-name="four.sups" unicode="&#x2074;" horiz-adv-x="778" 
d="M356 1638h254v-497h105v-178h-105v-127h-200v127h-363v159zM412 1139v266l-19 -43l-139 -223h158z" />
    <glyph glyph-name="five.sups" unicode="&#x2075;" horiz-adv-x="718" 
d="M92 1638h520v-188h-317v-117q47 21 104 21q115 0 185.5 -63t70.5 -181q0 -131 -79.5 -210t-213.5 -79q-137 0 -215.5 69t-78.5 191h200q3 -73 94 -73q93 0 93 94q0 92 -93 92q-48 0 -90 -25h-180v469z" />
    <glyph glyph-name="six.sups" unicode="&#x2076;" horiz-adv-x="743" 
d="M387 1653q122 0 199 -70t78 -186h-203q-9 69 -82 69q-111 0 -111 -170q55 43 148 43q116 0 188 -67.5t72 -173.5q0 -129 -81 -203t-214 -74q-144 0 -221 86q-97 105 -97 318q0 428 324 428zM274 1096q0 -39 28.5 -64.5t72.5 -25.5q43 0 70.5 25t27.5 63q6 53 -46 76
t-104.5 1t-48.5 -75z" />
    <glyph glyph-name="seven.sups" unicode="&#x2077;" horiz-adv-x="647" 
d="M57 1638h547v-161l-297 -641h-219l285 612h-316v190z" />
    <glyph glyph-name="eight.sups" unicode="&#x2078;" horiz-adv-x="735" 
d="M367 1653q123 0 200.5 -70t77.5 -176q0 -97 -86 -162q107 -58 107 -172q0 -109 -86 -180q-87 -72 -213 -72t-213 72q-86 71 -86 180q0 118 106 172q-84 66 -84 162q0 105 77.5 175.5t199.5 70.5zM367 997q41 0 68.5 23.5t27.5 60.5q0 36 -28.5 61t-67.5 25t-67 -25
t-28 -61t28 -60t67 -24zM367 1327q50 -5 70 34.5t-1 79.5t-69 36q-48 4 -68 -36t0 -79.5t68 -34.5z" />
    <glyph glyph-name="nine.sups" unicode="&#x2079;" horiz-adv-x="743" 
d="M360 1653q154 0 226 -84q94 -101 94 -320q0 -428 -326 -428q-120 0 -196.5 70t-77.5 186h203q9 -69 82 -69q110 0 110 170v2q-56 -41 -147 -41q-117 0 -189.5 65.5t-72.5 171.5q0 127 81.5 202t212.5 75zM369 1288q42 0 71 26.5t29 63.5q0 39 -28 64.5t-72 25.5
q-41 0 -70 -26t-29 -64q0 -37 29 -63.5t70 -26.5z" />
    <glyph glyph-name="n.sups" unicode="&#x207f;" horiz-adv-x="862" 
d="M514 1458q115 0 177.5 -69t62.5 -193v-461h-203v404q0 123 -102 123q-58 0 -94 -39.5t-36 -112.5v-375h-202v709h174l14 -90q67 104 209 104z" />
    <glyph glyph-name="Euro" unicode="&#x20ac;" horiz-adv-x="1269" 
d="M449 637h286v-197h-250q67 -204 234 -204q92 0 147.5 52.5t69.5 151.5h303q-92 -467 -518 -467q-200 0 -337 121.5t-191 345.5h-162v197h133q-2 18 -2 82q0 68 2 86h-133v196h164q56 218 192.5 338.5t333.5 120.5q441 0 518 -465h-303q-21 203 -217 203q-164 0 -232 -197
h248v-196h-286q-3 -27 -3 -86q0 -55 3 -82z" />
    <glyph glyph-name="afii61289" unicode="&#x2113;" horiz-adv-x="1167" 
d="M682 1542q150 0 250 -92q100 -87 100 -250q0 -204 -151 -397q-124 -159 -299 -314v-145q0 -129 116 -129q69 0 118 41t116 143l158 -127q-188 -299 -459 -299q-210 0 -271 174q-28 48 -28 138q-27 -18 -158 -125l-137 194q99 80 285 252v549q0 387 360 387zM680 1329
q-56 0 -88.5 -40t-32.5 -111v-420q91 85 170 209q76 119 76 221q0 67 -33.5 104t-91.5 37z" />
    <glyph glyph-name="trademark" unicode="&#x2122;" horiz-adv-x="1282" 
d="M47 1434h440v-160h-135v-414h-172v414h-133v160zM1006 1434h204v-574h-172v281l-18 -64l-76 -217h-119l-75 217l-19 64v-281h-172v574h205l113 -314l8 -35l8 35z" />
    <glyph glyph-name="Omega" unicode="&#x2126;" horiz-adv-x="1761" 
d="M1571 799q0 -251 -201 -490h316v-309h-691v268q260 230 260 516q0 187 -99.5 298.5t-270.5 111.5t-272 -111.5t-101 -298.5q0 -286 260 -516v-268h-688v309h315q-200 232 -200 490q0 311 186 506q187 196 500 196q312 0 499 -196t187 -506z" />
    <glyph glyph-name="estimated" unicode="&#x212e;" horiz-adv-x="1202" 
d="M627 1014q-132 0 -215 -56q-80 -41 -80 -133v-192h561v190q0 65 -15 96.5t-61 51.5q-79 43 -190 43zM627 1090q220 0 360 -140q141 -138 141 -393h-796v-319q0 -95 82 -138q83 -53 213 -53q266 0 426 244l61 -41q-179 -277 -487 -277q-241 0 -398 154q-155 155 -155 403
q0 247 157 404q156 156 396 156z" />
    <glyph glyph-name="partialdiff" unicode="&#x2202;" horiz-adv-x="1120" 
d="M528 1530q126 0 225.5 -52.5t157.5 -140.5q60 -84 93 -200q34 -110 46.5 -215t12.5 -240q0 -264 -72 -420q-61 -135 -172 -207.5t-252 -72.5q-215 0 -356 135t-141 350q0 216 135 348q135 135 342 135q70 0 134 -29t103 -73q-2 198 -75 309t-203 111q-147 0 -242 -133
l-184 172q165 223 448 223zM348 467q0 -108 61.5 -174t159.5 -66q97 0 158 66t61 174q0 106 -61 172t-158 66t-159 -66.5t-62 -171.5z" />
    <glyph glyph-name="uni2206" unicode="&#x2206;" horiz-adv-x="1478" 
d="M82 0l659 1303l656 -1303h-1315zM1034 221l-293 586l-297 -586h590z" />
    <glyph glyph-name="product" unicode="&#x220f;" horiz-adv-x="1421" 
d="M72 1434h1278v-263h-215v-1392h-254v1392h-338v-1392h-258v1392h-213v263z" />
    <glyph glyph-name="summation" unicode="&#x2211;" horiz-adv-x="1249" 
d="M94 1434h1049v-283h-660l314 -403l-332 -465h702v-283h-1079v188l387 553l-381 502v191z" />
    <glyph glyph-name="minus" unicode="&#x2212;" horiz-adv-x="966" 
d="M61 834h844v-236h-844v236z" />
    <glyph glyph-name="radical" unicode="&#x221a;" horiz-adv-x="1427" 
d="M756 453l393 970l233 -98l-618 -1462l-346 651l-242 -137l-119 213l498 291z" />
    <glyph glyph-name="infinity" unicode="&#x221e;" horiz-adv-x="1572" 
d="M1126 1004q169 0 275 -115q104 -113 104 -285q0 -169 -104 -285q-105 -114 -275 -114q-164 0 -329 162l-37 34l-35 -32q-139 -136 -293 -136q-159 0 -254 105q-94 107 -94 264t94 264q95 109 254 109q80 0 145.5 -33.5t145.5 -107.5l37 -35l26 30q84 90 162 132.5
t178 42.5zM1130 766q-98 0 -200 -129l-29 -37l33 -37l59 -61q76 -62 140 -62q65 0 105 47t40 117t-41 116t-107 46zM426 748q-56 0 -92.5 -42t-36.5 -104q0 -61 35 -101t94 -40q89 0 170 106l29 35l-29 33q-94 113 -170 113z" />
    <glyph glyph-name="integral" unicode="&#x222b;" horiz-adv-x="888" 
d="M586 1538q131 0 250 -43l-54 -219q-64 24 -129 24q-94 0 -94 -116v-1225q0 -191 -65.5 -273.5t-212.5 -82.5q-137 0 -256 43l55 219q67 -25 133 -25q98 0 98 119v1225q0 190 65.5 272t209.5 82z" />
    <glyph glyph-name="approxequal" unicode="&#x2248;" horiz-adv-x="1171" 
d="M434 700q65 0 125.5 -28t95.5 -68q36 -39 84.5 -66.5t94.5 -27.5q116 0 157 164l180 -78q-85 -315 -342 -315q-67 0 -127.5 28t-99.5 68q-92 96 -176 96q-112 0 -158 -166l-178 78q82 315 344 315zM432 1190q65 0 125.5 -28t95.5 -68q36 -40 84 -67.5t94 -27.5
q117 0 158 164l180 -78q-85 -315 -342 -315q-67 0 -127.5 27.5t-99.5 66.5q-93 97 -176 97q-112 0 -156 -164l-180 77q82 316 344 316z" />
    <glyph glyph-name="notequal" unicode="&#x2260;" horiz-adv-x="940" 
d="M561 618h344v-231h-416l-47 -156h-245l47 156h-183v231h254l62 195h-316v229h385l58 181h246l-58 -181h213v-229h-282z" />
    <glyph glyph-name="lessequal" unicode="&#x2264;" horiz-adv-x="753" 
d="M401 1208h312l-361 -350l361 -352h-312l-358 348v8zM43 408h670v-197h-670v197z" />
    <glyph glyph-name="greaterequal" unicode="&#x2265;" horiz-adv-x="753" 
d="M43 1208h311l359 -346v-8l-359 -348h-311l360 352zM43 408h670v-197h-670v197z" />
    <glyph glyph-name="lozenge" unicode="&#x25ca;" horiz-adv-x="1155" 
d="M494 1513h168l434 -825l-434 -823h-168l-435 823zM809 688l-231 422l-236 -422l236 -424z" />
    <glyph glyph-name="commaaccent" unicode="&#xf6c3;" horiz-adv-x="450" 
d="M225 -70q70 0 115 -48.5t45 -125.5q0 -88 -47 -184t-123 -174l-74 31q51 88 60 194q-60 8 -97.5 49t-37.5 101q0 66 46 111.5t113 45.5z" />
    <glyph glyph-name="g.alt" horiz-adv-x="1259" 
d="M590 811q-109 0 -178.5 -76t-69.5 -200q0 -123 70.5 -200t177.5 -77q104 0 182 72q77 74 80 196v13q0 124 -80 198q-77 74 -182 74zM535 1061q219 0 329 -162l19 139h231v-1013q0 -217 -145 -353q-144 -135 -377 -135q-215 0 -351.5 103t-156.5 299h260q35 -160 248 -160
q120 0 187 64.5t67 174.5v125q-42 -62 -125 -99.5t-186 -37.5q-203 0 -336 148q-131 149 -131 381t131 378q133 148 336 148z" />
    <glyph glyph-name="a.alt" horiz-adv-x="1267" 
d="M549 1061q220 0 330 -162l20 139h229v-1038h-229l-20 139q-110 -162 -330 -162q-206 0 -344 156q-137 155 -137 387q0 230 137 385q138 156 344 156zM604 811q-114 0 -188 -81t-74 -210t74.5 -211t187.5 -82q108 0 184 76q78 78 78 211v10q0 131 -78 209t-184 78z" />
    <glyph glyph-name="parenleft.cap" horiz-adv-x="606" 
d="M403 1561l189 -127q-137 -181 -197 -347q-59 -168 -59 -389q0 -220 59 -391q60 -163 197 -344l-189 -127q-162 198 -240.5 402.5t-78.5 459.5t79 460t240 403z" />
    <glyph glyph-name="parenright.cap" horiz-adv-x="606" 
d="M16 1434l187 127q162 -201 241.5 -404.5t79.5 -458.5q0 -254 -79.5 -457.5t-241.5 -404.5l-187 127q137 186 193 344q61 168 61 391q0 224 -61 389q-56 161 -193 347z" />
    <glyph glyph-name="bracketleft.cap" horiz-adv-x="673" 
d="M143 1507h480v-241h-228v-1141h228v-242h-480v1624z" />
    <glyph glyph-name="bracketright.cap" horiz-adv-x="673" 
d="M51 1507h479v-1624h-479v242h225v1141h-225v241z" />
    <glyph glyph-name="braceleft.cap" horiz-adv-x="665" 
d="M567 1507h47v-241h-36q-134 0 -134 -148v-205q0 -84 -35.5 -141.5t-99.5 -77.5q64 -20 99.5 -76.5t35.5 -140.5v-205q0 -147 134 -147h36v-242h-47q-181 0 -275.5 99.5t-94.5 279.5v170q0 148 -134 148h-24v231h24q134 0 134 147v170q0 180 94.5 279.5t275.5 99.5z" />
    <glyph glyph-name="braceright.cap" horiz-adv-x="665" 
d="M51 1507h47q182 0 276.5 -99t94.5 -280v-170q0 -147 133 -147h25v-231h-25q-133 0 -133 -148v-170q0 -181 -94.5 -280t-276.5 -99h-47v242h39q63 0 98 39t35 108v205q0 176 133 217q-133 41 -133 219v205q0 69 -35 108.5t-98 39.5h-39v241z" />
    <glyph glyph-name="hyphen.cap" horiz-adv-x="747" 
d="M51 805h645v-236h-645v236z" />
    <glyph glyph-name="endash.cap" horiz-adv-x="1054" 
d="M51 793h953v-236h-953v236z" />
    <glyph glyph-name="emdash.cap" horiz-adv-x="1443" 
d="M51 805h1342v-236h-1342v236z" />
    <glyph glyph-name="at.cap" horiz-adv-x="1693" 
d="M825 936q-87 0 -140.5 -59.5t-53.5 -157.5q0 -97 53.5 -157t138.5 -60q82 0 139.5 56t57.5 149v18q0 94 -58 152.5t-137 58.5zM852 1489q350 0 561 -217t211 -553q0 -216 -98 -320q-94 -102 -234 -102q-154 0 -231 123q-95 -123 -275 -123q-165 0 -274 121
q-106 118 -106 299q0 182 104 301q108 123 268 123q172 0 254 -131l15 112h188v-555q0 -64 19 -92.5t67 -28.5q141 0 141 273q0 269 -166 444q-165 174 -444 174q-287 0 -455 -174q-168 -171 -168 -444q0 -271 170 -447q168 -174 453 -174q148 0 278 62l54 -144
q-134 -67 -332 -67q-354 0 -569 215q-213 219 -213 555q0 345 215 557q216 213 567 213z" />
    <glyph glyph-name="periodcentered.cap" horiz-adv-x="454" 
d="M227 874q68 0 116 -47t48 -114t-48 -114.5t-116 -47.5q-69 0 -116.5 46.5t-47.5 115.5t47.5 115t116.5 46z" />
    <glyph glyph-name="exclamdown.cap" 
d="M408 0h-267v997h267v-997zM109 1294q0 69 48 115.5t117 46.5t117.5 -46.5t48.5 -115.5q0 -67 -48.5 -113t-117.5 -46t-117 46t-48 113z" />
    <glyph glyph-name="questiondown.cap" horiz-adv-x="907" 
d="M27 365q0 97 31 178t79 135q23 26 67 66.5t69 66t46 63t21 74.5v49h268v-61q0 -58 -18 -107.5t-47 -85t-63.5 -68t-69.5 -64t-64 -64t-47 -77t-18 -95.5q0 -91 47.5 -141t128.5 -50q87 0 137.5 53.5t50.5 149.5h252q-3 -191 -129 -305q-123 -111 -307 -111
q-183 0 -309 105q-125 107 -125 289zM473 1135q-68 0 -116 46t-48 113t48 114.5t116 47.5q72 0 119 -46.5t47 -115.5t-47 -114t-119 -45z" />
    <glyph glyph-name="endash_guilsinglright" horiz-adv-x="1349" 
d="M547 967l127 155l612 -553l-612 -553l-127 156l323 283h-807v227h809z" />
    <glyph glyph-name="emdash_guilsinglright" horiz-adv-x="2019" 
d="M1214 967l127 155l615 -553l-615 -553l-127 156l324 283h-1475v227h1477z" />
    <glyph glyph-name="guilsinglleft_endash" horiz-adv-x="1349" 
d="M63 569l615 553l127 -155l-326 -285h807v-227h-805l324 -283l-127 -156z" />
    <glyph glyph-name="guilsinglleft_emdash" horiz-adv-x="2019" 
d="M63 569l615 553l127 -155l-326 -285h1477v-227h-1475l324 -283l-127 -156z" />
    <glyph glyph-name="guilsinglleft.cap" horiz-adv-x="581" 
d="M305 1098h252l-293 -402l293 -399h-252l-282 383v35z" />
    <glyph glyph-name="guilsinglright.cap" horiz-adv-x="581" 
d="M23 1098h253l281 -383v-35l-281 -383h-253l294 399z" />
    <glyph glyph-name="guillemotleft.cap" horiz-adv-x="997" 
d="M260 1098h254l-250 -402l250 -399h-254l-237 383v35zM721 1098h254l-250 -402l250 -399h-254l-236 383v35z" />
    <glyph glyph-name="guillemotright.cap" horiz-adv-x="997" 
d="M23 1098h253l238 -383v-35l-238 -383h-253l249 399zM485 1098h252l238 -383v-35l-238 -383h-252l248 399z" />
    <glyph glyph-name="germandbls.cap" horiz-adv-x="1320" 
d="M670 1460q168 0 291 -54.5t231 -168.5l-277 -377q150 -21 240 -131q94 -107 94 -272q0 -219 -135.5 -345t-380.5 -126q-69 0 -178 16l4 268q83 -22 158 -22q114 0 176.5 52t62.5 149q0 107 -90 163t-254 56l-32 129l249 348q-59 53 -167 53q-113 0 -178.5 -69.5
t-65.5 -190.5v-938h-283v932q0 233 139 381q138 147 396 147z" />
    <glyph glyph-name="grave.cap" horiz-adv-x="598" 
d="M20 1749h367l191 -246h-265z" />
    <glyph glyph-name="acute.cap" horiz-adv-x="598" 
d="M211 1749h367l-293 -246h-265z" />
    <glyph glyph-name="circumflex.cap" horiz-adv-x="821" 
d="M336 1761h149l316 -260h-287l-104 105l-105 -105h-285z" />
    <glyph glyph-name="caron.cap" horiz-adv-x="821" 
d="M514 1755h287l-316 -260h-149l-316 260h285l105 -104z" />
    <glyph glyph-name="tilde.cap" horiz-adv-x="759" 
d="M248 1790q54 0 98 -19.5t64 -46.5q49 -65 104 -65q68 0 68 113h157q0 -137 -57 -213t-170 -76q-54 0 -98 19t-66 46q-50 66 -102 66q-70 0 -70 -113h-156q0 137 57.5 213t170.5 76z" />
    <glyph glyph-name="dieresis.cap" horiz-adv-x="755" 
d="M168 1782q62 0 103.5 -41.5t41.5 -102.5t-41.5 -102t-103.5 -41q-63 0 -105.5 41t-42.5 102t42.5 102.5t105.5 41.5zM483 1741q43 41 104.5 41t104.5 -41t43 -102.5t-43 -102.5t-104.5 -41t-104.5 41q-41 41 -41 102.5t41 102.5z" />
    <glyph glyph-name="macron.cap" horiz-adv-x="612" 
d="M20 1710h572v-199h-572v199z" />
    <glyph glyph-name="breve.cap" horiz-adv-x="696" 
d="M463 1778h213q0 -129 -91.5 -208t-238.5 -79q-143 0 -234.5 80t-91.5 207h211q0 -52 31 -82.5t86 -30.5q54 0 84.5 30.5t30.5 82.5z" />
    <glyph glyph-name="ring.cap" horiz-adv-x="440" 
d="M434 1692q0 -89 -61 -149t-154 -60t-153 60t-60 149q0 92 59.5 151.5t153.5 59.5t154.5 -59.5t60.5 -151.5zM145 1692q0 -31 21.5 -52.5t52.5 -21.5q32 0 54 21.5t22 52.5q4 47 -36 66.5t-79.5 0t-34.5 -66.5z" />
    <glyph glyph-name="hungarumlaut.cap" horiz-adv-x="858" 
d="M176 1759h273l-207 -264h-222zM565 1759h273l-207 -264h-221z" />
    <glyph glyph-name="dotaccent.cap" horiz-adv-x="342" 
d="M172 1788q62 0 106 -42.5t44 -103.5q0 -62 -44 -104.5t-106 -42.5q-66 0 -109 42t-43 105q0 61 44.5 103.5t107.5 42.5z" />
    <glyph glyph-name="aogonek.alt" horiz-adv-x="1267" 
d="M549 1061q220 0 330 -162l20 139h229v-1038h-14q-145 -59 -145 -178q0 -50 26.5 -77.5t75.5 -27.5q42 0 82 19l31 -129q-45 -25 -123 -25q-117 0 -187.5 62.5t-70.5 171.5q0 124 94 194l-18 129q-110 -162 -330 -162q-206 0 -344 156q-137 155 -137 387q0 230 137 385
q138 156 344 156zM604 811q-114 0 -188 -81t-74 -210t74.5 -211t187.5 -82q108 0 184 76q78 78 78 211v10q0 131 -78 209t-184 78z" />
    <glyph glyph-name="aringacute.alt" horiz-adv-x="1267" 
d="M549 1061q220 0 330 -162l20 139h229v-1038h-229l-20 139q-110 -162 -330 -162q-206 0 -344 156q-137 155 -137 387q0 230 137 385q138 156 344 156zM604 811q-114 0 -188 -81t-74 -210t74.5 -211t187.5 -82q108 0 184 76q78 78 78 211v10q0 131 -78 209t-184 78z
M614 1749h367l-246 -207q94 -61 94 -188q0 -94 -65 -157.5t-164 -63.5q-103 0 -166 63t-63 158q0 92 59 157zM600 1452q-39 0 -65.5 -27.5t-26.5 -68.5q0 -37 27 -64.5t65 -27.5q41 0 66.5 26.5t25.5 65.5q0 42 -25.5 69t-66.5 27z" />
    <glyph glyph-name="aacute.alt" horiz-adv-x="1267" 
d="M549 1061q220 0 330 -162l20 139h229v-1038h-229l-20 139q-110 -162 -330 -162q-206 0 -344 156q-137 155 -137 387q0 230 137 385q138 156 344 156zM604 811q-114 0 -188 -81t-74 -210t74.5 -211t187.5 -82q108 0 184 76q78 78 78 211v10q0 131 -78 209t-184 78z
M688 1499h326l-316 -323h-227z" />
    <glyph glyph-name="abreve.alt" horiz-adv-x="1267" 
d="M549 1061q220 0 330 -162l20 139h229v-1038h-229l-20 139q-110 -162 -330 -162q-206 0 -344 156q-137 155 -137 387q0 230 137 385q138 156 344 156zM604 811q-114 0 -188 -81t-74 -210t74.5 -211t187.5 -82q108 0 184 76q78 78 78 211v10q0 131 -78 209t-184 78z
M717 1462h211q0 -136 -92 -225q-92 -86 -238 -86q-141 0 -233 86q-93 90 -93 225h211q0 -63 31 -101t86 -38q53 0 85 39t32 100z" />
    <glyph glyph-name="adieresis.alt" horiz-adv-x="1267" 
d="M549 1061q220 0 330 -162l20 139h229v-1038h-229l-20 139q-110 -162 -330 -162q-206 0 -344 156q-137 155 -137 387q0 230 137 385q138 156 344 156zM604 811q-114 0 -188 -81t-74 -210t74.5 -211t187.5 -82q108 0 184 76q78 78 78 211v10q0 131 -78 209t-184 78z
M401 1458q62 0 104 -41t42 -102t-42 -102.5t-104 -41.5q-63 0 -105 41t-42 103q0 61 42 102t105 41zM717 1417q43 41 104.5 41t104.5 -41t43 -102.5t-43 -102.5t-104.5 -41t-104.5 41q-41 41 -41 102.5t41 102.5z" />
    <glyph glyph-name="agrave.alt" horiz-adv-x="1267" 
d="M549 1061q220 0 330 -162l20 139h229v-1038h-229l-20 139q-110 -162 -330 -162q-206 0 -344 156q-137 155 -137 387q0 230 137 385q138 156 344 156zM604 811q-114 0 -188 -81t-74 -210t74.5 -211t187.5 -82q108 0 184 76q78 78 78 211v10q0 131 -78 209t-184 78z
M180 1499h326l217 -323h-227z" />
    <glyph glyph-name="amacron.alt" horiz-adv-x="1267" 
d="M549 1061q220 0 330 -162l20 139h229v-1038h-229l-20 139q-110 -162 -330 -162q-206 0 -344 156q-137 155 -137 387q0 230 137 385q138 156 344 156zM604 811q-114 0 -188 -81t-74 -210t74.5 -211t187.5 -82q108 0 184 76q78 78 78 211v10q0 131 -78 209t-184 78z
M319 1403h572v-199h-572v199z" />
    <glyph glyph-name="aring.alt" horiz-adv-x="1267" 
d="M549 1061q220 0 330 -162l20 139h229v-1038h-229l-20 139q-110 -162 -330 -162q-206 0 -344 156q-137 155 -137 387q0 230 137 385q138 156 344 156zM604 811q-114 0 -188 -81t-74 -210t74.5 -211t187.5 -82q108 0 184 76q78 78 78 211v10q0 131 -78 209t-184 78z
M596 1581q102 0 165.5 -64t63.5 -163q0 -94 -65 -157.5t-164 -63.5t-164 63.5t-65 157.5q0 98 64.5 162.5t164.5 64.5zM596 1452q-39 0 -65.5 -27.5t-26.5 -68.5q0 -37 27 -64.5t65 -27.5q41 0 66.5 26.5t25.5 65.5q0 42 -25.5 69t-66.5 27z" />
    <glyph glyph-name="atilde.alt" horiz-adv-x="1267" 
d="M549 1061q220 0 330 -162l20 139h229v-1038h-229l-20 139q-110 -162 -330 -162q-206 0 -344 156q-137 155 -137 387q0 230 137 385q138 156 344 156zM604 811q-114 0 -188 -81t-74 -210t74.5 -211t187.5 -82q108 0 184 76q78 78 78 211v10q0 131 -78 209t-184 78z
M475 1477q53 0 97 -20.5t65 -47.5q52 -68 104 -68q68 0 68 117h158q0 -137 -57.5 -215t-170.5 -78q-53 0 -96.5 20.5t-64.5 47.5q-50 70 -105 70q-70 0 -70 -119h-155q0 139 57 216t170 77z" />
    <glyph glyph-name="gbreve.alt" horiz-adv-x="1259" 
d="M590 811q-109 0 -178.5 -76t-69.5 -200q0 -123 70.5 -200t177.5 -77q104 0 182 72q77 74 80 196v13q0 124 -80 198q-77 74 -182 74zM535 1061q219 0 329 -162l19 139h231v-1013q0 -217 -145 -353q-144 -135 -377 -135q-215 0 -351.5 103t-156.5 299h260q35 -160 248 -160
q120 0 187 64.5t67 174.5v125q-42 -62 -125 -99.5t-186 -37.5q-203 0 -336 148q-131 149 -131 381t131 378q133 148 336 148zM705 1462h210q0 -136 -92 -225q-92 -86 -237 -86q-142 0 -234 86q-92 89 -92 225h211q0 -63 31 -101t86 -38q53 0 85 39t32 100z" />
    <glyph glyph-name="gcircumflex.alt" horiz-adv-x="1259" 
d="M590 811q-109 0 -178.5 -76t-69.5 -200q0 -123 70.5 -200t177.5 -77q104 0 182 72q77 74 80 196v13q0 124 -80 198q-77 74 -182 74zM535 1061q219 0 329 -162l19 139h231v-1013q0 -217 -145 -353q-144 -135 -377 -135q-215 0 -351.5 103t-156.5 299h260q35 -160 248 -160
q120 0 187 64.5t67 174.5v125q-42 -62 -125 -99.5t-186 -37.5q-203 0 -336 148q-131 149 -131 381t131 378q133 148 336 148zM489 1499h197l287 -323h-271l-114 159l-115 -159h-268z" />
    <glyph glyph-name="gcommaaccent.alt" horiz-adv-x="1259" 
d="M590 811q-109 0 -178.5 -76t-69.5 -200q0 -123 70.5 -200t177.5 -77q104 0 182 72q77 74 80 196v13q0 124 -80 198q-77 74 -182 74zM535 1061q219 0 329 -162l19 139h231v-1013q0 -217 -145 -353q-144 -135 -377 -135q-215 0 -351.5 103t-156.5 299h260q35 -160 248 -160
q120 0 187 64.5t67 174.5v125q-42 -62 -125 -99.5t-186 -37.5q-203 0 -336 148q-131 149 -131 381t131 378q133 148 336 148zM598 1724l78 -26q-50 -103 -62 -234q58 -8 96 -49t38 -100q0 -66 -46 -112t-112 -46q-70 0 -116 48.5t-46 125.5q1 97 48 203.5t122 189.5z" />
    <glyph glyph-name="gdotaccent.alt" horiz-adv-x="1259" 
d="M590 811q-109 0 -178.5 -76t-69.5 -200q0 -123 70.5 -200t177.5 -77q104 0 182 72q77 74 80 196v13q0 124 -80 198q-77 74 -182 74zM535 1061q219 0 329 -162l19 139h231v-1013q0 -217 -145 -353q-144 -135 -377 -135q-215 0 -351.5 103t-156.5 299h260q35 -160 248 -160
q120 0 187 64.5t67 174.5v125q-42 -62 -125 -99.5t-186 -37.5q-203 0 -336 148q-131 149 -131 381t131 378q133 148 336 148zM473 1442q47 44 114.5 44t114.5 -44q50 -44 50 -112.5t-50 -112.5q-47 -44 -114.5 -44t-114.5 44q-44 44 -44 112.5t44 112.5z" />
    <glyph glyph-name="acircumflex.alt" horiz-adv-x="1267" 
d="M549 1061q220 0 330 -162l20 139h229v-1038h-229l-20 139q-110 -162 -330 -162q-206 0 -344 156q-137 155 -137 387q0 230 137 385q138 156 344 156zM604 811q-114 0 -188 -81t-74 -210t74.5 -211t187.5 -82q108 0 184 76q78 78 78 211v10q0 131 -78 209t-184 78z
M524 1499h197l287 -323h-271l-114 159l-115 -159h-268z" />
    <glyph glyph-name="zero.tnum" horiz-adv-x="1171" 
d="M584 1133q237 0 374 -158q138 -156 138 -420q0 -268 -138 -424q-137 -158 -374 -158q-233 0 -373 158q-135 159 -135 424q0 264 135 420q140 158 373 158zM584 874q-102 0 -164 -88t-62 -231q0 -147 61.5 -235.5t164.5 -88.5q105 0 166 88.5t61 235.5q0 144 -61 231.5
t-166 87.5z" />
    <glyph glyph-name="one.tnum" horiz-adv-x="788" 
d="M440 1106h207v-1106h-282v688h-302v215q168 0 259.5 47.5t117.5 155.5z" />
    <glyph glyph-name="two.tnum" horiz-adv-x="1017" 
d="M524 1133q201 0 314.5 -107t113.5 -287q0 -101 -42 -177.5t-134 -151.5l-178 -148h360v-262h-872v152l457 368q69 58 98 102.5t29 102.5q0 69 -39 107t-113 38q-73 0 -113.5 -48t-39.5 -140h-283q-3 206 119 328q123 123 323 123z" />
    <glyph glyph-name="three.tnum" horiz-adv-x="1118" 
d="M545 1133q204 0 321 -117q119 -113 119 -291q0 -107 -49.5 -180.5t-128.5 -106.5q102 -31 164.5 -113t62.5 -210q0 -196 -128.5 -312t-344.5 -116q-226 0 -354.5 123t-128.5 342h280q1 -98 57 -150.5t154 -52.5q82 0 132.5 48.5t50.5 129.5q0 186 -246 186h-86v242h82
q200 0 200 158q0 74 -40 115.5t-113 41.5q-74 0 -119 -50t-45 -142h-283q0 210 120 332.5t323 122.5z" />
    <glyph glyph-name="four.tnum" horiz-adv-x="1177" 
d="M582 1106h348v-905h182v-252h-182v-236h-283v236h-602v227zM651 199v555l-37 -80l-276 -475h313z" />
    <glyph glyph-name="five.tnum" horiz-adv-x="1112" 
d="M133 1106h834v-262h-549v-266q72 38 190 38q196 0 314 -115t118 -325q0 -222 -129 -354q-126 -135 -348 -135q-221 0 -346 116t-125 328h283q1 -89 51.5 -135.5t138.5 -46.5q93 0 143 56t50 157q0 99 -51 153q-53 56 -148 56q-98 0 -174 -52h-252v787z" />
    <glyph glyph-name="six.tnum" horiz-adv-x="1146" 
d="M602 1419q190 0 313 -114q126 -114 132 -304h-287q-12 156 -170 156q-214 0 -223 -375q39 55 110.5 88t155.5 33q196 0 317 -127t121 -323q0 -216 -133 -349q-131 -131 -342 -131q-230 0 -363 148q-151 177 -151 547q0 378 128 564.5t392 186.5zM586 664
q-85 0 -145.5 -59t-61.5 -146v-8q0 -92 58.5 -156t148.5 -64q86 0 142 63t56 157q0 91 -56 152t-142 61z" />
    <glyph glyph-name="seven.tnum" horiz-adv-x="1040" 
d="M74 1106h889v-227l-525 -1166h-305l508 1129h-567v264z" />
    <glyph glyph-name="eight.tnum" horiz-adv-x="1140" 
d="M1014 1008q0 -188 -154 -291q193 -102 193 -320q0 -181 -140 -303q-137 -119 -342 -119q-209 0 -346 119t-137 303q0 225 191 320q-152 103 -152 291q0 172 123 292q127 121 321 121q196 0 320 -121q123 -120 123 -292zM571 594q-88 0 -143 -49.5t-55 -132.5
q0 -81 54.5 -128.5t143.5 -47.5q88 0 143.5 48t55.5 128q0 83 -56 132.5t-143 49.5zM571 1161q-75 0 -121.5 -46t-46.5 -118t46.5 -115.5t121.5 -43.5t120.5 43.5t45.5 115.5t-47 118t-119 46z" />
    <glyph glyph-name="nine.tnum" horiz-adv-x="1146" 
d="M543 -313q-190 0 -316 114q-123 114 -129 303h287q12 -155 170 -155q108 0 163.5 90t59.5 283q-39 -52 -111 -85.5t-155 -33.5q-198 0 -317 125q-121 127 -121 325q0 215 133 348q132 132 342 132q229 0 362 -148q152 -178 152 -547q0 -378 -128 -564.5t-392 -186.5z
M559 442q85 0 145.5 58.5t61.5 144.5v10q0 92 -58.5 155.5t-148.5 63.5q-86 0 -142.5 -62.5t-56.5 -156.5q0 -91 56.5 -152t142.5 -61z" />
    <glyph glyph-name="zero.dnom" horiz-adv-x="763" 
d="M696 403q0 -198 -82 -307.5t-233 -109.5t-232 109.5t-81 307.5q0 197 81 305.5t232 108.5t233 -109t82 -305zM270 403q0 -231 111 -231t111 231q0 228 -111 228t-111 -228z" />
    <glyph glyph-name="one.dnom" horiz-adv-x="548" 
d="M301 803h145v-803h-200v524h-183v156q208 0 238 123z" />
    <glyph glyph-name="two.dnom" horiz-adv-x="663" 
d="M338 817q129 0 200.5 -65t71.5 -177q0 -117 -108 -231l-156 -156h260v-188h-540v147l256 265q50 53 68 82t18 65q0 72 -72 72q-80 0 -80 -88h-203q-1 121 78 197.5t207 76.5z" />
    <glyph glyph-name="three.dnom" horiz-adv-x="727" 
d="M356 817q127 0 202 -68t75 -174q0 -109 -101 -155q130 -41 130 -180q0 -120 -79.5 -187t-217.5 -67q-140 0 -218.5 70t-78.5 198h200q0 -40 28.5 -62t74.5 -22q41 0 64.5 21.5t23.5 58.5q0 86 -117 86h-61v158h59q90 0 90 73q6 41 -37.5 58t-80.5 -6q-33 -21 -31 -64
h-201q0 124 74 193t202 69z" />
    <glyph glyph-name="four.dnom" horiz-adv-x="778" 
d="M356 803h254v-498h105v-178h-105v-127h-200v127h-363v160zM412 303v266l-19 -43l-139 -223h158z" />
    <glyph glyph-name="five.dnom" horiz-adv-x="718" 
d="M92 803h520v-189h-317v-116q44 20 104 20q115 0 185.5 -63t70.5 -181q0 -131 -79.5 -209.5t-213.5 -78.5q-137 0 -215.5 69t-78.5 191h200q3 -74 94 -74q93 0 93 94q0 92 -93 92q-50 0 -90 -24h-180v469z" />
    <glyph glyph-name="six.dnom" horiz-adv-x="743" 
d="M387 817q122 0 199 -70t78 -186h-203q-9 70 -82 70q-111 0 -111 -170q55 43 148 43q116 0 188 -68t72 -174q0 -129 -81 -202.5t-214 -73.5q-144 0 -221 86q-97 105 -97 317q0 428 324 428zM274 260q0 -39 28.5 -64.5t72.5 -25.5q43 0 70.5 25t27.5 63q6 53 -46 76
t-104.5 1t-48.5 -75z" />
    <glyph glyph-name="seven.dnom" horiz-adv-x="647" 
d="M57 803h547v-162l-297 -641h-219l285 612h-316v191z" />
    <glyph glyph-name="eight.dnom" horiz-adv-x="735" 
d="M367 817q123 0 200.5 -70t77.5 -176q0 -96 -86 -161q107 -58 107 -172q0 -110 -86 -181t-213 -71t-213 71t-86 181q0 118 106 172q-84 66 -84 161q0 105 77.5 175.5t199.5 70.5zM367 162q41 0 68.5 23.5t27.5 60.5q0 36 -28.5 61t-67.5 25t-67 -25t-28 -61t28 -60t67 -24
zM367 492q50 -5 70 34.5t-1 79t-69 35.5q-48 4 -68 -35.5t0 -79t68 -34.5z" />
    <glyph glyph-name="nine.dnom" horiz-adv-x="743" 
d="M360 817q154 0 226 -84q94 -101 94 -319q0 -428 -326 -428q-120 0 -196.5 70t-77.5 186h203q9 -70 82 -70q110 0 110 170v2q-56 -41 -147 -41q-117 0 -189.5 66t-72.5 172q0 127 81.5 201.5t212.5 74.5zM369 453q42 0 71 26.5t29 63.5q0 39 -28 64.5t-72 25.5
q-41 0 -70 -26t-29 -64q0 -37 29 -63.5t70 -26.5z" />
    <glyph glyph-name="zero.subs" horiz-adv-x="763" 
d="M696 199q0 -198 -82 -308t-233 -110t-232 110t-81 308q0 196 81 304.5t232 108.5t233 -108.5t82 -304.5zM270 199q0 -232 111 -232t111 232q0 227 -111 227t-111 -227z" />
    <glyph glyph-name="one.subs" horiz-adv-x="548" 
d="M301 598h145v-803h-200v524h-183v156q208 0 238 123z" />
    <glyph glyph-name="two.subs" horiz-adv-x="663" 
d="M338 612q129 0 200.5 -64.5t71.5 -176.5q0 -118 -108 -232l-156 -155h260v-189h-540v148l256 264q50 53 68 82t18 65q0 72 -72 72q-80 0 -80 -88h-203q-1 121 78 197.5t207 76.5z" />
    <glyph glyph-name="three.subs" horiz-adv-x="727" 
d="M356 612q127 0 202 -67.5t75 -173.5q0 -110 -101 -156q130 -41 130 -180q0 -120 -79.5 -187t-217.5 -67q-140 0 -218.5 70t-78.5 198h200q0 -40 28.5 -62t74.5 -22q41 0 64.5 21.5t23.5 58.5q0 86 -117 86h-61v158h59q90 0 90 73q6 41 -37.5 58t-80.5 -6q-33 -21 -31 -64
h-201q0 124 74 193t202 69z" />
    <glyph glyph-name="four.subs" horiz-adv-x="778" 
d="M356 598h254v-498h105v-178h-105v-127h-200v127h-363v160zM412 98v267l-19 -43l-139 -224h158z" />
    <glyph glyph-name="five.subs" horiz-adv-x="718" 
d="M92 598h520v-188h-317v-117q44 20 104 20q115 0 185.5 -62.5t70.5 -180.5q0 -131 -79.5 -210t-213.5 -79q-137 0 -215.5 69t-78.5 191h200q3 -74 94 -74q93 0 93 94q0 93 -93 93q-48 0 -90 -25h-180v469z" />
    <glyph glyph-name="six.subs" horiz-adv-x="743" 
d="M387 612q122 0 199 -70t78 -186h-203q-9 70 -82 70q-111 0 -111 -170q55 43 148 43q116 0 188 -67.5t72 -174.5q0 -129 -81 -202.5t-214 -73.5q-144 0 -221 86q-97 105 -97 317q0 428 324 428zM274 55q0 -39 28.5 -64.5t72.5 -25.5q43 0 70.5 25t27.5 63q6 53 -46 76
t-104.5 1t-48.5 -75z" />
    <glyph glyph-name="seven.subs" horiz-adv-x="647" 
d="M57 598h547v-162l-297 -641h-219l285 613h-316v190z" />
    <glyph glyph-name="eight.subs" horiz-adv-x="735" 
d="M367 612q123 0 200.5 -69.5t77.5 -175.5q0 -97 -86 -162q107 -58 107 -172q0 -109 -86 -180q-87 -72 -213 -72t-213 72q-86 71 -86 180q0 118 106 172q-84 66 -84 162q0 105 77.5 175t199.5 70zM367 -43q41 0 68.5 23.5t27.5 60.5q0 36 -28.5 61t-67.5 25t-67 -25
t-28 -61t28 -60t67 -24zM367 287q50 -5 70 34.5t-1 79t-69 35.5q-48 4 -68 -35.5t0 -79t68 -34.5z" />
    <glyph glyph-name="nine.subs" horiz-adv-x="743" 
d="M360 612q154 0 226 -84q94 -101 94 -319q0 -428 -326 -428q-120 0 -196.5 70t-77.5 186h203q9 -70 82 -70q110 0 110 170v2q-56 -41 -147 -41q-117 0 -189.5 66t-72.5 172q0 127 81.5 201.5t212.5 74.5zM369 248q42 0 71 26.5t29 63.5q0 39 -28 64.5t-72 25.5
q-41 0 -70 -26t-29 -64q0 -37 29 -63.5t70 -26.5z" />
    <glyph glyph-name="zero.numr" horiz-adv-x="763" 
d="M696 1034q0 -198 -82 -308t-233 -110t-232 110t-81 308q0 197 81 305.5t232 108.5t233 -109t82 -305zM270 1034q0 -231 111 -231t111 231q0 228 -111 228t-111 -228z" />
    <glyph glyph-name="one.numr" horiz-adv-x="548" 
d="M301 1434h145v-803h-200v524h-183v156q208 0 238 123z" />
    <glyph glyph-name="two.numr" horiz-adv-x="663" 
d="M338 1448q129 0 200.5 -65t71.5 -177q0 -117 -108 -231l-156 -156h260v-188h-540v147l256 264q50 52 68 81.5t18 66.5q0 72 -72 72q-80 0 -80 -88h-203q-1 121 78 197.5t207 76.5z" />
    <glyph glyph-name="three.numr" horiz-adv-x="727" 
d="M356 1448q127 0 202 -68t75 -174q0 -109 -101 -155q130 -41 130 -181q0 -120 -79.5 -187t-217.5 -67q-140 0 -218.5 70.5t-78.5 198.5h200q0 -40 28.5 -62t74.5 -22q41 0 64.5 21.5t23.5 58.5q0 86 -117 86h-61v157h59q90 0 90 74q6 41 -37.5 58t-80.5 -6
q-32 -22 -31 -64h-201q0 124 74 193t202 69z" />
    <glyph glyph-name="four.numr" horiz-adv-x="778" 
d="M356 1434h254v-498h105v-178h-105v-127h-200v127h-363v160zM412 934v266l-19 -43l-139 -223h158z" />
    <glyph glyph-name="five.numr" horiz-adv-x="718" 
d="M92 1434h520v-189h-317v-117q47 21 104 21q115 0 185.5 -63t70.5 -181q0 -131 -79.5 -210t-213.5 -79q-137 0 -215.5 69t-78.5 192h200q3 -74 94 -74q93 0 93 94q0 92 -93 92q-50 0 -90 -24h-180v469z" />
    <glyph glyph-name="six.numr" horiz-adv-x="743" 
d="M387 1448q122 0 199 -70t78 -186h-203q-9 70 -82 70q-111 0 -111 -170q55 43 148 43q116 0 188 -67.5t72 -174.5q0 -129 -81 -203t-214 -74q-144 0 -221 86q-97 105 -97 318q0 428 324 428zM274 891q0 -39 28.5 -64.5t72.5 -25.5q43 0 70.5 25t27.5 63q6 53 -46 76
t-104.5 1t-48.5 -75z" />
    <glyph glyph-name="seven.numr" horiz-adv-x="647" 
d="M57 1434h547v-162l-297 -641h-219l285 612h-316v191z" />
    <glyph glyph-name="eight.numr" horiz-adv-x="735" 
d="M367 1448q123 0 200.5 -70t77.5 -176q0 -97 -86 -162q107 -58 107 -172q0 -109 -86 -180q-87 -72 -213 -72t-213 72q-86 71 -86 180q0 118 106 172q-84 66 -84 162q0 105 77.5 175.5t199.5 70.5zM367 793q41 0 68.5 23.5t27.5 60.5q0 36 -28.5 61t-67.5 25t-67 -25
t-28 -61t28 -60t67 -24zM367 1122q50 -5 70 34.5t-1 79.5t-69 36q-48 4 -68 -36t0 -79.5t68 -34.5z" />
    <glyph glyph-name="nine.numr" horiz-adv-x="743" 
d="M360 1448q154 0 226 -84q94 -101 94 -320q0 -428 -326 -428q-120 0 -196.5 70t-77.5 186h203q9 -69 82 -69q110 0 110 170v2q-56 -41 -147 -41q-117 0 -189.5 65.5t-72.5 171.5q0 127 81.5 202t212.5 75zM369 1083q42 0 71 27t29 64q0 39 -28 64.5t-72 25.5
q-41 0 -70 -26t-29 -64q0 -37 29 -64t70 -27z" />
    <glyph glyph-name="zero.lnum" horiz-adv-x="1177" 
d="M1098 719q0 -346 -133 -547q-132 -199 -375 -199q-245 0 -377 199q-133 201 -133 547q0 345 133 543q131 198 377 198q244 0 375 -198q133 -198 133 -543zM365 719q0 -233 57.5 -358t167.5 -125q109 0 166 124.5t57 358.5q0 231 -57 355t-166 124q-110 0 -167.5 -124.5
t-57.5 -354.5z" />
    <glyph glyph-name="one.lnum" horiz-adv-x="1177" 
d="M600 1434h207v-1182h266v-252h-813v252h264v741h-301v238q175 0 263 46t114 157z" />
    <glyph glyph-name="two.lnum" horiz-adv-x="1177" 
d="M608 1460q204 0 316 -111.5t112 -304.5q0 -113 -43 -208.5t-135 -206.5l-299 -367h496v-262h-887v205l438 524q82 96 114 160t32 141q0 168 -148 168q-79 0 -121 -51t-41 -150h-282q-3 211 119 336q127 127 329 127z" />
    <glyph glyph-name="three.lnum" horiz-adv-x="1177" 
d="M584 1460q207 0 323 -119q119 -116 119 -299q0 -111 -49.5 -187.5t-128.5 -109.5q103 -31 165 -115.5t62 -217.5q0 -202 -129.5 -320.5t-347.5 -118.5q-224 0 -351.5 123t-127.5 342h280q0 -98 55.5 -150t151.5 -52q85 0 135 51t50 137q0 197 -246 197h-84v241h80
q202 0 202 168q0 78 -40.5 123t-112.5 45q-74 0 -120 -50.5t-46 -141.5h-281q0 210 119 332t322 122z" />
    <glyph glyph-name="four.lnum" horiz-adv-x="1177" 
d="M584 1434h350v-926h182v-252h-182v-256h-283v256h-588v227zM655 506v577l-37 -79l-264 -498h301z" />
    <glyph glyph-name="five.lnum" horiz-adv-x="1177" 
d="M176 1434h832v-263h-549v-288q84 41 194 41q196 0 312 -115.5t116 -335.5q0 -229 -129 -364q-127 -136 -346 -136q-221 0 -346 116.5t-125 328.5h281q1 -89 52 -135.5t140 -46.5q91 0 141 59.5t50 163.5t-52 161.5t-145 57.5q-100 0 -174 -51h-252v807z" />
    <glyph glyph-name="six.lnum" horiz-adv-x="1177" 
d="M623 1460q189 0 313 -121q125 -119 131 -313h-285q-12 172 -172 172q-217 0 -223 -399q40 46 111 75t153 29q201 0 320 -125q121 -127 121 -325q0 -217 -134 -351q-132 -129 -342 -129q-233 0 -360 148q-152 178 -152 567q0 388 128 580t391 192zM606 664
q-84 0 -142 -58.5t-63 -146.5v-8q0 -92 58 -156t147 -64q88 0 144.5 61.5t56.5 158.5q0 91 -57 152t-144 61z" />
    <glyph glyph-name="seven.lnum" horiz-adv-x="1177" 
d="M141 1434h920v-228l-524 -1206h-306l508 1169h-598v265z" />
    <glyph glyph-name="eight.lnum" horiz-adv-x="1177" 
d="M590 1460q196 0 319 -123t123 -301q0 -99 -43.5 -177.5t-109.5 -123.5q194 -102 194 -325q0 -187 -139 -314q-138 -123 -344 -123q-208 0 -346 123q-140 128 -140 314q0 116 53.5 200.5t139.5 124.5q-66 44 -109 123t-43 178q0 178 123 301t322 123zM590 614
q-87 0 -144 -53.5t-57 -140.5q0 -85 56 -136t145 -51q87 0 142.5 51t55.5 136q0 86 -57 140t-141 54zM590 1200q-75 0 -121.5 -48t-46.5 -126t45 -123q47 -47 123 -47t121 45t45 125q0 78 -46 126t-120 48z" />
    <glyph glyph-name="nine.lnum" horiz-adv-x="1177" 
d="M555 -27q-190 0 -315 119q-123 120 -129 316h284q12 -172 172 -172q215 0 224 399q-95 -105 -265 -105q-202 0 -321 125t-119 326q0 220 131 348q131 131 344 131q235 0 361 -147q151 -177 151 -568q0 -389 -127.5 -580.5t-390.5 -191.5zM571 770q85 0 144.5 58.5
t60.5 144.5v10q0 92 -58 155.5t-147 63.5q-88 0 -144 -61t-56 -158q0 -91 56.5 -152t143.5 -61z" />
    <glyph glyph-name="b.sups" horiz-adv-x="940" 
d="M117 1751h202v-377q75 84 211 84q149 0 242 -106q98 -107 98 -265q0 -155 -98 -262q-94 -104 -242 -104q-149 0 -225 104l-14 -90h-174v1016zM489 1270q-69 0 -118 -46t-56 -126l-2 -15q0 -79 52 -126.5t124 -47.5q73 0 121.5 49.5t48.5 128.5q0 81 -48.5 132t-121.5 51z
" />
    <glyph glyph-name="c.sups" horiz-adv-x="849" 
d="M438 1458q137 0 227.5 -71.5t108.5 -202.5h-192q-35 92 -142 92q-69 0 -115 -53.5t-46 -135.5q0 -80 47 -132t120 -52q51 0 88 25.5t48 66.5h196q-24 -131 -115.5 -202.5t-224.5 -71.5q-163 0 -266 100q-102 102 -102 266q0 162 102 267q104 104 266 104z" />
    <glyph glyph-name="d.sups" horiz-adv-x="940" 
d="M621 1751h200v-1016h-172l-14 90q-82 -104 -227 -104q-148 0 -242 104q-96 110 -96 262q0 155 96 265q97 106 242 106q138 0 213 -84v377zM451 1270q-74 0 -123 -51t-49 -132q0 -79 49 -128.5t123 -49.5q72 0 123 47.5t51 126.5v15q-1 79 -51.5 125.5t-122.5 46.5z" />
    <glyph glyph-name="e.sups" horiz-adv-x="847" 
d="M432 1458q157 0 249.5 -96t92.5 -275v-57h-495q2 -62 45 -99.5t116 -37.5q105 0 133 72h197q-71 -244 -336 -244q-164 0 -264 100t-100 266q0 164 100 267q101 104 262 104zM428 1292q-65 0 -104.5 -35.5t-44.5 -93.5h290q-1 60 -39.5 94.5t-101.5 34.5z" />
    <glyph glyph-name="f.sups" horiz-adv-x="565" 
d="M430 1767q66 0 96 -12v-178q-32 14 -71 14q-95 0 -95 -90v-57h162v-184h-164v-525h-200v525h-113v184h113v63q0 260 272 260z" />
    <glyph glyph-name="g.sups" horiz-adv-x="813" 
d="M504 1444h274v-172h-90q8 -36 8 -64q0 -104 -84 -176q-82 -67 -211 -67q-55 0 -114 16q-19 -19 -19 -49q0 -58 68 -58h172q114 0 179 -53.5t65 -152.5q0 -120 -88.5 -184t-243.5 -64q-164 0 -251 56t-87 159q0 80 74 127q-82 58 -82 151q0 97 73 152q-51 60 -51 143
q0 107 86 178q90 72 219 72q48 0 103 -14zM455 731h-109q-29 -5 -47 -26t-18 -52q0 -44 38.5 -68t102.5 -24q133 0 133 92q0 36 -27.5 57t-72.5 21zM295 1208q0 -45 28.5 -73.5t75.5 -28.5t76 28.5t29 73.5q0 47 -29 77t-76 30t-75.5 -29.5t-28.5 -77.5z" />
    <glyph glyph-name="h.sups" horiz-adv-x="862" 
d="M117 1751h202v-377q66 84 195 84q115 0 177.5 -69t62.5 -193v-461h-203v404q0 123 -102 123q-58 0 -94 -39.5t-36 -112.5v-375h-202v1016z" />
    <glyph glyph-name="i.sups" horiz-adv-x="440" 
d="M119 1444h203v-709h-203v709zM221 1763q50 0 84.5 -33.5t34.5 -82.5t-34.5 -83t-84.5 -34q-51 0 -86 34t-35 83q0 51 34.5 83.5t86.5 32.5z" />
    <glyph glyph-name="j.sups" horiz-adv-x="440" 
d="M119 1444h200v-725q0 -299 -251 -299q-79 0 -125 14v180q43 -12 86 -12q90 0 90 123v719zM135 1729q35 35 84 35t84 -35q37 -32 37 -81.5t-37 -84.5q-35 -32 -84 -32t-84 32q-35 35 -35 84.5t35 81.5z" />
    <glyph glyph-name="k.sups" horiz-adv-x="833" 
d="M121 1751h201v-580l198 273h238l-207 -299l246 -410h-230l-157 254l-88 -108v-146h-201v1016z" />
    <glyph glyph-name="l.sups" horiz-adv-x="440" 
d="M119 1751h203v-1016h-203v1016z" />
    <glyph glyph-name="m.sups" horiz-adv-x="1284" 
d="M942 1458q112 0 173 -69t61 -193v-461h-201v404q0 123 -101 123q-56 0 -90 -39.5t-34 -112.5v-375h-203v404q0 123 -101 123q-57 0 -92 -39.5t-35 -112.5v-375h-202v709h174l14 -90q58 104 207 104q151 0 209 -119q67 119 221 119z" />
    <glyph glyph-name="o.sups" horiz-adv-x="909" 
d="M453 1458q169 0 276 -104q111 -102 111 -267q0 -162 -111 -264q-108 -102 -276 -102q-167 0 -275 102t-108 264q0 165 108 267q107 104 275 104zM582 1223q-50 53 -127 53t-127 -53q-50 -54 -50 -133.5t50 -133.5q50 -53 127 -53t127 53q50 54 50 133.5t-50 133.5z" />
    <glyph glyph-name="p.sups" horiz-adv-x="942" 
d="M874 1090q0 -156 -98 -263q-93 -106 -241 -106q-136 0 -213 86v-371h-201v1008h172l16 -92q78 106 226 106t241 -106q98 -104 98 -262zM494 1270q-72 0 -124.5 -47.5t-52.5 -126.5v-15q1 -79 52 -125.5t123 -46.5q74 0 123 50t49 131q0 80 -48.5 130t-121.5 50z" />
    <glyph glyph-name="q.sups" horiz-adv-x="942" 
d="M408 1458q146 0 227 -106l14 92h172v-1008h-200v371q-77 -86 -213 -86q-145 0 -242 106q-96 110 -96 263q0 155 96 262q93 106 242 106zM451 1270q-75 0 -123.5 -49.5t-48.5 -130.5t49 -131t123 -50q72 0 122.5 46.5t51.5 125.5v15q0 79 -51 126.5t-123 47.5z" />
    <glyph glyph-name="r.sups" horiz-adv-x="595" 
d="M537 1450v-201q-97 0 -156 -41q-56 -39 -59 -116v-357h-201v709h172l18 -107q52 113 226 113z" />
    <glyph glyph-name="s.sups" horiz-adv-x="727" 
d="M365 1458q120 0 199.5 -62t80.5 -163h-203q-3 67 -80 67t-77 -57q0 -31 28.5 -47.5t102.5 -26.5q128 -20 187 -72t59 -143q0 -114 -83 -173.5t-214 -59.5q-135 0 -214.5 61.5t-84.5 167.5h202q3 -71 101 -71q86 0 86 57q0 31 -28 47.5t-105 28.5q-242 37 -242 213
q0 102 76.5 167.5t208.5 65.5z" />
    <glyph glyph-name="t.sups" horiz-adv-x="598" 
d="M164 1612h203l-2 -168h159v-184h-162l-2 -254q0 -54 21 -76.5t72 -22.5q52 0 71 8v-174q-50 -16 -118 -16q-127 0 -188 54.5t-60 174.5l2 306h-115v184h117z" />
    <glyph glyph-name="u.sups" horiz-adv-x="851" 
d="M532 1444h203v-709h-172l-14 90q-64 -104 -207 -104q-112 0 -174 68t-62 190v465h203v-410q0 -119 101 -119q53 0 87.5 37.5t34.5 104.5v387z" />
    <glyph glyph-name="v.sups" horiz-adv-x="790" 
d="M541 1444h217l-260 -709h-207l-258 709h217l131 -410l14 -65l15 65z" />
    <glyph glyph-name="w.sups" horiz-adv-x="1169" 
d="M918 1444h217l-217 -709h-211l-123 387l-133 -387h-199l-217 709h215l100 -406l17 -77l14 77l115 406h178l112 -406l17 -77l12 77z" />
    <glyph glyph-name="x.sups" horiz-adv-x="817" 
d="M532 1444h234l-217 -350l223 -359h-233l-129 207l-131 -207h-234l225 359l-217 350h234l123 -195z" />
    <glyph glyph-name="y.sups" horiz-adv-x="796" 
d="M541 1444h217l-369 -1008h-209l107 307l-254 701h217l131 -410l14 -65l15 65z" />
    <glyph glyph-name="z.sups" horiz-adv-x="737" 
d="M76 1444h581v-152l-315 -381h334v-176h-602v150l315 383h-313v176z" />
    <glyph glyph-name="a.sups" horiz-adv-x="794" 
d="M395 1458q139 0 218 -66.5t79 -193.5v-463h-170l-12 80q-73 -94 -207 -94q-100 0 -160.5 55t-60.5 148q0 97 56.5 147t172.5 68l181 32v23q0 92 -97 92q-45 0 -72.5 -22t-27.5 -58h-195q8 114 87 183t208 69zM492 1018v18l-136 -26q-39 -6 -56 -21t-17 -45q0 -59 73 -59
q81 0 115 57q21 34 21 76z" />
    <glyph glyph-name="g.alt.sups" horiz-adv-x="931" 
d="M438 1270q-69 0 -114 -46.5t-45 -123.5q0 -74 45.5 -121t113.5 -47q72 0 123 44t51 116v16q0 73 -51 117.5t-123 44.5zM395 1458q147 0 228 -106l14 92h174v-690q0 -149 -103.5 -241.5t-269.5 -92.5q-154 0 -251 72.5t-109 209.5h196q18 -100 164 -100q79 0 124.5 40.5
t45.5 107.5v77q-75 -84 -213 -84q-142 0 -233 99q-92 103 -92 258q0 158 92 258q90 100 233 100z" />
    <glyph glyph-name="a.alt.sups" horiz-adv-x="940" 
d="M635 1354l14 90h172v-709h-172l-14 90q-82 -104 -227 -104q-149 0 -242 106q-96 110 -96 263q0 152 96 262q93 106 242 106q145 0 227 -104zM451 909q72 0 123 47.5t51 126.5v15q3 59 -30 102t-80 59t-100 7t-87 -45q-49 -49 -49 -131q0 -81 49 -131t123 -50z" />
    <glyph glyph-name="g_i.alt" horiz-adv-x="1243" 
d="M625 1544q251 0 403 -162q154 -160 154 -407q0 -245 -154 -410q-153 -159 -403 -159q-252 0 -408 159q-156 163 -156 410q0 248 156 407q155 162 408 162zM625 1399q-182 0 -297 -121q-113 -119 -113 -303q0 -186 113 -305t297 -119q183 0 293 119t110 305
q0 184 -110 303q-112 121 -293 121z" />
    <glyph glyph-name="zero.slash" horiz-adv-x="1171" 
d="M1096 719q0 -346 -133 -547q-132 -199 -377 -199t-377 199q-131 198 -131 547q0 348 131 543q131 198 377 198t377 -198q133 -198 133 -543zM809 719q0 130 -18 229l-342 -639q52 -73 137 -73q109 0 166 124.5t57 358.5zM586 1198q-109 0 -166.5 -124.5t-57.5 -354.5
q0 -125 19 -230l340 637q-54 72 -135 72z" />
    <glyph glyph-name="L_a_r_s_s_e_i_t" horiz-adv-x="6537" 
d="M3471 1516v-252q-86 0 -135 -51t-49 -148v-27h668v-209l-226 -370q152 -35 242 -156q94 -119 94 -276q0 -225 -126 -351.5t-359 -126.5q-93 0 -176 17l4 268q77 -22 147 -22q102 0 163 54.5t61 156.5q0 99 -66.5 153.5t-183.5 54.5h-97v193l222 373h-367v-797h-283v1059
q0 457 467 457zM4647 1061q220 0 350.5 -140.5t130.5 -400.5v-82h-723q6 -105 74 -169t176 -64q162 0 209 121h258q-50 -169 -170.5 -259t-304.5 -90q-230 0 -375 148q-141 150 -141 393q0 240 143 389q145 154 373 154zM1595 1061q193 0 302.5 -98t109.5 -281v-682h-227
l-17 127q-99 -150 -297 -150q-142 0 -228.5 81.5t-86.5 217.5q0 138 81.5 212t240.5 100l268 49v39q0 158 -146 158q-68 0 -111.5 -38.5t-43.5 -99.5h-258q11 163 123 264t290 101zM143 1434h283v-1172h596v-262h-879v1434zM5962 1290h268l-2 -252h238v-241h-240l-4 -420
q0 -82 30 -116t105 -34q57 0 109 15v-234q-61 -22 -168 -22q-175 0 -259 78.5t-83 248.5l4 484h-170v241h170zM2822 1049v-267q-128 0 -207 -61q-78 -63 -84 -193v-528h-266v1038h229l25 -166q31 82 107.5 129.5t195.5 47.5zM5351 1038h267v-1038h-267v1038zM5485 1501
q66 0 113.5 -46t47.5 -112q0 -67 -46.5 -112t-114.5 -45t-115 45t-47 112q0 66 47 112t115 46zM4407 623h453q-2 98 -61.5 157.5t-157.5 59.5q-97 0 -160 -59.5t-74 -157.5zM1741 428v31l-207 -43q-117 -27 -117 -117q0 -47 32 -74.5t89 -27.5q108 0 166 94q37 58 37 137z
" />
    <glyph glyph-name="A.smcp" horiz-adv-x="1234" 
d="M465 1104h305l434 -1104h-293l-80 207h-425l-80 -207h-295zM639 727l-21 66l-22 -66l-119 -311h281z" />
    <glyph glyph-name="B.smcp" horiz-adv-x="1044" 
d="M131 1104h393q183 0 286 -86.5t103 -239.5q0 -132 -86 -209q148 -71 148 -235q0 -152 -107.5 -243t-287.5 -91h-449v1104zM567 457h-161v-224h161q54 0 87.5 30t33.5 81t-33 82t-88 31zM518 868h-112v-213h116q51 0 81 29t30 76q0 49 -32 78.5t-83 29.5z" />
    <glyph glyph-name="C.smcp" horiz-adv-x="1232" 
d="M643 1124q211 0 343 -103.5t183 -293.5h-299q-49 143 -227 143q-127 0 -204 -87.5t-77 -227.5q0 -144 77.5 -233t205.5 -89q185 0 244 160h285q-94 -413 -529 -413q-252 0 -409 161q-158 166 -158 414q0 247 158 408q154 161 407 161z" />
    <glyph glyph-name="D.smcp" horiz-adv-x="1249" 
d="M131 1104h440q270 0 435 -154q163 -153 163 -397q0 -246 -163 -399q-165 -154 -435 -154h-440v1104zM571 848h-165v-592h165q154 0 235 75.5t81 221.5q0 143 -81.5 219t-234.5 76z" />
    <glyph glyph-name="E.smcp" horiz-adv-x="905" 
d="M131 1104h680v-248h-405v-182h344v-228h-344v-198h405v-248h-680v1104z" />
    <glyph glyph-name="F.smcp" horiz-adv-x="862" 
d="M131 1104h672v-248h-397v-201h335v-231h-335v-424h-275v1104z" />
    <glyph glyph-name="G.smcp" horiz-adv-x="1292" 
d="M649 1124q212 0 347 -103t186 -290h-301q-58 143 -236 143q-124 0 -202 -89t-78 -226q0 -149 79.5 -240.5t212.5 -91.5q210 0 244 166h-231v217h514v-100q0 -247 -148 -389q-144 -141 -379 -141q-256 0 -417 161q-160 165 -160 414q0 248 160 408q157 161 409 161z" />
    <glyph glyph-name="H.smcp" horiz-adv-x="1228" 
d="M823 1104h275v-1104h-275v442h-417v-442h-275v1104h275v-406h417v406z" />
    <glyph glyph-name="I.smcp" horiz-adv-x="536" 
d="M131 1104h275v-1104h-275v1104z" />
    <glyph glyph-name="J.smcp" horiz-adv-x="935" 
d="M545 1104h274v-735q0 -177 -101.5 -277t-271.5 -100q-191 0 -290.5 104t-104.5 293h273q6 -139 116 -139q105 0 105 129v725z" />
    <glyph glyph-name="K.smcp" horiz-adv-x="1177" 
d="M752 1104h331l-346 -500l400 -604h-326l-264 395l-141 -174v-221h-275v1104h275v-510z" />
    <glyph glyph-name="L.smcp" horiz-adv-x="909" 
d="M131 1104h275v-848h456v-256h-731v1104z" />
    <glyph glyph-name="M.smcp" horiz-adv-x="1519" 
d="M1067 1104h322v-1104h-275v629l-37 -123l-211 -506h-213l-211 506l-36 123v-629h-275v1104h322l286 -645l21 -60l20 60z" />
    <glyph glyph-name="N.smcp" horiz-adv-x="1263" 
d="M858 1104h277v-1104h-275l-409 582l-45 77v-659h-275v1104h275l407 -588l45 -78v666z" />
    <glyph glyph-name="O.smcp" horiz-adv-x="1325" 
d="M664 -20q-261 0 -422 161q-164 164 -164 412q0 251 164 410q161 161 422 161q258 0 419 -161q164 -159 164 -410q0 -248 -164 -412q-161 -161 -419 -161zM883 782q-79 88 -219 88t-222 -88q-80 -89 -80 -229q0 -142 80 -231q83 -89 222 -89t219 89t80 231q0 140 -80 229z
" />
    <glyph glyph-name="P.smcp" horiz-adv-x="995" 
d="M131 1104h389q193 0 307 -105q115 -103 115 -266q0 -161 -117 -266q-114 -105 -305 -105h-114v-362h-275v1104zM518 860h-112v-254h112q66 0 105 33.5t39 93.5t-39 93.5t-105 33.5z" />
    <glyph glyph-name="Q.smcp" horiz-adv-x="1331" 
d="M1247 553q0 -225 -137 -383l262 -330h-366l-136 170q-108 -30 -206 -30q-261 0 -422 161q-164 164 -164 412q0 251 164 410q161 161 422 161q258 0 419 -161q164 -159 164 -410zM664 233q24 0 36 3v190h242q21 62 21 127q0 140 -80 229q-79 88 -219 88t-222 -88
q-80 -89 -80 -229q0 -143 82 -231.5t220 -88.5z" />
    <glyph glyph-name="R.smcp" horiz-adv-x="1011" 
d="M131 1104h377q194 0 308 -100t114 -267q0 -189 -164 -278l213 -459h-301l-178 399h-94v-399h-275v1104zM508 860h-102v-248h102q66 0 102.5 33t36.5 90q0 125 -139 125z" />
    <glyph glyph-name="S.smcp" horiz-adv-x="958" 
d="M479 1124q167 0 269.5 -88.5t109.5 -242.5h-266q0 57 -30.5 87.5t-84.5 30.5q-49 0 -76.5 -26.5t-27.5 -71.5q0 -53 37.5 -80.5t146.5 -60.5q184 -61 259 -139.5t75 -206.5q0 -163 -113 -254q-112 -92 -282 -92q-196 0 -305.5 97.5t-114.5 260.5h264q9 -145 149 -145
q60 0 93.5 28t33.5 78q0 44 -41 75t-139 62q-178 56 -258 133.5t-80 208.5q0 157 102.5 251.5t278.5 94.5z" />
    <glyph glyph-name="T.smcp" horiz-adv-x="1021" 
d="M23 1104h976v-256h-350v-848h-274v848h-352v256z" />
    <glyph glyph-name="U.smcp" horiz-adv-x="1187" 
d="M795 1104h274v-653q0 -222 -123.5 -346.5t-349.5 -124.5q-228 0 -353.5 124.5t-125.5 346.5v653h274v-653q0 -218 205 -218q199 0 199 218v653z" />
    <glyph glyph-name="V.smcp" horiz-adv-x="1187" 
d="M872 1104h291l-440 -1104h-262l-438 1104h290l254 -655l25 -78l26 78z" />
    <glyph glyph-name="W.smcp" horiz-adv-x="1677" 
d="M1358 1104h289l-338 -1104h-295l-162 578l-14 75l-13 -75l-161 -578h-293l-340 1104h288l189 -651l14 -82l15 82l174 651h256l176 -651l10 -82l18 82z" />
    <glyph glyph-name="X.smcp" horiz-adv-x="1202" 
d="M829 1104h320l-358 -547l366 -557h-321l-236 356l-235 -356h-320l367 557l-361 547h322l227 -348z" />
    <glyph glyph-name="Y.smcp" horiz-adv-x="1157" 
d="M821 1104h316l-422 -701v-403h-275v403l-422 701h318l205 -354l37 -76l38 76z" />
    <glyph glyph-name="Z.smcp" horiz-adv-x="1021" 
d="M86 1104h836v-223l-486 -625h510v-256h-860v223l492 625h-492v256z" />
    <glyph glyph-name="Agrave.smcp" horiz-adv-x="1234" 
d="M465 1104h305l434 -1104h-293l-80 207h-425l-80 -207h-295zM639 727l-21 66l-22 -66l-119 -311h281zM197 1561h325l217 -324h-227z" />
    <glyph glyph-name="Aacute.smcp" horiz-adv-x="1234" 
d="M465 1104h305l434 -1104h-293l-80 207h-425l-80 -207h-295zM639 727l-21 66l-22 -66l-119 -311h281zM702 1561h326l-315 -324h-228z" />
    <glyph glyph-name="Acircumflex.smcp" horiz-adv-x="1234" 
d="M465 1104h305l434 -1104h-293l-80 207h-425l-80 -207h-295zM639 727l-21 66l-22 -66l-119 -311h281zM520 1561h197l287 -324h-271l-115 160l-114 -160h-268z" />
    <glyph glyph-name="Atilde.smcp" horiz-adv-x="1234" 
d="M465 1104h305l434 -1104h-293l-80 207h-425l-80 -207h-295zM639 727l-21 66l-22 -66l-119 -311h281zM487 1538q53 0 97 -20.5t65 -47.5q51 -67 105 -67q67 0 67 117h158q0 -137 -57 -215t-170 -78q-53 0 -97 20t-65 47q-50 70 -105 70q-69 0 -69 -119h-156q0 139 57 216
t170 77z" />
    <glyph glyph-name="Adieresis.smcp" horiz-adv-x="1234" 
d="M465 1104h305l434 -1104h-293l-80 207h-425l-80 -207h-295zM639 727l-21 66l-22 -66l-119 -311h281zM410 1520q62 0 103.5 -41.5t41.5 -102.5t-41.5 -102t-103.5 -41q-63 0 -105.5 41t-42.5 102t42.5 102.5t105.5 41.5zM725 1479q43 41 104.5 41t104.5 -41t43 -102.5
t-43 -102.5t-104.5 -41t-104.5 41q-41 41 -41 102.5t41 102.5z" />
    <glyph glyph-name="Amacron.smcp" horiz-adv-x="1234" 
d="M465 1104h305l434 -1104h-293l-80 207h-425l-80 -207h-295zM639 727l-21 66l-22 -66l-119 -311h281zM334 1464h571v-198h-571v198z" />
    <glyph glyph-name="Abreve.smcp" horiz-adv-x="1234" 
d="M465 1104h305l434 -1104h-293l-80 207h-425l-80 -207h-295zM639 727l-21 66l-22 -66l-119 -311h281zM735 1524h211q0 -137 -92 -226q-92 -86 -238 -86q-141 0 -233 86q-92 89 -92 226h211q0 -63 31 -101.5t85 -38.5q53 0 85 39.5t32 100.5z" />
    <glyph glyph-name="Aring.smcp" horiz-adv-x="1234" 
d="M465 1104h305l434 -1104h-293l-80 207h-425l-80 -207h-295zM639 727l-21 66l-22 -66l-119 -311h281zM618 1642q102 0 166 -64t64 -163q0 -94 -65.5 -157.5t-164.5 -63.5t-164 63.5t-65 157.5q0 98 64.5 162.5t164.5 64.5zM618 1513q-39 0 -65.5 -27.5t-26.5 -68.5
q0 -37 27 -64.5t65 -27.5q41 0 67 26.5t26 65.5q0 42 -26 69t-67 27z" />
    <glyph glyph-name="Aringacute.smcp" horiz-adv-x="1234" 
d="M465 1104h305l434 -1104h-293l-80 207h-425l-80 -207h-295zM629 1792h366l-245 -207q94 -61 94 -188q0 -94 -65.5 -157.5t-164.5 -63.5q-102 0 -165 63q-64 64 -64 158q0 92 59 157zM639 727l-21 66l-22 -66l-119 -311h281zM614 1495q-39 0 -65.5 -27.5t-26.5 -68.5
q0 -37 27 -64.5t65 -27.5q41 0 67 26.5t26 65.5q0 42 -26 69t-67 27z" />
    <glyph glyph-name="Aogonek.smcp" horiz-adv-x="1234" 
d="M465 1104h305l434 -1104h-82q-145 -59 -145 -178q0 -50 26.5 -77.5t75.5 -27.5q42 0 82 19l31 -129q-45 -25 -123 -25q-117 0 -187.5 62.5t-70.5 171.5q0 119 96 194l-76 197h-425l-80 -207h-295zM639 727l-21 66l-22 -66l-119 -311h281z" />
    <glyph glyph-name="AE.smcp" horiz-adv-x="1617" 
d="M739 1104h799v-248h-405v-178h346v-234h-346v-196h405v-248h-680v207h-377l-137 -207h-324zM858 416v409l-37 -71l-213 -338h250z" />
    <glyph glyph-name="AEacute.smcp" horiz-adv-x="1624" 
d="M739 1104h799v-248h-405v-178h346v-234h-346v-196h405v-248h-680v207h-377l-137 -207h-324zM858 416v409l-37 -71l-213 -338h250zM1044 1477h351l-303 -289h-250z" />
    <glyph glyph-name="Cacute.smcp" horiz-adv-x="1232" 
d="M643 1124q211 0 343 -103.5t183 -293.5h-299q-49 143 -227 143q-127 0 -204 -87.5t-77 -227.5q0 -144 77.5 -233t205.5 -89q185 0 244 160h285q-94 -413 -529 -413q-252 0 -409 161q-158 166 -158 414q0 247 158 408q154 161 407 161zM723 1561h326l-316 -324h-227z" />
    <glyph glyph-name="Ccircumflex.smcp" horiz-adv-x="1232" 
d="M643 1124q211 0 343 -103.5t183 -293.5h-299q-49 143 -227 143q-127 0 -204 -87.5t-77 -227.5q0 -144 77.5 -233t205.5 -89q185 0 244 160h285q-94 -413 -529 -413q-252 0 -409 161q-158 166 -158 414q0 247 158 408q154 161 407 161zM543 1561h196l287 -324h-270
l-115 160l-115 -160h-268z" />
    <glyph glyph-name="Ccaron.smcp" horiz-adv-x="1232" 
d="M643 1124q211 0 343 -103.5t183 -293.5h-299q-49 143 -227 143q-127 0 -204 -87.5t-77 -227.5q0 -144 77.5 -233t205.5 -89q185 0 244 160h285q-94 -413 -529 -413q-252 0 -409 161q-158 166 -158 414q0 247 158 408q154 161 407 161zM756 1540h270l-287 -323h-196
l-285 323h268l115 -162z" />
    <glyph glyph-name="Cdotaccent.smcp" horiz-adv-x="1232" 
d="M643 1124q211 0 343 -103.5t183 -293.5h-299q-49 143 -227 143q-127 0 -204 -87.5t-77 -227.5q0 -144 77.5 -233t205.5 -89q185 0 244 160h285q-94 -413 -529 -413q-252 0 -409 161q-158 166 -158 414q0 247 158 408q154 161 407 161zM526 1503q47 44 115 44t115 -44
q50 -44 50 -112.5t-50 -112.5q-47 -44 -115 -44t-115 44q-44 44 -44 112.5t44 112.5z" />
    <glyph glyph-name="Ccedilla.smcp" horiz-adv-x="1232" 
d="M643 1124q211 0 343 -103.5t183 -293.5h-299q-49 143 -227 143q-127 0 -204 -87.5t-77 -227.5q0 -144 77.5 -233t205.5 -89q185 0 244 160h285q-91 -387 -476 -411l-18 -78q83 -5 130.5 -50t47.5 -122q0 -91 -62.5 -143t-164.5 -52q-117 0 -189 66l80 114q41 -47 105 -47
q71 0 71 60q0 61 -73 61q-14 0 -56 -10l-37 12l43 191q-219 20 -360 180q-137 155 -137 391q0 247 158 408q154 161 407 161z" />
    <glyph glyph-name="Dcaron.smcp" horiz-adv-x="1249" 
d="M131 1104h440q270 0 435 -154q163 -153 163 -397q0 -246 -163 -399q-165 -154 -435 -154h-440v1104zM571 848h-165v-592h165q154 0 235 75.5t81 221.5q0 143 -81.5 219t-234.5 76zM678 1540h270l-286 -323h-197l-285 323h269l114 -162z" />
    <glyph glyph-name="Dcroat.smcp" horiz-adv-x="1267" 
d="M147 1104h441q269 0 434 -154q164 -153 164 -397q0 -246 -164 -399q-165 -154 -434 -154h-441v473h-106v184h106v447zM588 848h-166v-191h129v-184h-129v-217h166q154 0 234.5 75.5t80.5 221.5q0 143 -81 219t-234 76z" />
    <glyph glyph-name="Egrave.smcp" horiz-adv-x="905" 
d="M131 1104h680v-248h-405v-182h344v-228h-344v-198h405v-248h-680v1104zM70 1561h325l217 -324h-227z" />
    <glyph glyph-name="Eacute.smcp" horiz-adv-x="905" 
d="M131 1104h680v-248h-405v-182h344v-228h-344v-198h405v-248h-680v1104zM573 1561h326l-315 -324h-228z" />
    <glyph glyph-name="Ecircumflex.smcp" horiz-adv-x="905" 
d="M131 1104h680v-248h-405v-182h344v-228h-344v-198h405v-248h-680v1104zM389 1561h197l286 -324h-270l-115 160l-114 -160h-269z" />
    <glyph glyph-name="Ecaron.smcp" horiz-adv-x="905" 
d="M131 1104h680v-248h-405v-182h344v-228h-344v-198h405v-248h-680v1104zM600 1540h270l-286 -323h-197l-285 323h269l114 -162z" />
    <glyph glyph-name="Edieresis.smcp" horiz-adv-x="905" 
d="M279 1520q62 0 103.5 -41.5t41.5 -102.5t-41.5 -102t-103.5 -41q-63 0 -105.5 41t-42.5 102t42.5 102.5t105.5 41.5zM594 1479q43 41 104.5 41t104.5 -41t43 -102.5t-43 -102.5t-104.5 -41t-104.5 41q-41 41 -41 102.5t41 102.5zM131 1104h680v-248h-405v-182h344v-228
h-344v-198h405v-248h-680v1104z" />
    <glyph glyph-name="Emacron.smcp" horiz-adv-x="905" 
d="M131 1104h680v-248h-405v-182h344v-228h-344v-198h405v-248h-680v1104zM184 1464h572v-198h-572v198z" />
    <glyph glyph-name="Ebreve.smcp" horiz-adv-x="905" 
d="M131 1104h680v-248h-405v-182h344v-228h-344v-198h405v-248h-680v1104zM600 1524h211q0 -137 -92 -226q-92 -86 -238 -86q-141 0 -233 86q-92 89 -92 226h211q0 -63 31 -101.5t85 -38.5q53 0 85 39.5t32 100.5z" />
    <glyph glyph-name="Edotaccent.smcp" horiz-adv-x="905" 
d="M131 1104h680v-248h-405v-182h344v-228h-344v-198h405v-248h-680v1104zM371 1503q47 44 114.5 44t114.5 -44q50 -44 50 -112.5t-50 -112.5q-47 -44 -114.5 -44t-114.5 44q-44 44 -44 112.5t44 112.5z" />
    <glyph glyph-name="Eogonek.smcp" horiz-adv-x="905" 
d="M131 1104h680v-248h-405v-182h344v-228h-344v-198h405v-248h-33q-145 -59 -145 -178q0 -50 26.5 -77.5t75.5 -27.5q42 0 82 19l31 -129q-45 -25 -123 -25q-117 0 -187.5 62.5t-70.5 171.5q0 114 82 184h-418v1104z" />
    <glyph glyph-name="Gcircumflex.smcp" horiz-adv-x="1284" 
d="M649 1124q212 0 347 -103t186 -290h-301q-58 143 -236 143q-124 0 -202 -89t-78 -226q0 -149 79.5 -240.5t212.5 -91.5q210 0 244 166h-231v217h514v-100q0 -247 -148 -389q-144 -141 -379 -141q-256 0 -417 161q-160 165 -160 414q0 248 160 408q157 161 409 161z
M543 1561h196l287 -324h-270l-115 160l-115 -160h-268z" />
    <glyph glyph-name="Gbreve.smcp" horiz-adv-x="1284" 
d="M649 1124q212 0 347 -103t186 -290h-301q-58 143 -236 143q-124 0 -202 -89t-78 -226q0 -149 79.5 -240.5t212.5 -91.5q210 0 244 166h-231v217h514v-100q0 -247 -148 -389q-144 -141 -379 -141q-256 0 -417 161q-160 165 -160 414q0 248 160 408q157 161 409 161z
M760 1524h211q0 -137 -92 -226q-92 -86 -238 -86q-141 0 -233 86q-93 90 -93 226h211q0 -63 31 -101.5t86 -38.5q53 0 85 39.5t32 100.5z" />
    <glyph glyph-name="Gdotaccent.smcp" horiz-adv-x="1284" 
d="M649 1124q212 0 347 -103t186 -290h-301q-58 143 -236 143q-124 0 -202 -89t-78 -226q0 -149 79.5 -240.5t212.5 -91.5q210 0 244 166h-231v217h514v-100q0 -247 -148 -389q-144 -141 -379 -141q-256 0 -417 161q-160 165 -160 414q0 248 160 408q157 161 409 161z
M526 1503q47 44 115 44t115 -44q50 -44 50 -112.5t-50 -112.5q-47 -44 -115 -44t-115 44q-44 44 -44 112.5t44 112.5z" />
    <glyph glyph-name="Gcommaaccent.smcp" horiz-adv-x="1284" 
d="M649 1124q212 0 347 -103t186 -290h-301q-58 143 -236 143q-124 0 -202 -89t-78 -226q0 -149 79.5 -240.5t212.5 -91.5q210 0 244 166h-231v217h514v-100q0 -247 -148 -389q-144 -141 -379 -141q-256 0 -417 161q-160 165 -160 414q0 248 160 408q157 161 409 161z
M639 -88q70 0 115 -48.5t45 -125.5q0 -88 -47 -185t-123 -174l-74 31q49 86 59 195q-60 8 -97.5 48.5t-37.5 100.5q0 66 46.5 112t113.5 46z" />
    <glyph glyph-name="Hcircumflex.smcp" horiz-adv-x="1228" 
d="M823 1104h275v-1104h-275v442h-417v-442h-275v1104h275v-406h417v406zM518 1561h197l286 -324h-270l-115 160l-114 -160h-269z" />
    <glyph glyph-name="Hbar.smcp" horiz-adv-x="1257" 
d="M836 1104h274v-119h111v-162h-111v-823h-274v442h-418v-442h-275v823h-106v162h106v119h275v-119h418v119zM418 823v-125h418v125h-418z" />
    <glyph glyph-name="Igrave.smcp" horiz-adv-x="536" 
d="M131 1104h275v-1104h-275v1104zM-145 1559h325l217 -324h-227z" />
    <glyph glyph-name="Iacute.smcp" horiz-adv-x="536" 
d="M131 1104h275v-1104h-275v1104zM356 1559h326l-315 -324h-228z" />
    <glyph glyph-name="Icircumflex.smcp" horiz-adv-x="536" 
d="M176 1559h197l286 -324h-270l-115 160l-114 -160h-269zM131 1104h275v-1104h-275v1104z" />
    <glyph glyph-name="Itilde.smcp" horiz-adv-x="536" 
d="M145 1536q53 0 97 -20.5t65 -47.5q51 -67 105 -67q67 0 67 117h158q0 -137 -57 -215t-170 -78q-43 -1 -79 13t-60 35t-44.5 42t-41.5 35t-42 12q-69 0 -69 -119h-156q0 139 57 216t170 77zM131 1104h275v-1104h-275v1104z" />
    <glyph glyph-name="Idieresis.smcp" horiz-adv-x="536" 
d="M68 1518q62 0 103.5 -41.5t41.5 -102.5t-41.5 -102t-103.5 -41q-63 0 -105.5 41t-42.5 102t42.5 102.5t105.5 41.5zM383 1477q43 41 104.5 41t104.5 -41t43 -102.5t-43 -102.5t-104.5 -41t-104.5 41q-41 41 -41 102.5t41 102.5zM131 1104h275v-1104h-275v1104z" />
    <glyph glyph-name="Imacron.smcp" horiz-adv-x="536" 
d="M-8 1462h571v-198h-571v198zM131 1104h275v-1104h-275v1104z" />
    <glyph glyph-name="Ibreve.smcp" horiz-adv-x="536" 
d="M393 1522h211q0 -137 -92 -226q-92 -86 -238 -86q-141 0 -233 86q-92 89 -92 226h211q0 -63 31 -101.5t85 -38.5q53 0 85 39.5t32 100.5zM131 1104h275v-1104h-275v1104z" />
    <glyph glyph-name="Idotaccent.smcp" horiz-adv-x="536" 
d="M158 1501q47 44 114.5 44t114.5 -44q49 -44 49 -112.5t-49 -112.5q-47 -44 -114.5 -44t-114.5 44q-44 44 -44 112.5t44 112.5zM131 1104h275v-1104h-275v1104z" />
    <glyph glyph-name="Iogonek.smcp" horiz-adv-x="536" 
d="M131 1104h275v-1104h-89q-124 -58 -124 -170q0 -50 26.5 -77t75.5 -27q44 0 82 18l31 -129q-45 -25 -123 -25q-117 0 -187.5 62.5t-70.5 171.5q0 125 104 201v1079z" />
    <glyph glyph-name="Jcircumflex.smcp" horiz-adv-x="935" 
d="M545 1104h274v-735q0 -177 -101.5 -277t-271.5 -100q-191 0 -290.5 104t-104.5 293h273q6 -139 116 -139q105 0 105 129v725zM588 1559h196l287 -324h-270l-115 160l-115 -160h-268z" />
    <glyph glyph-name="Kcommaaccent.smcp" horiz-adv-x="1177" 
d="M752 1104h331l-346 -500l400 -604h-326l-264 395l-141 -174v-221h-275v1104h275v-510zM596 -72q70 0 115 -48.5t45 -125.5q0 -88 -47 -184t-123 -174l-74 31q49 86 59 194q-60 8 -97.5 49t-37.5 101q0 66 46.5 111.5t113.5 45.5z" />
    <glyph glyph-name="Lacute.smcp" horiz-adv-x="909" 
d="M131 1104h275v-848h456v-256h-731v1104zM360 1561h326l-315 -324h-228z" />
    <glyph glyph-name="Lcaron.smcp" horiz-adv-x="915" 
d="M764 1182q70 0 115 -48.5t45 -125.5q0 -96 -47.5 -203t-122.5 -191l-76 27q49 103 63 233q-60 8 -98.5 49t-38.5 101q0 66 47 112t113 46zM131 1104h275v-848h456v-256h-731v1104z" />
    <glyph glyph-name="Lcommaaccent.smcp" horiz-adv-x="915" 
d="M494 -76q70 0 114.5 -48.5t44.5 -125.5q0 -88 -47 -184t-123 -174l-73 30q49 86 59 195q-60 8 -97.5 49t-37.5 101q0 66 46.5 111.5t113.5 45.5zM131 1104h275v-848h456v-256h-731v1104z" />
    <glyph glyph-name="Lslash.smcp" horiz-adv-x="956" 
d="M166 1104h274v-418l125 39l58 -174l-183 -57v-238h457v-256h-731v410l-111 -35l-55 172l166 51v506z" />
    <glyph glyph-name="Ldot.smcp" horiz-adv-x="917" 
d="M131 1104h275v-848h456v-256h-731v1104zM702 754q68 0 116 -47.5t48 -114.5t-48 -114.5t-116 -47.5q-69 0 -116 46.5t-47 115.5t47 115.5t116 46.5z" />
    <glyph glyph-name="Nacute.smcp" horiz-adv-x="1263" 
d="M858 1104h277v-1104h-275l-409 582l-45 77v-659h-275v1104h275l407 -588l45 -78v666zM737 1559h326l-315 -324h-228z" />
    <glyph glyph-name="Ncaron.smcp" horiz-adv-x="1263" 
d="M858 1104h277v-1104h-275l-409 582l-45 77v-659h-275v1104h275l407 -588l45 -78v666zM766 1538h270l-286 -324h-197l-285 324h269l114 -162z" />
    <glyph glyph-name="Ntilde.smcp" horiz-adv-x="1263" 
d="M522 1536q53 0 97 -20.5t65 -47.5q51 -67 104 -67q68 0 68 117h158q0 -137 -57.5 -215t-170.5 -78q-43 -1 -79 13t-59.5 35t-44 42t-41.5 35t-42 12q-69 0 -69 -119h-156q0 139 57 216t170 77zM858 1104h277v-1104h-275l-409 582l-45 77v-659h-275v1104h275l407 -588
l45 -78v666z" />
    <glyph glyph-name="Ncommaaccent.smcp" horiz-adv-x="1263" 
d="M858 1104h277v-1104h-275l-409 582l-45 77v-659h-275v1104h275l407 -588l45 -78v666zM631 -70q70 0 115 -48.5t45 -125.5q0 -88 -47 -184t-123 -174l-74 31q49 86 59 194q-60 8 -97.5 49t-37.5 101q0 66 46.5 111.5t113.5 45.5z" />
    <glyph glyph-name="Ograve.smcp" horiz-adv-x="1331" 
d="M666 -20q-261 0 -422 161q-164 164 -164 412q0 251 164 410q161 161 422 161q258 0 419 -161q164 -159 164 -410q0 -248 -164 -412q-161 -161 -419 -161zM885 782q-79 88 -219 88t-222 -88q-79 -88 -79 -229q0 -143 79 -231q83 -89 222 -89t219 89t80 231q0 140 -80 229z
M244 1561h325l217 -324h-227z" />
    <glyph glyph-name="Oacute.smcp" horiz-adv-x="1331" 
d="M666 -20q-261 0 -422 161q-164 164 -164 412q0 251 164 410q161 161 422 161q258 0 419 -161q164 -159 164 -410q0 -248 -164 -412q-161 -161 -419 -161zM885 782q-79 88 -219 88t-222 -88q-79 -88 -79 -229q0 -143 79 -231q83 -89 222 -89t219 89t80 231q0 140 -80 229z
M750 1561h325l-315 -324h-228z" />
    <glyph glyph-name="Ocircumflex.smcp" horiz-adv-x="1331" 
d="M666 -20q-261 0 -422 161q-164 164 -164 412q0 251 164 410q161 161 422 161q258 0 419 -161q164 -159 164 -410q0 -248 -164 -412q-161 -161 -419 -161zM885 782q-79 88 -219 88t-222 -88q-79 -88 -79 -229q0 -143 79 -231q83 -89 222 -89t219 89t80 231q0 140 -80 229z
M567 1561h197l287 -324h-271l-114 160l-115 -160h-268z" />
    <glyph glyph-name="Otilde.smcp" horiz-adv-x="1331" 
d="M535 1538q53 0 96.5 -20.5t64.5 -47.5q51 -67 105 -67q67 0 67 117h158q0 -137 -57 -215t-170 -78q-53 0 -97 20t-65 47q-50 70 -105 70q-69 0 -69 -119h-156q0 138 57.5 215.5t170.5 77.5zM666 -20q-261 0 -422 161q-164 164 -164 412q0 251 164 410q161 161 422 161
q258 0 419 -161q164 -159 164 -410q0 -248 -164 -412q-161 -161 -419 -161zM885 782q-79 88 -219 88t-222 -88q-79 -88 -79 -229q0 -143 79 -231q83 -89 222 -89t219 89t80 231q0 140 -80 229z" />
    <glyph glyph-name="Odieresis.smcp" horiz-adv-x="1331" 
d="M666 -20q-261 0 -422 161q-164 164 -164 412q0 251 164 410q161 161 422 161q258 0 419 -161q164 -159 164 -410q0 -248 -164 -412q-161 -161 -419 -161zM885 782q-79 88 -219 88t-222 -88q-79 -88 -79 -229q0 -143 79 -231q83 -89 222 -89t219 89t80 231q0 140 -80 229z
M455 1520q62 0 103.5 -41.5t41.5 -102.5t-41.5 -102t-103.5 -41q-63 0 -105.5 41t-42.5 102t42.5 102.5t105.5 41.5zM770 1479q43 41 104.5 41t104.5 -41t43 -102.5t-43 -102.5t-104.5 -41t-104.5 41q-41 41 -41 102.5t41 102.5z" />
    <glyph glyph-name="Omacron.smcp" horiz-adv-x="1331" 
d="M666 -20q-261 0 -422 161q-164 164 -164 412q0 251 164 410q161 161 422 161q258 0 419 -161q164 -159 164 -410q0 -248 -164 -412q-161 -161 -419 -161zM885 782q-79 88 -219 88t-222 -88q-79 -88 -79 -229q0 -143 79 -231q83 -89 222 -89t219 89t80 231q0 140 -80 229z
M381 1464h571v-198h-571v198z" />
    <glyph glyph-name="Obreve.smcp" horiz-adv-x="1331" 
d="M666 -20q-261 0 -422 161q-164 164 -164 412q0 251 164 410q161 161 422 161q258 0 419 -161q164 -159 164 -410q0 -248 -164 -412q-161 -161 -419 -161zM885 782q-79 88 -219 88t-222 -88q-79 -88 -79 -229q0 -143 79 -231q83 -89 222 -89t219 89t80 231q0 140 -80 229z
M782 1524h211q0 -137 -92 -226q-92 -86 -237 -86q-142 0 -234 86q-92 89 -92 226h211q0 -63 31 -101.5t86 -38.5q53 0 84.5 39.5t31.5 100.5z" />
    <glyph glyph-name="Ohungarumlaut.smcp" horiz-adv-x="1331" 
d="M666 -20q-261 0 -422 161q-164 164 -164 412q0 251 164 410q161 161 422 161q258 0 419 -161q164 -159 164 -410q0 -248 -164 -412q-161 -161 -419 -161zM885 782q-79 88 -219 88t-222 -88q-79 -88 -79 -229q0 -143 79 -231q83 -89 222 -89t219 89t80 231q0 140 -80 229z
M508 1561h272l-217 -324h-219zM907 1561h273l-217 -324h-220z" />
    <glyph glyph-name="Oslash.smcp" horiz-adv-x="1331" 
d="M666 1124q119 0 223 -39l96 152l166 -98l-94 -150q192 -162 192 -436q0 -248 -164 -412q-161 -161 -419 -161q-118 0 -222 36l-94 -149l-166 96l92 148q-196 163 -196 442q0 251 164 410q161 161 422 161zM666 870q-138 0 -219.5 -87.5t-81.5 -229.5q0 -125 61 -207
l322 514q-45 10 -82 10zM965 553q0 117 -58 199l-321 -510q34 -9 80 -9q138 0 218.5 88.5t80.5 231.5z" />
    <glyph glyph-name="Oslashacute.smcp" horiz-adv-x="1331" 
d="M666 1124q112 0 213 -34l92 147l188 -98l-96 -154q186 -162 186 -432q0 -248 -164 -412q-161 -161 -419 -161q-116 0 -213 32l-93 -147l-188 98l96 154q-188 164 -188 436q0 251 164 410q161 161 422 161zM754 1550h325l-315 -323h-227zM666 870q-138 0 -219.5 -87.5
t-81.5 -229.5q0 -114 53 -197l317 506q-41 8 -69 8zM965 553q0 107 -54 192l-315 -505q35 -7 70 -7q138 0 218.5 88.5t80.5 231.5z" />
    <glyph glyph-name="OE.smcp" horiz-adv-x="1744" 
d="M971 1104h680v-248h-406v-182h344v-228h-344v-198h406v-248h-680v90q-131 -110 -320 -110q-250 0 -411 161q-162 162 -162 412q0 252 162 410q161 161 411 161q183 0 320 -110v90zM666 870q-136 0 -220 -88.5t-84 -228.5t84 -230t220 -90q141 0 223 88.5t82 231.5v12
q-5 138 -86 221.5t-219 83.5z" />
    <glyph glyph-name="Racute.smcp" horiz-adv-x="1011" 
d="M131 1104h377q194 0 308 -100t114 -267q0 -189 -164 -278l213 -459h-301l-178 399h-94v-399h-275v1104zM575 1559h326l-315 -324h-228zM508 860h-102v-248h102q66 0 102.5 33t36.5 90q0 125 -139 125z" />
    <glyph glyph-name="Rcaron.smcp" horiz-adv-x="1011" 
d="M131 1104h377q194 0 308 -100t114 -267q0 -189 -164 -278l213 -459h-301l-178 399h-94v-399h-275v1104zM598 1538h270l-286 -324h-197l-285 324h269l114 -162zM508 860h-102v-248h102q66 0 102.5 33t36.5 90q0 125 -139 125z" />
    <glyph glyph-name="Rcommaaccent.smcp" horiz-adv-x="1011" 
d="M131 1104h377q194 0 308 -100t114 -267q0 -189 -164 -278l213 -459h-301l-178 399h-94v-399h-275v1104zM539 -70q70 0 114.5 -48.5t44.5 -125.5q0 -88 -47 -184t-123 -174l-73 31q49 86 59 194q-60 8 -97.5 49t-37.5 101q0 66 46.5 111.5t113.5 45.5zM508 860h-102v-248
h102q66 0 102.5 33t36.5 90q0 125 -139 125z" />
    <glyph glyph-name="Sacute.smcp" horiz-adv-x="958" 
d="M479 1124q167 0 269.5 -88.5t109.5 -242.5h-266q0 57 -30.5 87.5t-84.5 30.5q-49 0 -76.5 -26.5t-27.5 -71.5q0 -53 37.5 -80.5t146.5 -60.5q184 -61 259 -139.5t75 -206.5q0 -163 -113 -254q-112 -92 -282 -92q-196 0 -305.5 97.5t-114.5 260.5h264q9 -145 149 -145
q60 0 93.5 28t33.5 78q0 44 -41 75t-139 62q-178 56 -258 133.5t-80 208.5q0 157 102.5 251.5t278.5 94.5zM567 1559h326l-315 -324h-228z" />
    <glyph glyph-name="Scircumflex.smcp" horiz-adv-x="958" 
d="M479 1124q167 0 269.5 -88.5t109.5 -242.5h-266q0 57 -30.5 87.5t-84.5 30.5q-49 0 -76.5 -26.5t-27.5 -71.5q0 -53 37.5 -80.5t146.5 -60.5q184 -61 259 -139.5t75 -206.5q0 -163 -113 -254q-112 -92 -282 -92q-196 0 -305.5 97.5t-114.5 260.5h264q9 -145 149 -145
q60 0 93.5 28t33.5 78q0 44 -41 75t-139 62q-178 56 -258 133.5t-80 208.5q0 157 102.5 251.5t278.5 94.5zM385 1559h197l286 -324h-270l-115 160l-114 -160h-269z" />
    <glyph glyph-name="Scaron.smcp" horiz-adv-x="958" 
d="M479 1124q167 0 269.5 -88.5t109.5 -242.5h-266q0 57 -30.5 87.5t-84.5 30.5q-49 0 -76.5 -26.5t-27.5 -71.5q0 -53 37.5 -80.5t146.5 -60.5q184 -61 259 -139.5t75 -206.5q0 -163 -113 -254q-112 -92 -282 -92q-196 0 -305.5 97.5t-114.5 260.5h264q9 -145 149 -145
q60 0 93.5 28t33.5 78q0 44 -41 75t-139 62q-178 56 -258 133.5t-80 208.5q0 157 102.5 251.5t278.5 94.5zM598 1538h270l-286 -324h-197l-285 324h269l114 -162z" />
    <glyph glyph-name="Scedilla.smcp" horiz-adv-x="968" 
d="M481 1124q167 0 269.5 -88.5t109.5 -242.5h-266q0 57 -30.5 87.5t-84.5 30.5q-49 0 -76.5 -26.5t-27.5 -71.5q0 -53 37.5 -80.5t146.5 -60.5q184 -61 259 -139.5t75 -206.5q0 -149 -98 -241t-256 -103l-19 -78q83 -5 130.5 -50t47.5 -122q0 -91 -62.5 -143t-164.5 -52
q-116 0 -188 66l79 114q41 -47 105 -47q72 0 72 60q0 61 -74 61q-13 0 -55 -10l-37 12l43 193q-158 18 -245.5 113.5t-92.5 238.5h264q9 -145 150 -145q60 0 93 28t33 78q0 44 -41 75t-139 62q-178 56 -258 133.5t-80 208.5q0 157 102.5 251.5t278.5 94.5z" />
    <glyph glyph-name="Scommaaccent.smcp" horiz-adv-x="964" 
d="M481 1124q167 0 269.5 -88.5t109.5 -242.5h-266q0 57 -30.5 87.5t-84.5 30.5q-49 0 -76.5 -26.5t-27.5 -71.5q0 -53 37.5 -80.5t146.5 -60.5q184 -61 259 -139.5t75 -206.5q0 -163 -113 -254q-112 -92 -282 -92q-196 0 -305.5 97.5t-114.5 260.5h264q9 -145 150 -145
q60 0 93 28t33 78q0 44 -41 75t-139 62q-178 56 -258 133.5t-80 208.5q0 157 102.5 251.5t278.5 94.5zM481 -84q70 0 115 -48.5t45 -125.5q0 -88 -47 -184t-123 -174l-74 30q51 88 60 195q-60 8 -97.5 48.5t-37.5 100.5q0 66 46 112t113 46z" />
    <glyph glyph-name="germandbls.smcp" horiz-adv-x="1120" 
d="M563 1124q269 0 445 -188l-211 -277q114 -19 183 -97.5t69 -194.5q0 -178 -109.5 -277.5t-312.5 -99.5q-24 0 -144 10l11 248q73 -17 114 -17q72 0 114 33.5t42 93.5q0 142 -248 142l-16 100l172 231q-46 46 -121 46q-72 0 -115 -45.5t-43 -120.5v-711h-274v705
q0 190 116.5 304.5t327.5 114.5z" />
    <glyph glyph-name="Tcaron.smcp" horiz-adv-x="1021" 
d="M23 1104h976v-256h-350v-848h-274v848h-352v256zM627 1538h270l-287 -324h-196l-285 324h268l115 -162z" />
    <glyph glyph-name="Tcommaaccent.smcp" horiz-adv-x="1021" 
d="M23 1104h976v-256h-350v-848h-274v848h-352v256zM510 -72q70 0 115 -48.5t45 -125.5q0 -88 -47 -184t-123 -174l-74 31q49 86 59 194q-60 8 -97.5 49t-37.5 101q0 66 46.5 111.5t113.5 45.5z" />
    <glyph glyph-name="Tbar.smcp" horiz-adv-x="1021" 
d="M23 1104h976v-256h-350v-252h223v-184h-223v-412h-274v412h-223v184h223v252h-352v256z" />
    <glyph glyph-name="Ugrave.smcp" horiz-adv-x="1187" 
d="M795 1104h274v-653q0 -222 -123.5 -346.5t-349.5 -124.5q-228 0 -353.5 124.5t-125.5 346.5v653h274v-653q0 -218 205 -218q199 0 199 218v653zM172 1559h326l217 -324h-228z" />
    <glyph glyph-name="Uacute.smcp" horiz-adv-x="1187" 
d="M795 1104h274v-653q0 -222 -123.5 -346.5t-349.5 -124.5q-228 0 -353.5 124.5t-125.5 346.5v653h274v-653q0 -218 205 -218q199 0 199 218v653zM678 1559h326l-316 -324h-227z" />
    <glyph glyph-name="Ucircumflex.smcp" horiz-adv-x="1187" 
d="M795 1104h274v-653q0 -222 -123.5 -346.5t-349.5 -124.5q-228 0 -353.5 124.5t-125.5 346.5v653h274v-653q0 -218 205 -218q199 0 199 218v653zM496 1559h196l287 -324h-270l-115 160l-115 -160h-268z" />
    <glyph glyph-name="Utilde.smcp" horiz-adv-x="1187" 
d="M463 1536q53 0 97 -20.5t65 -47.5q51 -67 104 -67q68 0 68 117h157q0 -137 -57 -215t-170 -78q-43 -1 -79 13t-59.5 35t-44 42t-41.5 35t-42 12q-70 0 -70 -119h-155q0 139 57 216t170 77zM795 1104h274v-653q0 -222 -123.5 -346.5t-349.5 -124.5q-228 0 -353.5 124.5
t-125.5 346.5v653h274v-653q0 -218 205 -218q199 0 199 218v653z" />
    <glyph glyph-name="Udieresis.smcp" horiz-adv-x="1187" 
d="M795 1104h274v-653q0 -222 -123.5 -346.5t-349.5 -124.5q-228 0 -353.5 124.5t-125.5 346.5v653h274v-653q0 -218 205 -218q199 0 199 218v653zM383 1518q62 0 103.5 -41.5t41.5 -102.5t-41.5 -102t-103.5 -41q-63 0 -105 41t-42 102q0 62 42 103t105 41zM698 1477
q43 41 104.5 41t104.5 -41t43 -102.5t-43 -102.5t-104.5 -41t-104.5 41q-41 41 -41 102.5t41 102.5z" />
    <glyph glyph-name="Umacron.smcp" horiz-adv-x="1187" 
d="M795 1104h274v-653q0 -222 -123.5 -346.5t-349.5 -124.5q-228 0 -353.5 124.5t-125.5 346.5v653h274v-653q0 -218 205 -218q199 0 199 218v653zM309 1462h572v-198h-572v198z" />
    <glyph glyph-name="Ubreve.smcp" horiz-adv-x="1187" 
d="M795 1104h274v-653q0 -222 -123.5 -346.5t-349.5 -124.5q-228 0 -353.5 124.5t-125.5 346.5v653h274v-653q0 -218 205 -218q199 0 199 218v653zM711 1522h211q0 -136 -93 -226q-92 -86 -237 -86q-142 0 -234 86q-92 89 -92 226h211q0 -63 31 -101.5t86 -38.5
q53 0 85 39.5t32 100.5z" />
    <glyph glyph-name="Uring.smcp" horiz-adv-x="1187" 
d="M594 1640q102 0 165.5 -64t63.5 -163q0 -94 -65 -157.5t-164 -63.5t-164 63.5t-65 157.5q0 98 64.5 162.5t164.5 64.5zM594 1511q-39 0 -65.5 -27.5t-26.5 -68.5q0 -37 27 -64.5t65 -27.5q41 0 66.5 26.5t25.5 65.5q0 42 -25.5 69t-66.5 27zM795 1104h274v-653
q0 -222 -123.5 -346.5t-349.5 -124.5q-228 0 -353.5 124.5t-125.5 346.5v653h274v-653q0 -218 205 -218q199 0 199 218v653z" />
    <glyph glyph-name="Uhungarumlaut.smcp" horiz-adv-x="1187" 
d="M795 1104h274v-653q0 -222 -123.5 -346.5t-349.5 -124.5q-228 0 -353.5 124.5t-125.5 346.5v653h274v-653q0 -218 205 -218q199 0 199 218v653zM436 1559h273l-217 -324h-220zM836 1559h272l-217 -324h-219z" />
    <glyph glyph-name="Uogonek.smcp" horiz-adv-x="1187" 
d="M795 1104h274v-653q0 -177 -77.5 -292.5t-225.5 -156.5q-86 -53 -86 -149q0 -50 26.5 -77.5t75.5 -27.5q42 0 82 19l31 -129q-45 -25 -123 -25q-117 0 -187.5 62t-70.5 171q0 77 39 136q-209 12 -322.5 135t-113.5 334v653h274v-653q0 -218 205 -218q199 0 199 218v653z
" />
    <glyph glyph-name="Wgrave.smcp" horiz-adv-x="1677" 
d="M1358 1104h289l-338 -1104h-295l-162 578l-14 75l-13 -75l-161 -578h-293l-340 1104h288l189 -651l14 -82l15 82l174 651h256l176 -651l10 -82l18 82zM416 1561h325l217 -324h-227z" />
    <glyph glyph-name="Wacute.smcp" horiz-adv-x="1677" 
d="M1358 1104h289l-338 -1104h-295l-162 578l-14 75l-13 -75l-161 -578h-293l-340 1104h288l189 -651l14 -82l15 82l174 651h256l176 -651l10 -82l18 82zM922 1561h325l-315 -324h-227z" />
    <glyph glyph-name="Wcircumflex.smcp" horiz-adv-x="1677" 
d="M1358 1104h289l-338 -1104h-295l-162 578l-14 75l-13 -75l-161 -578h-293l-340 1104h288l189 -651l14 -82l15 82l174 651h256l176 -651l10 -82l18 82zM739 1561h197l287 -324h-271l-114 160l-115 -160h-268z" />
    <glyph glyph-name="Wdieresis.smcp" horiz-adv-x="1677" 
d="M1358 1104h289l-338 -1104h-295l-162 578l-14 75l-13 -75l-161 -578h-293l-340 1104h288l189 -651l14 -82l15 82l174 651h256l176 -651l10 -82l18 82zM629 1520q62 0 103.5 -41.5t41.5 -102.5t-41.5 -102t-103.5 -41q-63 0 -105.5 41t-42.5 102t42.5 102.5t105.5 41.5z
M944 1479q43 41 104.5 41t104.5 -41t43 -102.5t-43 -102.5t-104.5 -41t-104.5 41q-41 41 -41 102.5t41 102.5z" />
    <glyph glyph-name="Ygrave.smcp" horiz-adv-x="1157" 
d="M821 1104h316l-422 -701v-403h-275v403l-422 701h318l205 -354l37 -76l38 76zM154 1561h325l217 -324h-227z" />
    <glyph glyph-name="Yacute.smcp" horiz-adv-x="1157" 
d="M821 1104h316l-422 -701v-403h-275v403l-422 701h318l205 -354l37 -76l38 76zM657 1561h326l-315 -324h-228z" />
    <glyph glyph-name="Ycircumflex.smcp" horiz-adv-x="1157" 
d="M821 1104h316l-422 -701v-403h-275v403l-422 701h318l205 -354l37 -76l38 76zM475 1561h197l286 -324h-270l-115 160l-114 -160h-269z" />
    <glyph glyph-name="Ydieresis.smcp" horiz-adv-x="1157" 
d="M821 1104h316l-422 -701v-403h-275v403l-422 701h318l205 -354l37 -76l38 76zM365 1520q62 0 103.5 -41.5t41.5 -102.5t-41.5 -102t-103.5 -41q-63 0 -105.5 41t-42.5 102t42.5 102.5t105.5 41.5zM680 1479q43 41 104.5 41t104.5 -41t43 -102.5t-43 -102.5t-104.5 -41
t-104.5 41q-41 41 -41 102.5t41 102.5z" />
    <glyph glyph-name="Zacute.smcp" horiz-adv-x="1021" 
d="M86 1104h836v-223l-486 -625h510v-256h-860v223l492 625h-492v256zM610 1561h326l-315 -324h-228z" />
    <glyph glyph-name="Zcaron.smcp" horiz-adv-x="1021" 
d="M86 1104h836v-223l-486 -625h510v-256h-860v223l492 625h-492v256zM639 1540h270l-286 -323h-197l-285 323h269l114 -162z" />
    <glyph glyph-name="Zdotaccent.smcp" horiz-adv-x="1021" 
d="M86 1104h836v-223l-486 -625h510v-256h-860v223l492 625h-492v256zM410 1503q47 44 114.5 44t114.5 -44q49 -44 49 -112.5t-49 -112.5q-47 -44 -114.5 -44t-114.5 44q-44 44 -44 112.5t44 112.5z" />
    <glyph glyph-name="Eng.smcp" horiz-adv-x="1263" 
d="M858 1104h277v-1104q-7 -168 -111.5 -254t-292.5 -86v229q124 0 127 113l-407 580l-45 77v-659h-275v1104h275l407 -588l45 -78v666z" />
    <glyph glyph-name="Eth.smcp" horiz-adv-x="1267" 
d="M147 1104h441q269 0 434 -154q164 -153 164 -397q0 -246 -164 -399q-165 -154 -434 -154h-441v473h-106v184h106v447zM588 848h-166v-191h129v-184h-129v-217h166q154 0 234.5 75.5t80.5 221.5q0 143 -81 219t-234 76z" />
    <glyph glyph-name="Thorn.smcp" horiz-adv-x="1036" 
d="M131 1104h275v-154h157q187 0 297 -98q113 -98 113 -256q0 -153 -113 -254q-112 -100 -297 -100h-157v-242h-275v1104zM561 713h-155v-234h155q60 0 95.5 31.5t35.5 85.5q0 55 -35 86t-96 31z" />
    <glyph glyph-name="exclam.smcp" horiz-adv-x="516" 
d="M129 1104h258v-737h-258v737zM256 270q64 0 108 -41t44 -102t-44 -102t-108 -41q-62 0 -104.5 41t-42.5 102t42.5 102t104.5 41z" />
    <glyph glyph-name="exclamdown.smcp" horiz-adv-x="516" 
d="M385 -12h-258v737h258v-737zM258 821q-63 0 -107.5 41.5t-44.5 102.5t44 102t108 41q62 0 105 -41t43 -102t-43 -102.5t-105 -41.5z" />
    <glyph glyph-name="question.smcp" horiz-adv-x="800" 
d="M393 1124q152 0 256 -82q105 -82 105 -223q0 -58 -13.5 -106t-34.5 -80t-47 -59t-52 -47.5t-47 -40t-34.5 -43t-13.5 -50.5v-26h-258v39q0 53 19 96.5t48 70t62 54t62 50t48 57t19 75.5q0 53 -30.5 83t-82.5 30q-57 0 -91 -33t-34 -90h-243q3 148 108 237q104 88 254 88z
M381 270q63 0 106 -41t43 -102t-43 -102t-106 -41q-62 0 -106 41t-44 102t44 102t106 41z" />
    <glyph glyph-name="questiondown.smcp" horiz-adv-x="800" 
d="M397 -18q-153 0 -256 81q-104 82 -104 224q0 58 13.5 106t34.5 80t47 59t52 47.5t47 40t34.5 43t13.5 50.5v26h258v-39q0 -53 -19 -96.5t-48 -70t-62 -54t-62 -50t-48 -57t-19 -75.5q0 -53 30 -83t82 -30q57 0 91 33t34 90h244q-3 -148 -109 -237q-104 -88 -254 -88z
M410 836q-63 0 -106.5 41t-43.5 102t43.5 102t106.5 41q62 0 105.5 -41t43.5 -102t-43.5 -102t-105.5 -41z" />
    <glyph glyph-name="parenleft.smcp" horiz-adv-x="536" 
d="M340 1219l180 -121q-104 -140 -149 -260q-45 -119 -45 -291t45 -291q45 -120 149 -260l-180 -119q-131 154 -195.5 311t-64.5 359t64.5 360t195.5 312z" />
    <glyph glyph-name="parenright.smcp" horiz-adv-x="536" 
d="M16 1098l181 121q131 -153 194.5 -311t63.5 -361q0 -202 -63.5 -359t-194.5 -311l-181 119q106 143 150 260q47 124 47 291t-47 291q-44 117 -150 260z" />
    <glyph glyph-name="bracketleft.smcp" horiz-adv-x="614" 
d="M137 1169h426v-233h-182v-782h182v-234h-426v1249z" />
    <glyph glyph-name="bracketright.smcp" horiz-adv-x="614" 
d="M51 1169h426v-1249h-426v234h182v782h-182v233z" />
    <glyph glyph-name="braceleft.smcp" horiz-adv-x="579" 
d="M496 1169h32v-233h-20q-107 0 -107 -113v-100q0 -69 -35 -117t-96 -61q62 -17 96.5 -63.5t34.5 -114.5v-101q0 -112 107 -112h20v-234h-32q-164 0 -249 88t-85 248v63q0 113 -107 113h-16v225h16q107 0 107 113v64q0 160 85 247.5t249 87.5z" />
    <glyph glyph-name="braceright.smcp" horiz-adv-x="579" 
d="M51 1169h33q164 0 250 -87.5t86 -247.5v-64q0 -113 106 -113h15v-225h-15q-106 0 -106 -113v-63q0 -160 -86 -248t-250 -88h-33v234h23q50 0 78 29t28 83v101q0 143 129 178q-61 13 -95 60.5t-34 117.5v100q0 54 -28 83.5t-78 29.5h-23v233z" />
    <glyph glyph-name="zero.smcp" horiz-adv-x="999" 
d="M502 1124q200 0 309 -150t109 -421t-109 -422t-309 -151q-202 0 -312 151t-110 422t110 421t312 150zM502 870q-146 0 -146 -317q0 -320 146 -320q143 0 143 320q0 317 -143 317z" />
    <glyph glyph-name="one.smcp" horiz-adv-x="722" 
d="M395 1104h199v-1104h-275v702h-241v232q143 0 218.5 39.5t98.5 130.5z" />
    <glyph glyph-name="two.smcp" horiz-adv-x="872" 
d="M453 1124q171 0 264.5 -88.5t93.5 -242.5q0 -165 -145 -316l-203 -221h342v-256h-725v197l340 370q65 70 90 113.5t25 97.5q0 92 -84 92q-104 0 -101 -114h-274q-3 166 100 266q108 102 277 102z" />
    <glyph glyph-name="three.smcp" horiz-adv-x="956" 
d="M465 1124q171 0 272 -92t101 -237q0 -158 -133 -220q172 -49 172 -245q0 -165 -107 -257.5t-293 -92.5q-187 0 -292 98t-105 276h272q1 -56 36 -88.5t93 -32.5q55 0 87 30t32 81q0 117 -149 117h-86v211h79q119 0 119 98q0 45 -25 72.5t-67 27.5q-46 0 -73 -28t-27 -82
h-273q0 169 99.5 266.5t267.5 97.5z" />
    <glyph glyph-name="four.smcp" horiz-adv-x="1021" 
d="M465 1104h344v-701h137v-229h-137v-174h-274v174h-480v221zM541 399v385l-27 -57l-192 -328h219z" />
    <glyph glyph-name="five.smcp" horiz-adv-x="946" 
d="M113 1104h696v-250h-422v-178q61 24 137 24q159 0 251.5 -83.5t92.5 -249.5q0 -180 -105 -283.5t-288 -103.5q-187 0 -291 94.5t-104 265.5h274q0 -107 121 -107q55 0 87 36t32 96q0 61 -33 96t-90 35q-63 0 -113 -33h-245v641z" />
    <glyph glyph-name="six.smcp" horiz-adv-x="978" 
d="M508 1124q162 0 266 -98q106 -100 109 -258h-279q-6 102 -108 102q-139 0 -142 -256q68 68 195 68q159 0 254.5 -88.5t95.5 -235.5q0 -176 -109.5 -277t-285.5 -101q-201 0 -299 116q-125 137 -125 439q0 299 105.5 444t322.5 145zM496 489q-59 0 -99.5 -40.5
t-40.5 -96.5q0 -62 39.5 -101.5t100.5 -39.5q55 0 94 42t39 99q0 56 -39 96.5t-94 40.5z" />
    <glyph glyph-name="seven.smcp" horiz-adv-x="901" 
d="M80 1104h729v-221l-391 -883h-297l379 848h-420v256z" />
    <glyph glyph-name="eight.smcp" horiz-adv-x="970" 
d="M856 784q0 -137 -113 -219q144 -83 144 -239q0 -149 -117 -248q-113 -98 -285 -98q-170 0 -286 98q-115 100 -115 248q0 162 141 239q-108 85 -108 219q0 143 102 242q101 98 266 98q167 0 267 -100q104 -98 104 -240zM485 469q-58 0 -96.5 -37.5t-38.5 -97.5
q-4 -43 20.5 -76t61.5 -46t80 -7t72 33q31 27 36.5 69.5t-10 79.5t-50 61.5t-75.5 20.5zM567 866q-31 35 -82.5 35t-83.5 -35q-31 -35 -31 -88t31 -88q32 -32 83.5 -32t82.5 32q32 35 32 88t-32 88z" />
    <glyph glyph-name="nine.smcp" horiz-adv-x="978" 
d="M469 -20q-162 0 -266 98q-106 100 -109 258h279q6 -103 108 -103q69 0 105 60.5t37 193.5q-74 -65 -195 -65q-159 0 -254.5 88t-95.5 235q0 176 109.5 277.5t285.5 101.5q201 0 299 -116q125 -137 125 -439q0 -299 -105.5 -444t-322.5 -145zM481 614q59 0 99.5 41
t40.5 97q0 62 -39.5 101.5t-100.5 39.5q-55 0 -94 -42t-39 -99q0 -56 39 -97t94 -41z" />
    <glyph glyph-name="ampersand.smcp" horiz-adv-x="1208" 
d="M887 840q0 -72 -25 -125t-68 -89.5t-116 -76.5l-8 -4l133 -137q26 62 26 135h244q3 -108 -24 -185q-19 -64 -64 -139l215 -219h-311l-62 61q-124 -81 -303 -81q-204 0 -319 87t-115 226q0 96 48.5 161.5t152.5 125.5l20 10l-26 28q-28 28 -56 60q-24 31 -41.5 77.5
t-17.5 96.5q0 116 94 192q95 80 256 80q162 0 264.5 -77.5t102.5 -206.5zM532 180q89 0 142 39l-211 215l-4 -2q-92 -62 -92 -131q0 -121 165 -121zM438 838q0 -33 15 -60q2 -4 7.5 -11.5t6.5 -10.5l41 -45l4 -6q36 18 55 34q20 14 35.5 40.5t15.5 54.5q0 43 -23.5 68.5
t-64.5 25.5q-38 0 -64.5 -25t-27.5 -65z" />
    <glyph glyph-name="Euro.smcp" horiz-adv-x="1099" 
d="M424 498h201v-148h-174q47 -139 155 -139q66 0 105.5 44t44.5 122h295q-71 -397 -443 -397q-168 0 -282.5 96.5t-155.5 273.5h-127v148h104v55q0 40 3 61h-107v150h129q43 172 156.5 266t279.5 94q384 0 443 -397h-295q-15 166 -150 166q-105 0 -151 -129h170v-150h-199
q-2 -14 -2 -61v-55z" />
    <glyph glyph-name="dollar.smcp" horiz-adv-x="989" 
d="M395 1282h187v-168q125 -25 198 -108.5t80 -212.5h-266q0 57 -30.5 87.5t-84.5 30.5q-49 0 -76.5 -26.5t-27.5 -71.5q0 -53 37.5 -80.5t146.5 -60.5q184 -61 259 -139.5t75 -206.5q0 -139 -84.5 -229t-226.5 -111v-170h-187v172q-149 24 -230.5 118t-86.5 232h264
q9 -145 150 -145q60 0 93 28t33 78q0 44 -41 75t-139 62q-178 56 -258 133.5t-80 208.5q0 135 79 226t216 114v164z" />
    <glyph glyph-name="cent.smcp" horiz-adv-x="972" 
d="M414 983h182v-170q124 -24 202 -105.5t95 -213.5h-246q-30 94 -141 94q-70 0 -117 -53t-47 -134q0 -80 48.5 -132t121.5 -52q53 0 89.5 25t47.5 67h248q-20 -131 -98.5 -211t-202.5 -104v-172h-182v170q-155 25 -247.5 135t-92.5 274q0 160 93 273t247 139v170z" />
    <glyph glyph-name="sterling.smcp" horiz-adv-x="948" 
d="M426 631h211v-174h-154q6 -34 6 -68q0 -55 -28 -100l-17 -31h146q51 0 72.5 23t21.5 77h236q-1 -175 -91.5 -266.5t-253.5 -91.5h-526v53l78 94q98 116 98 250q0 33 -6 60h-168v174h107q-37 81 -37 162q0 148 100 239.5t260 91.5q169 0 267 -91t102 -257h-248
q0 49 -30.5 82t-75.5 33q-107 0 -107 -107q0 -66 37 -153z" />
    <glyph glyph-name="florin.smcp" horiz-adv-x="643" 
d="M584 1171q58 0 104 -12l-22 -227q-32 14 -74 14q-105 0 -117 -94l-6 -49h180l-24 -234h-181l-71 -624q-13 -145 -109 -223t-256 -78q-64 0 -104 12l22 227q32 -14 74 -14q110 0 119 94l67 606h-123l25 234h123l6 67q19 147 113.5 224t253.5 77z" />
    <glyph glyph-name="yen.smcp" horiz-adv-x="1138" 
d="M834 1104h315l-322 -535h117v-168h-217v-102h217v-168h-217v-131h-274v131h-211v168h211v102h-211v168h110l-321 535h317l205 -354l37 -76l39 76z" />
    <glyph glyph-name="F.smcp_I.smcp" horiz-adv-x="1398" 
d="M131 1104h672v-248h-397v-201h335v-231h-335v-424h-275v1104zM993 1104h275v-1104h-275v1104z" />
    <glyph glyph-name="F.smcp_J.smcp" horiz-adv-x="1710" 
d="M131 1104h672v-248h-397v-201h335v-231h-335v-424h-275v1104zM1319 1104h274v-735q0 -178 -101 -277.5t-271 -99.5q-191 0 -291 104.5t-105 292.5h273q6 -139 116 -139q105 0 105 129v725z" />
    </font>
</defs>
</svg>
