<?xml version="1.0" standalone="no"?>
<!DOCTYPE svg PUBLIC "-//W3C//DTD SVG 1.1//EN" "http://www.w3.org/Graphics/SVG/1.1/DTD/svg11.dtd" >
<svg xmlns="http://www.w3.org/2000/svg">
<metadata>Generated by IcoMoon</metadata>
<defs>
<font id="icomoon" horiz-adv-x="1024">
<font-face units-per-em="1024" ascent="960" descent="-64" />
<missing-glyph horiz-adv-x="1024" />
<glyph unicode="&#x20;" horiz-adv-x="512" d="" />
<glyph unicode="&#xe900;" glyph-name="arrow-down" horiz-adv-x="632" d="M0 56.331l390.849 391.396-390.849 391.396 120.331 120.331 512-512-512-511.454z" />
<glyph unicode="&#xe901;" glyph-name="chat" d="M196.053 862.635c-45.525-6.784-82.517-39.808-96.469-86.101-2.901-9.728-3.115-28.459-3.584-362.368-0.341-240.981 0.085-354.219 1.28-358.741 3.892-13.572 16.192-23.337 30.773-23.337 3.080 0 6.059 0.436 8.877 1.249l-0.226-0.056c6.741 1.749 15.957 10.411 91.136 85.419l83.627 83.456 259.413 0.512c243.243 0.512 260.053 0.725 269.653 3.584 40.979 11.928 72.508 43.782 83.764 84.095l0.204 0.855c2.901 10.24 3.072 24.149 3.072 242.133 0 218.965-0.171 231.851-3.115 242.347-11.508 41.074-43.007 72.841-83.067 84.522l-0.858 0.214c-9.643 2.901-27.819 3.072-322.56 3.328-171.776 0.171-316.629-0.341-321.92-1.109zM830.293 796.032c12.715-4.779 24.96-17.024 29.739-29.781 3.584-9.557 3.584-9.728 3.115-235.179l-0.427-225.579-4.139-8.405c-5.486-10.889-14.114-19.516-24.686-24.857l-0.317-0.145-8.405-4.139-267.947-0.853c-220.971-0.683-268.715-1.28-272.213-3.157-2.347-1.28-31.317-29.312-64.427-62.293l-60.16-59.989v615.125l3.541 9.515c4.651 12.373 17.067 24.96 29.269 29.653 8.917 3.413 11.648 3.456 318.251 3.541l309.291 0.085 9.515-3.541z" />
<glyph unicode="&#xe902;" glyph-name="code" horiz-adv-x="1243" d="M513.1-16.649l-109.921 40.414c-9.11 3.398-15.191 12.331-14.49 22.355 0.154 2.201 0.624 4.305 1.364 6.269l-0.051-0.154 311.555 847.279c3.398 9.11 12.331 15.191 22.355 14.49 2.201-0.154 4.305-0.624 6.269-1.364l-0.154 0.051 109.921-40.414c9.11-3.398 15.191-12.331 14.49-22.355-0.154-2.201-0.624-4.305-1.364-6.269l0.051 0.154-311.609-847.301c-3.375-9.116-12.301-15.205-22.32-14.505-2.215 0.155-4.33 0.631-6.304 1.379l0.153-0.051zM317.836 204.388l85.991 79.763c4.029 3.687 6.712 8.88 7.124 14.772 0.459 6.571-1.998 12.672-6.271 17.035l-0.021 0.021-156.471 158.152 176.88 134.841c4.893 3.717 8.201 9.414 8.661 15.99 0.41 5.862-1.519 11.348-4.992 15.544l0.008-0.009-74.020 91.057c-3.743 4.602-9.293 7.695-15.659 8.14-5.913 0.413-11.447-1.533-15.678-5.037l0.009 0.008-282.308-229.78c-4.611-3.714-7.712-9.245-8.156-15.596s1.857-12.261 5.893-16.566l0.013-0.014 247.671-267.050c3.673-4.095 8.888-6.825 14.818-7.24 6.379-0.446 12.312 1.877 16.622 5.946l0.015 0.014zM919.586 161.205l282.427 229.982c4.611 3.714 7.712 9.245 8.156 15.596s-1.857 12.261-5.893 16.566l-0.013 0.014-247.66 267.207c-3.711 4.013-8.914 6.683-14.814 7.096-6.356 0.444-12.277-1.818-16.632-5.807l-0.010-0.009-85.834-79.774c-3.975-3.68-6.619-8.837-7.028-14.684-0.459-6.566 1.994-12.662 6.261-17.024l0.021-0.021 156.373-158.434-176.959-134.836c-4.893-3.717-8.201-9.414-8.661-15.99-0.41-5.862 1.519-11.348 4.992-15.544l-0.008 0.009 74.053-90.954c3.745-4.661 9.329-7.796 15.743-8.244 5.869-0.41 11.365 1.504 15.584 4.96l-0.012-0.009z" />
<glyph unicode="&#xe903;" glyph-name="credit-card" d="M110.72 819.925c-45.909-6.784-83.456-40.619-96.512-86.912-2.944-10.539-3.115-24.704-3.115-285.013s0.171-274.475 3.115-285.013c11.554-41.332 43.447-73.225 83.928-84.575l0.851-0.204c10.624-2.987 28.16-3.115 413.013-3.115 383.189 0 402.432 0.128 413.013 3.115 41.41 11.555 73.348 43.55 84.62 84.143l0.201 0.849c2.901 10.283 3.072 25.643 3.072 284.8 0 260.309-0.171 274.475-3.115 285.013-11.524 41.066-43.016 72.826-83.066 84.521l-0.859 0.215c-9.728 2.901-30.72 3.072-407.893 3.371-218.709 0.128-401.963-0.384-407.253-1.195zM915.627 753.365c12.715-4.779 24.96-17.024 29.739-29.739 3.371-9.131 3.541-12.672 3.541-83.712v-74.155h-873.813v74.155c0 71.040 0.171 74.581 3.541 83.712 4.651 12.373 17.067 24.96 29.269 29.653 8.96 3.413 11.179 3.456 403.584 3.541l394.624 0.085 9.515-3.541zM948.523 339.2l-0.469-161.707-4.139-8.405c-5.486-10.889-14.114-19.516-24.686-24.857l-0.317-0.145-8.405-4.139-792.576-0.896-9.515 3.584c-13.547 5.656-24.107 16.202-29.647 29.379l-0.134 0.36c-3.499 9.387-3.541 11.477-3.541 169.045v159.488h873.856l-0.427-161.707z" />
<glyph unicode="&#xe904;" glyph-name="devices" horiz-adv-x="1536" d="M256 832.014h1151.986v127.986h-1151.986c-70.597-0.218-127.768-57.389-127.986-127.965v-704.042h-128.014v-191.993h895.986v191.993h-639.986zM1471.993 704.027h-384.014c-35.306-0.109-63.898-28.701-64.007-63.996v-640.024c0.109-35.306 28.701-63.898 63.996-64.007h384.024c35.306 0.109 63.898 28.701 64.007 63.996v639.996c-0.109 35.306-28.701 63.898-63.996 64.007h-0.010zM1407.986 127.993h-256v448.021h256z" />
<glyph unicode="&#xe905;" glyph-name="dialpad" d="M127.999 894.993c-34.734 0-62.992-28.258-62.992-62.992s28.258-62.992 62.992-62.992c34.734 0 62.992 28.258 62.992 62.992s-28.258 62.992-62.992 62.992zM511.998 894.993c-34.734 0-62.992-28.258-62.992-62.992s28.258-62.992 62.992-62.992c34.734 0 62.992 28.258 62.992 62.992s-28.258 62.992-62.992 62.992zM895.997 894.993c-34.734 0-62.992-28.258-62.992-62.992s28.258-62.992 62.992-62.992c34.734 0 62.992 28.258 62.992 62.992s-28.258 62.992-62.992 62.992zM127.999 510.994c-34.734 0-62.992-28.258-62.992-62.992s28.258-62.992 62.992-62.992c34.734 0 62.992 28.258 62.992 62.992s-28.258 62.992-62.992 62.992zM511.998 510.994c-34.734 0-62.992-28.258-62.992-62.992s28.258-62.992 62.992-62.992c34.734 0 62.992 28.258 62.992 62.992s-28.258 62.992-62.992 62.992zM895.997 510.994c-34.734 0-62.992-28.258-62.992-62.992s28.258-62.992 62.992-62.992c34.734 0 62.992 28.258 62.992 62.992s-28.258 62.992-62.992 62.992zM127.999 126.994c-34.734 0-62.992-28.258-62.992-62.992s28.258-62.992 62.992-62.992c34.734 0 62.992 28.258 62.992 62.992s-28.258 62.992-62.992 62.992zM511.998 126.994c-34.734 0-62.992-28.258-62.992-62.992s28.258-62.992 62.992-62.992c34.734 0 62.992 28.258 62.992 62.992s-28.258 62.992-62.992 62.992zM895.997 126.994c-34.734 0-62.992-28.258-62.992-62.992s28.258-62.992 62.992-62.992c34.734 0 62.992 28.258 62.992 62.992s-28.258 62.992-62.992 62.992zM127.999 960c70.4 0 128-57.6 128-128s-57.6-128-128-128c-70.4 0-127.999 57.6-127.999 128s57.6 128 127.999 128zM511.998 960c70.4 0 128-57.6 128-128s-57.6-128-128-128c-70.4 0-128 57.6-128 128s57.6 128 128 128zM895.997 960c70.4 0 127.999-57.6 127.999-128s-57.6-128-127.999-128c-70.4 0-128 57.6-128 128s57.6 128 128 128zM127.999 576.001c70.4 0 128-57.6 128-128s-57.6-128-128-128c-70.4 0-127.999 57.6-127.999 128s57.6 128 127.999 128zM511.998 576.001c70.4 0 128-57.6 128-128s-57.6-128-128-128c-70.4 0-128 57.6-128 128s57.6 128 128 128zM895.997 576.001c70.4 0 127.999-57.6 127.999-128s-57.6-128-127.999-128c-70.4 0-128 57.6-128 128s57.6 128 128 128zM127.999 192.002c70.4 0 128-57.6 128-128s-57.6-127.999-128-127.999c-70.4 0-127.999 57.6-127.999 127.999s57.6 128 127.999 128zM511.998 192.002c70.4 0 128-57.6 128-128s-57.6-127.999-128-127.999c-70.4 0-128 57.6-128 127.999s57.6 128 128 128zM895.997 192.002c70.4 0 127.999-57.6 127.999-128s-57.6-127.999-127.999-127.999c-70.4 0-128 57.6-128 127.999s57.6 128 128 128z" />
<glyph unicode="&#xe906;" glyph-name="facrbook" horiz-adv-x="478" d="M317.7-64.286v512.315h141.34l18.769 176.475h-160.224v88.295c0 45.778 4.349 70.67 70.498 70.67h88.752v176.532h-141.397c-169.837 0-229.577-85.834-229.577-229.577v-105.919h-105.862v-176.475h105.862v-512.315z" />
<glyph unicode="&#xe907;" glyph-name="git-branch" horiz-adv-x="759" d="M598.861 82.286c-0.040 0-0.088 0-0.136 0-88.314 0-159.907 71.593-159.907 159.907 0 76.958 54.365 141.219 126.785 156.472l1.043 0.184c-2.731 43.658-23.536 66.966-61.765 96.451-42.355 28.187-93.072 47.287-147.725 53.339l-1.519 0.137c-67.066 8.942-124.989 42.44-165.453 90.996l-0.337 0.416v-386.844c74.593-14.515 130.13-79.326 130.13-157.11 0-88.314-71.593-159.907-159.907-159.907s-159.907 71.593-159.907 159.907c0 76.184 53.277 139.925 124.606 155.997l1.069 0.202v391.461c-34.531 7.847-64.013 25.909-85.928 50.795l-0.153 0.178c-24.49 27.941-39.43 64.786-39.43 105.121 0 88.278 71.563 159.842 159.842 159.842s159.842-71.563 159.842-159.842c0-54.813-27.59-103.182-69.64-131.977l-0.547-0.353c30.609-30.084 70.942-50.362 115.86-55.693l0.941-0.091c66.8-7.978 126.887-31.449 178.257-66.703l-1.349 0.874c49.688-31.656 83.104-85.043 86.836-146.446l0.025-0.522c73.592-15.379 128.077-79.72 128.077-156.786 0-88.229-71.411-159.779-159.588-160.004h-0.022zM64.008 96.004c0-53.017 42.979-95.996 95.996-95.996s95.996 42.979 95.996 95.996c0 53.017-42.979 95.996-95.996 95.996v0c-53.017 0-95.996-42.979-95.996-95.996v0zM256 799.996c0 53.017-42.979 95.996-95.996 95.996s-95.996-42.979-95.996-95.996c0-53.017 42.979-95.996 95.996-95.996v0c53.017 0 95.996 42.979 95.996 95.996v0zM598.861 338.383c-53.017 0-95.996-42.979-95.996-95.996s42.979-95.996 95.996-95.996c53.017 0 95.996 42.979 95.996 95.996v0c-0.056 52.975-43.013 95.898-95.996 95.898v0z" />
<glyph unicode="&#xe908;" glyph-name="phone" d="M158.293 905.301c-13.269-2.005-32-8.704-43.52-15.573-13.099-7.808-32.427-27.349-40.149-40.661-19.371-33.323-20.437-60.885-5.333-141.653 12.571-63.362 29.342-118.81 50.811-171.855l-2.256 6.308c19.413-48.512 55.168-115.541 87.509-163.84 60.863-89.736 134.916-165.296 220.31-225.928l2.709-1.826c123.093-86.144 255.445-137.216 405.333-156.416 40.149-5.163 75.563 6.485 102.4 33.579 18.859 19.115 29.397 40.192 33.237 66.603 2.645 18.389 2.133 150.656-0.683 166.272-7.92 42.685-37.824 76.869-77.292 90.753l-0.83 0.255c-8.614 2.43-19.854 4.881-31.284 6.768l-1.996 0.272c-34.142 5.545-64.275 13.336-93.264 23.551l3.749-1.151c-25.899 8.448-31.787 9.771-46.891 10.496-22.272 1.109-38.315-2.347-59.008-12.715-13.696-6.869-18.347-10.581-40.747-32.427l-25.344-24.704-19.243 12.885c-70.893 48.042-130.177 107.326-176.756 175.934l-1.463 2.284-12.928 19.285 24.619 25.131c21.973 22.4 25.472 26.795 32.469 40.747 10.453 20.864 13.909 36.864 12.8 59.179-0.725 15.061-2.048 20.992-10.325 46.293-11.989 36.779-17.024 56.619-22.571 89.429-4.864 28.971-7.296 37.461-14.677 51.413-11.709 21.906-29.522 39.238-51.164 50.041l-0.676 0.305c-23.637 11.605-24.021 11.691-110.080 12.075-42.709 0.213-82.048-0.299-87.467-1.109zM327.211 837.547c20.053-10.709 26.368-21.717 32.171-56.235 5.632-33.28 12.8-62.379 22.869-92.672 4.565-13.611 8.747-27.947 9.387-31.872 1.408-8.661-2.645-25.899-7.893-33.579-2.048-2.944-17.707-19.584-34.901-36.949-17.152-17.365-32-33.749-32.981-36.395-1.167-3.974-1.838-8.54-1.838-13.262 0-0.198 0.001-0.395 0.004-0.592v0.030c0-8.192 1.152-11.008 12.16-29.355 60.949-99.876 142.306-181.547 238.776-241.077l3.102-1.781c20.949-12.672 23.552-13.781 31.915-13.781 4.992 0 11.221 0.811 13.867 1.835 2.603 0.981 19.755 16.597 38.059 34.688 37.76 37.248 43.264 40.832 63.189 40.917 8.96 0.043 16.043-1.664 36.693-8.704 30.507-10.411 59.264-17.621 93.312-23.339 33.963-5.717 44.971-11.776 55.253-30.336l5.035-9.088 0.512-77.824c0.469-74.923 0.341-78.208-3.029-87.211-4.757-12.909-14.246-23.12-26.311-28.713l-0.313-0.13c-10.88-5.376-11.307-5.461-29.355-4.437-19.413 1.067-56.704 6.997-89.131 14.208-161.408 35.925-319.019 128.341-429.056 251.605-72.452 80.762-129.79 176.775-166.504 282.436l-1.773 5.863c-14.28 40.296-26.173 88.092-33.552 137.364l-0.538 4.375c-5.077 34.005-4.693 46.421 1.792 59.392 6.101 12.203 15.659 21.077 27.904 25.856 8.235 3.157 12.587 3.328 86.315 2.987 76.971-0.384 77.696-0.427 84.864-4.224z" />
<glyph unicode="&#xe909;" glyph-name="instagram" d="M512-64.055c-137.797 0-156.038 0.608-211.090 3.095-44.808 1.022-87.293 9.671-126.63 24.694l2.596-0.871c-35.505 13.564-65.767 33.665-90.665 59.048l-0.039 0.040c-25.481 24.93-45.636 55.192-58.673 88.992l-0.581 1.712c-14.176 36.809-22.828 79.375-23.816 123.831l-0.007 0.424c-2.487 55.108-3.095 73.348-3.095 211.090 0 136.858 0.608 155.208 3.095 211.090 0.967 44.795 9.601 87.288 24.635 126.617l-0.867-2.583c13.572 35.577 33.673 65.91 59.055 90.893l0.033 0.032c24.998 25.426 55.337 45.515 89.209 58.456l1.716 0.576c36.741 14.162 79.228 22.813 123.603 23.815l0.431 0.008c55.108 2.487 73.348 3.095 211.090 3.095s155.927-0.608 211.035-3.095c44.918-0.993 87.522-9.645 126.966-24.694l-2.601 0.871c35.481-13.555 65.724-33.637 90.611-58.994l0.038-0.038c25.415-25.015 45.515-55.347 58.507-89.203l0.581-1.722c14.088-36.806 22.731-79.359 23.814-123.786l0.009-0.47c2.487-55.274 3.040-73.514 3.040-211.090s-0.608-155.816-3.040-211.090c-1.091-44.896-9.734-87.449-24.7-126.889l0.877 2.634c-27.231-68.961-80.789-122.537-147.962-149.171l-1.775-0.62c-36.844-14.177-79.447-22.829-123.942-23.816l-0.424-0.007c-55.053-2.266-73.293-2.874-211.035-2.874zM466.123 867.859c-95.181 0-113.2-0.719-160.957-2.874-34.246-0.409-66.865-6.86-97.006-18.334l1.935 0.647c-23.106-8.659-42.788-21.712-58.886-38.268l-0.036-0.037c-16.583-16.167-29.62-35.887-37.89-57.938l-0.36-1.094c-10.789-28.193-17.22-60.792-17.631-94.84l-0.002-0.176c-2.432-53.726-2.93-69.866-2.93-206.834s0.497-153.163 2.93-206.889c0.412-34.224 6.843-66.823 18.279-96.958l-0.647 1.942c8.665-23.085 21.717-42.748 38.267-58.83l0.038-0.037c16.108-16.559 35.751-29.591 57.719-37.888l1.092-0.362c28.209-10.753 60.822-17.18 94.877-17.63l0.194-0.002c54.389-2.487 70.64-2.985 206.889-2.985s152.5 0.497 206.889 2.985c34.224 0.412 66.823 6.843 96.958 18.279l-1.942-0.647c44.761 17.614 79.533 52.367 96.77 95.966l0.401 1.15c10.779 28.27 17.175 60.955 17.521 95.088l0.001 0.148c2.487 54.389 2.985 70.64 2.985 206.834s-0.332 152.445-2.985 206.668c-0.335 34.196-6.691 66.807-18.055 96.962l0.644-1.947c-8.672 23.101-21.723 42.781-38.269 58.887l-0.035 0.034c-16.112 16.582-35.778 29.619-57.777 37.89l-1.089 0.359c-28.193 10.789-60.792 17.22-94.84 17.631l-0.176 0.002c-53.726 2.432-69.866 2.93-206.889 2.93h-45.988zM512.055 185.063c-0.017 0-0.036 0-0.055 0-145.216 0-262.937 117.721-262.937 262.937s117.721 262.937 262.937 262.937c145.216 0 262.937-117.721 262.937-262.937v0c-0.157-145.133-117.752-262.748-262.863-262.937h-0.018zM512.055 618.63c-0.016 0-0.036 0-0.055 0-94.267 0-170.685-76.418-170.685-170.685s76.418-170.685 170.685-170.685c94.267 0 170.685 76.418 170.685 170.685 0 0.019 0 0.039 0 0.058v-0.003c-0.126 94.186-76.444 170.504-170.618 170.63h-0.012zM785.328 659.864c-33.892 0.032-61.354 27.513-61.354 61.409 0 33.915 27.494 61.409 61.409 61.409s61.409-27.494 61.409-61.409v0c-0.031-33.922-27.538-61.409-61.464-61.409v0z" />
<glyph unicode="&#xe90a;" glyph-name="linkedin" horiz-adv-x="1073" d="M600.8-64h-229.944c0 5.842 2.979 626.388 0 690.885h230.003v-97.796c18.343 29.578 41.433 54.363 68.485 74.030l0.744 0.515c36.902 24.733 82.312 39.474 131.164 39.474 2.4 0 4.792-0.036 7.175-0.106l-0.35 0.008c2.943 0.124 6.395 0.195 9.864 0.195 70.349 0 133.885-29.168 179.175-76.070l0.070-0.072c47.535-57.505 76.368-131.989 76.368-213.207 0-7.698-0.259-15.335-0.769-22.904l0.055 1.025v-396.093h-229.944v369.804c0 71.273-20.214 156.217-116.55 156.217-0.585 0.010-1.274 0.016-1.965 0.016-28.397 0-54.455-10.015-74.834-26.706l0.209 0.166c-18.068-15.185-32.197-34.475-41.021-56.465l-0.341-0.963c-4.947-14.341-7.804-30.867-7.804-48.060 0-2.802 0.076-5.586 0.226-8.351l-0.017 0.385v-385.577zM243.556-64h-229.944v691.001h229.944v-690.943zM128.526 721.234h-1.461c-2.126-0.135-4.61-0.211-7.113-0.211-66.111 0-119.704 53.593-119.704 119.704s53.593 119.704 119.704 119.704c3.573 0 7.11-0.157 10.603-0.463l-0.453 0.032c2.764 0.228 5.982 0.358 9.231 0.358 65.885 0 119.295-53.41 119.295-119.295 0-0.146 0-0.292-0.001-0.439v0.022c0.007-0.486 0.012-1.059 0.012-1.633 0-32.527-13.425-61.918-35.037-82.935l-0.027-0.026c-23.766-21.646-55.504-34.901-90.339-34.901-1.657 0-3.307 0.030-4.949 0.089l0.238-0.007z" />
<glyph unicode="&#xe90b;" glyph-name="server" d="M153.387 905.301c-45.909-6.827-83.456-40.661-96.512-86.955-2.859-10.197-3.115-19.456-3.115-114.347s0.256-104.149 3.115-114.347c11.554-41.332 43.447-73.225 83.928-84.575l0.851-0.204c10.624-2.987 26.88-3.115 370.347-3.115 341.973 0 359.808 0.128 370.347 3.115 41.41 11.555 73.348 43.55 84.62 84.143l0.201 0.849c2.816 9.941 3.072 19.669 3.072 114.133 0 94.891-0.256 104.149-3.115 114.347-11.524 41.066-43.016 72.826-83.066 84.521l-0.859 0.215c-9.685 2.901-29.269 3.072-365.227 3.328-195.243 0.171-359.296-0.341-364.587-1.109zM872.96 838.699c12.757-4.779 24.96-17.024 29.739-29.824 3.541-9.472 3.627-11.52 3.157-107.179l-0.469-97.536-4.139-8.405c-5.486-10.889-14.114-19.516-24.686-24.857l-0.317-0.145-8.405-4.139-707.2-0.896-9.557 3.584c-13.547 5.656-24.107 16.202-29.647 29.379l-0.134 0.36c-3.413 9.216-3.541 12.373-3.541 104.96s0.128 95.744 3.541 104.96c4.651 12.373 17.067 24.96 29.269 29.653 8.96 3.413 11.435 3.456 360.917 3.541l351.957 0.085 9.515-3.541zM244.907 733.867c-24.235-8.576-27.947-41.984-6.315-56.576 25.941-17.493 59.605 11.051 46.635 39.595-4.003 8.479-11.238 14.879-20.074 17.685l-0.235 0.065c-2.696 1.015-5.813 1.602-9.066 1.602-3.967 0-7.73-0.873-11.108-2.438l0.164 0.068zM153.387 393.301c-45.909-6.827-83.456-40.661-96.512-86.955-2.859-10.197-3.115-19.456-3.115-114.347s0.256-104.149 3.115-114.347c11.554-41.332 43.447-73.225 83.928-84.575l0.851-0.204c10.624-2.987 26.88-3.115 370.347-3.115 341.973 0 359.808 0.128 370.347 3.115 41.41 11.555 73.348 43.55 84.62 84.143l0.201 0.849c2.816 9.941 3.072 19.669 3.072 114.133 0 94.891-0.256 104.149-3.115 114.347-11.524 41.066-43.016 72.826-83.066 84.521l-0.859 0.215c-9.685 2.901-29.269 3.072-365.227 3.328-195.243 0.171-359.296-0.341-364.587-1.109zM872.96 326.699c12.757-4.779 24.96-17.024 29.739-29.824 3.541-9.472 3.627-11.52 3.157-107.179l-0.469-97.536-4.139-8.405c-5.486-10.889-14.114-19.516-24.686-24.857l-0.317-0.145-8.405-4.139-707.2-0.896-9.557 3.584c-13.547 5.656-24.107 16.202-29.647 29.379l-0.134 0.36c-3.413 9.216-3.541 12.373-3.541 104.96s0.128 95.744 3.541 104.96c4.651 12.373 17.067 24.96 29.269 29.653 8.96 3.413 11.435 3.456 360.917 3.541l351.957 0.085 9.515-3.541zM244.907 221.867c-24.235-8.576-27.947-41.984-6.315-56.576 25.941-17.493 59.605 11.051 46.635 39.595-4.003 8.479-11.238 14.879-20.074 17.685l-0.235 0.065c-2.696 1.015-5.813 1.602-9.066 1.602-3.967 0-7.73-0.873-11.108-2.438l0.164 0.068z" />
<glyph unicode="&#xe90c;" glyph-name="headphones" d="M487.253 863.403c-85.035-6.443-160.341-34.475-227.669-84.821-21.035-15.701-62.464-57.131-78.165-78.165-43.155-56.756-72.691-126.096-82.503-201.629l-0.228-2.147c-1.749-13.269-2.261-55.979-2.261-191.147 0-163.541 0.171-174.763 3.115-185.173 11.559-41.319 43.452-73.197 83.928-84.533l0.851-0.203c16.171-4.523 84.352-4.523 100.693-0.043 41.415 11.547 73.356 43.545 84.62 84.143l0.201 0.849c2.773 9.813 3.072 18.901 3.072 92.8 0 74.24-0.299 82.944-3.115 93.013-11.467 41.056-42.992 72.793-83.072 84.355l-0.854 0.211c-8.491 2.475-20.053 3.072-67.84 3.712l-57.6 0.768v37.461c0 41.941 1.707 61.611 7.808 90.027 21.923 96.877 81.189 177.018 161.516 226.061l1.556 0.883c51.661 31.348 114.103 49.901 180.878 49.901 26.54 0 52.395-2.931 77.259-8.486l-2.35 0.441c129.451-28.373 232.661-127.659 265.216-255.104 8.533-33.365 11.264-58.453 11.264-103.083v-38.101l-57.6-0.768c-47.787-0.64-59.349-1.237-67.84-3.712-40.933-11.773-72.458-43.51-83.722-83.714l-0.204-0.851c-2.816-10.069-3.115-18.773-3.115-93.013s0.299-82.944 3.115-93.013c11.559-41.319 43.452-73.197 83.928-84.533l0.851-0.203c16.171-4.523 84.352-4.523 100.693-0.043 41.415 11.547 73.356 43.545 84.62 84.143l0.201 0.849c2.859 10.155 3.072 22.144 3.072 184.96 0 135.168-0.512 177.877-2.261 191.147-10.092 77.672-39.619 147.002-83.504 204.839l0.774-1.063c-15.915 21.205-57.301 62.635-78.165 78.208-58.795 43.904-125.568 71.723-195.243 81.365-19.029 2.645-66.304 4.608-81.92 3.413zM275.627 326.699c12.757-4.779 24.96-17.024 29.781-29.867 3.499-9.387 3.584-11.819 3.115-85.845l-0.469-76.16-4.139-8.405c-5.486-10.889-14.114-19.516-24.686-24.857l-0.317-0.145c-7.893-3.883-10.496-4.181-41.771-4.651-30.72-0.512-34.176-0.256-43.179 3.115-13.65 5.626-24.295 16.215-29.861 29.465l-0.134 0.359c-3.413 9.216-3.541 12.373-3.541 105.045v95.488h52.821c49.408 0 53.504-0.213 62.379-3.541zM863.189 232.533l-0.469-97.707-4.139-8.405c-5.486-10.889-14.114-19.516-24.686-24.857l-0.317-0.145c-7.893-3.883-10.496-4.181-41.771-4.651-30.72-0.512-34.176-0.256-43.179 3.115-13.65 5.626-24.295 16.215-29.861 29.465l-0.134 0.359c-3.371 9.131-3.541 12.672-3.541 83.627s0.171 74.496 3.541 83.627c4.651 12.373 17.067 24.96 29.269 29.653 8.32 3.2 12.971 3.456 62.379 3.541l53.376 0.085-0.469-97.707z" />
<glyph unicode="&#xe90d;" glyph-name="smily" d="M511.482-64.084c-282.552 0.319-511.482 229.445-511.482 512.042 0 282.793 229.249 512.042 512.042 512.042s512.041-229.248 512.042-512.041v-0.001c-0.159-282.827-229.473-512.042-512.322-512.042-0.098 0-0.197 0-0.295 0h0.015zM512.042 857.62c-0.017 0-0.036 0-0.056 0-226.219 0-409.606-183.387-409.606-409.606s183.387-409.606 409.606-409.606c226.199 0 409.574 183.355 409.606 409.547v0.003c-0.239 226.115-183.444 409.359-409.521 409.662h-0.029zM512.042 166.503c-103.382 0.391-193.617 56.299-242.486 139.445l-0.72 1.325c-2.088 3.589-3.32 7.899-3.32 12.497 0 4.754 1.317 9.2 3.607 12.994l-0.063-0.113c4.48 7.856 12.801 13.067 22.34 13.067 0.016 0 0.031 0 0.047 0h441.221c0.037 0 0.080 0 0.124 0 9.482 0 17.762-5.149 22.195-12.804l0.066-0.123c2.182-3.652 3.472-8.055 3.472-12.759s-1.29-9.107-3.535-12.875l0.064 0.115c-49.537-84.449-139.689-140.37-242.941-140.853h-0.069zM691.117 499.302c-42.419 0-76.806 34.387-76.806 76.806s34.387 76.806 76.806 76.806c42.419 0 76.806-34.387 76.806-76.806v0c0-0.008 0-0.018 0-0.028 0-42.436-34.377-76.842-76.802-76.89h-0.005zM332.715 499.302c-42.419 0-76.806 34.387-76.806 76.806s34.387 76.806 76.806 76.806c42.419 0 76.806-34.387 76.806-76.806v0c0-0.008 0-0.018 0-0.028 0-42.406-34.329-76.795-76.713-76.89h-0.009z" />
<glyph unicode="&#xe90e;" glyph-name="healthcare" d="M910.202 960h-796.404c-62.564-0.242-113.189-51.016-113.189-113.614 0-0.065 0-0.129 0-0.194v0.010l-0.61-796.404c0.173-62.779 51.019-113.625 113.781-113.798h796.421c62.779 0.173 113.625 51.019 113.798 113.781v796.421c-0.173 62.779-51.019 113.625-113.781 113.798h-0.017zM796.465 334.202h-170.667v-170.667c-0.104-31.366-25.503-56.765-56.859-56.869h-113.808c-31.366 0.104-56.765 25.503-56.869 56.859v170.677h-170.667c-31.366 0.104-56.765 25.503-56.869 56.859v113.808c0.104 31.366 25.503 56.765 56.859 56.869h170.677v170.667c0.104 31.366 25.503 56.765 56.859 56.869h113.808c31.366-0.104 56.765-25.503 56.869-56.859v-170.677h170.667c31.366-0.104 56.765-25.503 56.869-56.859v-113.808c-0.104-31.366-25.503-56.765-56.859-56.869h-0.010z" />
<glyph unicode="&#xe90f;" glyph-name="education" horiz-adv-x="1227" d="M170.647 378.987v-164.901c0.028-44.261 24.408-82.821 60.465-103.010l0.596-0.307 293.467-160.2c16.245-9.136 35.66-14.517 56.331-14.517s40.086 5.381 56.919 14.82l-0.588-0.303 293.467 160.2c36.654 20.496 61.034 59.056 61.062 103.313v164.905l-354.47-193.691c-16.245-9.136-35.66-14.517-56.331-14.517s-40.086 5.381-56.919 14.82l0.588-0.303zM525.118 945.954l-494.761-270.017c-18.268-10.287-30.404-29.556-30.404-51.659s12.136-41.371 30.108-51.505l0.296-0.153 494.761-269.959c16.245-9.136 35.66-14.517 56.331-14.517s40.086 5.381 56.919 14.82l-0.588-0.303 471.892 257.654v-346.867c0.099-32.43 26.412-58.682 58.856-58.682 0.021 0 0.041 0 0.062 0h-0.003c32.369 0.099 58.583 26.313 58.682 58.672v376.246c-0.014 22.13-12.204 41.41-30.233 51.505l-0.298 0.153-558.725 304.611c-16.323 8.886-35.748 14.11-56.393 14.11-20.688 0-40.151-5.247-57.131-14.482l0.629 0.313z" />
<glyph unicode="&#xe910;" glyph-name="technology" horiz-adv-x="1536" d="M1238.382 573.44c-44.917 221.875-238.349 386.56-470.247 386.56-0.048 0-0.095 0-0.143 0h0.008c-184.094-0.038-343.952-103.761-424.36-255.947l-1.259-2.613c-193.376-21.526-342.382-184.067-342.382-381.41 0-0.011 0-0.021 0-0.032v0.002c0.167-212.010 171.99-383.833 383.984-384h832.016c176.698 0.083 319.917 143.303 320 319.992v0.008c-0.186 168.404-131.056 306.182-296.643 317.387l-0.976 0.053zM685.422 173.422c-11.537-11.577-27.496-18.741-45.129-18.741s-33.592 7.163-45.127 18.739l-0.002 0.002-134.363 133.778c-11.568 11.535-18.725 27.488-18.725 45.113 0 0.006 0 0.011 0 0.017v-0.001c0 0.005 0 0.010 0 0.016 0 17.625 7.157 33.578 18.723 45.111l0.001 0.001c11.537 11.577 27.496 18.741 45.129 18.741s33.592-7.163 45.127-18.739l88.944-88.944 286.72 286.72c11.537 11.577 27.496 18.741 45.129 18.741s33.592-7.163 45.127-18.739l0.002-0.002c11.577-11.537 18.741-27.496 18.741-45.129s-7.163-33.592-18.739-45.127l-0.002-0.002z" />
<glyph unicode="&#xe911;" glyph-name="Finance" horiz-adv-x="1463" d="M1316.571-64h-1170.286c-80.791 0-146.286 65.494-146.286 146.286v0 146.286h1462.857v-146.286c0-80.791-65.494-146.286-146.286-146.286v0zM1462.857 448h-1462.857v365.714c0 80.791 65.494 146.286 146.286 146.286v0h1170.286c80.791 0 146.286-65.494 146.286-146.286v0-365.714z" />
<glyph unicode="&#xe912;" glyph-name="retail" horiz-adv-x="878" d="M780.19 716.19h-97.524c0 134.652-109.157 243.81-243.81 243.81v0c-134.652 0-243.81-109.157-243.81-243.81v0h-97.524c-53.794-0.166-97.358-43.73-97.524-97.508v-585.159c0.166-53.794 43.73-97.358 97.508-97.524h682.683c53.794 0.166 97.358 43.73 97.524 97.508v585.159c-0.166 53.794-43.73 97.358-97.508 97.524h-0.016zM438.857 862.476c80.791 0 146.286-65.494 146.286-146.286v0h-292.571c0 80.791 65.494 146.286 146.286 146.286v0zM438.857 374.857c-0.083 0-0.182 0-0.28 0-112.908 0-207.858 76.888-235.347 181.161l-0.38 1.696c-0.983 3.658-1.548 7.858-1.548 12.191 0 26.93 21.831 48.762 48.762 48.762 0.030 0 0.060 0 0.090 0h-0.005c23.209-0.755 42.425-16.98 47.715-38.662l0.072-0.348c17.658-62.336 74.041-107.245 140.918-107.276h0.004c66.881 0.031 123.264 44.94 140.672 106.245l0.25 1.031c5.362 22.029 24.577 38.254 47.705 39.007l0.081 0.002c26.967-0.165 48.764-22.064 48.764-49.054 0-4.226-0.534-8.327-1.539-12.239l0.074 0.34c-27.869-105.97-122.819-182.857-235.727-182.857-0.099 0-0.197 0-0.296 0h0.015z" />
<glyph unicode="&#xe913;" glyph-name="real-estate" horiz-adv-x="896" d="M872.016-0.027h-39.983v912.048c0 26.498-21.481 47.979-47.979 47.979-0.017 0-0.034 0-0.051 0h-671.856c-26.498 0-47.979-21.481-47.979-47.979v0-911.804h-40.178c0 0-0.001 0-0.001 0-13.249 0-23.99-10.741-23.99-23.99 0-0.086 0-0.171 0.001-0.257v0.013-39.934h896.006v39.983c-0.028 13.228-10.758 23.941-23.99 23.941 0 0 0 0 0 0v0zM255.988 808.016c0 13.249 10.741 23.99 23.99 23.99v0h80.014c13.249 0 23.99-10.741 23.99-23.99v0-80.014c0-13.249-10.741-23.99-23.99-23.99v0h-79.966c-13.249 0-23.99 10.741-23.99 23.99v0zM255.988 616.001c0 13.249 10.741 23.99 23.99 23.99v0h80.014c13.249 0 23.99-10.741 23.99-23.99v-80.21c0-13.249-10.741-23.99-23.99-23.99h-79.966c-0.014 0-0.032 0-0.049 0-13.249 0-23.99 10.741-23.99 23.99 0 0 0 0 0 0v0zM359.992 319.982h-79.966c-13.249 0-23.99 10.741-23.99 23.99v0 80.014c0 13.249 10.741 23.99 23.99 23.99v0h79.966c13.249 0 23.99-10.741 23.99-23.99v0-80.014c0-13.249-10.741-23.99-23.99-23.99v0zM511.976-0.027h-127.945v168.026c0 13.249 10.741 23.99 23.99 23.99v0h80.014c13.249 0 23.99-10.741 23.99-23.99v0zM639.97 343.971c0-13.249-10.741-23.99-23.99-23.99v0h-79.966c-13.249 0-23.99 10.741-23.99 23.99v0 80.014c0 13.249 10.741 23.99 23.99 23.99v0h80.014c13.249 0 23.99-10.741 23.99-23.99v0zM639.97 535.987c0-13.249-10.741-23.99-23.99-23.99v0h-79.966c-0.015 0-0.032 0-0.050 0-13.181 0-23.878 10.63-23.989 23.784v80.22c0 13.249 10.741 23.99 23.99 23.99v0h80.014c13.249 0 23.99-10.741 23.99-23.99v0zM639.97 728.002c0-13.249-10.741-23.99-23.99-23.99v0h-79.966c-13.249 0-23.99 10.741-23.99 23.99v0 80.014c0 13.249 10.741 23.99 23.99 23.99v0h80.014c13.249 0 23.99-10.741 23.99-23.99v0z" />
<glyph unicode="&#xe914;" glyph-name="nonprofit" horiz-adv-x="1161" d="M658.816-34.048c-20.469-18.579-47.772-29.953-77.732-29.953-30.261 0-57.811 11.603-78.445 30.603l-6.319 5.75c-304.32 275.584-503.68 456.064-496.32 681.216 3.841 103.014 56.303 193.014 134.983 248.156l1.017 0.676c52.423 35.397 117.030 56.504 186.567 56.504 103.35 0 195.81-46.626 257.493-119.99l0.421-0.514c62.003 73.984 154.448 120.695 257.803 120.695 69.599 0 134.251-21.182 187.861-57.45l-1.184 0.755c79.654-55.879 132.056-145.928 135.792-248.396l0.016-0.564c8.128-225.152-191.488-405.632-496.128-682.432z" />
<glyph unicode="&#xe915;" glyph-name="delivery" horiz-adv-x="1408" d="M1184 704h-160v128c-0.218 70.605-57.395 127.782-127.979 128h-768.021c-70.605-0.218-127.782-57.395-128-127.979v-576.021c0.218-70.605 57.395-127.782 127.979-128h0.021c0-106.039 85.961-192 192-192v0c106.039 0 192 85.961 192 192v0h384c0-106.039 85.961-192 192-192v0c106.039 0 192 85.961 192 192v0h64c35.346 0 64 28.654 64 64v0 213.12c-0.059 28.954-9.666 55.653-25.837 77.129l0.237-0.329-147.2 196.48c-11.886 15.51-30.367 25.452-51.176 25.6h-0.024zM320 64c-35.346 0-64 28.654-64 64v0c0 35.346 28.654 64 64 64v0c35.346 0 64-28.654 64-64v0c0-35.346-28.654-64-64-64v0zM1184 608l125.44-160h-285.44v160zM1088 64c-35.346 0-64 28.654-64 64v0c0 35.346 28.654 64 64 64v0c35.346 0 64-28.654 64-64v0c0-35.346-28.654-64-64-64v0z" />
<glyph unicode="&#xe916;" glyph-name="account-login" d="M381.090 879.158v-127.030h508.173v-635.15h-508.173v-127.084h635.15v889.263zM508.12 625.098v-127.030h-508.12v-127.030h508.12v-127.030l254.060 190.518z" />
<glyph unicode="&#xe917;" glyph-name="bar-graph" d="M1024 192v-153.6h-1024v153.6zM307.2 499.2v-256h-204.8v256zM614.4 857.6v-614.4h-204.8v614.4zM921.6 704v-460.8h-204.8v460.8z" />
<glyph unicode="&#xe918;" glyph-name="buffer" d="M18.318 692.015l451.319-217.884c12.686-5.397 27.443-8.534 42.932-8.534s30.246 3.137 43.669 8.81l-0.737-0.277 451.319 217.884c23.742 11.378 23.742 30.151 0 41.719l-451.319 217.884c-12.686 5.397-27.443 8.534-42.932 8.534s-30.246-3.137-43.669-8.81l0.737 0.277-451.319-218.036c-23.742-11.454-23.742-30.113 0-41.567zM1006.592 468.783s-82.413 39.746-93.336 45.056c-3.49 2.42-7.815 3.865-12.478 3.865-4.825 0-9.289-1.548-12.921-4.175l0.065 0.044c-11.378-5.348-332.8-160.54-332.8-160.54-12.686-5.397-27.443-8.534-42.932-8.534s-30.246 3.137-43.669 8.81l0.737-0.277s-312.813 150.945-327.452 158.151c-4.974 3.709-11.242 5.939-18.030 5.939-6.302 0-12.155-1.921-17.006-5.21l0.106 0.068-89.088-42.932c-23.742-11.378-23.742-30.151 0-41.719l451.319-217.884c12.686-5.397 27.443-8.534 42.932-8.534s30.246 3.137 43.669 8.81l-0.737-0.277 451.319 217.884c24.045 11.34 24.045 29.999 0.303 41.453zM1006.592 203.985s-82.413 39.746-93.336 45.056c-3.49 2.42-7.815 3.865-12.478 3.865-4.825 0-9.289-1.548-12.921-4.175l0.065 0.044c-11.378-5.348-332.535-160.806-332.535-160.806-12.686-5.397-27.443-8.534-42.932-8.534s-30.246 3.137-43.669 8.81l0.737-0.277s-312.813 150.945-327.452 158.151c-4.974 3.709-11.242 5.939-18.030 5.939-6.302 0-12.155-1.921-17.006-5.21l0.106 0.068-89.088-42.932c-23.742-11.378-23.742-30.151 0-41.719l451.319-217.884c11.884-5.411 25.773-8.566 40.4-8.566 0.891 0 1.778 0.012 2.663 0.035l-0.131-0.003c0.51-0.009 1.112-0.014 1.715-0.014 14.904 0 29.073 3.146 41.88 8.809l-0.662-0.261 451.319 217.884c23.78 11.605 23.78 30.265 0.038 41.719z" />
<glyph unicode="&#xe919;" glyph-name="calender" d="M716.8 396.8h-153.6c-28.277 0-51.2-22.923-51.2-51.2v0-153.6c0-28.277 22.923-51.2 51.2-51.2v0h153.6c28.277 0 51.2 22.923 51.2 51.2v0 153.6c0 28.277-22.923 51.2-51.2 51.2v0zM716.8 908.8v-51.2h-409.6v51.2c0 28.277-22.923 51.2-51.2 51.2v0c-28.277 0-51.2-22.923-51.2-51.2v0-51.2h-51.2c-56.278-0.029-101.889-45.657-101.889-101.939 0-0.162 0-0.324 0.001-0.486v0.025l-0.512-716.8c0-56.554 45.846-102.4 102.4-102.4v0h716.8c56.484 0.174 102.226 45.916 102.4 102.383v716.817c-0.174 56.484-45.916 102.226-102.383 102.4h-51.217v51.2c0 28.277-22.923 51.2-51.2 51.2v0c-28.277 0-51.2-22.923-51.2-51.2v0zM819.2 38.4h-614.4c-28.277 0-51.2 22.923-51.2 51.2v0 512h716.8v-512c0-28.277-22.923-51.2-51.2-51.2v0z" />
<glyph unicode="&#xe91a;" glyph-name="call" d="M923.447 261.715l-144.787 16.531c-3.966 0.491-8.556 0.772-13.211 0.772-31.351 0-59.733-12.712-80.273-33.263l-104.886-104.886c-162.566 83.89-291.76 213.084-373.399 370.866l-2.251 4.783 105.455 105.455c20.551 20.54 33.263 48.922 33.263 80.273 0 4.656-0.28 9.246-0.825 13.754l0.053-0.543-16.531 143.647c-6.798 57.069-54.906 100.895-113.249 100.895-0.065 0-0.131 0-0.196 0h-98.605c-0.285 0.003-0.622 0.004-0.959 0.004-62.491 0-113.151-50.659-113.151-113.151 0-1.706 0.038-3.402 0.112-5.089l-0.008 0.24c31.615-487.003 418.775-874.161 902.907-905.627l2.869-0.149c1.447-0.066 3.144-0.104 4.849-0.104 62.491 0 113.151 50.659 113.151 113.151 0 0.337-0.001 0.674-0.004 1.010v-0.051 98.615c0.001 0.177 0.002 0.387 0.002 0.597 0 57.939-43.613 105.691-99.801 112.219l-0.526 0.050z" />
<glyph unicode="&#xe91b;" d="M917.364 866.909h-815.43c-2.402 0.217-5.195 0.341-8.017 0.341-48.532 0-88.519-36.59-93.877-83.689l-0.040-0.434v-753.571l203.869 167.564h713.495c2.402-0.217 5.195-0.341 8.017-0.341 48.532 0 88.519 36.59 93.877 83.689l0.040 0.434v502.225c-5.398 47.532-45.385 84.123-93.917 84.123-2.822 0-5.616-0.124-8.375-0.366l0.358 0.025z" />
<glyph unicode="&#xe91c;" d="M416.209 529.408c0-46.271-37.51-83.782-83.782-83.782s-83.782 37.51-83.782 83.782c0 46.271 37.51 83.782 83.782 83.782s83.782-37.51 83.782-83.782z" />
<glyph unicode="&#xe91d;" d="M617.286 529.408c0-46.271-37.51-83.782-83.782-83.782s-83.782 37.51-83.782 83.782c0 46.271 37.51 83.782 83.782 83.782s83.782-37.51 83.782-83.782z" />
<glyph unicode="&#xe91e;" d="M818.316 529.408c0-46.271-37.51-83.782-83.782-83.782s-83.782 37.51-83.782 83.782c0 46.271 37.51 83.782 83.782 83.782s83.782-37.51 83.782-83.782z" />
<glyph unicode="&#xe91f;" glyph-name="clock" d="M512-64c-0.196 0-0.427 0-0.659 0-282.43 0-511.386 228.955-511.386 511.386 0 141.532 57.496 269.635 150.404 362.226l0.014 0.014c92.713 93.588 221.264 151.534 363.348 151.534 282.43 0 511.386-228.955 511.386-511.386 0-142.084-57.946-270.635-151.494-363.309l-0.039-0.039c-92.145-92.909-219.851-150.426-360.991-150.426-0.205 0-0.411 0-0.616 0h0.032zM499.2 704c-21.211-0.25-38.374-17.233-38.911-38.35l-0.001-0.050v-240.128c0-0.083-0.001-0.18-0.001-0.278 0-18.291 9.757-34.303 24.351-43.115l0.226-0.126 208.896-128.512c5.829-3.631 12.898-5.799 20.47-5.837h0.010c0.184-0.003 0.402-0.005 0.619-0.005 21.066 0 38.144 17.078 38.144 38.144 0 3.275-0.413 6.453-1.189 9.485l0.057-0.264c-2.545 10.455-9.003 19.085-17.698 24.427l-0.171 0.098-196.403 118.272v227.84c-0.029 21.196-17.204 38.371-38.397 38.4h-0.003z" />
<glyph unicode="&#xe920;" glyph-name="fire" d="M372.531-30.157q-270.131 33.792-270.131 298.086c-0.572 8.578-0.897 18.595-0.897 28.689 0 178.892 102.315 333.887 251.62 409.659l2.615 1.204q115.046 66.56 133.12 252.518 179.814-116.992 205.67-263.475c4.303-20.925 6.767-44.975 6.767-69.6 0-73.816-22.135-142.462-60.13-199.662l0.832 1.332c54.222 2.013 100.561 33.845 123.273 79.5l0.375 0.833c21.014 38.21 36.814 82.615 44.947 129.646l0.365 2.552q167.936-297.882 78.746-449.894c-55.435-96.751-129.896-176.593-218.844-236.597l-2.494-1.585q-160.41 83.302-200.090 176.538c-14.967 38.794-23.637 83.682-23.637 130.594 0 33.995 4.553 66.927 13.082 98.219l-0.607-2.612c-77.47-21.983-136.062-84.878-151.485-163.263l-0.221-1.345c-2.176-12.7-3.42-27.328-3.42-42.246 0-69.291 26.837-132.314 70.683-179.242l-0.139 0.151z" />
<glyph unicode="&#xe921;" glyph-name="flow-branch" d="M908.288 812.544c0.001 0.168 0.001 0.367 0.001 0.565 0 81.438-66.018 147.456-147.456 147.456s-147.456-66.018-147.456-147.456c0-58.853 34.479-109.654 84.34-133.304l0.895-0.382c-4.876-97.524-78.019-130.389-204.8-177.932-62.297-21.157-116.087-46.798-166.206-77.806l3.439 1.981v253.172c51.181 23.87 86.016 74.89 86.016 134.046 0 81.438-66.018 147.456-147.456 147.456s-147.456-66.018-147.456-147.456c0-59.156 34.835-110.176 85.11-133.666l0.906-0.38v-469.918c-51.231-23.866-86.104-74.919-86.104-134.118 0-81.465 66.040-147.505 147.505-147.505s147.505 66.040 147.505 147.505c0 58.79-34.394 109.548-84.158 133.248l-0.892 0.382c4.876 97.231 78.019 130.389 204.8 177.932 124.733 46.811 278.967 105.131 285.062 292.181 51.35 23.728 86.351 74.769 86.406 133.99v0.007zM269.507 897.634c46.889-0.139 84.846-38.181 84.846-85.089 0-46.994-38.096-85.090-85.090-85.090s-85.089 38.096-85.090 85.089v0c0 0.015 0 0.032 0 0.049 0 46.967 38.074 85.041 85.041 85.041 0.051 0 0.103 0 0.154 0h-0.008zM269.507-9.777c-0.015 0-0.032 0-0.049 0-46.994 0-85.090 38.096-85.090 85.090s38.096 85.090 85.090 85.090c46.994 0 85.090-38.096 85.090-85.090v0c0-0.029 0-0.063 0-0.098 0-46.994-38.096-85.090-85.090-85.090-0.034 0-0.069 0-0.103 0h0.005zM760.881 727.454c-0.029 0-0.063 0-0.098 0-46.994 0-85.090 38.096-85.090 85.090s38.096 85.090 85.090 85.090c46.994 0 85.089-38.096 85.090-85.089v0c0-46.977-38.068-85.062-85.038-85.090h-0.003z" />
<glyph unicode="&#xe922;" glyph-name="headphones1" d="M504.956 882.424c-0.074 0-0.161 0-0.248 0-278.742 0-504.708-225.965-504.708-504.708 0-0.087 0-0.175 0-0.262v0.014-94.673c0.001-24.563 14.034-45.849 34.52-56.279l0.358-0.166 28.362-14.181c4.165-118.728 101.416-213.395 220.777-213.395 0.001 0 0.003 0 0.004 0h47.352c26.152 0 47.352 21.2 47.352 47.352 0 0.011 0 0.022 0 0.033v-0.002 347.074c0 26.152-21.2 47.352-47.352 47.352v0h-47.321c-0.062 0-0.136 0-0.21 0-61.735 0-117.54-25.392-157.54-66.302l-0.040-0.041v3.103c0 209.164 169.561 378.725 378.725 378.725s378.725-169.561 378.725-378.725v0-3.103c-40.040 40.951-95.844 66.343-157.58 66.343-0.074 0-0.147 0-0.221 0h-47.372c-26.152 0-47.352-21.2-47.352-47.352v0-347.074c0-26.152 21.2-47.352 47.352-47.352v0h47.352c0.001 0 0.002 0 0.004 0 119.362 0 216.613 94.667 220.766 213.016l0.011 0.379 28.362 14.181c20.857 10.587 34.902 31.874 34.909 56.443v94.643c0 0.074 0 0.161 0 0.248 0 278.742-225.965 504.708-504.708 504.708-0.098 0-0.196 0-0.295 0h0.015z" />
<glyph unicode="&#xe923;" glyph-name="merge" d="M819.931-74.63l86.357 86.211-208.652 208.701-86.26-86.26zM238.787 684.495h214.162v-341.821l-331.045-331.093 86.26-86.26 367.080 367.080v392.094h214.162l-275.31 275.505z" />
<glyph unicode="&#xe924;" glyph-name="pencil" d="M201.119-63.878h-172.658c-0.091-0.001-0.198-0.002-0.305-0.002-15.55 0-28.157 12.606-28.157 28.157 0 0.043 0 0.087 0 0.13v-0.007 172.84c-0.001 0.1-0.002 0.218-0.002 0.336 0 7.901 3.268 15.039 8.527 20.134l620.611 620.672 213.308-213.308-621.153-620.604c-4.887-5.153-11.783-8.36-19.428-8.36-0.262 0-0.523 0.004-0.783 0.011l0.038-0.001zM903.268 625.96v0l-213.308 213.308 104.094 104.094c10.205 10.277 24.341 16.638 39.963 16.638 0.049 0 0.097 0 0.146 0h-0.008c15.66-0.032 29.831-6.384 40.103-16.639l133.103-133.103c10.256-10.266 16.599-24.443 16.599-40.102s-6.343-29.836-16.6-40.102v0l-104.033-104.033z" />
<glyph unicode="&#xe925;" glyph-name="person-add" d="M660.168 449.202c104.182 0 188.639 84.456 188.639 188.639s-84.456 188.639-188.639 188.639c-104.182 0-188.639-84.456-188.639-188.639v0c0-0.013 0-0.029 0-0.045 0-104.158 84.436-188.594 188.594-188.594 0.016 0 0.031 0 0.047 0h-0.003zM235.965 543.499v141.446h-94.475v-141.49h-141.49v-94.297h141.49v-141.49h94.475v141.535h141.267v94.297zM660.391 354.861c-125.907 0-377.233-63.176-377.233-188.639v-94.297h754.198v94.342c0 125.418-251.281 188.594-377.188 188.594z" />
<glyph unicode="&#xe926;" glyph-name="plus" d="M512.019-64c-0.012 0-0.025 0-0.038 0-282.78 0-512.019 229.239-512.019 512.019s229.239 512.019 512.019 512.019c282.78 0 512.019-229.239 512.019-512.019 0-0.014 0-0.027 0-0.041v0.003c-0.345-282.62-229.361-511.636-511.948-511.981h-0.033zM307.325 499.202c-28.289 0-51.221-22.932-51.221-51.221s22.932-51.221 51.221-51.221v0h153.587v-153.625c0-28.289 22.932-51.221 51.221-51.221s51.221 22.932 51.221 51.221v0 153.663h153.625c28.289 0 51.221 22.932 51.221 51.221s-22.932 51.221-51.221 51.221v0h-153.776v153.435c0 28.289-22.932 51.221-51.221 51.221s-51.221-22.932-51.221-51.221v0-153.587z" />
<glyph unicode="&#xe927;" glyph-name="refresh" d="M508.305 58.479c-0.384-0.001-0.839-0.002-1.294-0.002-52.059 0-101.699 10.356-146.973 29.12l2.547-0.935c-18.471 7.494-31.26 25.295-31.26 46.083 0 27.206 21.905 49.296 49.040 49.594h0.028c0.040 0 0.086 0 0.133 0 6.026 0 11.764-1.228 16.98-3.447l-0.284 0.107c32.524-13.743 70.339-21.729 110.020-21.729 0.452 0 0.903 0.001 1.354 0.003h-0.070c163.58 0.202 296.134 132.756 296.337 296.317v0.020h-88.643c-0.092-0.001-0.2-0.002-0.308-0.002-10.137 0-18.824 6.204-22.472 15.023l-0.059 0.161c-1.211 2.816-1.915 6.094-1.915 9.537 0 6.965 2.882 13.257 7.518 17.749l0.007 0.006 137.795 137.795c4.385 4.32 10.409 6.987 17.055 6.987 6.888 0 13.107-2.865 17.531-7.469l137.803-137.803c4.633-4.385 7.517-10.577 7.517-17.443 0-3.346-0.685-6.533-1.922-9.426l0.059 0.157c-3.66-9.050-12.376-15.318-22.555-15.318-0.131 0-0.263 0.001-0.393 0.003h-88.489c-0.279-218.088-176.998-394.807-395.059-395.086h-0.027zM162.861 266.396c-6.874 0.042-13.078 2.879-17.537 7.431l-137.843 137.799c-4.638 4.378-7.525 10.568-7.525 17.432 0 3.351 0.688 6.541 1.931 9.437l-0.060-0.156c3.649 9.074 12.376 15.363 22.572 15.363 0.125 0 0.25-0.001 0.375-0.003h88.401c0.329 218.065 177.055 394.744 395.106 394.997h0.024c0.368 0.001 0.804 0.002 1.239 0.002 52.074 0 101.733-10.339 147.036-29.076l-2.556 0.936c18.434-7.526 31.188-25.316 31.188-46.084 0-27.189-21.859-49.274-48.962-49.637h-0.034c-0.042 0-0.092 0-0.142 0-6.023 0-11.758 1.228-16.971 3.447l0.284-0.107c-32.524 13.743-70.339 21.729-110.020 21.729-0.452 0-0.903-0.001-1.354-0.003h0.070c-163.469-0.329-295.886-132.809-296.114-296.27v-0.022h88.376c0.093 0.001 0.203 0.002 0.312 0.002 10.219 0 18.976-6.26 22.646-15.155l0.059-0.163c1.245-2.809 1.971-6.086 1.971-9.532 0-6.729-2.765-12.813-7.22-17.177l-137.754-137.754c-4.456-4.568-10.665-7.409-17.537-7.435h-0.005z" />
<glyph unicode="&#xe928;" glyph-name="road" d="M1019.124 187.27l-248.686 568.856c-8.311 19.469-27.174 32.924-49.214 33.206h-173.531l4.34-41.155c0.048-0.439 0.075-0.948 0.075-1.463 0-7.856-6.362-14.226-14.215-14.238h-51.835c-7.854 0.013-14.216 6.383-14.216 14.238 0 0.515 0.027 1.024 0.081 1.525l-0.005-0.062 4.34 41.155h-173.495c-22.056-0.303-40.897-13.753-49.067-32.854l-0.134-0.353-248.686-568.856c-3.327-7.003-5.269-15.216-5.269-23.883 0-30.611 24.232-55.562 54.56-56.717l0.105-0.003h349.964l18.334 173.641c1.556 14.368 13.619 25.454 28.272 25.454 0.003 0 0.007 0 0.010 0h122.294c0.003 0 0.006 0 0.010 0 14.653 0 26.716-11.086 28.261-25.328l0.011-0.126 18.334-173.641h349.915c30.454 1.133 54.713 26.094 54.713 56.722 0 8.666-1.942 16.879-5.415 24.227l0.147-0.345zM462.946 662.845c0.789 7.18 6.817 12.718 14.14 12.727h69.828c7.324-0.009 13.352-5.546 14.135-12.663l0.006-0.064 8.192-77.483c0.075-0.673 0.118-1.453 0.118-2.243 0-11.769-9.54-21.309-21.309-21.309-0.007 0-0.015 0-0.022 0h-72.069c-0.006 0-0.014 0-0.021 0-11.769 0-21.309 9.54-21.309 21.309 0 0.79 0.043 1.57 0.127 2.338l-0.008-0.095 8.143 77.483zM561.152 362.667h-98.304c-0.004 0-0.010 0-0.015 0-15.7 0-28.428 12.728-28.428 28.428 0 1.065 0.059 2.116 0.173 3.151l-0.011-0.128 9.021 85.333c1.556 14.368 13.619 25.454 28.272 25.454 0.003 0 0.007 0 0.010 0h80.262c0.003 0 0.006 0 0.010 0 14.653 0 26.716-11.086 28.261-25.328l0.011-0.126 9.021-85.333c0.103-0.907 0.161-1.958 0.161-3.023 0-15.7-12.728-28.428-28.428-28.428-0.005 0-0.010 0-0.016 0h0.001z" />
<glyph unicode="&#xe929;" glyph-name="security" d="M512 960l-418.909-186.182v-279.273c0-258.327 178.735-499.898 418.909-558.545 240.175 58.647 418.909 300.218 418.909 558.545v279.273zM512 448.465h325.818c-24.669-191.767-152.669-362.589-325.818-416.116v415.651h-325.818v265.309l325.818 144.756z" />
<glyph unicode="&#xe92a;" glyph-name="share" d="M819.2 239.104c-38.782-0.175-74.037-15.13-100.454-39.517l0.102 0.093-365.056 212.48c2.68 10.676 4.345 22.998 4.605 35.666l0.003 0.174c-0.263 12.842-1.928 25.164-4.848 36.991l0.24-1.151 360.96 210.432c27.243-25.271 63.856-40.776 104.089-40.776 84.633 0 153.242 68.609 153.242 153.242s-68.609 153.242-153.242 153.242c-84.633 0-153.242-68.609-153.242-153.242 0-0.119 0-0.237 0-0.356v0.018c0.263-12.842 1.928-25.164 4.848-36.991l-0.24 1.151-360.96-210.432c-27.389 25.691-64.34 41.472-104.977 41.472-84.831 0-153.6-68.769-153.6-153.6s68.769-153.6 153.6-153.6c40.637 0 77.589 15.781 105.061 41.549l-0.083-0.077 364.544-212.992c-2.532-9.971-4.021-21.434-4.096-33.232v-0.048c0-82.569 66.935-149.504 149.504-149.504s149.504 66.935 149.504 149.504c0 82.569-66.935 149.504-149.504 149.504v0z" />
<glyph unicode="&#xe92b;" glyph-name="simple-graphql" d="M589.731 842.612l210.572-121.623c16.653 17.488 40.112 28.363 66.111 28.363 50.384 0 91.229-40.845 91.229-91.229 0-42.724-29.369-78.589-69.020-88.507l-0.629-0.133v-243.153c40.305-10.073 69.688-45.966 69.688-88.723 0-50.436-40.886-91.322-91.322-91.322-27.074 0-51.397 11.782-68.12 30.499l-0.078 0.089-209.455-121.018c2.963-8.606 4.673-18.523 4.673-28.839 0-50.436-40.886-91.322-91.322-91.322s-91.322 40.886-91.322 91.322c0 9.235 1.371 18.151 3.92 26.553l-0.169-0.647-210.618 121.484c-16.658-17.416-40.082-28.242-66.035-28.242-50.436 0-91.322 40.886-91.322 91.322 0 42.799 29.442 78.721 69.177 88.619l0.629 0.133v243.34c-40.757 9.72-70.596 45.827-70.596 88.902 0 50.41 40.865 91.276 91.276 91.276 17.073 0 33.050-4.687 46.717-12.845l-0.417 0.231c7.845-4.53 14.584-9.876 20.442-16.064l0.038-0.041 210.944 121.856c-2.371 7.738-3.736 16.632-3.736 25.846 0 50.41 40.865 91.276 91.276 91.276s91.276-40.865 91.276-91.276c0-9.299-1.39-18.272-3.975-26.725l0.17 0.646zM567.761 805.376c-0.789-0.873-1.594-1.678-2.438-2.441l-0.029-0.026 275.689-477.417c1.117 0.372 2.374 0.698 3.491 0.977v243.293c-40.027 10.173-69.162 45.89-69.162 88.411 0 7.81 0.983 15.391 2.832 22.626l-0.137-0.631c0.233 1.024 0.512 2.095 0.791 3.072l-211.037 121.949zM439.11 802.863l-2.56 2.56-211.037-121.856c2.273-7.578 3.582-16.285 3.582-25.299 0-41.345-27.532-76.26-65.262-87.411l-0.645-0.163-3.258-0.884v-243.526l3.584-0.977 275.689 477.417zM527.546 781.219c-7.62-2.276-16.376-3.586-25.437-3.586s-17.817 1.31-26.088 3.75l0.651-0.165-275.596-477.51c12.202-11.781 21.162-26.842 25.462-43.764l0.138-0.64h551.005c4.409 17.641 13.43 32.764 25.706 44.512l0.034 0.032zM569.437 88.855l209.455 121.018c-0.652 2.001-1.164 4.003-1.629 6.051h-550.586l-0.884-3.537 210.711-121.67c16.65 17.193 39.945 27.866 65.733 27.866 26.709 0 50.743-11.448 67.465-29.705l0.062-0.069z" />
<glyph unicode="&#xe92c;" glyph-name="stars" d="M511.523 960c-282.568-0.288-511.523-229.42-511.523-512.028 0-282.785 229.243-512.028 512.028-512.028s512.028 229.243 512.028 512.028v0c0 0.083 0 0.182 0 0.281 0 282.63-229.117 511.748-511.748 511.748-0.276 0-0.551 0-0.827-0.001h0.042zM728.826 140.8l-216.573 130.572-216.798-130.572 57.297 246.231-190.952 165.387 251.893 21.528 98.335 232.439 98.279-231.935 251.893-21.528-191.008-165.387 57.633-246.736z" />
<glyph unicode="&#xe92d;" glyph-name="statistics" d="M910.234-64h-796.467c-62.8 0.078-113.689 50.966-113.766 113.759v796.475c0.078 62.8 50.966 113.689 113.759 113.766h796.475c62.8-0.078 113.689-50.966 113.766-113.759v-796.475c-0.078-62.8-50.966-113.689-113.759-113.766h-0.008zM739.567 391.1c-31.405-0.019-56.861-25.463-56.9-56.862v-113.77c0-31.435 25.483-56.917 56.917-56.917s56.917 25.483 56.917 56.917v0 113.766c-0.058 31.419-25.542 56.866-56.968 56.866 0 0 0 0 0 0v0zM512 732.467c-31.407-0.058-56.847-25.522-56.866-56.933v-455.068c-0.011-0.415-0.017-0.904-0.017-1.394 0-31.425 25.475-56.9 56.9-56.9s56.9 25.475 56.9 56.9c0 0.49-0.006 0.979-0.019 1.466l0.001-0.072v455.066c-0.019 31.424-25.479 56.896-56.897 56.934h-0.004zM284.467 561.801c-31.424-0.019-56.896-25.479-56.934-56.897v-284.437c0-31.435 25.483-56.917 56.917-56.917s56.917 25.483 56.917 56.917v0 284.399c-0.019 31.417-25.483 56.881-56.898 56.9h-0.002z" />
<glyph unicode="&#xe92e;" glyph-name="user-group" d="M698.182 494.545c0.042 0 0.091 0 0.141 0 76.785 0 139.031 62.246 139.031 139.031 0 0.213 0 0.425-0.001 0.638v-0.033c0.001 0.18 0.001 0.392 0.001 0.605 0 76.785-62.246 139.031-139.031 139.031-0.050 0-0.099 0-0.149 0h0.008c-77.119 0-139.636-62.517-139.636-139.636v0c0-77.119 62.517-139.636 139.636-139.636v0zM325.818 494.545c0.042 0 0.091 0 0.141 0 76.785 0 139.031 62.246 139.031 139.031 0 0.213 0 0.425-0.001 0.638v-0.033c0.001 0.18 0.001 0.392 0.001 0.605 0 76.785-62.246 139.031-139.031 139.031-0.050 0-0.099 0-0.149 0h0.008c-77.119 0-139.636-62.517-139.636-139.636v0c0-77.119 62.517-139.636 139.636-139.636v0zM325.818 401.455c-108.451 0-325.818-54.458-325.818-162.909v-69.818c0-25.706 20.839-46.545 46.545-46.545v0h558.545c25.706 0 46.545 20.839 46.545 46.545v0 69.818c0 108.451-217.367 162.909-325.818 162.909zM698.182 401.455c-13.498 0-28.858-0.931-45.149-2.327 0.931-0.465 1.396-1.396 1.862-1.862 53.062-34.052 88.138-92.113 89.828-158.473l0.005-0.247v-69.818c-0.137-16.736-3.197-32.716-8.692-47.511l0.314 0.966h241.105c25.706 0 46.545 20.839 46.545 46.545v0 69.818c0 108.451-217.367 162.909-325.818 162.909z" />
<glyph unicode="&#xe92f;" glyph-name="announcement" d="M921.559 960h-819.186c-56.316-0.195-101.893-45.892-101.893-102.235 0-0.048 0-0.097 0-0.145v0.008l-0.48-921.559 204.814 204.814h716.745c56.43 0.271 102.101 45.943 102.372 102.347v614.399c-0.271 56.43-45.943 102.101-102.347 102.372h-0.026zM563.152 499.221h-102.373v307.186h102.373zM563.152 294.407h-102.373v102.441h102.373z" />
<glyph unicode="&#xe930;" glyph-name="audio-spectrum" horiz-adv-x="896" d="M511.973 960v-1023.946h127.993v1023.946zM255.987 832.007v-767.959h127.993v767.959zM767.96 704.014v-511.973h127.993v511.973zM0 576.020v-255.986h127.993v255.986z" />
<glyph unicode="&#xe931;" glyph-name="bookmarks" horiz-adv-x="768" d="M128 832v-896l319.886 320.171 320-320v895.829zM640 960h-640v-896l64 64v768h576z" />
<glyph unicode="&#xe932;" glyph-name="calendar-check" horiz-adv-x="896" d="M872.014 640.008h-848.013c-13.255 0-24.001 10.746-24.001 24.001v0 72.003c0 53.021 42.982 96.004 96.004 96.004v0h96.004v103.984c0 13.255 10.746 24.001 24.001 24.001h79.983c13.255 0 24.001-10.746 24.001-24.001v0-103.984h256.030v103.984c0 13.255 10.746 24.001 24.001 24.001v0h79.983c13.255 0 24.001-10.746 24.001-24.001v0-103.984h96.004c53.021 0 96.004-42.982 96.004-96.004v0-72.003c0-13.255-10.746-24.001-24.001-24.001v0zM24.001 575.985h848.013c13.255 0 24.001-10.746 24.001-24.001v0-520.040c0-53.021-42.982-96.004-96.004-96.004h-704.008c-53.021 0-96.004 42.982-96.004 96.004v0 520.040c0 13.255 10.746 24.001 24.001 24.001v0zM690.627 383.977l-56.342 56.822c-4.344 4.349-10.348 7.039-16.981 7.039s-12.636-2.69-16.98-7.039v0l-212.048-210.128-91.984 92.704c-4.344 4.349-10.348 7.039-16.981 7.039s-12.636-2.69-16.98-7.039v0l-56.822-56.342c-4.349-4.344-7.039-10.348-7.039-16.981s2.69-12.636 7.039-16.98v0l165.186-166.567c4.344-4.349 10.348-7.039 16.981-7.039s12.636 2.69 16.98 7.039v0l285.911 283.631c4.349 4.344 7.039 10.348 7.039 16.981s-2.69 12.636-7.039 16.98v0z" />
<glyph unicode="&#xe933;" glyph-name="cloud-upload" horiz-adv-x="1536" d="M1238.337 573.426c-44.777 222.158-238.383 387.111-470.516 387.111-184.207 0-344.153-103.872-424.462-256.239l-1.258-2.619c-192.106-23.008-339.596-184.988-339.596-381.416 0-211.191 170.493-382.562 381.35-383.982l0.136-0.001h832.004c0.404-0.002 0.881-0.003 1.359-0.003 176.213 0 319.062 142.849 319.062 319.062 0 168.806-131.092 306.993-297.025 318.313l-0.985 0.054zM896.236 384.013v-256.017h-256.227v256.017h-191.996l319.969 319.969 319.969-319.969z" />
<glyph unicode="&#xe934;" glyph-name="fullscreen-exit" d="M63.999 511.999v-127.999h191.998v-191.998l255.998 255.998-255.998 255.998v-191.998zM511.995 448l255.998-255.998v191.998l191.969-0.088v128.174h-191.998v191.998z" />
<glyph unicode="&#xe935;" glyph-name="hand" horiz-adv-x="788" d="M735.74 789.468c-0.122 0.001-0.267 0.002-0.411 0.002-28.158 0-51.042-22.583-51.527-50.625l-0.001-0.046v-269.216c-0.615-11.618-10.185-20.805-21.901-20.805s-21.286 9.187-21.899 20.751l-0.002 0.055v397.158c0 28.685-23.254 51.939-51.939 51.939s-51.939-23.254-51.939-51.939v0-312.151c-0.615-11.618-10.185-20.805-21.901-20.805s-21.286 9.187-21.899 20.751l-0.002 0.055v354.741c0 28.685-23.254 51.939-51.939 51.939s-51.939-23.254-51.939-51.939v0-397.216c-0.615-11.618-10.185-20.805-21.901-20.805s-21.286 9.187-21.899 20.751l-0.002 0.055v312.036c0 28.685-23.254 51.939-51.939 51.939s-51.939-23.254-51.939-51.939v0-537.219l-68.559 58.056c-64.231 55.863-118.593 79.755-162.914 38.665-29.778-28.855 16.967-76.061 65.962-130.943 47.264-52.92 172.263-226.164 278.853-288.548 28.455-17.602 62.956-28.036 99.893-28.047h140.757c113.457 0 192.923 93.259 192.923 229.338v573.288c-0.678 28.159-23.666 50.727-51.925 50.727-0.005 0-0.010 0-0.015 0h0.001z" />
<glyph unicode="&#xe936;" glyph-name="info" d="M512.031 960c-282.787 0-512.031-229.244-512.031-512.031s229.244-512.031 512.031-512.031c282.787 0 512.031 229.244 512.031 512.031v0c0 282.787-229.244 512.031-512.031 512.031v0zM563.234 191.953h-102.406v307.219h102.406zM563.234 601.578h-102.406v102.406h102.406z" />
<glyph unicode="&#xe937;" glyph-name="library-add" d="M102.4 755.2h-102.4v-716.8c0.174-56.484 45.916-102.226 102.383-102.4h716.817v102.4h-716.8zM921.6 960h-614.4c-56.484-0.174-102.226-45.916-102.4-102.383v-614.417c0.174-56.484 45.916-102.226 102.383-102.4h614.417c56.484 0.174 102.226 45.916 102.4 102.383v614.417c-0.174 56.484-45.916 102.226-102.383 102.4h-0.017zM870.4 499.2h-204.8v-204.8h-102.4v204.8h-204.8v102.4h204.8v204.8h102.4v-204.8h204.8z" />
<glyph unicode="&#xe938;" glyph-name="library-music" d="M921.6 960h-614.4c-56.554 0-102.4-45.846-102.4-102.4v0-614.4c0-56.554 45.846-102.4 102.4-102.4h614.4c56.554 0 102.4 45.846 102.4 102.4v0 614.4c0 56.554-45.846 102.4-102.4 102.4v0zM819.2 704h-153.6v-281.6c0-70.692-57.308-128-128-128s-128 57.308-128 128c0 70.692 57.308 128 128 128v0c0.069 0 0.151 0 0.233 0 28.962 0 55.629-9.825 76.85-26.324l-0.283 0.212v282.112h204.8zM102.4 755.2h-102.4v-716.8c0-56.554 45.846-102.4 102.4-102.4h716.8v102.4h-716.8z" />
<glyph unicode="&#xe939;" glyph-name="microphone" horiz-adv-x="704" d="M351.97 256.003c106.052 0 192.024 85.972 192.024 192.024v0 319.948c0.018 0.975 0.028 2.126 0.028 3.279 0 106.052-85.972 192.024-192.024 192.024s-192.024-85.972-192.024-192.024c0-1.153 0.010-2.303 0.030-3.451l-0.002 0.173v-319.948c0-106.033 85.94-191.993 191.965-192.024h0.003zM671.806 576.007h-32.023c-0.017 0-0.036 0-0.056 0-17.655 0-31.967-14.312-31.967-31.967 0-0.020 0-0.039 0-0.059v0.003-95.956c-0.036-141.52-114.769-256.231-256.294-256.231-8.813 0-17.522 0.445-26.105 1.313l1.081-0.089c-130.645 17.114-230.471 127.74-230.471 261.682 0 1.649 0.015 3.294 0.045 4.935l-0.004-0.246v84.592c0 0.017 0 0.036 0 0.056 0 17.655-14.312 31.967-31.967 31.967-0.020 0-0.039 0-0.059 0h-31.964c-0.017 0-0.036 0-0.056 0-17.655 0-31.967-14.312-31.967-31.967 0-0.020 0-0.039 0-0.059v0.003-80.281c-0.024-1.55-0.037-3.38-0.037-5.214 0-179.653 130.509-328.824 301.89-357.877l2.139-0.3v-68.3h-111.968c-0.017 0-0.036 0-0.056 0-17.655 0-31.967-14.312-31.967-31.967 0-0.020 0-0.039 0-0.059v0.003-32.023c0-0.017 0-0.036 0-0.056 0-17.655 14.312-31.967 31.967-31.967 0.020 0 0.039 0 0.059 0h319.945c0.017 0 0.036 0 0.056 0 17.655 0 31.967 14.312 31.967 31.967 0 0.020 0 0.039 0 0.059v-0.003 32.023c0 0.017 0 0.036 0 0.056 0 17.655-14.312 31.967-31.967 31.967-0.020 0-0.039 0-0.059 0h-111.965v67.516c172.485 24.58 303.689 171.143 303.992 348.411v96.044c0 0.017 0 0.037 0 0.057 0 17.655-14.312 31.967-31.967 31.967-0.079 0-0.157 0-0.236-0.001h0.012z" />
<glyph unicode="&#xe93a;" glyph-name="microphone-slash" horiz-adv-x="1280" d="M1267.627 43.804l-315.733 243.911c25.129 46.424 39.959 101.606 40.107 160.238v96.046c0 17.673-14.327 32-32 32v0h-32c-17.673 0-32-14.327-32-32v0-96c-0.096-36.373-7.984-70.88-22.081-101.972l0.634 1.563-53.106 41.045c6.39 17.638 10.239 37.997 10.579 59.209l0.002 0.155v320c0 106.039-85.961 192-192 192s-192-85.961-192-192v0-90.709l-357.006 275.968c-5.359 4.182-12.19 6.705-19.61 6.705-10.258 0-19.389-4.822-25.251-12.323l-0.053-0.071-39.367-50.46c-4.189-5.358-6.716-12.191-6.716-19.615 0-10.259 4.827-19.39 12.334-25.246l0.071-0.053 1176.548-909.454c5.358-4.189 12.191-6.716 19.615-6.716 10.259 0 19.39 4.827 25.246 12.334l0.053 0.071 39.282 50.546c4.182 5.359 6.705 12.19 6.705 19.61 0 10.258-4.822 19.389-12.323 25.251l-0.071 0.053zM800 32h-111.986v67.527c25.357 3.689 48.057 9.488 69.75 17.382l-2.422-0.77-100.21 77.454c-6.852-0.647-14.817-1.016-22.867-1.016-6.276 0-12.5 0.224-18.665 0.665l0.828-0.047c-110.724 13.747-198.985 95.664-222.067 201.896l-0.311 1.709-104.050 80.469v-13.71c-0.023-1.509-0.035-3.291-0.035-5.076 0-179.662 130.518-328.84 301.91-357.888l2.139-0.3v-68.267h-112.014c-17.673 0-32-14.327-32-32 0-0.010 0-0.020 0-0.030v0.002-32c0-17.673 14.327-32 32-32v0h320c17.673 0 32 14.327 32 32v0 32c0 17.673-14.327 32-32 32v0z" />
<glyph unicode="&#xe93b;" glyph-name="multitrack-audio" horiz-adv-x="922" d="M204.771 140.771h102.264v614.41h-102.264zM409.59-64.049h102.264v1024.049h-102.264v-1024zM0 345.59h102.264v204.771h-102.264zM614.41 140.771h102.264v614.41h-102.264zM819.229 550.361v-204.819h102.264v204.819z" />
<glyph unicode="&#xe93c;" glyph-name="phone-locked" horiz-adv-x="922" d="M870.373 217.613c-0.179 0-0.391 0-0.602 0-65.144 0-127.791 10.688-186.285 30.406l4.11-1.202c-4.685 1.554-10.079 2.451-15.681 2.451-14.167 0-26.995-5.733-36.291-15.006l0.001 0.001-112.667-112.879c-145.904 75.402-261.906 191.318-335.387 332.856l-2.027 4.293 112.613 112.879c9.272 9.295 15.005 22.123 15.005 36.29 0 5.603-0.897 10.996-2.554 16.045l0.103-0.363c-18.517 54.523-29.204 117.326-29.204 182.626 0 0.147 0 0.294 0 0.441v-0.023c0 0.063 0 0.138 0 0.213 0 28.174-22.84 51.014-51.014 51.014-0.075 0-0.15 0-0.225 0h-179.095c-0.016 0-0.035 0-0.053 0-28.262 0-51.173-22.911-51.173-51.173 0-0.019 0-0.037 0-0.056v0.003c0-0.032 0-0.069 0-0.106 0-480.665 389.656-870.32 870.32-870.32 0.037 0 0.075 0 0.112 0h-0.006c0.063 0 0.138 0 0.213 0 28.174 0 51.014 22.84 51.014 51.014 0 0.075 0 0.15 0 0.225v-0.012 179.16c0 0.063 0 0.138 0 0.213 0 28.174-22.84 51.014-51.014 51.014-0.075 0-0.15 0-0.225 0h0.012zM870.373 806.427v25.587c0 70.685-57.302 127.987-127.987 127.987s-127.987-57.302-127.987-127.987v0-25.587c-0.016 0-0.035 0-0.053 0-28.262 0-51.173-22.911-51.173-51.173 0-0.019 0-0.037 0-0.056v0.003-204.8c0-0.016 0-0.035 0-0.053 0-28.262 22.911-51.173 51.173-51.173 0.019 0 0.037 0 0.056 0h255.97c0.016 0 0.035 0 0.053 0 28.262 0 51.173 22.911 51.173 51.173 0 0.019 0 0.037 0 0.056v-0.003 204.8c0 0.016 0 0.035 0 0.053 0 28.262-22.911 51.173-51.173 51.173-0.019 0-0.037 0-0.056 0h0.003zM829.413 806.427h-174.053v25.587c0 48.064 38.963 87.027 87.027 87.027s87.027-38.963 87.027-87.027v-25.587z" />
<glyph unicode="&#xe93d;" glyph-name="queue-music" horiz-adv-x="1390" d="M877.723 960h-877.723v-146.277h877.723zM877.723 667.446h-877.723v-146.277h877.723zM0 228.554h585.169v146.277h-585.169zM1024 960v-598.3c-21.672 7.883-46.689 12.441-72.77 12.441-120.976 0-219.047-98.071-219.047-219.047s98.071-219.047 219.047-219.047c120.976 0 219.047 98.071 219.047 219.047 0 0.113 0 0.226 0 0.339v-0.017 658.308h219.477v146.277z" />
<glyph unicode="&#xe93e;" glyph-name="record-voice-over" horiz-adv-x="1186" d="M646.764 582.707c0-119.066-96.522-215.588-215.588-215.588s-215.588 96.522-215.588 215.588c0 119.066 96.522 215.588 215.588 215.588v0c119.066 0 215.588-96.522 215.588-215.588v0zM431.176 259.353c-143.878 0-431.176-72.225-431.176-215.588v-107.765h862.352v107.765c0 143.363-287.298 215.588-431.176 215.588zM849.438 778.924l-90.566-91.081c21.22-29.034 33.952-65.442 33.952-104.823s-12.732-75.788-34.305-105.33l0.353 0.507 90.566-91.081c50.419 49.995 81.633 119.29 81.633 195.875 0 76.613-31.237 145.931-81.67 195.911l-0.020 0.020zM1027.771 960l-87.824-87.824c69.434-76.1 111.962-177.789 111.962-289.412s-42.528-213.312-112.266-289.75l0.303 0.337 87.824-87.824c97.458 96.121 157.829 229.629 157.829 377.236s-60.371 281.115-157.769 377.177l-0.060 0.059z" />
<glyph unicode="&#xe93f;" glyph-name="screen-share" horiz-adv-x="1536" d="M1280.033 64.016c70.394 0.262 127.359 57.388 127.359 127.818 0 0.070 0 0.139 0 0.209v-0.011l0.658 640.016c0 70.665-57.285 127.951-127.951 127.951-0.023 0-0.046 0-0.069 0h-1023.996c-0.137 0.001-0.299 0.001-0.461 0.001-70.447 0-127.556-57.109-127.556-127.556 0-0.162 0-0.324 0.001-0.486v0.025-640.016c0-70.665 57.285-127.951 127.951-127.951 0.023 0 0.046 0 0.069 0h-256.037v-128.016h1536v128.016zM832.041 289.92v140.121c-177.618 0-295.043-54.404-383.984-174.066 35.853 171.039 135.055 341.158 383.984 375.695v136.305l256.033-238.732z" />
<glyph unicode="&#xe940;" glyph-name="sign-out-alt" horiz-adv-x="1344" d="M1325.022 402.773l-447.928-447.928c-11.587-11.548-27.573-18.688-45.227-18.688-35.36 0-64.029 28.643-64.072 63.993v255.963h-362.554c-0.049 0-0.106 0-0.164 0-35.25 0-63.826 28.576-63.826 63.826 0 0.058 0 0.115 0 0.173v-0.009 255.959c-0.001 0.146-0.002 0.319-0.002 0.492 0 35.25 28.576 63.826 63.826 63.826 0.058 0 0.117 0 0.175 0h362.627v255.631c0.154 35.314 28.817 63.882 64.153 63.882 17.608 0 33.558-7.093 45.151-18.578l447.923-447.923c11.455-11.644 18.528-27.63 18.528-45.267 0-17.679-7.105-33.698-18.616-45.357l0.007 0.007zM511.918-31.473v106.513c-0.092 17.61-14.344 31.861-31.945 31.954h-224.014c-0.024 0-0.053 0-0.082 0-47.060 0-85.21 38.15-85.21 85.21 0 0.029 0 0.058 0 0.086v-0.004 511.754c0 0.024 0 0.053 0 0.082 0 47.060 38.15 85.21 85.21 85.21 0.029 0 0.058 0 0.086 0h223.919c17.61 0.092 31.861 14.344 31.954 31.945v106.686c-0.092 17.61-14.344 31.861-31.945 31.954h-223.932c-141.315-0.047-255.866-114.569-255.959-255.868v-511.927c0.047-141.343 114.615-255.912 255.954-255.959h223.928c17.703 0.046 32.037 14.408 32.037 32.118 0 0.086 0 0.173-0.001 0.259v-0.013z" />
<glyph unicode="&#xe941;" glyph-name="unlock-alt" horiz-adv-x="896" d="M799.987 448h-496.024v206.185c-0.002 0.265-0.003 0.578-0.003 0.891 0 79.527 64.469 143.996 143.996 143.996 79.214 0 143.488-63.962 143.993-143.057v-32.001c0-26.508 21.489-47.998 47.998-47.998v0h63.974c26.508 0 47.998 21.489 47.998 47.998v0 32.021c-0.856 167.226-136.617 302.459-303.964 302.459-167.877 0-303.967-136.091-303.967-303.967 0-0.53 0.001-1.060 0.004-1.59v0.081-205.019h-47.998c-53.017 0-95.996-42.979-95.996-95.996v0-320.009c0-53.017 42.979-95.996 95.996-95.996v0h703.991c53.017 0 95.996 42.979 95.996 95.996v0 320.009c0 53.017-42.979 95.996-95.996 95.996v0zM527.976 144.036c0.022-0.698 0.034-1.519 0.034-2.342 0-44.193-35.826-80.019-80.019-80.019s-80.019 35.826-80.019 80.019c0 0.824 0.012 1.644 0.037 2.462l-0.003-0.12v95.996c1.304 43.174 36.615 77.677 79.985 77.677s78.681-34.503 79.982-77.557l0.003-0.12z" />
<glyph unicode="&#xe942;" glyph-name="user-plus" horiz-adv-x="1280" d="M1247.996 543.979h-128.016v128.016c-0.074 17.627-14.344 31.897-31.964 31.971h-64.015c-17.627-0.074-31.897-14.344-31.971-31.964v-128.023h-128.016c-17.627-0.074-31.897-14.344-31.971-31.964v-64.015c0.074-17.627 14.344-31.897 31.964-31.971h128.023v-128.016c0.074-17.627 14.344-31.897 31.964-31.971h64.015c17.627 0.074 31.897 14.344 31.971 31.964v128.023h128.016c17.627 0.074 31.897 14.344 31.971 31.964v64.015c-0.074 17.627-14.344 31.897-31.964 31.971h-0.007zM447.992 448c141.367 0 255.967 114.6 255.967 255.967s-114.6 255.967-255.967 255.967c-141.344 0-255.93-114.563-255.967-255.898v-0.003c0-0.020 0-0.043 0-0.066 0-141.367 114.6-255.967 255.967-255.967v0zM627.189 383.992h-33.418c-42.771-20.209-92.913-32.007-145.811-32.007s-103.040 11.798-147.939 32.906l2.127-0.899h-33.353c-148.436-0.037-268.758-120.359-268.795-268.792v-83.221c0.037-52.993 42.986-95.942 95.976-95.979h703.897c52.993 0.037 95.942 42.986 95.979 95.976v83.221c-0.037 148.39-120.284 268.683-268.652 268.795h-0.011z" />
<glyph unicode="&#xe943;" glyph-name="users" horiz-adv-x="1463" d="M219.457 521.152c80.802 0 146.304 65.503 146.304 146.305s-65.503 146.305-146.305 146.305c-80.802 0-146.305-65.503-146.305-146.305 0-0.069 0-0.139 0-0.208v0.011c0.187-80.687 65.602-146.033 146.297-146.107h0.007zM1243.457 521.152c80.802 0 146.304 65.503 146.304 146.305s-65.503 146.305-146.305 146.305c-80.802 0-146.305-65.503-146.305-146.305 0-0.069 0-0.139 0-0.208v0.011c0.187-80.641 65.527-145.958 146.159-146.107h0.014zM1316.609 448h-146.305c-0.053 0-0.115 0-0.177 0-40.164 0-76.537-16.236-102.912-42.502l0.005 0.005c92.154-50.878 156.959-141.569 171.44-248.253l0.192-1.728h150.844c0.020 0 0.043 0 0.066 0 40.365 0 73.086 32.722 73.086 73.086 0 0.023 0 0.046 0 0.069v-0.004 73.021c-0.075 80.748-65.495 146.192-146.228 146.304h-0.011zM731.457 448c141.403 0 256.033 114.63 256.033 256.033s-114.63 256.033-256.033 256.033c-141.403 0-256.033-114.63-256.033-256.033 0-0.023 0-0.046 0-0.069v0.004c0-0.020 0-0.043 0-0.066 0-141.33 114.571-255.901 255.901-255.901 0.046 0 0.093 0 0.139 0h-0.007zM906.97 374.848h-18.88c-45.664-23.062-99.538-36.568-156.567-36.568s-110.903 13.506-158.599 37.494l2.032-0.926h-19.077c-145.327 0-263.138-117.811-263.138-263.138v0-65.784c0-60.601 49.127-109.728 109.728-109.728h658.107c60.601 0 109.728 49.127 109.728 109.728v0 65.784c0 145.327-117.811 263.138-263.138 263.138-0.069 0-0.139 0-0.208 0h0.011zM395.627 405.503c-26.37 26.261-62.743 42.497-102.907 42.497-0.062 0-0.125 0-0.187 0h-146.229c-80.772-0.075-146.23-65.533-146.305-146.297v-73.159c0-0.020 0-0.043 0-0.066 0-40.365 32.722-73.086 73.086-73.086 0.023 0 0.046 0 0.069 0h150.511c14.897 108.449 79.77 199.137 170.239 249.238l1.721 0.874z" />
<glyph unicode="&#xe944;" glyph-name="verified-user" horiz-adv-x="838" d="M418.935 960l-418.935-186.182v-279.273c-0.002-0.57-0.003-1.243-0.003-1.917 0-262.802 175.010-484.728 414.841-555.59l4.097-1.038c243.929 71.901 418.938 293.827 418.938 556.628 0 0.674-0.001 1.348-0.003 2.022v-0.105 279.273zM325.844 215.273l-186.182 186.182 65.632 65.632 120.549-120.086 306.731 306.731 65.632-66.096z" />
<glyph unicode="&#xe945;" glyph-name="volume-mute" horiz-adv-x="1365" d="M573.402 941.037l-237.227-237.037h-272.156c-0.011 0-0.025 0-0.038 0-35.336 0-63.981-28.645-63.981-63.981 0-0.013 0-0.027 0-0.040v0.002-384c0-35.336 28.645-63.981 63.981-63.981 0.013 0 0.027 0 0.040 0h272.154l237.227-237.037c11.583-11.572 27.579-18.728 45.246-18.728 35.288 0 63.907 28.55 64.019 63.812v895.897c-0.163 35.254-28.78 63.769-64.056 63.769-17.646 0-33.625-7.135-45.21-18.677l0.002 0.002zM1231.038 448l121.704 121.704c7.732 7.78 12.511 18.502 12.511 30.341s-4.779 22.561-12.513 30.343l-60.679 60.679c-7.78 7.732-18.502 12.511-30.341 12.511s-22.561-4.779-30.343-12.513l0.002 0.002-122.046-121.363-121.704 121.704c-7.78 7.732-18.502 12.511-30.341 12.511s-22.561-4.779-30.343-12.513l-60.679-60.679c-7.732-7.78-12.511-18.502-12.511-30.341s4.779-22.561 12.513-30.343l-0.002 0.002 121.363-122.046-121.666-121.666c-7.732-7.78-12.511-18.502-12.511-30.341s4.779-22.561 12.513-30.343l60.679-60.679c7.78-7.732 18.502-12.511 30.341-12.511s22.561 4.779 30.343 12.513l121.664 121.664 121.704-121.704c7.78-7.732 18.502-12.511 30.341-12.511s22.561 4.779 30.343 12.513l60.679 60.679c7.732 7.78 12.511 18.502 12.511 30.341s-4.779 22.561-12.513 30.343l0.002-0.002z" />
<glyph unicode="&#xe946;" glyph-name="volume-up" horiz-adv-x="1051" d="M0 623.155v-350.31h233.523l291.84-291.84v934.042l-291.84-291.84zM788.122 448c0 0.042 0 0.092 0 0.142 0 102.567-58.767 191.408-144.467 234.689l-1.504 0.689v-469.965c87.161 43.527 145.971 132.075 145.971 234.36 0 0.12 0 0.24 0 0.36v-0.019zM642.15 960v-120.269c170.093-52.059 291.655-207.673 291.655-391.68s-121.562-339.621-288.759-390.915l-2.896-0.765v-120.269c235.748 54.942 408.695 263.274 408.695 512s-172.947 457.058-405.145 511.301l-3.55 0.699z" />
<glyph unicode="&#xe947;" glyph-name="time" d="M512 960c-282.77 0-512-229.23-512-512s229.23-512 512-512c282.77 0 512 229.23 512 512v0c0 0.018 0 0.040 0 0.062 0 282.736-229.203 511.938-511.938 511.938-0.022 0-0.043 0-0.065 0h0.003zM546.492 403.68c-0.035-19.035-15.457-34.457-34.488-34.492h-236.315c-18.411 0.804-33.032 15.925-33.032 34.461s14.621 33.657 32.96 34.458l0.072 0.003h201.821v324.953c0.804 18.411 15.925 33.032 34.461 33.032s33.657-14.621 34.458-32.96l0.003-0.072z" />
<glyph unicode="&#xe948;" glyph-name="bubble-chart" d="M409.611 294.416c0-113.096-91.682-204.778-204.778-204.778s-204.778 91.682-204.778 204.778c0 113.077 91.651 204.747 204.721 204.778h0.003c0.016 0 0.035 0 0.054 0 113.096 0 204.778-91.682 204.778-204.778v0zM819.167 64.014c0-70.7-57.314-128.014-128.014-128.014s-128.014 57.314-128.014 128.014c0 70.7 57.314 128.014 128.014 128.014 0.019 0 0.038 0 0.057 0h-0.003c70.677-0.031 127.959-57.333 127.959-128.014v0zM1024 652.778c0-169.674-137.548-307.222-307.222-307.222s-307.222 137.548-307.222 307.222c0 169.674 137.548 307.222 307.222 307.222 0.019 0 0.038 0 0.057 0h-0.003c169.674 0 307.222-137.548 307.222-307.222v0z" />
<glyph unicode="&#xe949;" glyph-name="calendar-alt" horiz-adv-x="990" d="M0 31.997c2.956-53.63 47.165-96 101.269-96 1.671 0 3.332 0.040 4.982 0.12l-0.233-0.009h777.562c1.416-0.071 3.075-0.111 4.744-0.111 54.143 0 98.376 42.429 101.264 95.851l0.011 0.257v543.909h-989.599zM706.864 424.001c0.755 13.424 11.824 24.024 25.37 24.024 0.394 0 0.787-0.009 1.176-0.027l-0.055 0.002h88.358c0.335 0.016 0.727 0.025 1.121 0.025 13.545 0 24.615-10.6 25.367-23.957l0.003-0.067v-80.015c-0.755-13.424-11.824-24.024-25.37-24.024-0.394 0-0.787 0.009-1.176 0.027l0.055-0.002h-88.358c-0.335-0.016-0.727-0.025-1.121-0.025-13.545 0-24.615 10.6-25.367 23.957l-0.003 0.067zM706.864 168.028c0.755 13.424 11.824 24.024 25.37 24.024 0.394 0 0.787-0.009 1.176-0.027l-0.055 0.002h88.358c0.335 0.016 0.727 0.025 1.121 0.025 13.545 0 24.615-10.6 25.367-23.957l0.003-0.067v-80.232c-0.755-13.424-11.824-24.024-25.37-24.024-0.394 0-0.787 0.009-1.176 0.027l0.055-0.002h-88.358c-0.335-0.016-0.727-0.025-1.121-0.025-13.545 0-24.615 10.6-25.367 23.957l-0.003 0.067zM424.13 424.001c0.755 13.424 11.824 24.024 25.37 24.024 0.394 0 0.787-0.009 1.176-0.027l-0.055 0.002h88.358c0.335 0.016 0.727 0.025 1.121 0.025 13.545 0 24.615-10.6 25.367-23.957l0.003-0.067v-80.015c-0.755-13.424-11.824-24.024-25.37-24.024-0.394 0-0.787 0.009-1.176 0.027l0.055-0.002h-88.358c-0.335-0.016-0.727-0.025-1.121-0.025-13.545 0-24.615 10.6-25.367 23.957l-0.003 0.067zM424.13 168.028c0.755 13.424 11.824 24.024 25.37 24.024 0.394 0 0.787-0.009 1.176-0.027l-0.055 0.002h88.358c0.335 0.016 0.727 0.025 1.121 0.025 13.545 0 24.615-10.6 25.367-23.957l0.003-0.067v-80.232c-0.755-13.424-11.824-24.024-25.37-24.024-0.394 0-0.787 0.009-1.176 0.027l0.055-0.002h-88.358c-0.335-0.016-0.727-0.025-1.121-0.025-13.545 0-24.615 10.6-25.367 23.957l-0.003 0.067zM141.395 424.001c0.753 13.425 11.824 24.026 25.37 24.026 0.413 0 0.824-0.010 1.233-0.029l-0.058 0.002h88.304c0.335 0.016 0.727 0.025 1.121 0.025 13.545 0 24.615-10.6 25.367-23.957l0.003-0.067v-80.015c-0.755-13.424-11.824-24.024-25.37-24.024-0.394 0-0.787 0.009-1.176 0.027l0.055-0.002h-88.304c-0.335-0.016-0.727-0.025-1.121-0.025-13.545 0-24.615 10.6-25.367 23.957l-0.003 0.067zM141.395 168.028c0.755 13.424 11.824 24.024 25.37 24.024 0.394 0 0.787-0.009 1.176-0.027l-0.055 0.002h88.358c0.335 0.016 0.727 0.025 1.121 0.025 13.545 0 24.615-10.6 25.367-23.957l0.003-0.067v-80.232c-0.755-13.424-11.824-24.024-25.37-24.024-0.394 0-0.787 0.009-1.176 0.027l0.055-0.002h-88.304c-0.351-0.017-0.762-0.027-1.175-0.027-13.546 0-24.617 10.601-25.367 23.96l-0.003 0.067zM883.581 831.986h-106.019v95.997c-1.015 17.911-15.787 32.051-33.862 32.051-0.532 0-1.062-0.012-1.588-0.037l0.075 0.003h-70.426c-0.436 0.020-0.946 0.031-1.46 0.031-18.074 0-32.845-14.139-33.858-31.959l-0.004-0.090v-95.997h-283.006v95.997c-1.017 17.91-15.788 32.048-33.862 32.048-0.513 0-1.024-0.011-1.532-0.034l0.072 0.003h-70.426c-0.436 0.020-0.946 0.031-1.46 0.031-18.074 0-32.845-14.139-33.858-31.959l-0.004-0.090v-95.997h-106.344c-1.416 0.071-3.075 0.111-4.744 0.111-54.143 0-98.376-42.429-101.264-95.851l-0.011-0.257v-95.997h989.599v95.997c-2.899 53.679-47.132 96.108-101.275 96.108-1.668 0-3.328-0.040-4.976-0.12l0.232 0.009z" />
<glyph unicode="&#xe94a;" glyph-name="chat3" d="M0-64v0l0.536 921.493c0 0.032 0 0.070 0 0.108 0 56.333 45.56 102.025 101.844 102.238h819.22c56.487-0.091 102.255-45.859 102.346-102.337v-614.463c-0.061-56.5-45.846-102.285-102.34-102.346h-716.806l-204.8-204.693zM554.139 711.452v-193.595l56.132-2.788c16.727 0 25.198-12.277 25.198-36.51-2.431-38.040-11.466-73.376-25.972-105.725l0.774 1.931h56.132l84.118 143.092v193.595zM273.531 711.452v-193.595l56.132-2.788c16.781 0 25.252-12.277 25.252-36.51-2.431-38.043-11.485-73.379-26.024-105.716l0.773 1.922h56.132l84.172 143.092v193.595z" />
<glyph unicode="&#xe94b;" glyph-name="chatboxes" d="M930.286 658.706h-545.53c-51.789-0.057-93.757-42.025-93.814-93.808v-380.061c0.085-51.692 42.010-93.564 93.714-93.564 0.035 0 0.070 0 0.106 0h311.99c7.315-0.097 13.911-3.098 18.702-7.901l0.001-0.001 155.023-143.021c8.601-8.351 22.903-5.001 22.903 7.151v124.818c0 15.002 9.351 19.453 24.104 19.453h2.45c0.457-0.007 0.996-0.012 1.537-0.012 53.46 0 97.358 40.941 102.050 93.181l0.029 0.395v379.556c0.001 0.119 0.001 0.259 0.001 0.4 0 51.539-41.738 93.329-93.256 93.414h-0.008zM311.296 719.015h436.564v160.724c-0.142 44.132-35.88 79.87-79.998 80.012h-587.6c-44.132-0.142-79.87-35.88-80.012-79.998v-406.674c0.142-44.132 35.88-79.87 79.998-80.012h150.386v245.636c0.17 44.391 36.196 80.312 80.611 80.312 0.018 0 0.036 0 0.053 0h-0.003z" />
<glyph unicode="&#xe94c;" glyph-name="chatbubbles" d="M942.755 289.006c0.008 11.075 3.034 21.441 8.299 30.324l-0.151-0.276c1.768 2.952 3.466 5.441 5.29 7.828l-0.147-0.2c42.496 62.372 67.88 139.363 67.955 222.279v0.018c-4.232 227.983-190.042 411.175-418.639 411.175-3.153 0-6.298-0.035-9.434-0.104l0.467 0.008c-1.751 0.026-3.817 0.041-5.887 0.041-199.953 0-367.625-138.214-412.689-324.316l-0.593-2.901c-5.782-25.295-9.106-54.349-9.13-84.175v-0.017c0.846-229.966 187.465-416.062 417.548-416.062 1.179 0 2.357 0.005 3.534 0.015l-0.18-0.001c42.146 1.96 81.887 8.752 119.789 19.853l-3.584-0.9c27.794 7.628 55.358 17.74 62.523 20.456 6.799 2.634 14.669 4.161 22.894 4.161 0.077 0 0.154 0 0.232 0h-0.012c0.079 0 0.172 0.001 0.265 0.001 8.871 0 17.321-1.806 25.001-5.070l-0.419 0.158 139.55-49.464c2.799-1.228 6.046-2.106 9.445-2.472l0.147-0.013c0.034 0 0.075 0 0.116 0 10.819 0 19.589 8.77 19.589 19.589 0 0.041 0 0.081 0 0.122v-0.006c-0.184 2.441-0.615 4.704-1.272 6.869l0.058-0.224zM665.967 112.012c-8.841-2.485-20.167-5.143-32.475-7.859-24.652-5.909-53.362-9.888-82.791-11.067l-0.881-0.028c-1.099-0.010-2.399-0.016-3.7-0.016-230.145 0-416.802 186.196-417.549 416.167v0.072c0.257 18.852 1.593 37.115 3.951 55.056l-0.253-2.357c1.502 10.575 3.178 21.149 5.778 31.493s5.432 22.131 8.61 32.995l-19.705-17.335c-77.559-67.133-126.512-165.518-127.126-275.352v-0.107c0-0.187-0.001-0.408-0.001-0.629 0-75.006 22.796-144.688 61.838-202.496l-0.817 1.283c5.778-8.61 8.841-15.255 7.859-19.705s-29.297-152.609-29.297-152.609c-0.24-1.156-0.378-2.485-0.378-3.845 0-6.047 2.716-11.459 6.994-15.084l0.029-0.024c3.397-2.76 7.771-4.436 12.536-4.449h0.003c0.010 0 0.021 0 0.033 0 2.581 0 5.034 0.553 7.244 1.547l-0.112-0.045 138.105 54.375c4.157 1.699 8.98 2.694 14.033 2.716h0.009c0.030 0 0.065 0 0.1 0 5.562 0 10.851-1.169 15.635-3.276l-0.249 0.098c44.206-18.15 95.484-28.923 149.213-29.468l0.218-0.002c0.468-0.002 1.023-0.003 1.577-0.003 117.475 0 222.712 52.4 293.612 135.102l0.437 0.521s7.859 10.806 16.989 23.634c-8.957-3.236-19.242-6.587-29.47-9.303z" />
<glyph unicode="&#xe94d;" glyph-name="code-branch" horiz-adv-x="1365" d="M981.329-64c117.52 0.219 212.704 95.538 212.704 213.089 0 117.686-95.403 213.089-213.089 213.089-96.209 0-177.526-63.759-204.002-151.329l-0.392-1.509c-1.395-0.043-3.035-0.067-4.682-0.067-35.090 0-67.608 11.012-94.288 29.768l0.522-0.348c-51.195 41.073-59.718 131.476-68.508 227.206-2.597 78.674-18.911 152.82-46.614 221.131l1.546-4.313h383.987c28.035-87.181 108.416-149.162 203.274-149.162 117.686 0 213.089 95.403 213.089 213.089s-95.403 213.089-213.089 213.089c-94.858 0-175.239-61.981-202.854-147.654l-0.42-1.508h-531.444c-27.939 87.808-108.761 150.307-204.18 150.307-118.098 0-213.835-95.737-213.835-213.835s95.737-213.835 213.835-213.835c90.301 0 167.528 55.973 198.88 135.117l0.505 1.447c15.483-9.592 27.717-23.109 35.501-39.182l0.244-0.559c20.196-52.151 32.57-112.466 34.082-175.471l0.012-0.647c10.654-112.511 22.374-239.992 115.707-315.212 47.462-36.026 107.529-57.712 172.661-57.712 2.977 0 5.943 0.045 8.897 0.135l-0.433-0.010c29.593-85.003 108.965-144.944 202.361-145.114h0.021zM1194.844 746.911c0-23.537-19.081-42.618-42.618-42.618s-42.618 19.081-42.618 42.618c0 23.537 19.081 42.618 42.618 42.618v0c23.537 0 42.618-19.081 42.618-42.618v0zM170.631 746.911c0 23.537 19.081 42.618 42.618 42.618s42.618-19.081 42.618-42.618c0-23.537-19.081-42.618-42.618-42.618v0c-23.537 0-42.618 19.081-42.618 42.618v0zM1024 149.356c0-23.537-19.081-42.618-42.618-42.618s-42.618 19.081-42.618 42.618c0 23.537 19.081 42.618 42.618 42.618v0c23.537 0 42.618-19.081 42.618-42.618v0z" />
<glyph unicode="&#xe94e;" glyph-name="metro-tree" horiz-adv-x="1092" d="M1041.105 209.047h-17.336v221.847c-0.099 65.929-53.518 119.349-119.438 119.447h-290.105v136.553h17.336c28.237 0.098 51.102 22.963 51.2 51.191v170.714c-0.098 28.237-22.963 51.102-51.191 51.2h-170.772c-28.237-0.098-51.102-22.963-51.2-51.191v-170.945c0.098-28.237 22.963-51.102 51.191-51.2h17.345v-136.553h-290.442c-65.929-0.099-119.349-53.518-119.447-119.438v-221.857h-17.336c-28.237-0.098-51.102-22.963-51.2-51.191v-170.656c0.098-28.237 22.963-51.102 51.191-51.2h170.945c28.237 0.098 51.102 22.963 51.2 51.191v170.888c-0.098 28.237-22.963 51.102-51.191 51.2h-17.345v204.8h273.336v-204.8h-17.336c-28.237-0.098-51.102-22.963-51.2-51.191v-170.656c0.098-28.237 22.963-51.102 51.191-51.2h171.061c28.237 0.098 51.102 22.963 51.2 51.191v170.656c-0.098 28.237-22.963 51.102-51.191 51.2h-17.345v204.8h273.047v-204.8h-17.336c-28.237-0.098-51.102-22.963-51.2-51.191v-170.656c0.098-28.237 22.963-51.102 51.191-51.2h170.656c28.237 0.098 51.102 22.963 51.2 51.191v170.656c-0.098 28.237-22.963 51.102-51.191 51.2h-0.009zM204.8 3.958h-136.553v136.842h136.553v-136.842zM614.4 3.958h-136.553v136.842h136.379v-136.842zM477.847 755.2v136.553h136.379v-136.553h-136.379zM1024 3.958h-136.553v136.842h136.553v-136.842z" />
<glyph unicode="&#xe94f;" glyph-name="phone-forwarded" d="M768 448l256 256-256 256v-153.6h-204.8v-204.8h204.8zM870.4 217.6c-0.254 0-0.555-0.001-0.856-0.001-65.057 0-127.618 10.681-186.028 30.385l4.1-1.2c-4.732 1.557-10.178 2.455-15.834 2.455-14.152 0-26.99-5.623-36.403-14.756l-112.627-112.627c-146.030 75.379-262.075 191.461-335.386 333.223l-2.022 4.299 112.64 113.152c9.446 8.975 15.322 21.63 15.322 35.657 0 5.56-0.923 10.905-2.625 15.888l0.103-0.346c-18.504 54.309-29.184 116.871-29.184 181.927 0 0.261 0 0.522 0.001 0.784v-0.041c0 28.277-22.923 51.2-51.2 51.2h-179.2c-28.277 0-51.2-22.923-51.2-51.2v0c0-480.709 389.691-870.4 870.4-870.4v0c28.277 0 51.2 22.923 51.2 51.2v0 179.2c0 28.277-22.923 51.2-51.2 51.2v0z" />
<glyph unicode="&#xe950;" glyph-name="user-cog" horiz-adv-x="1280" d="M1221.006 213.39c2.489 12.828 3.912 27.581 3.912 42.667s-1.424 29.838-4.144 44.131l0.232-1.465 51.598 29.81c4.396 2.548 7.306 7.231 7.306 12.593 0 1.599-0.259 3.137-0.736 4.576l0.029-0.102c-14.142 44.646-36.918 83.052-66.564 114.992l0.175-0.19c-2.668 2.877-6.469 4.672-10.689 4.672-2.753 0-5.328-0.764-7.524-2.092l0.065 0.037-51.2-29.81c-20.942 17.924-45.494 32.383-72.321 42.093l-1.635 0.517v59.563c0 0.003 0 0.007 0 0.011 0 6.914-4.818 12.703-11.28 14.192l-0.098 0.019c-19.89 4.675-42.727 7.355-66.19 7.355s-46.301-2.68-68.223-7.751l2.033 0.396c-6.56-1.508-11.378-7.297-11.378-14.211 0-0.004 0-0.008 0-0.012v0.001-59.563c-28.461-10.227-53.014-24.685-74.276-42.878l0.321 0.268-51.598 29.81c-2.079 1.205-4.574 1.915-7.234 1.915-4.242 0-8.063-1.807-10.734-4.693l-0.009-0.010c-29.473-31.702-52.264-70.047-65.859-112.506l-0.588-2.125c-0.42-1.306-0.662-2.809-0.662-4.368 0-5.382 2.886-10.090 7.194-12.661l0.067-0.037 51.598-29.81c-2.489-12.828-3.912-27.581-3.912-42.667s1.424-29.838 4.144-44.131l-0.232 1.465-51.598-29.81c-4.396-2.548-7.306-7.231-7.306-12.593 0-1.599 0.259-3.137 0.736-4.576l-0.029 0.102c14.188-44.633 36.957-83.030 66.569-114.998l-0.179 0.196c2.671-2.904 6.489-4.718 10.731-4.718 2.666 0 5.165 0.717 7.315 1.968l-0.069-0.037 51.598 29.81c20.942-17.924 45.494-32.383 72.321-42.093l1.635-0.517v-59.62c0-0.003 0-0.007 0-0.011 0-6.914 4.818-12.703 11.28-14.192l0.098-0.019c19.89-4.675 42.727-7.355 66.19-7.355s46.301 2.68 68.223 7.751l-2.033-0.396c6.56 1.508 11.378 7.297 11.378 14.211 0 0.004 0 0.008 0 0.012v-0.001 59.676c28.461 10.227 53.014 24.685 74.276 42.878l-0.321-0.268 51.598-29.81c2.079-1.205 4.574-1.915 7.234-1.915 4.242 0 8.063 1.807 10.734 4.693l0.009 0.010c29.471 31.75 52.248 70.156 65.804 112.677l0.585 2.125c0.42 1.306 0.662 2.809 0.662 4.368 0 5.382-2.886 10.090-7.194 12.661l-0.067 0.037-51.598 29.81zM992.028 159.004c-53.569 0-96.996 43.426-96.996 96.996s43.426 96.996 96.996 96.996c53.569 0 96.996-43.426 96.996-96.996v0c-0.065-53.563-43.485-96.963-97.049-96.996h-0.003zM448 448c141.385 0 256 114.615 256 256s-114.615 256-256 256c-141.385 0-256-114.615-256-256v0c0-141.385 114.615-256 256-256v0zM850.375-5.006c-4.608 2.389-9.216 5.177-13.596 7.794l-15.815-9.216c-11.287-6.66-24.87-10.595-39.372-10.595-22.755 0-43.247 9.688-57.577 25.164l-0.047 0.051c-35.672 38.517-63.247 85.083-79.673 136.625l-0.711 2.582c-2.294 7.028-3.617 15.115-3.617 23.512 0 28.918 15.692 54.171 39.025 67.708l0.375 0.201 15.815 9.216q-0.284 7.794 0 15.588l-15.815 9.216c-23.718 13.707-39.423 38.947-39.423 67.855 0 8.417 1.331 16.522 3.795 24.118l-0.155-0.553c1.82 5.689 4.38 11.378 6.428 17.408-7.623 0.626-15.019 2.389-22.756 2.389h-33.394c-42.77-20.206-92.911-32.002-145.806-32.002s-103.036 11.796-147.934 32.901l2.128-0.899h-33.451c-148.461-0.032-268.8-120.391-268.8-268.857v0-83.172c0-53.015 42.961-95.996 95.969-96.028h704.003c20.349 0.050 39.199 6.429 54.695 17.272l-0.31-0.205c-2.422 7.029-3.871 15.131-3.982 23.556l-0.001 0.053z" />
<glyph unicode="&#xe951;" glyph-name="bell" d="M526.938-37.858c0 0 0 0 0 0 68.778 0 124.55 55.687 124.687 124.433v0.013h-249.374c0.137-68.759 55.909-124.446 124.687-124.446 0 0 0 0 0 0v0zM946.718 253.922c-37.647 40.478-108.122 101.316-108.122 300.695 0 0.052 0 0.114 0 0.175 0 149.326-106.335 273.816-247.414 301.881l-1.96 0.325v40.659c0 34.431-27.912 62.344-62.344 62.344s-62.344-27.912-62.344-62.344v0-40.659c-143.039-28.39-249.374-152.88-249.374-302.206 0-0.062 0-0.123 0-0.185v0.009c0-199.379-70.475-260.277-108.122-300.695-10.404-10.905-16.806-25.708-16.806-42.005 0-0.056 0-0.112 0-0.168v0.009c0-0.036 0-0.079 0-0.121 0-34.465 27.939-62.404 62.404-62.404 0.106 0 0.212 0 0.318 0.001h747.986c0.125-0.001 0.273-0.001 0.422-0.001 34.444 0 62.37 27.906 62.404 62.342v0.003c0 0.054 0 0.119 0 0.183 0 16.29-6.402 31.085-16.828 42.005l0.022-0.024z" />
<glyph unicode="&#xe952;" glyph-name="clipboard" d="M912.64 731.136v-719.258c0-54.179-43.921-98.099-98.099-98.099v0h-588.442c-54.179 0-98.099 43.921-98.099 98.099v0 719.258c0 54.179 43.921 98.099 98.099 98.099v0h163.43c0 72.219 58.545 130.765 130.765 130.765s130.765-58.545 130.765-130.765v0h163.482c54.179 0 98.099-43.921 98.099-98.099v0zM520.294 878.080c-27.089 0-49.050-21.96-49.050-49.050s21.96-49.050 49.050-49.050c27.089 0 49.050 21.96 49.050 49.050v0c0 27.089-21.96 49.050-49.050 49.050v0zM716.442 645.12v40.96c0 6.758-5.479 12.237-12.237 12.237v0h-367.77c-6.758 0-12.237-5.479-12.237-12.237v0-40.96c0-6.758 5.479-12.237 12.237-12.237v0h367.821c0.001 0 0.001 0 0.002 0 6.758 0 12.237 5.479 12.237 12.237 0 0.072-0.001 0.144-0.002 0.216v-0.011z" />
<glyph unicode="&#xe953;" glyph-name="credit-card1" d="M0 152.948c1.744-43.092 37.1-77.366 80.462-77.366 1.037 0 2.069 0.020 3.096 0.058l-0.148-0.004h833.908c0.879-0.034 1.911-0.054 2.948-0.054 43.361 0 78.718 34.274 80.457 77.208l0.005 0.158v283.415h-1000.727zM333.591 262.47c0.481 10.774 9.332 19.327 20.182 19.327 0.236 0 0.471-0.004 0.704-0.012l-0.034 0.001h236.265c0.2 0.007 0.435 0.011 0.671 0.011 10.849 0 19.701-8.553 20.18-19.284l0.002-0.043v-64.419c-0.481-10.774-9.332-19.327-20.182-19.327-0.236 0-0.471 0.004-0.704 0.012l0.034-0.001h-236.311c-0.2-0.007-0.435-0.011-0.671-0.011-10.849 0-19.701 8.553-20.18 19.284l-0.002 0.043zM111.197 262.47c0.481 10.774 9.332 19.327 20.182 19.327 0.236 0 0.471-0.004 0.704-0.012l-0.034 0.001h125.068c0.2 0.007 0.435 0.011 0.671 0.011 10.849 0 19.701-8.553 20.18-19.284l0.002-0.043v-64.419c-0.481-10.774-9.332-19.327-20.182-19.327-0.236 0-0.471 0.004-0.704 0.012l0.034-0.001h-125.068c-0.2-0.007-0.435-0.011-0.671-0.011-10.849 0-19.701 8.553-20.18 19.284l-0.002 0.043zM1000.727 719.779v-77.265h-1000.727v77.265c1.744 43.092 37.1 77.366 80.462 77.366 1.037 0 2.069-0.020 3.096-0.058l-0.148 0.004h833.908c0.879 0.034 1.911 0.054 2.948 0.054 43.361 0 78.718-34.274 80.457-77.208l0.005-0.158z" />
<glyph unicode="&#xe954;" glyph-name="email" d="M924.786 817.778h-822.044c-1.328 0.064-2.884 0.101-4.449 0.101-52.421 0-95.236-41.126-97.941-92.873l-0.010-0.241-0.341-558.251c2.956-52.034 45.872-93.11 98.382-93.11 1.533 0 3.058 0.035 4.574 0.104l-0.215-0.008h822.044c1.301-0.061 2.826-0.096 4.359-0.096 52.51 0 95.427 41.076 98.37 92.849l0.012 0.26v558.251c-2.956 52.034-45.872 93.11-98.382 93.11-1.533 0-3.058-0.035-4.574-0.104l0.215 0.008zM924.786 631.694l-411.022-232.619-411.022 232.619v93.070l411.022-232.619 411.022 232.619z" />
<glyph unicode="&#xe955;" glyph-name="phone1" d="M986.852 910.79l-207.994 47.964c-3.216 0.763-6.909 1.201-10.705 1.201-19.697 0-36.641-11.79-44.159-28.698l-0.122-0.308-96.267-224.019c-2.448-5.56-3.872-12.042-3.872-18.857 0-14.954 6.859-28.305 17.603-37.080l0.086-0.068 121.183-99.212c-74.873-156.325-198.051-279.504-349.927-352.451l-4.449-1.926-98.985 121.24c-8.863 10.817-22.223 17.665-37.182 17.665-6.801 0-13.271-1.415-19.132-3.968l0.309 0.12-224.019-96.267c-17.309-7.688-29.162-24.727-29.162-44.535 0-3.785 0.433-7.469 1.252-11.005l-0.064 0.328 48.020-207.994c5.068-21.471 24.067-37.204 46.741-37.204 0.012 0 0.023 0 0.035 0h-0.002c0.034 0 0.073 0 0.113 0 512.466 0 927.903 415.436 927.903 927.903 0 0.12 0 0.239 0 0.359v-0.019c0 0.027 0 0.058 0 0.090 0 22.674-15.734 41.674-36.879 46.676l-0.325 0.065z" />
<glyph unicode="&#xe956;" glyph-name="reply" d="M398.228 651.614v227.544l-398.228-398.228 398.228-398.228v233.256c284.456 0 483.544-91.028 625.772-290.115-56.913 284.403-227.544 568.859-625.772 625.772z" />
<glyph unicode="&#xe957;" glyph-name="send" horiz-adv-x="1001" d="M386.753-63.822l420.668 689.127-807.135-19.746 150.002-260.464 481.646 178.893-395.749-327.671z" />
<glyph unicode="&#xe958;" glyph-name="wrench" d="M1015.45 741.804c-2.713 10.478-12.083 18.092-23.232 18.092-6.638 0-12.646-2.699-16.986-7.060l-148.737-148.737-135.752 22.643-22.643 135.752 148.736 148.683c4.321 4.35 6.992 10.343 6.992 16.961 0 11.24-7.705 20.68-18.121 23.328l-0.166 0.036c-20.933 5.471-44.964 8.612-69.729 8.612-158.285 0-286.6-128.315-286.6-286.6 0-33.030 5.587-64.755 15.869-94.281l-0.61 2.011-426.997-426.785c-22.276-23.002-36.006-54.397-36.006-88.998 0-70.689 57.305-127.993 127.993-127.993 34.601 0 65.995 13.73 89.032 36.039l-0.034-0.033 426.416 426.416c27.51-9.652 59.229-15.228 92.249-15.228 158.518 0 287.022 128.504 287.022 287.022 0 24.906-3.172 49.071-9.135 72.113l0.438-1.993zM127.993 16.016c-26.497 0-47.978 21.48-47.978 47.978s21.48 47.978 47.978 47.978c26.497 0 47.978-21.48 47.978-47.978v0c-0.030-26.485-21.492-47.948-47.975-47.978h-0.003z" />
<glyph unicode="&#xe959;" glyph-name="wifi" horiz-adv-x="1463" d="M1451.232 679.157c-188.672 174.103-441.768 280.866-719.799 280.866s-531.127-106.763-720.527-281.529l0.727 0.663c-7.157-6.658-11.62-16.13-11.62-26.643 0-10.13 4.143-19.293 10.828-25.886l0.004-0.004 78.224-77.679c6.699-6.592 15.897-10.663 26.046-10.663 9.716 0 18.561 3.731 25.18 9.837l-0.025-0.023c155.313 142.113 363.054 229.184 591.133 229.184s435.819-87.070 591.798-229.784l-0.665 0.6c6.594-6.084 15.438-9.814 25.154-9.814 10.149 0 19.347 4.070 26.051 10.667l-0.005-0.005 78.284 77.618c6.671 6.594 10.803 15.745 10.803 25.861 0 10.529-4.476 20.012-11.628 26.651l-0.023 0.021zM731.403 228.597c-80.782 0-146.268-65.487-146.268-146.268s65.487-146.268 146.268-146.268c80.782 0 146.268 65.487 146.268 146.268v0c0 80.782-65.487 146.268-146.268 146.268v0zM1194.626 419.643c-122.921 108.449-285.357 174.649-463.254 174.649s-340.333-66.2-464.017-175.309l0.763 0.66c-7.438-6.685-12.095-16.337-12.095-27.076 0-10.096 4.115-19.23 10.759-25.818l0.003-0.003 78.769-77.679c6.734-6.639 15.987-10.739 26.198-10.739 9.264 0 17.74 3.375 24.265 8.963l-0.051-0.042c89.533 77.181 206.98 124.186 335.405 124.186s245.872-47.005 336.074-124.75l-0.669 0.563c6.47-5.558 14.949-8.943 24.218-8.943 10.213 0 19.467 4.109 26.198 10.764l78.766 77.675c6.664 6.593 10.791 15.739 10.791 25.849 0 10.725-4.644 20.365-12.030 27.019l-0.033 0.029z" />
<glyph unicode="&#xe95a;" glyph-name="attachment" horiz-adv-x="1862" d="M0 448.036c0 0.085 0 0.186 0 0.287 0 282.592 229.086 511.677 511.677 511.677 0.101 0 0.202 0 0.302 0h977.455c203.424-2.913 367.21-168.5 367.21-372.341s-163.786-369.428-366.936-372.338l-0.274-0.003h-791.283c-128.526 0-232.717 104.191-232.717 232.718s104.191 232.718 232.718 232.718h698.152v-186.403h-706.541c-51.189 0-51.189-93.202 0-93.202h799.671c99.023 4.908 177.451 86.389 177.451 186.188s-78.429 181.28-177.014 186.171l-0.437 0.017h-977.471c-179.941 0-325.812-145.871-325.812-325.812s145.871-325.812 325.812-325.812v0h884.341v-186.403h-884.341c-0.085 0-0.186 0-0.287 0-282.592 0-511.677 229.086-511.677 511.677 0 0.302 0 0.605 0.001 0.907v-0.047z" />
<glyph unicode="&#xe95b;" glyph-name="reply1" horiz-adv-x="1170" d="M18.981 599.219l402.298 347.41c9.536 8.118 21.996 13.056 35.61 13.056 30.243 0 54.795-24.371 55.086-54.546v-183.023c367.142-4.207 658.261-77.775 658.261-425.686-7.824-144.743-80.399-271.068-189.037-351.421l-1.27-0.897c-6.779-5.23-15.394-8.382-24.745-8.382-22.487 0-40.716 18.229-40.716 40.716 0 3.638 0.477 7.164 1.372 10.52l-0.065-0.284c103.667 331.434-49.179 419.426-403.65 424.534v-200.924c-0.292-30.202-24.843-54.573-55.086-54.573-13.614 0-26.074 4.938-35.688 13.121l0.078-0.065-402.448 347.41c-11.596 10.152-18.879 24.984-18.879 41.517s7.283 31.365 18.816 41.462l0.064 0.055z" />
<glyph unicode="&#xe95c;" glyph-name="search" d="M1009.861 74.686l-199.361 199.361c-8.67 8.637-20.629 13.977-33.836 13.977-0.065 0-0.13 0-0.195 0h-32.494c55.138 69.891 88.44 159.239 88.44 256.364 0 229.633-186.154 415.787-415.787 415.787s-415.787-186.154-415.787-415.787c0-229.633 186.154-415.787 415.787-415.787 96.577 0 185.463 32.927 256.045 88.167l-0.912-0.688v-32.504c0-0.055 0-0.12 0-0.185 0-13.207 5.34-25.167 13.979-33.838l199.36-199.36c8.657-8.706 20.642-14.094 33.886-14.094s25.229 5.388 33.884 14.092l0.002 0.002 56.829 56.341c8.763 8.732 14.186 20.811 14.186 34.157 0 13.265-5.357 25.279-14.025 33.996l0.002-0.002zM415.949 288.24c-0.048 0-0.105 0-0.162 0-141.37 0-255.973 114.603-255.973 255.973s114.603 255.973 255.973 255.973c141.37 0 255.973-114.603 255.973-255.973 0-0.057 0-0.114 0-0.171v0.009c0-141.28-114.53-255.81-255.81-255.81v0z" />
<glyph unicode="&#xe95d;" glyph-name="shopping-cart" d="M307.195 140.83c-56.562 0-102.415-45.853-102.415-102.415s45.853-102.415 102.415-102.415c56.562 0 102.415 45.853 102.415 102.415 0 0.035 0 0.070 0 0.106v-0.005c0 0.015 0 0.033 0 0.050 0 56.479-45.786 102.265-102.265 102.265-0.053 0-0.106 0-0.158 0h0.008zM0 960v-102.415h102.415l184.297-388.626-69.111-125.202c-8.064-14.014-12.821-30.816-12.821-48.729 0-0.141 0-0.281 0.001-0.422v0.022c0.17-56.494 45.921-102.245 102.399-102.415h614.306v102.215h-592.805c-0.045-0.001-0.098-0.001-0.151-0.001-6.998 0-12.67 5.673-12.67 12.67 0 0.053 0 0.106 0.001 0.159v-0.008l1.553 6.16 46.074 83.434h381.415c0.098 0 0.215-0.001 0.331-0.001 38.242 0 71.564 21.063 88.999 52.22l0.265 0.515 183.295 332.285c3.879 6.947 6.163 15.241 6.163 24.068 0 0.183-0.001 0.366-0.003 0.549v-0.028c-0.085 28.233-22.95 51.097-51.174 51.182h-757.428l-47.927 102.365zM819.17 140.83c-0.030 0-0.065 0-0.1 0-56.562 0-102.415-45.853-102.415-102.415s45.853-102.415 102.415-102.415c56.562 0 102.415 45.853 102.415 102.415 0 0.035 0 0.070 0 0.106v-0.005c0 0.015 0 0.032 0 0.050 0 56.479-45.786 102.265-102.265 102.265-0.018 0-0.035 0-0.053 0h0.003z" />
<glyph unicode="&#xe95e;" glyph-name="tag" d="M0 455.749v408.112c0 0.046 0 0.1 0 0.155 0 53.010 42.973 95.984 95.984 95.984 0 0 0 0 0 0h408.112c0.006 0 0.013 0 0.020 0 26.5 0 50.492-10.739 67.861-28.103l423.61-423.61c17.376-17.371 28.123-41.371 28.123-67.881s-10.747-50.51-28.123-67.881l-408.112-408.112c-17.371-17.376-41.371-28.123-67.881-28.123s-50.51 10.747-67.881 28.123l-423.61 423.61c-17.333 17.338-28.065 41.275-28.103 67.719v0.007zM223.997 831.987c-53.010 0-95.984-42.973-95.984-95.984s42.973-95.984 95.984-95.984c53.010 0 95.984 42.973 95.984 95.984v0c0 53.010-42.973 95.984-95.984 95.984v0z" />
</font>
</defs>
</svg>
